<svg preserveAspectRatio="none" width="100%" height="100%" overflow="visible" style="display: block;" viewBox="0 0 60 60" fill="none" xmlns="http://www.w3.org/2000/svg">
<g id="Link">
<path id="Vector" d="M56.25 20.6789C56.1559 23.9429 54.8138 27.0466 52.5 29.3508L44.3555 37.5C43.1693 38.6927 41.7583 39.6383 40.2042 40.282C38.65 40.9256 36.9837 41.2547 35.3016 41.25H35.2898C33.579 41.2488 31.8857 40.9047 30.3101 40.2381C28.7344 39.5715 27.3084 38.5959 26.1161 37.3689C24.9238 36.1419 23.9896 34.6884 23.3685 33.0943C22.7474 31.5001 22.4521 29.7977 22.5 28.0875C22.514 27.5902 22.7249 27.1189 23.0865 26.7771C23.448 26.4354 23.9305 26.2513 24.4277 26.2652C24.925 26.2792 25.3964 26.4902 25.7381 26.8517C26.0799 27.2132 26.264 27.6957 26.25 28.193C26.2159 29.4022 26.4244 30.606 26.8634 31.7332C27.3024 32.8604 27.9629 33.8882 28.8058 34.7558C29.6488 35.6235 30.6571 36.3133 31.7712 36.7847C32.8852 37.256 34.0825 37.4992 35.2922 37.5C36.4813 37.503 37.6593 37.2704 38.7579 36.8154C39.8566 36.3604 40.8542 35.6921 41.693 34.8492L49.8375 26.7047C51.5179 25.0031 52.4568 22.7059 52.4493 20.3145C52.4419 17.9231 51.4886 15.6317 49.7976 13.9407C48.1066 12.2497 45.8152 11.2964 43.4238 11.2889C41.0324 11.2815 38.7351 12.2204 37.0336 13.9008L34.4555 16.4789C34.101 16.8157 33.6289 17.0007 33.14 16.9944C32.6511 16.9882 32.1839 16.7912 31.8382 16.4454C31.4924 16.0996 31.2954 15.6325 31.2892 15.1436C31.2829 14.6546 31.4679 14.1826 31.8047 13.8281L34.3828 11.25C35.5723 10.0601 36.9845 9.11628 38.5388 8.47232C40.0931 7.82835 41.759 7.4969 43.4414 7.4969C45.1238 7.4969 46.7898 7.82835 48.3441 8.47232C49.8984 9.11628 51.3106 10.0601 52.5 11.25C53.732 12.4851 54.6998 13.9579 55.3445 15.5789C55.9892 17.1999 56.2973 18.9351 56.25 20.6789ZM25.5469 43.5141L22.9687 46.0922C22.1279 46.9387 21.1271 47.6095 20.0246 48.0658C18.9222 48.5221 17.74 48.7547 16.5469 48.75C14.757 48.7486 13.0076 48.2166 11.5199 47.2214C10.0322 46.2261 8.87287 44.8122 8.18839 43.1584C7.50392 41.5045 7.32502 39.6848 7.6743 37.9293C8.02359 36.1738 8.88537 34.5612 10.1508 33.2953L18.2812 25.1508C19.5618 23.8634 21.1999 22.9909 22.9828 22.6465C24.7656 22.302 26.6109 22.5016 28.2788 23.2194C29.9468 23.9371 31.3604 25.1398 32.336 26.6712C33.3117 28.2026 33.8044 29.992 33.75 31.807C33.736 32.3043 33.9201 32.7868 34.2619 33.1483C34.6036 33.5098 35.075 33.7208 35.5723 33.7348C36.0695 33.7488 36.552 33.5646 36.9135 33.2229C37.2751 32.8811 37.486 32.4098 37.5 31.9125C37.545 30.1714 37.2358 28.4393 36.5912 26.8213C35.9466 25.2033 34.98 23.7331 33.75 22.5C31.3481 20.0991 28.091 18.7504 24.6949 18.7504C21.2988 18.7504 18.0418 20.0991 15.6398 22.5L7.5 30.6445C5.70992 32.4339 4.49043 34.7137 3.99565 37.1959C3.50087 39.6782 3.75301 42.2513 4.7202 44.5903C5.68739 46.9293 7.32622 48.929 9.42959 50.3369C11.533 51.7447 14.0065 52.4975 16.5375 52.5C18.22 52.5049 19.8868 52.1759 21.4413 51.5322C22.9958 50.8885 24.4072 49.9429 25.5937 48.75L28.1719 46.1719C28.4753 45.8145 28.6338 45.3563 28.6162 44.8878C28.5985 44.4193 28.406 43.9744 28.0766 43.6408C27.7471 43.3072 27.3046 43.1092 26.8364 43.0857C26.3681 43.0623 25.908 43.2151 25.5469 43.5141Z" fill="var(--fill-0, #FFFDF1)"/>
</g>
</svg>
