<svg preserveAspectRatio="none" width="100%" height="100%" overflow="visible" style="display: block;" viewBox="0 0 60 60" fill="none" xmlns="http://www.w3.org/2000/svg">
<g id="Globe">
<path id="Vector" d="M30 5.625C25.1791 5.625 20.4664 7.05457 16.458 9.73293C12.4495 12.4113 9.32532 16.2181 7.48044 20.6721C5.63555 25.126 5.15284 30.027 6.09336 34.7553C7.03387 39.4836 9.35537 43.8268 12.7643 47.2357C16.1732 50.6446 20.5164 52.9661 25.2447 53.9066C29.973 54.8472 34.874 54.3644 39.3279 52.5196C43.7819 50.6747 47.5887 47.5505 50.2671 43.542C52.9454 39.5336 54.375 34.8209 54.375 30C54.3676 23.5376 51.7971 17.3421 47.2275 12.7725C42.6579 8.20291 36.4624 5.63244 30 5.625ZM50.625 30C50.6266 31.9021 50.364 33.7952 49.8445 35.625H40.8187C41.3938 31.897 41.3938 28.103 40.8187 24.375H49.8445C50.364 26.2048 50.6266 28.0979 50.625 30ZM23.9062 39.375H36.0937C34.8931 43.3092 32.8087 46.9168 30 49.9219C27.1924 46.916 25.1081 43.3087 23.9062 39.375ZM22.9922 35.625C22.3485 31.9026 22.3485 28.0974 22.9922 24.375H37.0266C37.6703 28.0974 37.6703 31.9026 37.0266 35.625H22.9922ZM9.375 30C9.37337 28.0979 9.63604 26.2048 10.1555 24.375H19.1812C18.6062 28.103 18.6062 31.897 19.1812 35.625H10.1555C9.63604 33.7952 9.37337 31.9021 9.375 30ZM36.0937 20.625H23.9062C25.1069 16.6908 27.1913 13.0832 30 10.0781C32.8076 13.084 34.8919 16.6913 36.0937 20.625ZM48.3586 20.625H40.0102C38.9579 16.7646 37.1845 13.1383 34.7836 9.9375C37.6845 10.6344 40.4004 11.9503 42.7451 13.795C45.0898 15.6397 47.008 17.9696 48.368 20.625H48.3586ZM25.2164 9.9375C22.8155 13.1383 21.0421 16.7646 19.9898 20.625H11.632C12.992 17.9696 14.9102 15.6397 17.2549 13.795C19.5996 11.9503 22.3155 10.6344 25.2164 9.9375ZM11.632 39.375H19.9898C21.0421 43.2354 22.8155 46.8617 25.2164 50.0625C22.3155 49.3656 19.5996 48.0497 17.2549 46.205C14.9102 44.3603 12.992 42.0304 11.632 39.375ZM34.7836 50.0625C37.1845 46.8617 38.9579 43.2354 40.0102 39.375H48.368C47.008 42.0304 45.0898 44.3603 42.7451 46.205C40.4004 48.0497 37.6845 49.3656 34.7836 50.0625Z" fill="var(--fill-0, #FFFDF1)"/>
</g>
</svg>
