<svg preserveAspectRatio="none" width="100%" height="100%" overflow="visible" style="display: block;" viewBox="0 0 545.459 531.622" fill="none" xmlns="http://www.w3.org/2000/svg">
<g id="Frame 2">
<path id="Vector 3" d="M0.65557 315.537L22.3979 287.873M248.247 0.515245L58.8164 241.536M112.348 357.724L264.153 164.423M106.815 455.585L309.798 197.966M332.621 216.639L153.844 442.79L150.04 452.473M120.993 530.969L354.061 234.62M156.956 530.969L375.5 251.564M192.227 530.969L399.36 268.854L414.921 249.144L472.669 219.405M301.154 530.969L486.501 295.826M22.3979 287.873L112.348 360.836M22.3979 287.873L28.9206 279.574M28.9206 279.574L342.303 530.969M28.9206 279.574L33.5409 273.695M33.5409 273.695L358.21 530.969M33.5409 273.695L40.0636 265.396M40.0636 265.396L375.5 530.969M40.0636 265.396L46.5863 257.097M46.5863 257.097L391.061 530.969M46.5863 257.097L52.8372 249.144M52.8372 249.144L405.239 530.969M52.8372 249.144L58.8164 241.536M58.8164 241.536L414.921 525.436" stroke="var(--stroke-0, #FFFDF1)" stroke-width="1.66763"/>
<path id="Vector 4" d="M64.6277 234.967L421.145 517.829" stroke="var(--stroke-0, #FFFDF1)" stroke-width="1.66763"/>
<path id="Vector 5" d="M69.4683 226.667L427.023 510.567" stroke="var(--stroke-0, #FFFDF1)" stroke-width="1.66763"/>
<path id="Vector 6" d="M75.6928 219.751L432.902 502.96" stroke="var(--stroke-0, #FFFDF1)" stroke-width="1.66763"/>
<path id="Vector 7" d="M81.5715 212.491L438.435 496.045" stroke="var(--stroke-0, #FFFDF1)" stroke-width="1.66763"/>
<path id="Vector 8" d="M87.7955 205.573L443.967 487.744" stroke="var(--stroke-0, #FFFDF1)" stroke-width="1.66763"/>
<path id="Vector 9" d="M92.9821 197.276L450.191 481.521" stroke="var(--stroke-0, #FFFDF1)" stroke-width="1.66763"/>
<path id="Vector 10" d="M98.5153 189.667L455.378 472.53" stroke="var(--stroke-0, #FFFDF1)" stroke-width="1.66763"/>
<path id="Vector 11" d="M105.086 182.752L461.604 465.615" stroke="var(--stroke-0, #FFFDF1)" stroke-width="1.66763"/>
<path id="Vector 12" d="M110.273 174.799L466.79 457.662" stroke="var(--stroke-0, #FFFDF1)" stroke-width="1.66763"/>
<path id="Vector 13" d="M117.189 168.227L473.36 451.089" stroke="var(--stroke-0, #FFFDF1)" stroke-width="1.66763"/>
<path id="Vector 14" d="M122.721 160.966L478.201 443.483" stroke="var(--stroke-0, #FFFDF1)" stroke-width="1.66763"/>
<path id="Vector 15" d="M128.6 153.359L483.734 435.53" stroke="var(--stroke-0, #FFFDF1)" stroke-width="1.66763"/>
<path id="Vector 16" d="M134.824 145.75L492.379 429.996" stroke="var(--stroke-0, #FFFDF1)" stroke-width="1.66763"/>
<path id="Vector 17" d="M140.357 138.49L501.369 424.81" stroke="var(--stroke-0, #FFFDF1)" stroke-width="1.66763"/>
<path id="Vector 18" d="M145.89 130.882L508.631 418.932" stroke="var(--stroke-0, #FFFDF1)" stroke-width="1.66763"/>
<path id="Vector 19" d="M151.077 123.275L518.314 413.745" stroke="var(--stroke-0, #FFFDF1)" stroke-width="1.66763"/>
<path id="Vector 20" d="M156.609 115.666L527.996 408.903" stroke="var(--stroke-0, #FFFDF1)" stroke-width="1.66763"/>
<path id="Vector 21" d="M536.295 404.062L163.18 109.063" stroke="var(--stroke-0, #FFFDF1)" stroke-width="1.66763"/>
<path id="Vector 22" d="M544.94 399.912L168.367 101.18" stroke="var(--stroke-0, #FFFDF1)" stroke-width="1.66763"/>
</g>
</svg>
