<svg preserveAspectRatio="none" width="100%" height="100%" overflow="visible" style="display: block;" viewBox="0 0 18 18" fill="none" xmlns="http://www.w3.org/2000/svg">
<g id="ArrowRight">
<path id="Vector" d="M16.6914 9.46482L10.7785 15.3777C10.6552 15.5009 10.488 15.5702 10.3137 15.5702C10.1394 15.5702 9.97217 15.5009 9.84889 15.3777C9.72561 15.2544 9.65636 15.0872 9.65636 14.9128C9.65636 14.7385 9.72561 14.5713 9.84889 14.448L14.6408 9.65698H1.77294C1.59869 9.65698 1.43159 9.58777 1.30838 9.46456C1.18517 9.34135 1.11595 9.17424 1.11595 9C1.11595 8.82576 1.18517 8.65865 1.30838 8.53544C1.43159 8.41223 1.59869 8.34302 1.77294 8.34302H14.6408L9.84889 3.55197C9.72561 3.4287 9.65636 3.2615 9.65636 3.08716C9.65636 2.91282 9.72561 2.74562 9.84889 2.62234C9.97217 2.49907 10.1394 2.42981 10.3137 2.42981C10.488 2.42981 10.6552 2.49907 10.7785 2.62234L16.6914 8.53518C16.7524 8.5962 16.8009 8.66866 16.834 8.74841C16.867 8.82817 16.884 8.91366 16.884 9C16.884 9.08634 16.867 9.17183 16.834 9.25158C16.8009 9.33134 16.7524 9.4038 16.6914 9.46482Z" fill="var(--fill-0, #FFFDF1)"/>
</g>
</svg>
