<svg width="106" height="82" viewBox="0 0 106 82" fill="none" xmlns="http://www.w3.org/2000/svg">
<g clip-path="url(#clip0_57_10991)">
<circle cx="38.2857" cy="8.00007" r="3.78571" fill="#071C41"/>
<circle cx="53.4285" cy="8.00007" r="3.78571" fill="#071C41"/>
<circle cx="68.5716" cy="8.00007" r="3.78571" fill="#071C41"/>
<circle cx="38.2857" cy="23.1431" r="3.78571" fill="#071C41"/>
<circle cx="53.4286" cy="23.1429" r="5.67857" fill="#071C41"/>
<circle cx="68.5714" cy="23.1432" r="7.57143" fill="#071C41"/>
<circle cx="8.00007" cy="38.2857" r="3.78571" fill="#071C41"/>
<circle cx="23.1429" cy="38.2857" r="3.78571" fill="#071C41"/>
<circle cx="38.2858" cy="38.2855" r="5.67857" fill="#071C41"/>
<circle cx="53.4284" cy="38.2858" r="7.57143" fill="#071C41"/>
<circle cx="68.5714" cy="38.2858" r="7.57143" fill="#071C41"/>
<circle cx="83.7142" cy="38.2858" r="7.57143" fill="#071C41"/>
<circle cx="98.8572" cy="38.2857" r="3.78571" fill="#071C41"/>
<circle cx="8.00007" cy="53.4288" r="3.78571" fill="#071C41"/>
<circle cx="23.1429" cy="53.4288" r="3.78571" fill="#071C41"/>
<circle cx="38.2857" cy="53.4288" r="3.78571" fill="#071C41"/>
<circle cx="53.4286" cy="53.4286" r="5.67857" fill="#071C41"/>
<circle cx="68.5714" cy="53.4289" r="7.57143" fill="#071C41"/>
<circle cx="83.7145" cy="53.4286" r="5.67857" fill="#071C41"/>
<circle cx="98.8572" cy="53.4288" r="3.78571" fill="#071C41"/>
<circle cx="8.00007" cy="68.5714" r="3.78571" fill="#071C41"/>
<circle cx="23.1429" cy="68.5714" r="3.78571" fill="#071C41"/>
<circle cx="38.2857" cy="68.5714" r="3.78571" fill="#071C41"/>
<circle cx="53.4285" cy="68.5714" r="3.78571" fill="#071C41"/>
<circle cx="68.5716" cy="68.5712" r="5.67857" fill="#071C41"/>
<circle cx="83.7144" cy="68.5714" r="3.78571" fill="#071C41"/>
<circle cx="98.8572" cy="68.5714" r="3.78571" fill="#071C41"/>
<circle cx="38.2857" cy="83.7144" r="3.78571" fill="#071C41"/>
<circle cx="53.4285" cy="83.7144" r="3.78571" fill="#071C41"/>
<circle cx="68.5716" cy="83.7144" r="3.78571" fill="#071C41"/>
</g>
<defs>
<clipPath id="clip0_57_10991">
<rect width="106" height="106" fill="white"/>
</clipPath>
</defs>
</svg>
