<svg width="106" height="82" viewBox="0 0 106 82" fill="none" xmlns="http://www.w3.org/2000/svg">
<g clip-path="url(#clip0_57_10898)">
<circle cx="82.8571" cy="82.8569" r="3.78571" transform="rotate(180 82.8571 82.8569)" fill="white"/>
<circle cx="67.7143" cy="82.8569" r="3.78571" transform="rotate(180 67.7143 82.8569)" fill="white"/>
<circle cx="37.4284" cy="82.8569" r="3.78571" transform="rotate(180 37.4284 82.8569)" fill="white"/>
<circle cx="22.2856" cy="82.8569" r="3.78571" transform="rotate(180 22.2856 82.8569)" fill="white"/>
<circle cx="97.9999" cy="67.7143" r="3.78571" transform="rotate(180 97.9999 67.7143)" fill="white"/>
<circle cx="82.8573" cy="67.7142" r="7.57143" transform="rotate(180 82.8573 67.7142)" fill="white"/>
<circle cx="52.5714" cy="67.7145" r="5.67857" transform="rotate(180 52.5714 67.7145)" fill="white"/>
<circle cx="37.4284" cy="67.7143" r="3.78571" transform="rotate(180 37.4284 67.7143)" fill="white"/>
<circle cx="98.0001" cy="52.5711" r="7.57143" transform="rotate(180 98.0001 52.5711)" fill="white"/>
<circle cx="82.8573" cy="52.5711" r="7.57143" transform="rotate(180 82.8573 52.5711)" fill="white"/>
<circle cx="52.5716" cy="52.5711" r="7.57143" transform="rotate(180 52.5716 52.5711)" fill="white"/>
<circle cx="37.4284" cy="52.5714" r="5.67857" transform="rotate(180 37.4284 52.5714)" fill="white"/>
<circle cx="97.9999" cy="37.4286" r="3.78571" transform="rotate(180 97.9999 37.4286)" fill="white"/>
<circle cx="82.8573" cy="37.4286" r="7.57143" transform="rotate(180 82.8573 37.4286)" fill="white"/>
<circle cx="52.5714" cy="37.4288" r="5.67857" transform="rotate(180 52.5714 37.4288)" fill="white"/>
<circle cx="37.4284" cy="37.4286" r="3.78571" transform="rotate(180 37.4284 37.4286)" fill="white"/>
<circle cx="82.8571" cy="22.2856" r="3.78571" transform="rotate(180 82.8571 22.2856)" fill="white"/>
<circle cx="67.7143" cy="22.2856" r="3.78571" transform="rotate(180 67.7143 22.2856)" fill="white"/>
<circle cx="37.4284" cy="22.2856" r="3.78571" transform="rotate(180 37.4284 22.2856)" fill="white"/>
<circle cx="22.2856" cy="22.2856" r="3.78571" transform="rotate(180 22.2856 22.2856)" fill="white"/>
<circle cx="52.5715" cy="7.143" r="3.78571" transform="rotate(180 52.5715 7.143)" fill="white"/>
<circle cx="67.7143" cy="7.143" r="3.78571" transform="rotate(180 67.7143 7.143)" fill="white"/>
<circle cx="22.2856" cy="7.143" r="3.78571" transform="rotate(180 22.2856 7.143)" fill="white"/>
<circle cx="7.14275" cy="7.143" r="3.78571" transform="rotate(180 7.14275 7.143)" fill="white"/>
</g>
<defs>
<clipPath id="clip0_57_10898">
<rect width="106" height="106" fill="white" transform="matrix(-1 0 0 -1 106 106)"/>
</clipPath>
</defs>
</svg>
