<svg width="106" height="82" viewBox="0 0 106 82" fill="none" xmlns="http://www.w3.org/2000/svg">
<g clip-path="url(#clip0_57_10946)">
<circle cx="23.1429" cy="7.99986" r="5.67857" fill="white"/>
<circle cx="38.2857" cy="8.00007" r="3.78571" fill="white"/>
<circle cx="68.5716" cy="8.00007" r="3.78571" fill="white"/>
<circle cx="83.7142" cy="8.00014" r="7.57143" fill="white"/>
<circle cx="8.0001" cy="23.1429" r="5.67857" fill="white"/>
<circle cx="23.1429" cy="23.1429" r="5.67857" fill="white"/>
<circle cx="83.7142" cy="23.1432" r="7.57143" fill="white"/>
<circle cx="98.8571" cy="23.1432" r="7.57143" fill="white"/>
<circle cx="8.00007" cy="38.2857" r="3.78571" fill="white"/>
<circle cx="98.8572" cy="38.2857" r="3.78571" fill="white"/>
<circle cx="8.00007" cy="68.5714" r="3.78571" fill="white"/>
<circle cx="98.8572" cy="68.5714" r="3.78571" fill="white"/>
<circle cx="8.0001" cy="83.7142" r="5.67857" fill="white"/>
<circle cx="23.1427" cy="83.7145" r="7.57143" fill="white"/>
<circle cx="83.7145" cy="83.7142" r="5.67857" fill="white"/>
<circle cx="98.8572" cy="83.7144" r="3.78571" fill="white"/>
<circle cx="53.4286" cy="38.2855" r="5.67857" fill="white"/>
<circle cx="38.2857" cy="53.4288" r="3.78571" fill="white"/>
<circle cx="53.4284" cy="53.4289" r="7.57143" fill="white"/>
<circle cx="68.5716" cy="53.4286" r="5.67857" fill="white"/>
<circle cx="53.4286" cy="68.5712" r="5.67857" fill="white"/>
</g>
<defs>
<clipPath id="clip0_57_10946">
<rect width="106" height="106" fill="white"/>
</clipPath>
</defs>
</svg>
