<svg preserveAspectRatio="none" width="100%" height="100%" overflow="visible" style="display: block;" viewBox="0 0 167.533 28" fill="none" xmlns="http://www.w3.org/2000/svg">
<g id="Group">
<g id="Group_2">
<path id="Vector" d="M50.4554 26.2334V5.05174H43.9207V2.1412H60.0941V5.05174H53.6558V26.2334H50.4554Z" fill="var(--fill-0, #FFFDF1)"/>
<path id="Vector_2" d="M60.8703 26.2335V8.80231H63.8138V12.0018L63.4927 11.547C63.9048 10.5572 64.5256 9.82421 65.3712 9.34804C66.2115 8.85046 67.239 8.60435 68.4432 8.60435H69.5082V11.4507H67.9883C66.7574 11.4507 65.7673 11.8413 65.0126 12.617C64.258 13.3714 63.878 14.4468 63.878 15.8486V26.2281H60.8703V26.2335Z" fill="var(--fill-0, #FFFDF1)"/>
<path id="Vector_3" d="M77.2896 26.6241C76.1443 26.6241 75.1328 26.4207 74.2498 26.0088C73.3881 25.5754 72.7084 24.9976 72.2107 24.2646C71.713 23.5102 71.4668 22.6488 71.4668 21.6751C71.4668 20.7013 71.6594 19.9202 72.0501 19.1872C72.4622 18.4328 73.0831 17.7961 73.9287 17.2771C74.7903 16.7582 75.8714 16.3944 77.1612 16.1803L83.6317 15.1156V17.6356L77.8409 18.604C76.717 18.7966 75.8981 19.1551 75.3844 19.6687C74.8866 20.1877 74.6404 20.8244 74.6404 21.5788C74.6404 22.2903 74.9187 22.8842 75.4807 23.355C76.0641 23.8312 76.7866 24.0666 77.6482 24.0666C78.7507 24.0666 79.698 23.8419 80.4954 23.3871C81.3143 22.911 81.9511 22.2743 82.4061 21.4771C82.8824 20.6799 83.1179 19.7971 83.1179 18.8234V14.3934C83.1179 13.4464 82.7593 12.6813 82.0528 12.0981C81.3625 11.4935 80.4473 11.1939 79.302 11.1939C78.3119 11.1939 77.4234 11.4507 76.6474 11.9697C75.8928 12.4673 75.3309 13.136 74.9669 13.976L72.3445 12.6171C72.6656 11.8199 73.1847 11.1083 73.8966 10.4823C74.6084 9.83493 75.4379 9.32666 76.3852 8.96284C77.3325 8.59902 78.3279 8.41176 79.3608 8.41176C80.6988 8.41176 81.8709 8.66858 82.8877 9.18755C83.8993 9.68513 84.686 10.386 85.2479 11.2902C85.8313 12.173 86.1203 13.2109 86.1203 14.3934V26.2281H83.1767V22.9324L83.728 23.125C83.3587 23.8152 82.8663 24.4197 82.2402 24.9334C81.614 25.4523 80.8808 25.859 80.0405 26.1639C79.2003 26.4635 78.2851 26.6187 77.2896 26.6187V26.6241Z" fill="var(--fill-0, #FFFDF1)"/>
<path id="Vector_4" d="M95.3204 26.2334L88.4967 8.8023H91.8631L97.3274 23.5476H96.1607L101.657 8.8023H105.023L98.1676 26.2334H95.3204Z" fill="var(--fill-0, #FFFDF1)"/>
<path id="Vector_5" d="M115.417 26.6241C113.736 26.6241 112.238 26.2228 110.921 25.4256C109.605 24.6284 108.572 23.537 107.817 22.162C107.063 20.7602 106.683 19.1979 106.683 17.4751C106.683 15.7523 107.052 14.1794 107.785 12.8204C108.54 11.4614 109.551 10.3967 110.825 9.62094C112.12 8.82375 113.565 8.42248 115.16 8.42248C116.455 8.42248 117.595 8.65789 118.591 9.13407C119.602 9.58884 120.458 10.2095 121.143 11.012C121.855 11.7878 122.396 12.6813 122.76 13.6978C123.15 14.6876 123.343 15.7256 123.343 16.801C123.343 17.0364 123.322 17.3093 123.279 17.6089C123.257 17.8871 123.225 18.16 123.183 18.4168H108.888V15.8272H121.438L120.014 16.9936C120.207 15.87 120.1 14.8695 119.693 13.9868C119.281 13.104 118.682 12.4031 117.884 11.8841C117.087 11.3651 116.182 11.1083 115.165 11.1083C114.149 11.1083 113.223 11.3651 112.382 11.8841C111.542 12.4031 110.884 13.1468 110.408 14.1152C109.953 15.0622 109.771 16.1964 109.856 17.5126C109.771 18.7859 109.963 19.9041 110.44 20.8779C110.937 21.8249 111.628 22.5686 112.511 23.109C113.415 23.6279 114.4 23.8847 115.454 23.8847C116.621 23.8847 117.601 23.6172 118.398 23.0768C119.195 22.5365 119.843 21.8463 120.341 21.0063L122.861 22.3011C122.519 23.0982 121.978 23.8312 121.245 24.5C120.533 25.1474 119.682 25.6664 118.692 26.0516C117.724 26.4422 116.632 26.6348 115.428 26.6348L115.417 26.6241Z" fill="var(--fill-0, #FFFDF1)"/>
<path id="Vector_6" d="M127.266 26.2335V1.75602H130.273V26.2335H127.266Z" fill="var(--fill-0, #FFFDF1)"/>
<path id="Vector_7" d="M134.94 26.2335V1.75602H137.948V26.2335H134.94Z" fill="var(--fill-0, #FFFDF1)"/>
<path id="Vector_8" d="M142.621 26.2334V8.80229H145.628V26.2334H142.621ZM142.621 6.0255V2.14656H145.628V6.0255H142.621Z" fill="var(--fill-0, #FFFDF1)"/>
<path id="Vector_9" d="M158.574 26.6241C156.894 26.6241 155.374 26.2335 154.015 25.4577C152.655 24.6605 151.579 23.5691 150.782 22.1941C149.985 20.8137 149.583 19.2514 149.583 17.5072C149.583 15.763 149.974 14.2115 150.75 12.8525C151.547 11.4935 152.628 10.4181 153.982 9.62094C155.342 8.82375 156.872 8.42248 158.574 8.42248C160.276 8.42248 161.775 8.82375 163.134 9.62094C164.494 10.3967 165.559 11.4668 166.335 12.8204C167.132 14.1794 167.533 15.7416 167.533 17.5072C167.533 19.2728 167.121 20.8511 166.303 22.2262C165.484 23.5851 164.392 24.6605 163.038 25.4577C161.7 26.2335 160.212 26.6241 158.574 26.6241ZM158.574 23.7135C159.65 23.7135 160.624 23.446 161.486 22.9056C162.369 22.3653 163.059 21.6216 163.557 20.6746C164.076 19.7276 164.333 18.6682 164.333 17.5072C164.333 16.3462 164.076 15.2762 163.557 14.372C163.059 13.4464 162.369 12.7134 161.486 12.173C160.624 11.6112 159.65 11.333 158.574 11.333C157.499 11.333 156.482 11.6112 155.599 12.173C154.737 12.7134 154.047 13.4464 153.528 14.372C153.008 15.2762 152.752 16.3248 152.752 17.5072C152.752 18.6896 153.008 19.7276 153.528 20.6746C154.047 21.6216 154.737 22.3653 155.599 22.9056C156.482 23.446 157.477 23.7135 158.574 23.7135Z" fill="var(--fill-0, #FFFDF1)"/>
</g>
<path id="Vector_10" d="M0.168886 24.1255C-0.762345 20.054 2.34711 14.9873 4.8518 12.0072L5.39767 12.371C4.10251 14.1687 2.80736 16.5656 2.99467 18.8341C3.11242 20.2787 4.09182 21.3969 5.50472 21.7018C8.89782 22.4348 13.6075 19.444 16.048 17.2772L17.3485 16.1215L1.03053 5.43705C2.23471 4.29745 3.10707 3.50026 4.91066 4.09413L27.4154 11.5256L28.2449 10.7927C26.6982 9.72261 25.0178 7.78582 25.5208 5.80622L29.492 2.4088C31.8682 0.375702 36.123 -0.69435 39.0183 0.498759C40.2546 1.00703 39.9389 2.44625 39.5107 3.42C39.1147 4.31884 38.5474 5.07858 37.9319 5.84902C37.0488 6.86557 36.139 7.79652 35.1115 8.68466L29.2779 13.6979L35.9089 25.2598C36.1765 25.7199 36.0534 26.2549 35.7109 26.608L34.7743 27.5657L24.1454 20.5997L26.4253 17.2397L25.7082 16.7743L20.1422 21.536C17.4341 23.8527 13.752 26.0837 10.3589 27.1966C8.15927 27.9189 5.51006 28.3683 3.28902 27.5978C1.71021 27.0468 0.559553 25.7948 0.179568 24.1362L0.168886 24.1255Z" fill="var(--fill-0, #FFFDF1)"/>
</g>
</svg>
