<svg preserveAspectRatio="none" width="100%" height="100%" overflow="visible" style="display: block;" viewBox="0 0 60 60" fill="none" xmlns="http://www.w3.org/2000/svg">
<g id="Sparkle">
<path id="Vector" d="M46.3078 30.2484L34.2188 25.7813L29.7656 13.6828C29.5019 12.9664 29.0248 12.3481 28.3987 11.9114C27.7725 11.4746 27.0275 11.2405 26.2641 11.2405C25.5007 11.2405 24.7556 11.4746 24.1295 11.9114C23.5033 12.3481 23.0262 12.9664 22.7625 13.6828L18.2813 25.7813L6.18281 30.2344C5.4664 30.4981 4.84811 30.9752 4.41137 31.6013C3.97464 32.2275 3.74047 32.9725 3.74047 33.7359C3.74047 34.4994 3.97464 35.2444 4.41137 35.8705C4.84811 36.4967 5.4664 36.9738 6.18281 37.2375L18.2813 41.7188L22.7344 53.8172C22.9981 54.5336 23.4752 55.1519 24.1013 55.5886C24.7275 56.0254 25.4725 56.2595 26.2359 56.2595C26.9994 56.2595 27.7444 56.0254 28.3705 55.5886C28.9967 55.1519 29.4738 54.5336 29.7375 53.8172L34.2188 41.7188L46.3172 37.2656C47.0336 37.0019 47.6519 36.5248 48.0886 35.8987C48.5254 35.2725 48.7595 34.5275 48.7595 33.7641C48.7595 33.0007 48.5254 32.2556 48.0886 31.6295C47.6519 31.0033 47.0336 30.5262 46.3172 30.2625L46.3078 30.2484ZM32.1094 38.4891C31.8549 38.5829 31.6237 38.7308 31.4319 38.9226C31.2401 39.1144 31.0922 39.3455 30.9984 39.6L26.25 52.4648L21.5109 39.6094C21.4173 39.3522 21.2685 39.1186 21.0749 38.9251C20.8814 38.7315 20.6478 38.5827 20.3906 38.4891L7.53516 33.75L20.3906 29.0109C20.6478 28.9173 20.8814 28.7685 21.0749 28.5749C21.2685 28.3814 21.4173 28.1478 21.5109 27.8906L26.25 15.0352L30.9891 27.8906C31.0829 28.1451 31.2308 28.3763 31.4226 28.5681C31.6144 28.7599 31.8455 28.9078 32.1 29.0016L44.9648 33.75L32.1094 38.4891ZM33.75 9.375C33.75 8.87772 33.9475 8.40081 34.2992 8.04918C34.6508 7.69754 35.1277 7.5 35.625 7.5H39.375V3.75C39.375 3.25272 39.5725 2.77581 39.9242 2.42417C40.2758 2.07254 40.7527 1.875 41.25 1.875C41.7473 1.875 42.2242 2.07254 42.5758 2.42417C42.9275 2.77581 43.125 3.25272 43.125 3.75V7.5H46.875C47.3723 7.5 47.8492 7.69754 48.2008 8.04918C48.5525 8.40081 48.75 8.87772 48.75 9.375C48.75 9.87228 48.5525 10.3492 48.2008 10.7008C47.8492 11.0525 47.3723 11.25 46.875 11.25H43.125V15C43.125 15.4973 42.9275 15.9742 42.5758 16.3258C42.2242 16.6775 41.7473 16.875 41.25 16.875C40.7527 16.875 40.2758 16.6775 39.9242 16.3258C39.5725 15.9742 39.375 15.4973 39.375 15V11.25H35.625C35.1277 11.25 34.6508 11.0525 34.2992 10.7008C33.9475 10.3492 33.75 9.87228 33.75 9.375ZM58.125 20.625C58.125 21.1223 57.9275 21.5992 57.5758 21.9508C57.2242 22.3025 56.7473 22.5 56.25 22.5H54.375V24.375C54.375 24.8723 54.1775 25.3492 53.8258 25.7008C53.4742 26.0525 52.9973 26.25 52.5 26.25C52.0027 26.25 51.5258 26.0525 51.1742 25.7008C50.8225 25.3492 50.625 24.8723 50.625 24.375V22.5H48.75C48.2527 22.5 47.7758 22.3025 47.4242 21.9508C47.0725 21.5992 46.875 21.1223 46.875 20.625C46.875 20.1277 47.0725 19.6508 47.4242 19.2992C47.7758 18.9475 48.2527 18.75 48.75 18.75H50.625V16.875C50.625 16.3777 50.8225 15.9008 51.1742 15.5492C51.5258 15.1975 52.0027 15 52.5 15C52.9973 15 53.4742 15.1975 53.8258 15.5492C54.1775 15.9008 54.375 16.3777 54.375 16.875V18.75H56.25C56.7473 18.75 57.2242 18.9475 57.5758 19.2992C57.9275 19.6508 58.125 20.1277 58.125 20.625Z" fill="var(--fill-0, #FFFDF1)"/>
</g>
</svg>
