<svg preserveAspectRatio="none" width="100%" height="100%" overflow="visible" style="display: block;" viewBox="0 0 15.6169 15.6169" fill="none" xmlns="http://www.w3.org/2000/svg">
<path id="Vector" d="M15.4411 14.5921L11.6858 10.8376C12.7743 9.53086 13.317 7.85482 13.2012 6.15813C13.0853 4.46144 12.3198 2.87472 11.0639 1.72806C9.80796 0.581393 8.15831 -0.0369322 6.45811 0.00170776C4.7579 0.0403477 3.13805 0.732978 1.93551 1.93551C0.732978 3.13805 0.0403477 4.7579 0.00170776 6.45811C-0.0369322 8.15831 0.581393 9.80796 1.72806 11.0639C2.87472 12.3198 4.46144 13.0853 6.15813 13.2012C7.85482 13.317 9.53086 12.7743 10.8376 11.6858L14.5921 15.4411C14.6478 15.4968 14.714 15.541 14.7868 15.5712C14.8597 15.6014 14.9377 15.6169 15.0166 15.6169C15.0954 15.6169 15.1735 15.6014 15.2463 15.5712C15.3192 15.541 15.3853 15.4968 15.4411 15.4411C15.4968 15.3853 15.541 15.3192 15.5712 15.2463C15.6014 15.1735 15.6169 15.0954 15.6169 15.0166C15.6169 14.9377 15.6014 14.8597 15.5712 14.7868C15.541 14.714 15.4968 14.6478 15.4411 14.5921ZM1.21658 6.61658C1.21658 5.54856 1.53328 4.50452 2.12664 3.6165C2.72 2.72847 3.56337 2.03634 4.55009 1.62763C5.53681 1.21891 6.62257 1.11198 7.67007 1.32034C8.71756 1.5287 9.67975 2.043 10.435 2.7982C11.1902 3.5534 11.7045 4.51559 11.9128 5.56309C12.1212 6.61059 12.0142 7.69635 11.6055 8.68307C11.1968 9.66979 10.5047 10.5132 9.61666 11.1065C8.72863 11.6999 7.6846 12.0166 6.61658 12.0166C5.1849 12.015 3.81231 11.4456 2.79995 10.4332C1.7876 9.42085 1.21817 8.04826 1.21658 6.61658Z" fill="var(--fill-0, white)"/>
</svg>
