<svg preserveAspectRatio="none" width="100%" height="100%" overflow="visible" style="display: block;" viewBox="0 0 60 60" fill="none" xmlns="http://www.w3.org/2000/svg">
<g id="Confetti">
<path id="Vector" d="M26.1305 12.3352C25.6901 11.8959 25.1462 11.5747 24.5489 11.4011C23.9517 11.2275 23.3203 11.2072 22.7131 11.3419C22.1059 11.4767 21.5424 11.7622 21.0747 12.1721C20.6069 12.5821 20.25 13.1032 20.0367 13.6875L7.73437 47.5266C7.53228 48.0846 7.467 48.6829 7.54401 49.2714C7.62103 49.8599 7.8381 50.4213 8.17699 50.9085C8.51589 51.3957 8.96672 51.7946 9.49165 52.0715C10.0166 52.3484 10.6003 52.4954 11.1937 52.5C11.6307 52.497 12.0638 52.4177 12.4734 52.2656L46.3102 39.9609C46.8946 39.748 47.416 39.3912 47.8262 38.9235C48.2364 38.4559 48.5222 37.8925 48.6572 37.2852C48.7921 36.678 48.772 36.0466 48.5986 35.4492C48.4251 34.8518 48.104 34.3077 47.6648 33.8672L26.1305 12.3352ZM24.1781 44.025L15.975 35.8219L19.0594 27.3352L32.6648 40.9406L24.1781 44.025ZM11.2875 48.7125L14.5687 39.7102L20.2992 45.4406L11.2875 48.7125ZM36.5625 39.525L20.475 23.4375L23.5219 15.0305L44.9508 36.4594L36.5625 39.525ZM37.5 16.875C37.5352 15.6074 37.8421 14.3622 38.4 13.2234C39.6422 10.7414 41.9859 9.375 45 9.375C46.5703 9.375 47.5781 8.83828 48.1992 7.68516C48.5263 7.04003 48.7139 6.33332 48.75 5.61094C48.7519 5.11366 48.9512 4.63748 49.3041 4.28717C49.6571 3.93686 50.1347 3.7411 50.632 3.74297C51.1293 3.74483 51.6055 3.94417 51.9558 4.29712C52.3061 4.65006 52.5019 5.12772 52.5 5.625C52.5 8.63906 50.5031 13.125 45 13.125C43.4297 13.125 42.4219 13.6617 41.8008 14.8148C41.4737 15.46 41.2861 16.1667 41.25 16.8891C41.2491 17.1353 41.1997 17.3789 41.1046 17.6061C41.0095 17.8332 40.8706 18.0394 40.6958 18.2128C40.5211 18.3863 40.3139 18.5236 40.086 18.617C39.8582 18.7104 39.6142 18.758 39.368 18.757C39.1217 18.7561 38.8781 18.7067 38.651 18.6116C38.4238 18.5165 38.2177 18.3776 38.0442 18.2029C37.8707 18.0281 37.7334 17.8209 37.64 17.5931C37.5467 17.3652 37.4991 17.1212 37.5 16.875ZM31.875 9.375V3.75C31.875 3.25272 32.0725 2.77581 32.4242 2.42417C32.7758 2.07254 33.2527 1.875 33.75 1.875C34.2473 1.875 34.7242 2.07254 35.0758 2.42417C35.4275 2.77581 35.625 3.25272 35.625 3.75V9.375C35.625 9.87228 35.4275 10.3492 35.0758 10.7008C34.7242 11.0525 34.2473 11.25 33.75 11.25C33.2527 11.25 32.7758 11.0525 32.4242 10.7008C32.0725 10.3492 31.875 9.87228 31.875 9.375ZM55.7016 28.6734C55.8756 28.8476 56.0136 29.0544 56.1078 29.282C56.2019 29.5095 56.2503 29.7534 56.2502 29.9997C56.2501 30.2459 56.2015 30.4897 56.1072 30.7172C56.0128 30.9447 55.8746 31.1513 55.7004 31.3254C55.5262 31.4994 55.3194 31.6375 55.0918 31.7316C54.8643 31.8258 54.6204 31.8742 54.3742 31.874C54.1279 31.8739 53.8841 31.8253 53.6566 31.731C53.4291 31.6366 53.2225 31.4984 53.0484 31.3242L49.2984 27.5742C48.9466 27.2224 48.749 26.7452 48.749 26.2477C48.749 25.7501 48.9466 25.2729 49.2984 24.9211C49.6503 24.5693 50.1274 24.3716 50.625 24.3716C51.1226 24.3716 51.5997 24.5693 51.9516 24.9211L55.7016 28.6734ZM56.843 18.6539L51.218 20.5289C50.7462 20.6862 50.2312 20.6496 49.7864 20.4272C49.3416 20.2048 49.0034 19.8148 48.8461 19.343C48.6888 18.8712 48.7254 18.3562 48.9478 17.9114C49.1702 17.4666 49.5602 17.1284 50.032 16.9711L55.657 15.0961C56.1288 14.9388 56.6438 14.9754 57.0886 15.1978C57.5334 15.4202 57.8716 15.8102 58.0289 16.282C58.1862 16.7538 58.1496 17.2688 57.9272 17.7136C57.7048 18.1584 57.3148 18.4966 56.843 18.6539Z" fill="var(--fill-0, #FFFDF1)"/>
</g>
</svg>
