<svg preserveAspectRatio="none" width="100%" height="100%" overflow="visible" style="display: block;" viewBox="0 0 60 60" fill="none" xmlns="http://www.w3.org/2000/svg">
<g id="Devices">
<path id="Vector" d="M52.5 16.875H48.75V15C48.75 13.5082 48.1574 12.0774 47.1025 11.0225C46.0476 9.96763 44.6168 9.375 43.125 9.375H9.375C7.88316 9.375 6.45242 9.96763 5.39752 11.0225C4.34263 12.0774 3.75 13.5082 3.75 15V37.5C3.75 38.9918 4.34263 40.4226 5.39752 41.4775C6.45242 42.5324 7.88316 43.125 9.375 43.125H35.625V45C35.625 46.4918 36.2176 47.9226 37.2725 48.9775C38.3274 50.0324 39.7582 50.625 41.25 50.625H52.5C53.9918 50.625 55.4226 50.0324 56.4775 48.9775C57.5324 47.9226 58.125 46.4918 58.125 45V22.5C58.125 21.0082 57.5324 19.5774 56.4775 18.5225C55.4226 17.4676 53.9918 16.875 52.5 16.875ZM9.375 39.375C8.87772 39.375 8.40081 39.1775 8.04918 38.8258C7.69754 38.4742 7.5 37.9973 7.5 37.5V15C7.5 14.5027 7.69754 14.0258 8.04918 13.6742C8.40081 13.3225 8.87772 13.125 9.375 13.125H43.125C43.6223 13.125 44.0992 13.3225 44.4508 13.6742C44.8025 14.0258 45 14.5027 45 15V16.875H41.25C39.7582 16.875 38.3274 17.4676 37.2725 18.5225C36.2176 19.5774 35.625 21.0082 35.625 22.5V39.375H9.375ZM54.375 45C54.375 45.4973 54.1775 45.9742 53.8258 46.3258C53.4742 46.6775 52.9973 46.875 52.5 46.875H41.25C40.7527 46.875 40.2758 46.6775 39.9242 46.3258C39.5725 45.9742 39.375 45.4973 39.375 45V22.5C39.375 22.0027 39.5725 21.5258 39.9242 21.1742C40.2758 20.8225 40.7527 20.625 41.25 20.625H52.5C52.9973 20.625 53.4742 20.8225 53.8258 21.1742C54.1775 21.5258 54.375 22.0027 54.375 22.5V45ZM31.875 48.75C31.875 49.2473 31.6775 49.7242 31.3258 50.0758C30.9742 50.4275 30.4973 50.625 30 50.625H20.625C20.1277 50.625 19.6508 50.4275 19.2992 50.0758C18.9475 49.7242 18.75 49.2473 18.75 48.75C18.75 48.2527 18.9475 47.7758 19.2992 47.4242C19.6508 47.0725 20.1277 46.875 20.625 46.875H30C30.4973 46.875 30.9742 47.0725 31.3258 47.4242C31.6775 47.7758 31.875 48.2527 31.875 48.75ZM50.625 26.25C50.625 26.7473 50.4275 27.2242 50.0758 27.5758C49.7242 27.9275 49.2473 28.125 48.75 28.125H45C44.5027 28.125 44.0258 27.9275 43.6742 27.5758C43.3225 27.2242 43.125 26.7473 43.125 26.25C43.125 25.7527 43.3225 25.2758 43.6742 24.9242C44.0258 24.5725 44.5027 24.375 45 24.375H48.75C49.2473 24.375 49.7242 24.5725 50.0758 24.9242C50.4275 25.2758 50.625 25.7527 50.625 26.25Z" fill="var(--fill-0, #FFFDF1)"/>
</g>
</svg>
