<svg width="1440" height="481" viewBox="0 0 1440 481" fill="none" xmlns="http://www.w3.org/2000/svg">
<g clip-path="url(#clip0_111_1989)">
<rect width="1440" height="481" fill="#F9FAF5"/>
<g clip-path="url(#clip1_111_1989)">
<path d="M1324.36 127.575C1337.88 121.088 1367.97 134.894 1383.24 137.991C1399.12 141.205 1408.52 150.353 1396.64 165.763C1396.01 166.206 1392.05 168.623 1391.08 168.433C1369.27 164.003 1343.69 157.861 1323.41 148.815C1316.17 145.593 1320.25 132.598 1324.36 127.575Z" fill="#FFBE65" fill-opacity="0.5"/>
<path d="M1212.41 113.12C1220.46 109.962 1241.98 112.183 1251.35 112.776C1268.55 113.878 1304.96 114.447 1285.64 141.026C1285.43 141.121 1285.21 141.225 1284.99 141.315C1284.63 141.467 1284.25 141.598 1283.87 141.736C1283.16 142.008 1282.87 142.142 1282.12 142.362C1275.73 144.259 1217.3 139.95 1212.64 136.996C1209.89 135.255 1207.52 132.309 1206.9 129.07C1205.76 123.114 1209.25 117.806 1212.41 113.12Z" fill="#FFBE65" fill-opacity="0.5"/>
<path d="M673.149 391.716C694.531 382.848 697.486 410.795 684.212 417.574C669.281 425.205 649.923 432.686 634.296 439.392C618.178 444.731 609.969 434.594 616.06 419.194C627.076 409.572 658.54 398.751 673.149 391.716Z" fill="#FFBE65" fill-opacity="0.5"/>
<path d="M397.34 411.829C408.109 407.115 425.854 416.734 437.607 419.856C452.876 423.908 486.908 427.897 468.698 450.839C455.82 459.354 413.456 441.833 398.858 436.286C389.307 432.652 392.032 419.102 397.34 411.829Z" fill="#FFBE65" fill-opacity="0.5"/>
<path d="M1436.22 161.358C1437.76 160.983 1439.3 160.771 1440.9 160.677C1448.67 160.203 1497.78 185.238 1503.37 190.753C1505.49 192.842 1506.53 195.808 1506.46 198.759C1506.36 204.146 1502.36 208.405 1498.87 212.044C1498.05 212.287 1494.94 213.129 1494.52 213.084C1483.72 212.139 1434.15 186.62 1428.15 181.892C1427.01 170.988 1427.08 167.611 1436.22 161.358Z" fill="#FFBE65" fill-opacity="0.5"/>
<path d="M941.405 184.756C946.273 182.438 950.639 181.957 955.417 185.003C982.488 202.208 923.553 227.764 909.518 238.153L908.42 238.978C890.971 247.449 879.134 226.084 892.524 216.087C907.757 204.707 925.421 195.497 941.405 184.756Z" fill="#FFBE65" fill-opacity="0.5"/>
<path d="M1098.4 125.429C1111.48 120.501 1201.68 98.0492 1172.32 138.833C1160.01 144.834 1122.16 146.64 1107.07 149.875C1105.84 150.135 1099.93 148.213 1098.92 147.275C1091.91 140.744 1092.55 132.46 1098.4 125.429Z" fill="#FFBE65" fill-opacity="0.5"/>
<path d="M767.244 322.943C783.044 320.383 790.182 338.438 777.79 348.859C763.183 361.153 746.12 377.122 729.91 386.995C714.271 386.202 708.981 379.74 714.585 365.07C727.233 355.142 755.384 330.743 767.244 322.943Z" fill="#FFBE65" fill-opacity="0.5"/>
<path d="M298.004 357.514C300.301 356.516 302.55 355.557 305.096 355.447C310.335 355.216 357.18 385.648 363.068 390.596C365.85 392.938 367.82 394.861 368.063 398.648C368.419 404.225 364.873 408.02 361.497 412.002C351.049 416.979 336.27 406.702 327.44 400.363C312.113 389.367 279.719 379.119 298.004 357.514Z" fill="#FFBE65" fill-opacity="0.5"/>
<path d="M133.22 200.332C134.024 199.932 134.825 199.523 135.647 199.16C139.676 197.381 142.934 197.165 147.04 198.938C153.77 201.845 191.126 245.539 193.12 252.688C194.536 257.763 190.633 263.141 188.154 267.304C187.399 267.742 186.65 268.195 185.864 268.576C182.776 270.069 179.557 269.923 176.452 268.649C168.252 265.283 133.303 224.812 130.177 215.773C128.19 210.029 130.517 205.362 133.22 200.332Z" fill="#FFBE65" fill-opacity="0.5"/>
<path d="M848.245 248.836C863.477 241.125 873.208 258.602 865.251 269.208C861.755 273.862 851.688 281.547 846.757 285.783C837.403 293.752 828.189 301.88 819.118 310.166C816.886 310.962 811.913 312.805 809.847 311.973C781.258 300.502 813.13 277.458 824.304 268.3C833.659 260.633 840.075 255.057 848.245 248.836Z" fill="#FFBE65" fill-opacity="0.5"/>
<path d="M211.858 284C216.68 282.133 219.711 282.935 224.687 283.77C240.587 296.046 257.397 314.797 272.712 328.232C278.331 333.163 272.523 342.303 268.798 346.745C260.148 351.907 251.525 346.423 244.397 339.301C232.448 327.364 211.832 313.567 205.215 297.614C203.743 294.065 209.765 286.591 211.858 284Z" fill="#FFBE65" fill-opacity="0.5"/>
<path d="M992.27 159.596C1010.1 152.525 1030.52 144.067 1049 138.512C1055.79 136.47 1066.68 139.125 1066.22 148.057C1065.88 154.955 1064.07 157.857 1060.67 163.751C1048.87 168.445 1036.42 172.008 1024.28 176.456C1015.38 179.707 999.835 189.884 991.251 182.13C983.109 174.777 986.186 167.147 992.27 159.596Z" fill="#FFBE65" fill-opacity="0.5"/>
<path d="M508.205 435.241C516.647 431.654 539.654 432.505 549.994 431.269C557.594 430.357 569.983 428.807 577.145 428.898C587.618 436.518 590.463 441.763 581.229 452.973L579.604 453.734C578.097 454.448 573.297 456.329 571.371 456.331C556.069 456.312 504.625 471.553 502.701 448.116C502.214 442.171 504.645 439.539 508.205 435.241Z" fill="#FFBE65" fill-opacity="0.5"/>
<path d="M70.585 107.005C79.1796 103.55 86.9757 111.305 91.0488 118.062C99.721 132.447 115.616 149.243 121.918 164.599C120.924 172.798 120.134 173.89 114.75 180.005C108.748 181.577 107.525 181.157 101.508 179.229C99.9105 177.358 98.3407 175.464 96.7991 173.548C89.2779 164.19 81.7487 153.411 74.9212 143.462C66.0348 130.512 53.56 118.633 70.585 107.005Z" fill="#FFBE65" fill-opacity="0.5"/>
<path d="M5.7191 12.7017C28.1267 1.15278 33.3848 29.9764 44.5806 44.5223C49.5171 50.9357 56.4622 64.4954 59.174 72.0425C57.492 76.7171 56.3281 78.4768 53.8523 82.6969C52.2715 83.6206 50.6662 84.5491 48.9292 85.1501C45.5289 86.3261 42.1512 86.3299 38.9239 84.6387C32.4925 81.2706 5.11195 34.0308 3.01318 25.6047C1.77657 20.6418 3.21273 16.9554 5.7191 12.7017Z" fill="#FFBE65" fill-opacity="0.5"/>
</g>
</g>
<defs>
<clipPath id="clip0_111_1989">
<rect width="1440" height="481" fill="white"/>
</clipPath>
<clipPath id="clip1_111_1989">
<rect width="1858" height="1858" fill="white" transform="translate(-373 -385.86) rotate(-21.6055)"/>
</clipPath>
</defs>
</svg>
