<svg width="1440" height="458" viewBox="0 0 1440 458" fill="none" xmlns="http://www.w3.org/2000/svg">
<g clip-path="url(#clip0_111_1989)">
<rect width="1440" height="458" fill="#F9FAF5"/>
<g clip-path="url(#clip1_111_1989)">
<path d="M-125.842 227.277C-132.847 225.352 -138.733 225.997 -143.244 232.339C-144.77 234.515 -145.907 236.943 -146.593 239.512C-148.178 245.461 -149.931 255.48 -151.425 262.061C-155.611 279.801 -159.636 297.577 -163.498 315.387C-167.811 335 -172.682 354.294 -177.021 374.17C-179.006 383.249 -176.644 397.611 -163.62 395.695C-152.803 394.105 -140.64 390.325 -129.739 387.88C-99.6642 381.299 -69.6734 374.413 -39.7426 367.209C-29.957 364.528 -4.5634 363.138 -10.1548 345.917C-11.4741 341.93 -14.3308 338.623 -18.0907 336.733C-27.4582 332.126 -79.8307 349.157 -93.0279 350.819C-97.4551 351.379 -113.936 355.517 -118.409 356.956C-112.652 343.701 -112.42 339.666 -124.241 330.856C-130.818 330.906 -133.994 329.687 -138.5 334.733L-139.659 334.284C-138.124 329.447 -137.016 324.333 -136.006 319.318C-130.677 292.828 -123.627 266.454 -119.126 239.861C-118.332 235.169 -122.897 230.385 -125.842 227.277Z" fill="#FFBE65" fill-opacity="0.5"/>
<path d="M179.737 177.575C166.216 171.088 136.129 184.894 120.861 187.991C104.98 191.205 95.5806 200.353 107.461 215.763C108.086 216.206 112.047 218.623 113.02 218.433C134.827 214.003 160.415 207.861 180.693 198.816C187.931 195.593 183.846 182.598 179.737 177.575Z" fill="#FFBE65" fill-opacity="0.5"/>
<path d="M291.686 163.12C283.637 159.962 262.12 162.183 252.752 162.776C235.551 163.878 199.144 164.447 218.457 191.026C218.673 191.122 218.886 191.225 219.113 191.315C219.473 191.468 219.85 191.598 220.225 191.736C220.937 192.008 221.225 192.142 221.977 192.362C228.369 194.259 286.798 189.95 291.461 186.996C294.209 185.255 296.576 182.309 297.195 179.07C298.344 173.114 294.846 167.806 291.686 163.12Z" fill="#FFBE65" fill-opacity="0.5"/>
<path d="M830.951 441.716C809.568 432.848 806.614 460.795 819.887 467.574C834.819 475.205 854.177 482.686 869.804 489.392C885.921 494.731 894.131 484.594 888.039 469.194C877.024 459.572 845.56 448.751 830.951 441.716Z" fill="#FFBE65" fill-opacity="0.5"/>
<path d="M1106.76 461.829C1095.99 457.115 1078.25 466.734 1066.49 469.856C1051.22 473.908 1017.19 477.897 1035.4 500.839C1048.28 509.354 1090.64 491.833 1105.24 486.286C1114.79 482.652 1112.07 469.103 1106.76 461.829Z" fill="#FFBE65" fill-opacity="0.5"/>
<path d="M67.8815 211.358C66.3421 210.983 64.7965 210.771 63.2041 210.677C55.4294 210.203 6.31703 235.238 0.727564 240.753C-1.388 242.843 -2.42565 245.808 -2.36502 248.759C-2.26405 254.146 1.7381 258.405 5.23448 262.044C6.04565 262.287 9.15676 263.129 9.58452 263.084C20.3801 262.139 69.9473 236.62 75.9472 231.892C77.0942 220.988 77.017 217.611 67.8815 211.358Z" fill="#FFBE65" fill-opacity="0.5"/>
<path d="M562.695 234.756C557.827 232.438 553.461 231.958 548.683 235.003C521.612 252.209 580.547 277.764 594.582 288.153L595.68 288.978C613.129 297.45 624.966 276.084 611.576 266.088C596.343 254.707 578.679 245.497 562.695 234.756Z" fill="#FFBE65" fill-opacity="0.5"/>
<path d="M405.7 175.429C392.615 170.501 302.416 148.049 331.775 188.833C344.094 194.834 381.941 196.64 397.034 199.875C398.258 200.135 404.171 198.213 405.177 197.275C412.193 190.745 411.552 182.46 405.7 175.429Z" fill="#FFBE65" fill-opacity="0.5"/>
<path d="M736.856 372.943C721.056 370.383 713.918 388.438 726.31 398.859C740.917 411.153 757.98 427.122 774.189 436.996C789.828 436.202 795.119 429.74 789.515 415.07C776.866 405.142 748.716 380.743 736.856 372.943Z" fill="#FFBE65" fill-opacity="0.5"/>
<path d="M1206.1 407.514C1203.8 406.517 1201.55 405.558 1199 405.447C1193.76 405.217 1146.92 435.648 1141.03 440.596C1138.25 442.939 1136.28 444.861 1136.04 448.649C1135.68 454.226 1139.23 458.021 1142.6 462.002C1153.05 466.979 1167.83 456.703 1176.66 450.364C1191.99 439.367 1224.38 429.119 1206.1 407.514Z" fill="#FFBE65" fill-opacity="0.5"/>
<path d="M1370.88 250.333C1370.08 249.932 1369.27 249.523 1368.45 249.161C1364.42 247.382 1361.17 247.166 1357.06 248.939C1350.33 251.845 1312.97 295.54 1310.98 302.689C1309.56 307.764 1313.47 313.142 1315.95 317.304C1316.7 317.742 1317.45 318.196 1318.24 318.576C1321.32 320.07 1324.54 319.924 1327.65 318.65C1335.85 315.284 1370.8 274.813 1373.92 265.774C1375.91 260.029 1373.58 255.363 1370.88 250.333Z" fill="#FFBE65" fill-opacity="0.5"/>
<path d="M655.855 298.836C640.623 291.125 630.891 308.602 638.849 319.208C642.345 323.862 652.412 331.547 657.343 335.783C666.697 343.752 675.911 351.88 684.982 360.166C687.213 360.962 692.187 362.805 694.252 361.973C722.842 350.502 690.969 327.458 679.796 318.3C670.44 310.633 664.025 305.057 655.855 298.836Z" fill="#FFBE65" fill-opacity="0.5"/>
<path d="M1292.24 334C1287.42 332.133 1284.39 332.935 1279.41 333.77C1263.51 346.046 1246.7 364.797 1231.39 378.232C1225.77 383.163 1231.58 392.303 1235.3 396.745C1243.95 401.907 1252.57 396.423 1259.7 389.301C1271.65 377.364 1292.27 363.567 1298.88 347.614C1300.36 344.065 1294.33 336.591 1292.24 334Z" fill="#FFBE65" fill-opacity="0.5"/>
<path d="M511.829 209.596C494.002 202.525 473.581 194.067 455.095 188.512C448.312 186.47 437.424 189.125 437.878 198.057C438.22 204.955 440.027 207.857 443.43 213.752C455.232 218.445 467.678 222.008 479.821 226.456C488.72 229.707 504.264 239.884 512.848 232.13C520.991 224.777 517.913 217.148 511.829 209.596Z" fill="#FFBE65" fill-opacity="0.5"/>
<path d="M995.895 485.241C987.453 481.654 964.446 482.505 954.106 481.269C946.506 480.357 934.116 478.807 926.955 478.898C916.481 486.518 913.637 491.764 922.87 502.973L924.496 503.734C926.003 504.448 930.802 506.329 932.729 506.331C948.031 506.312 999.475 521.553 1001.4 498.116C1001.89 492.171 999.455 489.54 995.895 485.241Z" fill="#FFBE65" fill-opacity="0.5"/>
<path d="M1433.51 157.005C1424.92 153.55 1417.12 161.305 1413.05 168.062C1404.38 182.447 1388.48 199.243 1382.18 214.599C1383.18 222.798 1383.97 223.89 1389.35 230.005C1395.35 231.577 1396.57 231.157 1402.59 229.229C1404.19 227.358 1405.76 225.464 1407.3 223.548C1414.82 214.191 1422.35 203.411 1429.18 193.462C1438.06 180.512 1450.54 168.633 1433.51 157.005Z" fill="#FFBE65" fill-opacity="0.5"/>
</g>
</g>
<defs>
<clipPath id="clip0_111_1989">
<rect width="1440" height="458" fill="white"/>
</clipPath>
<clipPath id="clip1_111_1989">
<rect width="1858" height="1858" fill="white" transform="matrix(-0.929741 -0.368213 -0.368213 0.929741 1877.1 -335.859)"/>
</clipPath>
</defs>
</svg>
