<svg preserveAspectRatio="none" width="100%" height="100%" overflow="visible" style="display: block;" viewBox="0 0 60 60" fill="none" xmlns="http://www.w3.org/2000/svg">
<g id="File">
<path id="Vector" d="M50.0766 19.2984L36.9516 6.17344C36.7773 5.99937 36.5705 5.86135 36.3428 5.76724C36.1152 5.67314 35.8713 5.62481 35.625 5.625H13.125C12.1304 5.625 11.1766 6.02009 10.4733 6.72335C9.77009 7.42661 9.375 8.38044 9.375 9.375V50.625C9.375 51.6196 9.77009 52.5734 10.4733 53.2766C11.1766 53.9799 12.1304 54.375 13.125 54.375H46.875C47.8696 54.375 48.8234 53.9799 49.5266 53.2766C50.2299 52.5734 50.625 51.6196 50.625 50.625V20.625C50.6252 20.3787 50.5769 20.1348 50.4828 19.9072C50.3887 19.6795 50.2506 19.4727 50.0766 19.2984ZM37.5 12.0258L44.2242 18.75H37.5V12.0258ZM46.875 50.625H13.125V9.375H33.75V20.625C33.75 21.1223 33.9475 21.5992 34.2992 21.9508C34.6508 22.3025 35.1277 22.5 35.625 22.5H46.875V50.625Z" fill="var(--fill-0, #FFFDF1)"/>
</g>
</svg>
