<svg preserveAspectRatio="none" width="100%" height="100%" overflow="visible" style="display: block;" viewBox="0 0 24 24" fill="none" xmlns="http://www.w3.org/2000/svg">
<g id="Frame 90">
<path id="Vector" d="M18.8175 8.49968C18.899 8.49968 18.9822 8.51066 19.0646 8.5319L19.1642 8.56413L19.2521 8.60222L19.3917 8.68913L19.4708 8.75358L19.5372 8.81999C19.5651 8.85204 19.5942 8.89156 19.6241 8.94108L19.673 9.0319L19.7071 9.12175C19.7204 9.1628 19.7302 9.20034 19.7364 9.23503L19.7491 9.38542C19.7477 9.50007 19.7231 9.61297 19.6759 9.71745C19.6259 9.82788 19.5548 9.92468 19.4698 10.0026L12.6505 16.2516C12.5639 16.3309 12.4617 16.3936 12.3497 16.4362C12.2653 16.4683 12.1777 16.4879 12.09 16.4958L12.0001 16.4997L11.9103 16.4958C11.8213 16.4877 11.7338 16.4678 11.6505 16.4362C11.5384 16.3936 11.4354 16.331 11.3487 16.2516L4.52941 10.0026C4.37768 9.86337 4.27916 9.67464 4.25499 9.47331L4.25109 9.36784L4.25597 9.27116C4.28015 9.07983 4.37318 8.89998 4.51867 8.7614L4.60949 8.68425C4.76809 8.56834 4.96387 8.50411 5.16515 8.50065L5.27843 8.50554C5.4507 8.52249 5.61418 8.5839 5.75109 8.68327L5.88097 8.78972L11.1544 13.6247L11.6612 14.0915L12.0001 14.402L12.8448 13.6257L18.1251 8.78386L18.2472 8.68327C18.3111 8.63691 18.383 8.59747 18.461 8.56706L18.5694 8.5319C18.6094 8.52152 18.6495 8.51382 18.6896 8.50847L18.8175 8.49968Z" fill="var(--fill-0, #FFFDF1)"/>
</g>
</svg>
