<svg preserveAspectRatio="none" width="100%" height="100%" overflow="visible" style="display: block;" viewBox="0 0 14 7" fill="none" xmlns="http://www.w3.org/2000/svg">
<path id="Vector" d="M13.8135 0.996255L7.4502 6.82894C7.39111 6.88317 7.32093 6.92619 7.24368 6.95554C7.16643 6.98489 7.08362 7 7 7C6.91638 7 6.83357 6.98489 6.75632 6.95554C6.67907 6.92619 6.60889 6.88317 6.54979 6.82894L0.186481 0.996255C0.0670791 0.88681 0 0.738371 0 0.583592C0 0.428814 0.0670791 0.280375 0.186481 0.17093C0.305882 0.0614851 0.467826 0 0.636685 0C0.805545 0 0.967488 0.0614851 1.08689 0.17093L7 5.59168L12.9131 0.17093C12.9722 0.116738 13.0424 0.0737513 13.1197 0.0444231C13.1969 0.0150948 13.2797 0 13.3633 0C13.4469 0 13.5297 0.0150948 13.607 0.0444231C13.6842 0.0737513 13.7544 0.116738 13.8135 0.17093C13.8726 0.225122 13.9195 0.289456 13.9515 0.360261C13.9835 0.431066 14 0.506954 14 0.583592C14 0.660231 13.9835 0.736119 13.9515 0.806924C13.9195 0.877728 13.8726 0.942063 13.8135 0.996255Z" fill="var(--fill-0, #FFFDF1)"/>
</svg>
