<svg width="644" height="16" viewBox="0 0 644 16" fill="none" xmlns="http://www.w3.org/2000/svg">
<rect y="7.5" width="624" height="1" fill="#384CE3" fill-opacity="0.1"/>
<g clip-path="url(#clip0_193_3960)">
<path d="M635.06 1.27249L634.608 5.41837C634.534 6.1 633.985 6.64897 633.303 6.72346L629.157 7.17549L628.5 7.24691V8.75303L629.157 8.82445L633.303 9.27649C633.985 9.35098 634.534 9.89995 634.608 10.5816L635.06 14.7275L635.132 15.3846H636.638L636.709 14.7275L637.161 10.5816C637.236 9.89995 637.785 9.35098 638.466 9.27649L642.612 8.82445L643.269 8.75302V7.24691L642.612 7.17549L638.466 6.72346C637.785 6.64897 637.236 6.1 637.161 5.41837L636.709 1.27249L636.638 0.615356H635.132L635.06 1.27249Z" fill="#384CE3"/>
</g>
<defs>
<clipPath id="clip0_193_3960">
<rect width="16" height="16" fill="white" transform="translate(628)"/>
</clipPath>
</defs>
</svg>
