<svg width="58" height="12" viewBox="0 0 58 12" fill="none" xmlns="http://www.w3.org/2000/svg">
<path d="M-7.30157e-06 1.456V-3.8147e-06H8.89599V1.456H5.19999V11.2H3.67999V1.456H-7.30157e-06ZM8.40562 11.2V3.488H9.92562V4.272C10.3843 3.58933 11.0563 3.248 11.9416 3.248C12.699 3.248 13.291 3.52 13.7176 4.064C14.1443 4.59733 14.3363 5.36533 14.2936 6.368L12.7576 6.592C12.7683 6.53866 12.7736 6.41066 12.7736 6.208C12.7736 5.70666 12.6616 5.32266 12.4376 5.056C12.2243 4.78933 11.9203 4.656 11.5256 4.656C11.035 4.656 10.6456 4.85333 10.3576 5.248C10.0696 5.64266 9.92562 6.18666 9.92562 6.88V11.2H8.40562ZM18.0304 6.56L19.9504 6.24V5.92C19.9504 5.504 19.801 5.17333 19.5024 4.928C19.2144 4.672 18.8037 4.544 18.2704 4.544C17.737 4.544 17.321 4.688 17.0224 4.976C16.7237 5.264 16.5744 5.65333 16.5744 6.144L16.5904 6.368L15.1504 6.256C15.1077 5.31733 15.3797 4.58133 15.9664 4.048C16.5637 3.504 17.321 3.232 18.2384 3.232C19.241 3.232 20.0144 3.47733 20.5584 3.968C21.113 4.45866 21.3904 5.136 21.3904 6V11.2H19.9664V10.24C19.4864 11.04 18.7504 11.44 17.7584 11.44C16.9264 11.44 16.2757 11.216 15.8064 10.768C15.3477 10.3093 15.1184 9.76533 15.1184 9.136C15.1184 8.41066 15.3584 7.84 15.8384 7.424C16.3184 7.008 17.049 6.72 18.0304 6.56ZM18.0464 10.064C18.601 10.064 19.0544 9.86666 19.4064 9.472C19.769 9.07733 19.9504 8.56 19.9504 7.92V7.472L18.2544 7.744C17.6997 7.85066 17.2784 8 16.9904 8.192C16.7024 8.37333 16.5584 8.63466 16.5584 8.976C16.5584 9.30666 16.6917 9.57333 16.9584 9.776C17.225 9.968 17.5877 10.064 18.0464 10.064ZM22.2957 3.488H23.8957L26.1997 9.2L28.4877 3.488H30.0877L26.9997 11.2H25.3997L22.2957 3.488ZM34.4219 3.248C35.4565 3.248 36.2885 3.58933 36.9179 4.272C37.5579 4.944 37.8779 5.81866 37.8779 6.896V7.632H32.0539C32.1285 8.37866 32.3899 8.976 32.8379 9.424C33.2859 9.86133 33.8512 10.08 34.5339 10.08C35.0885 10.08 35.5632 9.92 35.9579 9.6C36.3525 9.26933 36.5872 8.83733 36.6619 8.304L38.1019 8.56C37.9739 9.41333 37.5739 10.1067 36.9019 10.64C36.2299 11.1733 35.4299 11.44 34.5019 11.44C33.3499 11.44 32.4165 11.056 31.7019 10.288C30.9872 9.52 30.6299 8.544 30.6299 7.36C30.6299 6.176 30.9819 5.19466 31.6859 4.416C32.3899 3.63733 33.3019 3.248 34.4219 3.248ZM32.1339 6.416H36.4859C36.4645 5.88266 36.2619 5.44533 35.8779 5.104C35.5045 4.752 35.0192 4.576 34.4219 4.576C33.8565 4.576 33.3659 4.74666 32.9499 5.088C32.5445 5.41866 32.2725 5.86133 32.1339 6.416ZM39.5931 11.2V-3.8147e-06H41.1131V11.2H39.5931ZM43.015 11.2V-3.8147e-06H44.535V11.2H43.015ZM46.4369 11.2V3.488H47.9569V11.2H46.4369ZM47.1889 0.191997C47.4662 0.191997 47.7009 0.29333 47.8929 0.495996C48.0955 0.698663 48.1969 0.938663 48.1969 1.216C48.1969 1.504 48.0955 1.74933 47.8929 1.952C47.7009 2.144 47.4662 2.24 47.1889 2.24C46.9009 2.24 46.6555 2.144 46.4529 1.952C46.2609 1.74933 46.1649 1.504 46.1649 1.216C46.1649 0.938663 46.2609 0.698663 46.4529 0.495996C46.6555 0.29333 46.9009 0.191997 47.1889 0.191997ZM53.4584 3.248C54.6104 3.248 55.5597 3.64266 56.3064 4.432C57.053 5.22133 57.4264 6.19733 57.4264 7.36C57.4264 8.52266 57.053 9.49333 56.3064 10.272C55.5597 11.0507 54.6104 11.44 53.4584 11.44C52.2957 11.44 51.3357 11.0507 50.5784 10.272C49.821 9.49333 49.4424 8.52266 49.4424 7.36C49.4424 6.19733 49.821 5.22133 50.5784 4.432C51.3357 3.64266 52.2957 3.248 53.4584 3.248ZM51.6664 9.232C52.1357 9.73333 52.7277 9.984 53.4424 9.984C54.157 9.984 54.7437 9.73866 55.2024 9.248C55.6717 8.74666 55.9064 8.11733 55.9064 7.36C55.9064 6.592 55.6717 5.95733 55.2024 5.456C54.7437 4.95466 54.157 4.704 53.4424 4.704C52.7277 4.704 52.1357 4.96 51.6664 5.472C51.197 5.97333 50.9624 6.60266 50.9624 7.36C50.9624 8.10666 51.197 8.73066 51.6664 9.232Z" fill="#FFFCF1"/>
</svg>
