<svg width="168" height="28" viewBox="0 0 168 28" fill="none" xmlns="http://www.w3.org/2000/svg">
<path d="M50.4554 26.2329V5.05117H43.9207V2.14062H60.0942V5.05117H53.6558V26.2329H50.4554Z" fill="#EB5E28"/>
<path d="M60.8703 26.2336V8.80245H63.8138V12.0019L63.4927 11.5471C63.9048 10.5573 64.5256 9.82435 65.3712 9.34818C66.2115 8.8506 67.239 8.60449 68.4432 8.60449H69.5082V11.4508H67.9883C66.7574 11.4508 65.7673 11.8414 65.0126 12.6172C64.258 13.3716 63.878 14.447 63.878 15.8487V26.2282H60.8703V26.2336Z" fill="#EB5E28"/>
<path d="M77.2896 26.6234C76.1443 26.6234 75.1328 26.4201 74.2498 26.0081C73.3881 25.5748 72.7084 24.9969 72.2107 24.264C71.713 23.5096 71.4668 22.6482 71.4668 21.6744C71.4668 20.7007 71.6594 19.9195 72.0501 19.1866C72.4622 18.4322 73.0831 17.7955 73.9287 17.2765C74.7903 16.7575 75.8714 16.3937 77.1612 16.1797L83.6317 15.115V17.635L77.8409 18.6034C76.717 18.796 75.8981 19.1545 75.3844 19.6681C74.8866 20.1871 74.6404 20.8237 74.6404 21.5781C74.6404 22.2897 74.9187 22.8836 75.4807 23.3544C76.0641 23.8306 76.7866 24.066 77.6482 24.066C78.7507 24.066 79.698 23.8413 80.4954 23.3865C81.3143 22.9103 81.9511 22.2737 82.4061 21.4765C82.8824 20.6793 83.1179 19.7965 83.1179 18.8227V14.3927C83.1179 13.4457 82.7593 12.6806 82.0528 12.0975C81.3625 11.4929 80.4473 11.1933 79.302 11.1933C78.3119 11.1933 77.4234 11.4501 76.6474 11.9691C75.8928 12.4666 75.3309 13.1354 74.9669 13.9754L72.3445 12.6164C72.6656 11.8193 73.1847 11.1077 73.8966 10.4817C74.6084 9.8343 75.4379 9.32603 76.3852 8.96221C77.3325 8.5984 78.3279 8.41113 79.3608 8.41113C80.6988 8.41113 81.8709 8.66795 82.8877 9.18692C83.8993 9.6845 84.686 10.3854 85.2479 11.2896C85.8313 12.1724 86.1203 13.2103 86.1203 14.3927V26.2275H83.1767V22.9317L83.728 23.1244C83.3587 23.8145 82.8663 24.4191 82.2402 24.9327C81.614 25.4517 80.8808 25.8583 80.0405 26.1633C79.2003 26.4629 78.2851 26.6181 77.2896 26.6181V26.6234Z" fill="#EB5E28"/>
<path d="M95.3204 26.2329L88.4968 8.80176H91.8631L97.3274 23.5471H96.1607L101.657 8.80176H105.023L98.1677 26.2329H95.3204Z" fill="#EB5E28"/>
<path d="M115.417 26.6235C113.736 26.6235 112.238 26.2222 110.921 25.425C109.605 24.6278 108.572 23.5364 107.817 22.1613C107.063 20.7596 106.683 19.1973 106.683 17.4745C106.683 15.7517 107.052 14.1788 107.785 12.8198C108.54 11.4608 109.551 10.3961 110.825 9.62033C112.12 8.82314 113.565 8.42188 115.16 8.42188C116.455 8.42188 117.595 8.65728 118.591 9.13346C119.602 9.58823 120.458 10.2089 121.143 11.0114C121.855 11.7872 122.396 12.6807 122.76 13.6972C123.15 14.687 123.343 15.725 123.343 16.8004C123.343 17.0358 123.322 17.3087 123.279 17.6083C123.257 17.8865 123.225 18.1594 123.183 18.4162H108.888V15.8266H121.438L120.014 16.993C120.207 15.8694 120.1 14.8689 119.693 13.9861C119.281 13.1034 118.682 12.4025 117.884 11.8835C117.087 11.3645 116.182 11.1077 115.165 11.1077C114.149 11.1077 113.223 11.3645 112.382 11.8835C111.542 12.4025 110.884 13.1462 110.408 14.1145C109.953 15.0615 109.771 16.1958 109.856 17.512C109.771 18.7853 109.963 19.9035 110.44 20.8773C110.937 21.8243 111.628 22.568 112.511 23.1083C113.415 23.6273 114.4 23.8841 115.454 23.8841C116.621 23.8841 117.601 23.6166 118.398 23.0762C119.195 22.5359 119.843 21.8457 120.341 21.0057L122.861 22.3005C122.519 23.0976 121.978 23.8306 121.245 24.4994C120.533 25.1468 119.682 25.6658 118.692 26.051C117.724 26.4416 116.632 26.6342 115.428 26.6342L115.417 26.6235Z" fill="#EB5E28"/>
<path d="M127.266 26.2333V1.75586H130.273V26.2333H127.266Z" fill="#EB5E28"/>
<path d="M134.94 26.2333V1.75586H137.948V26.2333H134.94Z" fill="#EB5E28"/>
<path d="M142.621 26.2334V8.80221H145.628V26.2334H142.621ZM142.621 6.02542V2.14648H145.628V6.02542H142.621Z" fill="#EB5E28"/>
<path d="M158.574 26.6235C156.894 26.6235 155.374 26.2329 154.015 25.4571C152.655 24.6599 151.579 23.5685 150.782 22.1934C149.985 20.8131 149.583 19.2508 149.583 17.5066C149.583 15.7624 149.974 14.2109 150.75 12.8519C151.547 11.4929 152.628 10.4175 153.982 9.62033C155.342 8.82314 156.872 8.42188 158.574 8.42188C160.276 8.42188 161.775 8.82314 163.134 9.62033C164.494 10.3961 165.559 11.4662 166.335 12.8198C167.132 14.1788 167.533 15.741 167.533 17.5066C167.533 19.2722 167.121 20.8505 166.303 22.2255C165.484 23.5845 164.392 24.6599 163.038 25.4571C161.7 26.2329 160.212 26.6235 158.574 26.6235ZM158.574 23.7129C159.65 23.7129 160.624 23.4454 161.486 22.905C162.369 22.3647 163.059 21.621 163.557 20.674C164.076 19.727 164.333 18.6676 164.333 17.5066C164.333 16.3456 164.076 15.2756 163.557 14.3714C163.059 13.4458 162.369 12.7128 161.486 12.1724C160.624 11.6106 159.65 11.3324 158.574 11.3324C157.499 11.3324 156.482 11.6106 155.599 12.1724C154.737 12.7128 154.047 13.4458 153.528 14.3714C153.008 15.2756 152.752 16.3242 152.752 17.5066C152.752 18.689 153.008 19.727 153.528 20.674C154.047 21.621 154.737 22.3647 155.599 22.905C156.482 23.4454 157.477 23.7129 158.574 23.7129Z" fill="#EB5E28"/>
<path d="M0.168886 24.1255C-0.762345 20.054 2.34711 14.9873 4.8518 12.0072L5.39767 12.371C4.10251 14.1687 2.80736 16.5656 2.99467 18.8341C3.11242 20.2787 4.09182 21.3969 5.50472 21.7018C8.89782 22.4348 13.6075 19.444 16.048 17.2772L17.3485 16.1215L1.03053 5.43705C2.23471 4.29745 3.10707 3.50026 4.91066 4.09413L27.4154 11.5256L28.2449 10.7927C26.6982 9.72261 25.0178 7.78582 25.5208 5.80622L29.492 2.4088C31.8682 0.375702 36.123 -0.69435 39.0183 0.498759C40.2546 1.00703 39.9389 2.44625 39.5107 3.42C39.1147 4.31884 38.5474 5.07858 37.9319 5.84902C37.0489 6.86557 36.139 7.79652 35.1115 8.68466L29.2779 13.6979L35.9089 25.2598C36.1765 25.7199 36.0534 26.2549 35.7109 26.608L34.7743 27.5657L24.1454 20.5997L26.4253 17.2397L25.7082 16.7743L20.1422 21.536C17.4341 23.8527 13.752 26.0837 10.3589 27.1966C8.15927 27.9189 5.51006 28.3683 3.28902 27.5978C1.71021 27.0468 0.559553 25.7948 0.179568 24.1362L0.168886 24.1255Z" fill="#EB5E28"/>
</svg>
