<svg preserveAspectRatio="none" width="100%" height="100%" overflow="visible" style="display: block;" viewBox="0 0 60 60" fill="none" xmlns="http://www.w3.org/2000/svg">
<g id="Bed">
<path id="Vector" d="M50.625 16.875H7.5V11.25C7.5 10.7527 7.30246 10.2758 6.95083 9.92418C6.59919 9.57254 6.12228 9.375 5.625 9.375C5.12772 9.375 4.65081 9.57254 4.29917 9.92418C3.94754 10.2758 3.75 10.7527 3.75 11.25V48.75C3.75 49.2473 3.94754 49.7242 4.29917 50.0758C4.65081 50.4275 5.12772 50.625 5.625 50.625C6.12228 50.625 6.59919 50.4275 6.95083 50.0758C7.30246 49.7242 7.5 49.2473 7.5 48.75V41.25H56.25V48.75C56.25 49.2473 56.4475 49.7242 56.7992 50.0758C57.1508 50.4275 57.6277 50.625 58.125 50.625C58.6223 50.625 59.0992 50.4275 59.4508 50.0758C59.8025 49.7242 60 49.2473 60 48.75V26.25C60 23.7636 59.0123 21.379 57.2541 19.6209C55.496 17.8627 53.1114 16.875 50.625 16.875ZM7.5 20.625H24.375V37.5H7.5V20.625ZM28.125 37.5V20.625H50.625C52.1168 20.625 53.5476 21.2176 54.6025 22.2725C55.6574 23.3274 56.25 24.7582 56.25 26.25V37.5H28.125Z" fill="var(--fill-0, #FFFDF1)"/>
</g>
</svg>
