<svg preserveAspectRatio="none" width="100%" height="100%" overflow="visible" style="display: block;" viewBox="0 0 23.066 22.1052" fill="none" xmlns="http://www.w3.org/2000/svg">
<g id="ArrowRight">
<path id="Vector" d="M19.9715 11.5624L13.4844 18.0496C13.3491 18.1848 13.1657 18.2608 12.9744 18.2608C12.7831 18.2608 12.5997 18.1848 12.4645 18.0496C12.3292 17.9143 12.2532 17.7309 12.2532 17.5396C12.2532 17.3484 12.3292 17.1649 12.4645 17.0297L17.7218 11.7733H3.60409C3.41293 11.7733 3.22959 11.6973 3.09441 11.5622C2.95924 11.427 2.8833 11.2437 2.8833 11.0525C2.8833 10.8613 2.95924 10.678 3.09441 10.5428C3.22959 10.4076 3.41293 10.3317 3.60409 10.3317H17.7218L12.4645 5.0753C12.3292 4.94005 12.2532 4.75661 12.2532 4.56533C12.2532 4.37406 12.3292 4.19062 12.4645 4.05537C12.5997 3.92012 12.7831 3.84414 12.9744 3.84414C13.1657 3.84414 13.3491 3.92012 13.4844 4.05537L19.9715 10.5425C20.0386 10.6095 20.0917 10.689 20.128 10.7765C20.1643 10.864 20.1829 10.9578 20.1829 11.0525C20.1829 11.1472 20.1643 11.241 20.128 11.3285C20.0917 11.416 20.0386 11.4955 19.9715 11.5624Z" fill="var(--fill-0, #EB5E28)"/>
</g>
</svg>
