<svg width="24" height="20" viewBox="0 0 24 20" fill="none" xmlns="http://www.w3.org/2000/svg">
<path d="M0.287003 9.09043L9.09112 0.286312C9.27468 0.102755 9.52363 -0.000366211 9.78322 -0.000366211C10.0428 -0.000366211 10.2918 0.102755 10.4753 0.286312C10.6589 0.46987 10.762 0.718826 10.762 0.978415C10.762 1.238 10.6589 1.48696 10.4753 1.67052L3.34032 8.8043H22.5003C22.7597 8.8043 23.0085 8.90736 23.192 9.09082C23.3755 9.27427 23.4785 9.52309 23.4785 9.78253C23.4785 10.042 23.3755 10.2908 23.192 10.4742C23.0085 10.6577 22.7597 10.7608 22.5003 10.7608H3.34032L10.4753 17.8945C10.6589 18.0781 10.762 18.3271 10.762 18.5867C10.762 18.8462 10.6589 19.0952 10.4753 19.2788C10.2918 19.4623 10.0428 19.5654 9.78322 19.5654C9.52363 19.5654 9.27468 19.4623 9.09112 19.2788L0.287003 10.4746C0.196051 10.3838 0.123896 10.2759 0.074667 10.1571C0.0254383 10.0384 0.000101089 9.91109 0.000101089 9.78253C0.000101089 9.65398 0.0254383 9.52668 0.074667 9.40793C0.123896 9.28917 0.196051 9.18128 0.287003 9.09043Z" fill="#FFFDF1"/>
</svg>
