<svg preserveAspectRatio="none" width="100%" height="100%" overflow="visible" style="display: block;" viewBox="0 0 60 60" fill="none" xmlns="http://www.w3.org/2000/svg">
<g id="Sailboat">
<path id="Vector" d="M57.9398 40.4367C57.7867 40.1186 57.5469 39.8502 57.2479 39.6624C56.949 39.4745 56.6031 39.3749 56.25 39.375H33.75V33.75H50.625C50.9882 33.75 51.3436 33.6444 51.6479 33.4463C51.9523 33.2481 52.1925 32.9658 52.3395 32.6337C52.4864 32.3015 52.5338 31.9339 52.4757 31.5753C52.4177 31.2168 52.2567 30.8829 52.0125 30.6141L33.75 10.5258V1.875C33.7479 1.48852 33.6264 1.11212 33.4022 0.797325C33.178 0.48253 32.862 0.244718 32.4974 0.116435C32.1328 -0.0118477 31.7375 -0.0243326 31.3655 0.0806889C30.9936 0.18571 30.6632 0.403107 30.4195 0.703125L6.04453 30.7031C5.82418 30.9783 5.68589 31.3101 5.64552 31.6603C5.60515 32.0106 5.66435 32.3651 5.81631 32.6832C5.96828 33.0013 6.20685 33.2702 6.50466 33.4589C6.80247 33.6476 7.14745 33.7485 7.5 33.75H30V39.375H3.75C3.39665 39.3748 3.05043 39.4744 2.75124 39.6624C2.45206 39.8504 2.21208 40.1191 2.05898 40.4376C1.90587 40.756 1.84587 41.1113 1.88589 41.4623C1.92591 41.8134 2.06431 42.146 2.28516 42.4219L9.22266 51.0937C9.57319 51.5335 10.0185 51.8883 10.5254 52.1318C11.0323 52.3753 11.5877 52.5012 12.15 52.5H47.85C48.4123 52.5012 48.9677 52.3753 49.4746 52.1318C49.9815 51.8883 50.4268 51.5335 50.7773 51.0937L57.7148 42.4219C57.9357 42.1458 58.074 41.813 58.1138 41.4618C58.1536 41.1105 58.0933 40.7552 57.9398 40.4367ZM46.3875 30H33.75V16.0992L46.3875 30ZM11.4398 30L30 7.15547V30H11.4398ZM47.85 48.75H12.15L7.65 43.125H52.35L47.85 48.75Z" fill="var(--fill-0, #FFFDF1)"/>
</g>
</svg>
