<svg preserveAspectRatio="none" width="100%" height="100%" overflow="visible" style="display: block;" viewBox="0 0 31.3043 30.0003" fill="none" xmlns="http://www.w3.org/2000/svg">
<g id="ArrowRight">
<path id="Vector" d="M27.1045 15.6921L18.3004 24.4962C18.1169 24.6797 17.8679 24.7829 17.6083 24.7829C17.3487 24.7829 17.0998 24.6797 16.9162 24.4962C16.7327 24.3126 16.6295 24.0637 16.6295 23.8041C16.6295 23.5445 16.7327 23.2955 16.9162 23.112L24.0512 15.9782H4.89125C4.63181 15.9782 4.38299 15.8751 4.19954 15.6917C4.01608 15.5082 3.91302 15.2594 3.91302 15C3.91302 14.7405 4.01608 14.4917 4.19954 14.3082C4.38299 14.1248 4.63181 14.0217 4.89125 14.0217H24.0512L16.9162 6.88794C16.7327 6.70438 16.6295 6.45542 16.6295 6.19583C16.6295 5.93625 16.7327 5.68729 16.9162 5.50373C17.0998 5.32018 17.3487 5.21705 17.6083 5.21705C17.8679 5.21705 18.1169 5.32018 18.3004 5.50373L27.1045 14.3078C27.1955 14.3987 27.2676 14.5066 27.3169 14.6253C27.3661 14.7441 27.3914 14.8714 27.3914 15C27.3914 15.1285 27.3661 15.2558 27.3169 15.3746C27.2676 15.4933 27.1955 15.6012 27.1045 15.6921Z" fill="var(--fill-0, #FFFDF1)"/>
</g>
</svg>
