<svg preserveAspectRatio="none" width="100%" height="100%" overflow="visible" style="display: block;" viewBox="0 0 30.0002 25.0008" fill="none" xmlns="http://www.w3.org/2000/svg">
<path id="Vector" d="M29.6336 13.3847L18.3839 24.6345C18.1494 24.869 17.8313 25.0008 17.4996 25.0008C17.1679 25.0008 16.8498 24.869 16.6152 24.6345C16.3807 24.3999 16.2489 24.0818 16.2489 23.7501C16.2489 23.4184 16.3807 23.1003 16.6152 22.8658L25.7322 13.7504H1.24997C0.918457 13.7504 0.600522 13.6187 0.366108 13.3843C0.131693 13.1498 0 12.8319 0 12.5004C0 12.1689 0.131693 11.8509 0.366108 11.6165C0.600522 11.3821 0.918457 11.2504 1.24997 11.2504H25.7322L16.6152 2.13502C16.3807 1.90047 16.2489 1.58236 16.2489 1.25066C16.2489 0.918967 16.3807 0.600856 16.6152 0.366311C16.8498 0.131766 17.1679 0 17.4996 0C17.8313 0 18.1494 0.131766 18.3839 0.366311L29.6336 11.616C29.7499 11.7321 29.8421 11.87 29.905 12.0217C29.9679 12.1735 30.0002 12.3361 30.0002 12.5004C30.0002 12.6647 29.9679 12.8273 29.905 12.9791C29.8421 13.1308 29.7499 13.2687 29.6336 13.3847Z" fill="var(--fill-0, #EB5E28)"/>
</svg>
