<svg width="250" height="250" viewBox="0 0 250 250" fill="none" xmlns="http://www.w3.org/2000/svg">
<g clip-path="url(#clip0_144_17670)">
<circle cx="160.572" cy="232" r="8.92857" transform="rotate(180 160.572 232)" fill="#1888A2"/>
<circle cx="124.858" cy="232" r="8.92857" transform="rotate(180 124.858 232)" fill="#1888A2"/>
<circle cx="53.4279" cy="232" r="8.92857" transform="rotate(180 53.4279 232)" fill="#1888A2"/>
<circle cx="17.715" cy="232" r="8.92857" transform="rotate(180 17.715 232)" fill="#1888A2"/>
<circle cx="196.285" cy="196.286" r="8.92857" transform="rotate(180 196.285 196.286)" fill="#1888A2"/>
<circle cx="160.572" cy="196.286" r="8.92857" transform="rotate(180 160.572 196.286)" fill="#1888A2"/>
<circle cx="89.1427" cy="196.286" r="8.92857" transform="rotate(180 89.1427 196.286)" fill="#1888A2"/>
<circle cx="53.4279" cy="196.286" r="8.92857" transform="rotate(180 53.4279 196.286)" fill="#1888A2"/>
<circle cx="232" cy="160.57" r="8.92857" transform="rotate(180 232 160.57)" fill="#1888A2"/>
<circle cx="196.285" cy="160.571" r="17.8571" transform="rotate(180 196.285 160.571)" fill="#1888A2"/>
<circle cx="124.857" cy="160.57" r="13.3929" transform="rotate(180 124.857 160.57)" fill="#1888A2"/>
<circle cx="89.1427" cy="160.57" r="8.92857" transform="rotate(180 89.1427 160.57)" fill="#1888A2"/>
<circle cx="232" cy="124.857" r="17.8571" transform="rotate(180 232 124.857)" fill="#1888A2"/>
<circle cx="196.285" cy="124.857" r="17.8571" transform="rotate(180 196.285 124.857)" fill="#1888A2"/>
<circle cx="124.858" cy="124.857" r="17.8571" transform="rotate(180 124.858 124.857)" fill="#1888A2"/>
<circle cx="89.1423" cy="124.856" r="13.3929" transform="rotate(180 89.1423 124.856)" fill="#1888A2"/>
<circle cx="232" cy="89.1437" r="8.92857" transform="rotate(180 232 89.1437)" fill="#1888A2"/>
<circle cx="196.285" cy="89.1438" r="17.8571" transform="rotate(180 196.285 89.1438)" fill="#1888A2"/>
<circle cx="124.857" cy="89.1433" r="13.3929" transform="rotate(180 124.857 89.1433)" fill="#1888A2"/>
<circle cx="89.1427" cy="89.1437" r="8.92857" transform="rotate(180 89.1427 89.1437)" fill="#1888A2"/>
<circle cx="196.285" cy="53.4298" r="8.92857" transform="rotate(180 196.285 53.4298)" fill="#1888A2"/>
<circle cx="160.572" cy="53.4298" r="8.92857" transform="rotate(180 160.572 53.4298)" fill="#1888A2"/>
<circle cx="89.1427" cy="53.4298" r="8.92857" transform="rotate(180 89.1427 53.4298)" fill="#1888A2"/>
<circle cx="53.4279" cy="53.4298" r="8.92857" transform="rotate(180 53.4279 53.4298)" fill="#1888A2"/>
<circle cx="124.858" cy="17.714" r="8.92857" transform="rotate(180 124.858 17.714)" fill="#1888A2"/>
<circle cx="160.572" cy="17.714" r="8.92857" transform="rotate(180 160.572 17.714)" fill="#1888A2"/>
<circle cx="53.4279" cy="17.714" r="8.92857" transform="rotate(180 53.4279 17.714)" fill="#1888A2"/>
<circle cx="17.715" cy="17.714" r="8.92857" transform="rotate(180 17.715 17.714)" fill="#1888A2"/>
</g>
<defs>
<clipPath id="clip0_144_17670">
<rect width="250" height="250" fill="white" transform="matrix(-1 0 0 -1 250 250)"/>
</clipPath>
</defs>
</svg>
