<svg width="250" height="250" viewBox="0 0 250 250" fill="none" xmlns="http://www.w3.org/2000/svg">
<g clip-path="url(#clip0_144_17716)">
<circle cx="53.7151" cy="18.0003" r="13.3929" fill="#67E3FF"/>
<circle cx="89.4276" cy="17.9999" r="8.92857" fill="#67E3FF"/>
<circle cx="160.857" cy="17.9999" r="8.92857" fill="#67E3FF"/>
<circle cx="196.572" cy="17.9997" r="17.8571" fill="#67E3FF"/>
<circle cx="18.0003" cy="53.7141" r="13.3929" fill="#67E3FF"/>
<circle cx="53.7151" cy="53.7141" r="13.3929" fill="#67E3FF"/>
<circle cx="196.572" cy="53.7136" r="17.8571" fill="#67E3FF"/>
<circle cx="232.285" cy="53.7136" r="17.8571" fill="#67E3FF"/>
<circle cx="17.9999" cy="89.4296" r="8.92857" fill="#67E3FF"/>
<circle cx="232.285" cy="89.4296" r="8.92857" fill="#67E3FF"/>
<circle cx="17.9999" cy="160.856" r="8.92857" fill="#67E3FF"/>
<circle cx="232.285" cy="160.856" r="8.92857" fill="#67E3FF"/>
<circle cx="18.0003" cy="196.571" r="13.3929" fill="#67E3FF"/>
<circle cx="53.7146" cy="196.57" r="17.8571" fill="#67E3FF"/>
<circle cx="196.573" cy="196.571" r="13.3929" fill="#67E3FF"/>
<circle cx="232.285" cy="196.57" r="8.92857" fill="#67E3FF"/>
<circle cx="53.7151" cy="232.286" r="13.3929" fill="#67E3FF"/>
<circle cx="89.4276" cy="232.286" r="8.92857" fill="#67E3FF"/>
<circle cx="160.857" cy="232.286" r="8.92857" fill="#67E3FF"/>
<circle cx="196.572" cy="232.286" r="8.92857" fill="#67E3FF"/>
<circle cx="125.143" cy="89.43" r="13.3929" fill="#67E3FF"/>
<circle cx="89.4276" cy="125.143" r="8.92857" fill="#67E3FF"/>
<circle cx="125.142" cy="125.143" r="17.8571" fill="#67E3FF"/>
<circle cx="160.858" cy="125.144" r="13.3929" fill="#67E3FF"/>
<circle cx="125.143" cy="160.857" r="13.3929" fill="#67E3FF"/>
</g>
<defs>
<clipPath id="clip0_144_17716">
<rect width="250" height="250" fill="white"/>
</clipPath>
</defs>
</svg>
