<svg width="250" height="250" viewBox="0 0 250 250" fill="none" xmlns="http://www.w3.org/2000/svg">
<g clip-path="url(#clip0_144_17765)">
<circle cx="89.4287" cy="18" r="8.75" fill="#C4F0FF"/>
<circle cx="125.144" cy="18" r="8.75" fill="#C4F0FF"/>
<circle cx="160.856" cy="18" r="8.75" fill="#C4F0FF"/>
<circle cx="89.4287" cy="53.7139" r="8.75" fill="#C4F0FF"/>
<circle cx="125.144" cy="53.7139" r="13.125" fill="#C4F0FF"/>
<circle cx="160.856" cy="53.7139" r="17.5" fill="#C4F0FF"/>
<circle cx="18" cy="89.4297" r="8.75" fill="#C4F0FF"/>
<circle cx="53.7148" cy="89.4297" r="8.75" fill="#C4F0FF"/>
<circle cx="89.4287" cy="89.4297" r="13.125" fill="#C4F0FF"/>
<circle cx="125.144" cy="89.4297" r="17.5" fill="#C4F0FF"/>
<circle cx="160.856" cy="89.4297" r="17.5" fill="#C4F0FF"/>
<circle cx="196.571" cy="89.4297" r="17.5" fill="#C4F0FF"/>
<circle cx="232.285" cy="89.4297" r="8.75" fill="#C4F0FF"/>
<circle cx="18" cy="125.144" r="8.75" fill="#C4F0FF"/>
<circle cx="53.7148" cy="125.144" r="8.75" fill="#C4F0FF"/>
<circle cx="89.4287" cy="125.144" r="8.75" fill="#C4F0FF"/>
<circle cx="125.144" cy="125.144" r="13.125" fill="#C4F0FF"/>
<circle cx="160.856" cy="125.144" r="17.5" fill="#C4F0FF"/>
<circle cx="196.571" cy="125.144" r="13.125" fill="#C4F0FF"/>
<circle cx="232.285" cy="125.144" r="8.75" fill="#C4F0FF"/>
<circle cx="18" cy="160.856" r="8.75" fill="#C4F0FF"/>
<circle cx="53.7148" cy="160.856" r="8.75" fill="#C4F0FF"/>
<circle cx="89.4287" cy="160.856" r="8.75" fill="#C4F0FF"/>
<circle cx="125.144" cy="160.856" r="8.75" fill="#C4F0FF"/>
<circle cx="160.856" cy="160.856" r="13.125" fill="#C4F0FF"/>
<circle cx="196.571" cy="160.856" r="8.75" fill="#C4F0FF"/>
<circle cx="232.285" cy="160.856" r="8.75" fill="#C4F0FF"/>
<circle cx="89.4287" cy="196.57" r="8.75" fill="#C4F0FF"/>
<circle cx="125.144" cy="196.57" r="8.75" fill="#C4F0FF"/>
<circle cx="160.856" cy="196.57" r="8.75" fill="#C4F0FF"/>
<circle cx="89.4287" cy="232.286" r="8.75" fill="#C4F0FF"/>
<circle cx="125.144" cy="232.286" r="8.75" fill="#C4F0FF"/>
<circle cx="160.856" cy="232.286" r="8.75" fill="#C4F0FF"/>
</g>
<defs>
<clipPath id="clip0_144_17765">
<rect width="250" height="250" fill="white"/>
</clipPath>
</defs>
</svg>
