<svg width="250" height="250" viewBox="0 0 250 250" fill="none" xmlns="http://www.w3.org/2000/svg">
<g clip-path="url(#clip0_144_17821)">
<circle cx="89.4275" cy="17.9997" r="8.60714" fill="white"/>
<circle cx="125.143" cy="17.9996" r="12.9107" fill="white"/>
<circle cx="160.856" cy="17.9997" r="8.60714" fill="white"/>
<circle cx="53.7146" cy="53.7136" r="8.60714" fill="white"/>
<circle cx="89.4273" cy="53.7134" r="12.9107" fill="white"/>
<circle cx="125.144" cy="53.7143" r="17.2143" fill="white"/>
<circle cx="160.856" cy="53.7134" r="12.9107" fill="white"/>
<circle cx="196.572" cy="53.7136" r="8.60714" fill="white"/>
<circle cx="53.7146" cy="89.4294" r="8.60714" fill="white"/>
<circle cx="89.4282" cy="89.4301" r="17.2143" fill="white"/>
<circle cx="125.144" cy="89.4301" r="17.2143" fill="white"/>
<circle cx="160.857" cy="89.4301" r="17.2143" fill="white"/>
<circle cx="196.572" cy="89.4294" r="8.60714" fill="white"/>
<circle cx="53.7146" cy="125.143" r="8.60714" fill="white"/>
<circle cx="89.4273" cy="125.143" r="12.9107" fill="white"/>
<circle cx="125.144" cy="125.144" r="17.2143" fill="white"/>
<circle cx="160.856" cy="125.143" r="12.9107" fill="white"/>
<circle cx="196.572" cy="125.143" r="8.60714" fill="white"/>
<circle cx="89.4275" cy="160.856" r="8.60714" fill="white"/>
<circle cx="125.143" cy="160.856" r="12.9107" fill="white"/>
<circle cx="160.856" cy="160.856" r="8.60714" fill="white"/>
<circle cx="53.7146" cy="196.57" r="8.60714" fill="white"/>
<circle cx="89.4273" cy="196.57" r="12.9107" fill="white"/>
<circle cx="125.143" cy="196.57" r="12.9107" fill="white"/>
<circle cx="160.856" cy="196.57" r="12.9107" fill="white"/>
<circle cx="196.572" cy="196.57" r="8.60714" fill="white"/>
<circle cx="17.9997" cy="232.286" r="8.60714" fill="white"/>
<circle cx="53.7144" cy="232.286" r="12.9107" fill="white"/>
<circle cx="89.4273" cy="232.286" r="12.9107" fill="white"/>
<circle cx="125.143" cy="232.286" r="12.9107" fill="white"/>
<circle cx="160.856" cy="232.286" r="12.9107" fill="white"/>
<circle cx="196.572" cy="232.286" r="12.9107" fill="white"/>
<circle cx="232.285" cy="232.286" r="8.60714" fill="white"/>
</g>
<defs>
<clipPath id="clip0_144_17821">
<rect width="250" height="250" fill="white"/>
</clipPath>
</defs>
</svg>
