<svg width="32" height="32" viewBox="0 0 32 32" fill="none" xmlns="http://www.w3.org/2000/svg">
<path d="M16.0003 2.6665C8.64033 2.6665 2.66699 8.63984 2.66699 15.9998C2.66699 23.3598 8.64033 29.3332 16.0003 29.3332C23.3603 29.3332 29.3337 23.3598 29.3337 15.9998C29.3337 8.63984 23.3603 2.6665 16.0003 2.6665ZM11.3737 17.9598C11.7603 18.3465 11.7603 18.9865 11.3737 19.3732C11.1737 19.5732 10.9203 19.6665 10.667 19.6665C10.4137 19.6665 10.1603 19.5732 9.96032 19.3732L7.29366 16.7065C6.90699 16.3198 6.90699 15.6798 7.29366 15.2932L9.96032 12.6265C10.347 12.2398 10.987 12.2398 11.3737 12.6265C11.7603 13.0132 11.7603 13.6532 11.3737 14.0398L9.41366 15.9998L11.3737 17.9598ZM18.2537 13.2798L15.587 19.5065C15.427 19.8798 15.0537 20.1065 14.667 20.1065C14.5337 20.1065 14.4003 20.0798 14.2803 20.0265C13.7737 19.8132 13.5337 19.2265 13.7603 18.7065L16.427 12.4798C16.6403 11.9732 17.227 11.7332 17.7337 11.9598C18.2403 12.1865 18.467 12.7732 18.2537 13.2798ZM24.707 16.7065L22.0403 19.3732C21.8403 19.5732 21.587 19.6665 21.3337 19.6665C21.0803 19.6665 20.827 19.5732 20.627 19.3732C20.2403 18.9865 20.2403 18.3465 20.627 17.9598L22.587 15.9998L20.627 14.0398C20.2403 13.6532 20.2403 13.0132 20.627 12.6265C21.0137 12.2398 21.6537 12.2398 22.0403 12.6265L24.707 15.2932C25.0937 15.6798 25.0937 16.3198 24.707 16.7065Z" fill="white"/>
</svg>
