<svg width="32" height="32" viewBox="0 0 32 32" fill="none" xmlns="http://www.w3.org/2000/svg">
<path d="M9.33366 2.6665H8.00033C4.00033 2.6665 2.66699 5.05317 2.66699 7.99984V9.33317V27.9998C2.66699 29.1065 3.92033 29.7332 4.80033 29.0665L7.08033 27.3598C7.61366 26.9598 8.36033 27.0132 8.84033 27.4932L11.0537 29.7198C11.5737 30.2398 12.427 30.2398 12.947 29.7198L15.187 27.4798C15.6537 27.0132 16.4003 26.9598 16.9203 27.3598L19.2003 29.0665C20.0803 29.7198 21.3337 29.0932 21.3337 27.9998V5.33317C21.3337 3.8665 22.5337 2.6665 24.0003 2.6665H9.33366ZM8.76033 10.7065C9.49366 10.7065 10.0937 11.3065 10.0937 12.0398C10.0937 12.7732 9.49366 13.3732 8.76033 13.3732C8.02699 13.3732 7.42699 12.7732 7.42699 12.0398C7.42699 11.3065 8.02699 10.7065 8.76033 10.7065ZM15.2403 18.7732C14.4937 18.7732 13.907 18.1732 13.907 17.4398C13.907 16.7065 14.507 16.1065 15.2403 16.1065C15.9737 16.1065 16.5737 16.7065 16.5737 17.4398C16.5737 18.1732 15.9737 18.7732 15.2403 18.7732ZM16.347 11.7332L9.06699 19.0132C8.86699 19.2132 8.61366 19.3065 8.36033 19.3065C8.10699 19.3065 7.85366 19.2132 7.65366 19.0132C7.26699 18.6265 7.26699 17.9865 7.65366 17.5998L14.9337 10.3198C15.3203 9.93317 15.9603 9.93317 16.347 10.3198C16.7337 10.7065 16.7337 11.3465 16.347 11.7332Z" fill="white"/>
<path d="M24.013 2.6665V4.6665C24.893 4.6665 25.733 5.0265 26.3463 5.6265C26.9863 6.27984 27.333 7.11984 27.333 7.99984V11.2265C27.333 12.2132 26.893 12.6665 25.893 12.6665H23.333V5.3465C23.333 4.97317 23.6397 4.6665 24.013 4.6665V2.6665ZM24.013 2.6665C22.533 2.6665 21.333 3.8665 21.333 5.3465V14.6665H25.893C27.9997 14.6665 29.333 13.3332 29.333 11.2265V7.99984C29.333 6.53317 28.733 5.19984 27.773 4.2265C26.7997 3.2665 25.4797 2.67984 24.013 2.6665C24.0263 2.6665 24.013 2.6665 24.013 2.6665Z" fill="white"/>
</svg>
