<svg preserveAspectRatio="none" width="100%" height="100%" overflow="visible" style="display: block;" viewBox="0 0 114.919 110.132" fill="none" xmlns="http://www.w3.org/2000/svg">
<g id="ArrowRight">
<path id="Vector" d="M99.5008 57.6065L67.1808 89.9265C66.507 90.6004 65.593 90.9789 64.6401 90.9789C63.6871 90.9789 62.7732 90.6004 62.0994 89.9265C61.4255 89.2527 61.047 88.3388 61.047 87.3858C61.047 86.4329 61.4255 85.5189 62.0994 84.8451L88.2921 58.6569H17.9556C17.0032 58.6569 16.0897 58.2785 15.4163 57.6051C14.7428 56.9316 14.3645 56.0182 14.3645 55.0658C14.3645 54.1133 14.7428 53.1999 15.4163 52.5265C16.0897 51.853 17.0032 51.4747 17.9556 51.4747H88.2921L62.0994 25.2864C61.4255 24.6126 61.047 23.6987 61.047 22.7457C61.047 21.7928 61.4255 20.8789 62.0994 20.205C62.7732 19.5312 63.6871 19.1526 64.6401 19.1526C65.593 19.1526 66.507 19.5312 67.1808 20.205L99.5008 52.5251C99.8347 52.8586 100.1 53.2546 100.28 53.6906C100.461 54.1265 100.554 54.5938 100.554 55.0658C100.554 55.5377 100.461 56.005 100.28 56.441C100.1 56.8769 99.8347 57.273 99.5008 57.6065Z" fill="var(--fill-0, #FFFDF1)"/>
</g>
</svg>
