<svg preserveAspectRatio="none" width="100%" height="100%" overflow="visible" style="display: block;" viewBox="0 0 24 19" fill="none" xmlns="http://www.w3.org/2000/svg">
<g id="Icons">
<path id="Vector" d="M21.7336 6.92322L12.6431 15.2556C12.5587 15.3331 12.4585 15.3946 12.3481 15.4365C12.2378 15.4784 12.1195 15.5 12 15.5C11.8805 15.5 11.7622 15.4784 11.6519 15.4365C11.5415 15.3946 11.4413 15.3331 11.3568 15.2556L2.2664 6.92322C2.09583 6.76687 2 6.55482 2 6.3337C2 6.11259 2.09583 5.90054 2.2664 5.74419C2.43697 5.58784 2.66832 5.5 2.90955 5.5C3.15078 5.5 3.38213 5.58784 3.5527 5.74419L12 13.4881L20.4473 5.74419C20.5318 5.66677 20.632 5.60536 20.7424 5.56346C20.8527 5.52156 20.971 5.5 21.0904 5.5C21.2099 5.5 21.3282 5.52156 21.4385 5.56346C21.5489 5.60536 21.6491 5.66677 21.7336 5.74419C21.8181 5.8216 21.8851 5.91351 21.9308 6.01466C21.9765 6.11581 22 6.22422 22 6.3337C22 6.44319 21.9765 6.5516 21.9308 6.65275C21.8851 6.7539 21.8181 6.8458 21.7336 6.92322Z" fill="var(--fill-0, #FFFDF1)"/>
</g>
</svg>
