<svg preserveAspectRatio="none" width="100%" height="100%" overflow="visible" style="display: block;" viewBox="0 0 60 60" fill="none" xmlns="http://www.w3.org/2000/svg">
<g id="EnvelopeSimple">
<path id="Vector" d="M52.5 11.25H7.5C7.00272 11.25 6.52581 11.4475 6.17417 11.7992C5.82254 12.1508 5.625 12.6277 5.625 13.125V45C5.625 45.9946 6.02009 46.9484 6.72335 47.6516C7.42661 48.3549 8.38044 48.75 9.375 48.75H50.625C51.6196 48.75 52.5734 48.3549 53.2766 47.6516C53.9799 46.9484 54.375 45.9946 54.375 45V13.125C54.375 12.6277 54.1775 12.1508 53.8258 11.7992C53.4742 11.4475 52.9973 11.25 52.5 11.25ZM47.6789 15L30 31.207L12.3211 15H47.6789ZM50.625 45H9.375V17.3883L28.732 35.1328C29.078 35.4504 29.5304 35.6266 30 35.6266C30.4696 35.6266 30.922 35.4504 31.268 35.1328L50.625 17.3883V45Z" fill="var(--fill-0, #FFFDF1)"/>
</g>
</svg>
