<svg preserveAspectRatio="none" width="100%" height="100%" overflow="visible" style="display: block;" viewBox="0 0 60 60" fill="none" xmlns="http://www.w3.org/2000/svg">
<g id="Compass">
<path id="Vector" d="M30 5.625C25.1791 5.625 20.4664 7.05457 16.458 9.73293C12.4495 12.4113 9.32532 16.2181 7.48044 20.6721C5.63555 25.126 5.15284 30.027 6.09336 34.7553C7.03387 39.4836 9.35537 43.8268 12.7643 47.2357C16.1732 50.6446 20.5164 52.9661 25.2447 53.9066C29.973 54.8472 34.874 54.3644 39.3279 52.5196C43.7819 50.6747 47.5887 47.5505 50.2671 43.542C52.9454 39.5336 54.375 34.8209 54.375 30C54.3682 23.5374 51.7979 17.3415 47.2282 12.7718C42.6585 8.20209 36.4626 5.63182 30 5.625ZM30 50.625C25.9208 50.625 21.9331 49.4154 18.5414 47.1491C15.1496 44.8828 12.506 41.6616 10.945 37.8928C9.38393 34.1241 8.97548 29.9771 9.7713 25.9763C10.5671 21.9754 12.5315 18.3004 15.4159 15.4159C18.3004 12.5315 21.9754 10.5671 25.9763 9.7713C29.9771 8.97548 34.1241 9.38393 37.8928 10.945C41.6616 12.506 44.8828 15.1496 47.1491 18.5414C49.4154 21.9331 50.625 25.9208 50.625 30C50.6188 35.4682 48.4438 40.7106 44.5772 44.5772C40.7106 48.4438 35.4682 50.6188 30 50.625ZM40.4109 17.0719L25.4109 24.5719C25.0483 24.754 24.754 25.0483 24.5719 25.4109L17.0719 40.4109C16.9288 40.6969 16.8612 41.0147 16.8755 41.3342C16.8899 41.6536 16.9857 41.9641 17.1539 42.2361C17.322 42.508 17.557 42.7325 17.8363 42.8881C18.1157 43.0437 18.4302 43.1252 18.75 43.125C19.0411 43.1246 19.3282 43.0572 19.5891 42.9281L34.5891 35.4281C34.9517 35.246 35.246 34.9517 35.4281 34.5891L42.9281 19.5891C43.1051 19.2369 43.1665 18.8379 43.1038 18.4487C43.041 18.0596 42.8572 17.7002 42.5785 17.4215C42.2998 17.1428 41.9404 16.959 41.5512 16.8962C41.1621 16.8335 40.7631 16.8949 40.4109 17.0719ZM32.3437 32.3437L22.943 37.057L27.6562 27.6562L37.0664 22.9523L32.3437 32.3437Z" fill="var(--fill-0, #FFFDF1)"/>
</g>
</svg>
