<svg preserveAspectRatio="none" width="100%" height="100%" overflow="visible" style="display: block;" viewBox="0 0 60 60" fill="none" xmlns="http://www.w3.org/2000/svg">
<g id="Lightning">
<path id="Vector" d="M50.5758 27.6961C50.5048 27.3956 50.3607 27.1172 50.1562 26.8858C49.9518 26.6544 49.6934 26.4771 49.4039 26.3695L35.9016 21.3047L39.3375 4.11797C39.4153 3.71864 39.3611 3.30485 39.1831 2.93902C39.0051 2.57319 38.7129 2.27519 38.3507 2.08997C37.9885 1.90476 37.5758 1.84238 37.1751 1.91226C36.7743 1.98214 36.4071 2.18047 36.1289 2.47734L9.87891 30.6023C9.66571 30.827 9.51148 31.101 9.42999 31.3998C9.34851 31.6986 9.34231 32.0129 9.41195 32.3147C9.48159 32.6165 9.62491 32.8963 9.82908 33.1292C10.0333 33.362 10.2919 33.5407 10.582 33.6492L24.0891 38.7141L20.6625 55.882C20.5847 56.2814 20.6389 56.6952 20.8169 57.061C20.9949 57.4268 21.2871 57.7248 21.6493 57.91C22.0115 58.0952 22.4242 58.1576 22.8249 58.0877C23.2257 58.0179 23.5929 57.8195 23.8711 57.5227L50.1211 29.3977C50.3304 29.173 50.4814 28.9003 50.5607 28.6036C50.6399 28.3069 50.6451 27.9953 50.5758 27.6961ZM25.6336 50.1563L28.0875 37.8797C28.1753 37.4443 28.1057 36.9919 27.8911 36.603C27.6765 36.2141 27.3308 35.914 26.9156 35.7563L14.5313 31.1039L34.3641 9.85547L31.9125 22.132C31.8247 22.5674 31.8943 23.0199 32.1089 23.4087C32.3235 23.7976 32.6692 24.0977 33.0844 24.2555L45.4594 28.8961L25.6336 50.1563Z" fill="var(--fill-0, #FFFDF1)"/>
</g>
</svg>
