<svg preserveAspectRatio="none" width="100%" height="100%" overflow="visible" style="display: block;" viewBox="0 0 60 60" fill="none" xmlns="http://www.w3.org/2000/svg">
<g id="FileText">
<path id="Vector" d="M50.0766 19.2984L36.9516 6.17344C36.7773 5.99937 36.5705 5.86135 36.3428 5.76724C36.1152 5.67314 35.8713 5.62481 35.625 5.625H13.125C12.1304 5.625 11.1766 6.02009 10.4733 6.72335C9.77009 7.42661 9.375 8.38044 9.375 9.375V50.625C9.375 51.6196 9.77009 52.5734 10.4733 53.2766C11.1766 53.9799 12.1304 54.375 13.125 54.375H46.875C47.8696 54.375 48.8234 53.9799 49.5266 53.2766C50.2299 52.5734 50.625 51.6196 50.625 50.625V20.625C50.6252 20.3787 50.5769 20.1348 50.4828 19.9072C50.3887 19.6795 50.2506 19.4727 50.0766 19.2984ZM37.5 12.0258L44.2242 18.75H37.5V12.0258ZM46.875 50.625H13.125V9.375H33.75V20.625C33.75 21.1223 33.9475 21.5992 34.2992 21.9508C34.6508 22.3025 35.1277 22.5 35.625 22.5H46.875V50.625ZM39.375 31.875C39.375 32.3723 39.1775 32.8492 38.8258 33.2008C38.4742 33.5525 37.9973 33.75 37.5 33.75H22.5C22.0027 33.75 21.5258 33.5525 21.1742 33.2008C20.8225 32.8492 20.625 32.3723 20.625 31.875C20.625 31.3777 20.8225 30.9008 21.1742 30.5492C21.5258 30.1975 22.0027 30 22.5 30H37.5C37.9973 30 38.4742 30.1975 38.8258 30.5492C39.1775 30.9008 39.375 31.3777 39.375 31.875ZM39.375 39.375C39.375 39.8723 39.1775 40.3492 38.8258 40.7008C38.4742 41.0525 37.9973 41.25 37.5 41.25H22.5C22.0027 41.25 21.5258 41.0525 21.1742 40.7008C20.8225 40.3492 20.625 39.8723 20.625 39.375C20.625 38.8777 20.8225 38.4008 21.1742 38.0492C21.5258 37.6975 22.0027 37.5 22.5 37.5H37.5C37.9973 37.5 38.4742 37.6975 38.8258 38.0492C39.1775 38.4008 39.375 38.8777 39.375 39.375Z" fill="var(--fill-0, #FFFDF1)"/>
</g>
</svg>
