<svg preserveAspectRatio="none" width="100%" height="100%" overflow="visible" style="display: block;" viewBox="0 0 60 60" fill="none" xmlns="http://www.w3.org/2000/svg">
<g id="CreditCard">
<path id="Vector" d="M52.5 11.25H7.5C6.50544 11.25 5.55161 11.6451 4.84835 12.3483C4.14509 13.0516 3.75 14.0054 3.75 15V45C3.75 45.9946 4.14509 46.9484 4.84835 47.6516C5.55161 48.3549 6.50544 48.75 7.5 48.75H52.5C53.4946 48.75 54.4484 48.3549 55.1516 47.6516C55.8549 46.9484 56.25 45.9946 56.25 45V15C56.25 14.0054 55.8549 13.0516 55.1516 12.3483C54.4484 11.6451 53.4946 11.25 52.5 11.25ZM52.5 15V20.625H7.5V15H52.5ZM52.5 45H7.5V24.375H52.5V45ZM48.75 39.375C48.75 39.8723 48.5525 40.3492 48.2008 40.7008C47.8492 41.0525 47.3723 41.25 46.875 41.25H39.375C38.8777 41.25 38.4008 41.0525 38.0492 40.7008C37.6975 40.3492 37.5 39.8723 37.5 39.375C37.5 38.8777 37.6975 38.4008 38.0492 38.0492C38.4008 37.6975 38.8777 37.5 39.375 37.5H46.875C47.3723 37.5 47.8492 37.6975 48.2008 38.0492C48.5525 38.4008 48.75 38.8777 48.75 39.375ZM33.75 39.375C33.75 39.8723 33.5525 40.3492 33.2008 40.7008C32.8492 41.0525 32.3723 41.25 31.875 41.25H28.125C27.6277 41.25 27.1508 41.0525 26.7992 40.7008C26.4475 40.3492 26.25 39.8723 26.25 39.375C26.25 38.8777 26.4475 38.4008 26.7992 38.0492C27.1508 37.6975 27.6277 37.5 28.125 37.5H31.875C32.3723 37.5 32.8492 37.6975 33.2008 38.0492C33.5525 38.4008 33.75 38.8777 33.75 39.375Z" fill="var(--fill-0, #FFFDF1)"/>
</g>
</svg>
