<svg preserveAspectRatio="none" width="100%" height="100%" overflow="visible" style="display: block;" viewBox="0 0 60 60" fill="none" xmlns="http://www.w3.org/2000/svg">
<g id="Money">
<path id="Vector" d="M30 20.625C28.1458 20.625 26.3332 21.1748 24.7915 22.205C23.2498 23.2351 22.0482 24.6993 21.3386 26.4123C20.6291 28.1254 20.4434 30.0104 20.8051 31.829C21.1669 33.6475 22.0598 35.318 23.3709 36.6291C24.682 37.9402 26.3525 38.8331 28.171 39.1949C29.9896 39.5566 31.8746 39.3709 33.5877 38.6614C35.3007 37.9518 36.7649 36.7502 37.795 35.2085C38.8252 33.6668 39.375 31.8542 39.375 30C39.375 27.5136 38.3873 25.129 36.6291 23.3709C34.871 21.6127 32.4864 20.625 30 20.625ZM30 35.625C28.8875 35.625 27.7999 35.2951 26.8749 34.677C25.9499 34.0589 25.2289 33.1804 24.8032 32.1526C24.3774 31.1248 24.266 29.9938 24.4831 28.9026C24.7001 27.8115 25.2359 26.8092 26.0225 26.0225C26.8092 25.2359 27.8115 24.7001 28.9026 24.4831C29.9938 24.266 31.1248 24.3774 32.1526 24.8032C33.1804 25.2289 34.0589 25.9499 34.677 26.8749C35.2951 27.7999 35.625 28.8875 35.625 30C35.625 31.4918 35.0324 32.9226 33.9775 33.9775C32.9226 35.0324 31.4918 35.625 30 35.625ZM56.25 13.125H3.75C3.25272 13.125 2.77581 13.3225 2.42417 13.6742C2.07254 14.0258 1.875 14.5027 1.875 15V45C1.875 45.4973 2.07254 45.9742 2.42417 46.3258C2.77581 46.6775 3.25272 46.875 3.75 46.875H56.25C56.7473 46.875 57.2242 46.6775 57.5758 46.3258C57.9275 45.9742 58.125 45.4973 58.125 45V15C58.125 14.5027 57.9275 14.0258 57.5758 13.6742C57.2242 13.3225 56.7473 13.125 56.25 13.125ZM45.3867 43.125H14.6133C13.9838 40.9959 12.8316 39.0582 11.2617 37.4883C9.69178 35.9184 7.75406 34.7662 5.625 34.1367V25.8633C7.75406 25.2338 9.69178 24.0816 11.2617 22.5117C12.8316 20.9418 13.9838 19.0041 14.6133 16.875H45.3867C46.0162 19.0041 47.1684 20.9418 48.7383 22.5117C50.3082 24.0816 52.2459 25.2338 54.375 25.8633V34.1367C52.2459 34.7662 50.3082 35.9184 48.7383 37.4883C47.1684 39.0582 46.0162 40.9959 45.3867 43.125ZM54.375 21.8836C52.126 20.9165 50.3335 19.124 49.3664 16.875H54.375V21.8836ZM10.6336 16.875C9.66654 19.124 7.87397 20.9165 5.625 21.8836V16.875H10.6336ZM5.625 38.1164C7.87397 39.0835 9.66654 40.876 10.6336 43.125H5.625V38.1164ZM49.3664 43.125C50.3335 40.876 52.126 39.0835 54.375 38.1164V43.125H49.3664Z" fill="var(--fill-0, #FFFDF1)"/>
</g>
</svg>
