<svg preserveAspectRatio="none" width="100%" height="100%" overflow="visible" style="display: block;" viewBox="0 0 60 60" fill="none" xmlns="http://www.w3.org/2000/svg">
<g id="HandCoins" clip-path="url(#clip0_0_857)">
<path id="Vector" d="M53.9836 33.0609C53.2859 32.5241 52.4738 32.1554 51.6104 31.9835C50.747 31.8115 49.8556 31.841 49.0055 32.0695L39.1992 34.3242C39.4274 33.3605 39.4344 32.3575 39.2198 31.3907C39.0052 30.4238 38.5746 29.518 37.9602 28.7412C37.3457 27.9645 36.5635 27.3368 35.672 26.9054C34.7805 26.474 33.8029 26.2499 32.8125 26.25H21.0797C20.0944 26.2475 19.1183 26.4403 18.208 26.8173C17.2976 27.1942 16.471 27.7478 15.7758 28.4461L10.4742 33.75H3.75C2.75544 33.75 1.80161 34.1451 1.09835 34.8484C0.395088 35.5516 0 36.5054 0 37.5L0 46.875C0 47.8696 0.395088 48.8234 1.09835 49.5267C1.80161 50.2299 2.75544 50.625 3.75 50.625H28.125C28.2783 50.6251 28.431 50.6062 28.5797 50.5688L43.5797 46.8188C43.6753 46.796 43.7686 46.7646 43.8586 46.725L52.9688 42.8484L53.0719 42.8016C53.9474 42.3641 54.6972 41.7109 55.2505 40.9035C55.8039 40.0961 56.1426 39.1612 56.2347 38.1868C56.3268 37.2124 56.1694 36.2305 55.7772 35.3337C55.385 34.437 54.771 33.6548 53.993 33.0609H53.9836ZM3.75 37.5H9.375V46.875H3.75V37.5ZM51.4289 39.4242L42.5227 43.2164L27.8906 46.875H13.125V36.4008L18.4289 31.0992C18.7759 30.7495 19.1889 30.4722 19.6439 30.2835C20.099 30.0948 20.5871 29.9984 21.0797 30H32.8125C33.5584 30 34.2738 30.2963 34.8012 30.8238C35.3287 31.3512 35.625 32.0666 35.625 32.8125C35.625 33.5584 35.3287 34.2738 34.8012 34.8012C34.2738 35.3287 33.5584 35.625 32.8125 35.625H26.25C25.7527 35.625 25.2758 35.8225 24.9242 36.1742C24.5725 36.5258 24.375 37.0027 24.375 37.5C24.375 37.9973 24.5725 38.4742 24.9242 38.8258C25.2758 39.1775 25.7527 39.375 26.25 39.375H33.75C33.8911 39.3746 34.0318 39.3589 34.1695 39.3281L49.8727 35.7164L49.9453 35.6977C50.4247 35.5646 50.9363 35.6135 51.3818 35.835C51.8273 36.0564 52.1751 36.4348 52.3584 36.8973C52.5416 37.3599 52.5474 37.8738 52.3745 38.3403C52.2016 38.8068 51.8623 39.1929 51.4219 39.4242H51.4289ZM38.4375 22.5C38.9007 22.5005 39.3632 22.4629 39.8203 22.3875C40.3344 23.9146 41.275 25.2625 42.5309 26.2719C43.7868 27.2813 45.3055 27.91 46.9074 28.0837C48.5093 28.2574 50.1274 27.9687 51.5704 27.2519C53.0135 26.5351 54.2211 25.4201 55.0505 24.0387C55.88 22.6573 56.2965 21.0673 56.2509 19.4566C56.2053 17.846 55.6995 16.2821 54.7933 14.9498C53.8871 13.6176 52.6183 12.5726 51.137 11.9386C49.6557 11.3045 48.0239 11.1079 46.4344 11.3719C45.9393 9.90058 45.048 8.59436 43.8585 7.59698C42.669 6.59959 41.2273 5.94971 39.6922 5.71884C38.1572 5.48796 36.5881 5.68506 35.1579 6.28843C33.7276 6.8918 32.4915 7.87806 31.5856 9.13867C30.6797 10.3993 30.1391 11.8854 30.0234 13.4334C29.9076 14.9814 30.2212 16.5314 30.9295 17.9127C31.6379 19.294 32.7136 20.4531 34.0382 21.2624C35.3629 22.0718 36.8852 22.5 38.4375 22.5ZM52.5 19.6875C52.5 20.6146 52.2251 21.5209 51.71 22.2917C51.1949 23.0626 50.4629 23.6634 49.6063 24.0182C48.7498 24.373 47.8073 24.4658 46.898 24.2849C45.9887 24.1041 45.1535 23.6576 44.4979 23.0021C43.8424 22.3465 43.3959 21.5113 43.2151 20.602C43.0342 19.6927 43.127 18.7502 43.4818 17.8937C43.8366 17.0371 44.4374 16.3051 45.2083 15.79C45.9791 15.2749 46.8854 15 47.8125 15C49.0557 15 50.248 15.4939 51.1271 16.3729C52.0061 17.252 52.5 18.4443 52.5 19.6875ZM38.4375 9.375C39.4601 9.37551 40.4545 9.7104 41.269 10.3286C42.0836 10.9468 42.6736 11.8145 42.9492 12.7992C41.9889 13.4749 41.1802 14.3436 40.5748 15.3497C39.9695 16.3558 39.5808 17.4772 39.4336 18.6422C39.1062 18.7129 38.7724 18.749 38.4375 18.75C37.1943 18.75 36.002 18.2561 35.1229 17.3771C34.2439 16.498 33.75 15.3057 33.75 14.0625C33.75 12.8193 34.2439 11.627 35.1229 10.7479C36.002 9.86886 37.1943 9.375 38.4375 9.375Z" fill="var(--fill-0, #FFFDF1)"/>
</g>
<defs>
<clipPath id="clip0_0_857">
<rect width="60" height="60" fill="white"/>
</clipPath>
</defs>
</svg>
