<svg preserveAspectRatio="none" width="100%" height="100%" overflow="visible" style="display: block;" viewBox="0 0 245 234.794" fill="none" xmlns="http://www.w3.org/2000/svg">
<g id="ArrowRight">
<path id="Vector" d="M212.13 122.814L143.226 191.718C141.789 193.155 139.841 193.962 137.809 193.962C135.778 193.962 133.829 193.155 132.392 191.718C130.956 190.282 130.149 188.333 130.149 186.302C130.149 184.27 130.956 182.322 132.392 180.885L188.234 125.053H38.2804C36.2499 125.053 34.3025 124.247 32.8667 122.811C31.431 121.375 30.6243 119.428 30.6243 117.397C30.6243 115.367 31.431 113.419 32.8667 111.983C34.3025 110.548 36.2499 109.741 38.2804 109.741H188.234L132.392 53.9093C130.956 52.4727 130.149 50.5243 130.149 48.4926C130.149 46.461 130.956 44.5125 132.392 43.0759C133.829 41.6394 135.778 40.8323 137.809 40.8323C139.841 40.8323 141.789 41.6394 143.226 43.0759L212.13 111.98C212.842 112.692 213.407 113.536 213.792 114.465C214.177 115.395 214.376 116.391 214.376 117.397C214.376 118.403 214.177 119.4 213.792 120.329C213.407 121.258 212.842 122.103 212.13 122.814Z" fill="var(--fill-0, #FFFDF1)"/>
</g>
</svg>
