<svg width="150" height="79" viewBox="0 0 150 79" fill="none" xmlns="http://www.w3.org/2000/svg">
<path d="M82.21 58.0249C84.184 57.8278 86.9433 58.1999 88.5014 59.5321C90.3012 61.0713 90.0722 63.5325 90.0707 65.6423L90.07 70.485C90.07 71.4393 90.0398 72.5914 90.1143 73.5304C89.2327 73.4579 88.0146 73.4945 87.1028 73.4995C87.1049 72.7712 87.1196 72.0169 87.0669 71.2924C86.767 71.6123 86.4481 72.066 86.1235 72.3633C84.0287 74.2805 79.8441 74.4423 77.5287 72.8607C76.5241 72.1748 76.0633 71.1097 75.88 69.9842C75.8519 69.4516 75.8188 68.8398 75.8814 68.3105C75.9959 67.2501 76.5305 66.2802 77.3664 65.6184C79.6305 63.8351 84.354 64.2568 87.1084 64.5969C87.0936 63.806 87.1611 62.4963 86.7038 61.8386C85.7245 60.5139 83.6072 60.5061 82.1426 60.6508C80.1194 60.8506 79.5265 61.6549 79.1711 63.5475C78.3274 63.5098 77.0355 63.4443 76.2235 63.5614C76.581 62.1488 76.5824 61.2461 77.5715 60.0052C78.777 58.4931 80.3983 58.2234 82.21 58.0249ZM83.6831 71.1915C86.5415 70.8057 87.1154 69.565 87.1161 66.8711C85.6859 66.7454 83.551 66.6463 82.1159 66.7446C80.2719 66.9616 78.5494 67.0585 78.8184 69.521C79.0404 71.554 82.21 71.3545 83.6831 71.1915Z" fill="#CCC6BA"/>
<path d="M49.8268 58.0261L49.982 58.0156C51.9231 57.8939 54.5995 58.1795 56.1174 59.5312C56.7187 60.0624 57.1534 60.7566 57.3691 61.5299C57.7956 63.0207 57.6368 64.6758 57.6748 66.2005C57.7335 68.5519 57.5635 71.2115 57.6957 73.5205C56.8258 73.4622 55.6036 73.4985 54.707 73.5011C54.7311 72.7427 54.7219 71.9526 54.7236 71.1914C53.5869 72.7352 52.7776 73.323 50.8578 73.7418C49.1341 74.1179 46.8601 73.9706 45.3438 72.9904C44.1805 72.2384 43.7293 71.2246 43.4615 69.9311C43.3074 68.9897 43.472 67.7174 43.9329 66.8794C45.7474 63.5808 51.5872 64.1918 54.7505 64.5959C54.6832 62.9173 54.8173 61.3698 52.7992 60.8338C51.3937 60.4605 49.4349 60.4512 48.1003 61.1062C47.2463 61.5254 46.9752 62.6909 46.7489 63.5412C45.9517 63.4732 44.6877 63.4961 43.8867 63.5254C44.2924 59.69 46.2276 58.4202 49.8268 58.0261ZM51.2338 71.1959C54.2471 70.8328 54.6473 69.58 54.7053 66.865C53.2307 66.7397 51.2858 66.6728 49.8122 66.7465C48.0425 66.9408 46.16 67.0057 46.3989 69.4442C46.4466 69.9307 46.6732 70.3714 47.0594 70.6688C47.9365 71.3543 50.1349 71.2973 51.2338 71.1959Z" fill="#CCC6BA"/>
<path d="M105.2 58.0255C107.459 57.8009 110.175 58.2979 111.839 59.9589C113.786 61.9031 113.547 64.6334 113.53 67.1673C112.345 67.1025 110.894 67.1366 109.692 67.1366C106.954 67.1631 104.216 67.1653 101.478 67.1432C101.678 68.8254 101.948 70.5612 103.962 71.03C105.511 71.3903 107.837 71.4647 109.291 70.6988C110.088 70.2793 110.432 69.5671 110.65 68.7345C111.312 68.6322 112.874 68.6764 113.584 68.6805C113.024 72.0322 111.11 73.4622 107.789 73.8205C105.596 74.0572 102.763 73.8403 100.941 72.4532C99.5616 71.403 98.8275 69.6232 98.6603 67.9411C98.4179 65.4002 98.4524 62.3258 100.125 60.2329C101.46 58.5627 103.217 58.2498 105.2 58.0255ZM101.561 64.6185L106.039 64.6233L110.607 64.6257C110.173 61.577 109.273 60.6779 106.13 60.5632C103.167 60.7873 101.815 61.427 101.561 64.6185Z" fill="#CCC6BA"/>
<path d="M11.8037 58.0259C13.6419 57.8485 16.3452 58.17 17.8533 59.3482C18.574 59.907 19.0997 60.6795 19.3554 61.5553C19.6532 62.5563 19.6075 64.1326 19.6068 65.1997L19.5987 70.4084C19.5972 71.3047 19.5552 72.667 19.6582 73.5158C18.7409 73.4657 17.6002 73.4924 16.666 73.4911C16.6611 72.6917 16.6642 71.8923 16.6751 71.093C15.7065 72.7871 14.1492 73.5648 12.2571 73.8242C9.42786 74.2123 5.97558 73.4093 5.4754 70.1108C5.45106 69.5736 5.41356 68.798 5.47416 68.2799C6.05735 63.295 13.4302 64.2437 16.714 64.5634C16.5888 62.9833 16.8512 61.4576 14.9333 60.8762C13.4802 60.4357 11.5675 60.4335 10.1636 61.0547C9.21185 61.4757 8.93451 62.6491 8.65155 63.5562C7.75532 63.4663 6.85681 63.5825 6.00437 63.4906C5.96984 63.4489 5.90558 63.3957 5.91004 63.3447C6.0732 61.4759 6.8656 59.6687 8.6205 58.7933C9.67113 58.2692 10.6639 58.1476 11.8037 58.0259ZM13.1533 71.1984C16.1049 70.8358 16.6706 69.6563 16.6636 66.8718C15.2519 66.7525 13.192 66.6595 11.7727 66.746C10.8258 66.8564 9.43938 66.8888 8.78509 67.6815C8.11865 68.4889 8.12392 70.063 9.03391 70.6877C10.0559 71.3892 11.9448 71.2597 13.1533 71.1984Z" fill="#CCC6BA"/>
<path d="M121.569 58.0255C123.35 57.8269 126.181 58.1947 127.593 59.3916C128.998 60.5815 129.387 61.8013 129.582 63.5334C128.767 63.4624 127.451 63.506 126.62 63.5294C126.379 61.0337 124.389 60.5386 122.252 60.5787C121.633 60.6115 119.575 60.819 119.228 61.4135C117.83 63.8063 120.276 64.0765 121.455 64.3243C124.513 65.0276 129.29 64.473 129.551 68.7241C129.786 72.5495 126.62 73.8074 123.255 73.909C120.865 73.932 118.117 73.7002 116.467 71.7366C115.56 70.6563 115.417 69.6238 115.159 68.2842C116.148 68.2843 117.139 68.2777 118.129 68.2644C118.132 68.3475 118.137 68.4305 118.144 68.5133C118.213 69.2709 118.583 69.9689 119.173 70.4497C120.33 71.4079 122.373 71.3248 123.789 71.2156C124.512 71.1512 125.996 70.9196 126.384 70.2058C127.685 67.8186 125.008 67.5125 123.605 67.2725C121.42 66.8986 119.028 66.8785 117.277 65.6062C115.559 64.3572 115.586 61.5579 116.793 59.9972C117.876 58.6152 119.903 58.2123 121.569 58.0255Z" fill="#CCC6BA"/>
<path d="M65.9325 58.0258C67.6008 57.8529 70.1376 58.1527 71.5496 59.1235C73.2706 60.3066 73.5832 61.6529 73.9668 63.5355C73.1336 63.4707 71.8376 63.5003 70.996 63.5315C70.6111 61.0605 68.8042 60.535 66.5906 60.5771C65.9619 60.6211 63.9343 60.7966 63.5697 61.3973C62.0816 63.8492 64.7823 64.1139 65.9387 64.3485C68.9837 64.9663 73.612 64.6418 73.9099 68.6641C74.1965 72.5273 70.9791 73.739 67.7236 73.9074C65.1349 73.9461 62.0345 73.679 60.4676 71.3061C59.8317 70.3432 59.687 69.408 59.5391 68.2918C60.5268 68.2873 61.5146 68.2774 62.5023 68.2621C62.5498 69.952 63.668 71.0025 65.3423 71.183C66.8883 71.3496 69.0798 71.4144 70.4305 70.5017C70.9581 70.1453 71.0157 69.4819 71.0958 68.9007C70.9784 68.6014 70.8682 68.3296 70.6174 68.1173C68.9468 66.7018 64.002 67.4551 61.6336 65.6299C60.8366 65.0157 60.4156 64.1497 60.2937 63.1641C60.1594 62.0789 60.3986 60.9392 61.0877 60.0726C62.269 58.5873 64.1493 58.2287 65.9325 58.0258Z" fill="#CCC6BA"/>
<path d="M20.396 58.4004C21.2952 58.4781 22.6613 58.4099 23.6386 58.4348C25.3503 61.7714 26.8214 65.755 28.5129 69.1652C29.5801 66.8215 30.5486 64.2886 31.6134 61.9328C31.927 61.239 32.7641 59.0585 33.1891 58.5393C33.5512 58.3416 35.7346 58.4223 36.3351 58.414L34.8963 61.5337C33.4313 64.5777 32.0523 67.6712 30.5944 70.7196C30.1646 71.6182 29.7331 72.534 29.3551 73.4545C28.7076 73.5585 28.2737 73.5159 27.6305 73.452C27.1985 72.7696 26.1878 70.4375 25.7571 69.5687C23.9298 65.8826 22.2213 62.0858 20.396 58.4004Z" fill="#CCC6BA"/>
<path d="M92.8972 52.9641C93.8652 52.9123 94.8663 52.9141 95.835 52.9198C95.7753 54.5666 95.8308 56.6216 95.8308 58.2977L95.8336 68.664C95.835 69.4343 95.9312 73.0088 95.7949 73.5183C95.0721 73.452 93.6292 73.4924 92.8522 73.4917V58.2118C92.8515 57.3786 92.7441 53.5826 92.8972 52.9641Z" fill="#CCC6BA"/>
<path d="M38.1034 58.4261C39.0822 58.4337 40.0612 58.4235 41.0396 58.3955C41.0159 63.3748 41.1413 68.5926 41.0352 73.5386C40.3248 73.4505 38.8637 73.4875 38.0908 73.4882C38.0723 68.5302 38.0224 63.3721 38.1034 58.4261Z" fill="#CCC6BA"/>
<path d="M41.0343 53.0557L41.1497 53.1188C41.2122 53.42 41.1847 55.7439 41.1875 56.2535C40.5226 56.1447 38.9721 56.1947 38.2526 56.2012L38.1572 56.1997C37.9889 55.9882 38.0601 53.5291 38.0619 53.07C39.0527 53.073 40.0435 53.0682 41.0343 53.0557Z" fill="#CCC6BA"/>
<path d="M56.5729 4H78.8786C79.1456 4.16706 80.188 4.18428 80.6777 4.27678C81.1462 4.36861 81.607 4.49607 82.0566 4.65803C84.1732 5.40934 85.8985 6.98244 86.8426 9.02215C87.8591 11.2027 87.6877 14.5471 87.6884 16.9386L87.6877 23.7227L87.6856 30.9169C87.6849 33.2358 87.8556 36.1433 87.0604 38.3043C86.313 40.3905 84.7542 42.085 82.738 43.0014C80.3068 44.1226 77.69 43.9518 75.0859 43.9532L68.6585 43.9554L61.2099 43.9547C58.709 43.9539 55.8043 44.125 53.4411 43.2849C50.8453 42.3622 48.7777 40.0325 48.1767 37.339C47.7026 35.2144 47.7605 32.8696 47.7593 30.6849L47.7601 24.282L47.7593 17.7436C47.7575 15.9025 47.732 13.9916 47.8982 12.1584C47.9773 11.2431 48.1828 10.3432 48.5088 9.48434C49.6771 6.41185 52.5172 4.37448 55.7946 4.14897C56.077 4.12954 56.3186 4.13266 56.5729 4Z" fill="#CCC6BA"/>
<path d="M56.9458 6.56131C57.7832 6.4422 59.2191 6.51982 60.1015 6.52167L65.9943 6.52742L74.342 6.52417C78.9018 6.52152 84.2217 6.0337 85.0401 12.1662C85.2016 13.3811 85.1265 14.607 85.1658 15.8286C85.1707 15.9828 85.1412 16.1728 85.0984 16.3248C83.5761 16.6715 82.5245 16.8286 81.5003 18.1362C80.1796 19.822 80.2302 21.9091 80.2176 23.9463C80.207 24.9118 80.2105 25.8039 80.3194 26.7824C80.5442 28.8047 81.6288 30.7361 83.704 31.2951C83.9512 31.3837 84.9087 31.4045 85.0274 31.5814C85.2684 32.2203 85.1532 33.1612 85.149 33.8663C85.1377 35.6585 84.986 37.42 83.8726 38.8934C82.4774 40.7399 80.8652 41.1662 78.6953 41.3256C77.4147 41.439 75.9929 41.409 74.6996 41.4099L69.0597 41.4123L61.4798 41.4115C59.5557 41.4107 57.7824 41.4504 55.8994 41.2503C52.2292 40.8602 50.324 38.0255 50.3449 34.4948C50.3472 34.1135 50.1021 31.588 50.5403 31.5424C55.7529 30.9999 55.2845 26.3651 55.2205 22.3921C55.3491 19.9831 54.4004 17.4087 51.8951 16.6633C51.4118 16.5195 50.9109 16.4667 50.416 16.321C50.3205 16.1779 50.2896 15.9145 50.285 15.7415C50.1486 10.5827 51.0978 7.02509 56.9458 6.56131Z" fill="#403D38"/>
<path d="M67.273 12.7498C69.8181 12.5379 72.6731 13.2318 74.5634 15.0007C76.6913 16.9914 77.353 19.4148 77.3972 22.2401C77.419 23.6296 77.4113 25.0264 77.4099 26.4171C77.4408 29.7705 77.5399 33.0768 75.046 35.6793C73.0566 37.7547 71.1115 38.2238 68.3752 38.3064C65.5608 38.3451 63.3559 38.2319 61.128 36.2741C59.0766 34.4716 58.2955 32.3024 58.1567 29.6327C58.0231 27.0623 57.8482 21.518 58.5112 19.1117C58.8564 17.8257 59.4944 16.6371 60.3752 15.6391C62.3616 13.3901 64.4338 12.9225 67.273 12.7498Z" fill="#CCC6BA"/>
<path d="M65.8956 14.5706C66.5061 14.5009 67.2798 14.6008 67.8336 14.5331C71.598 14.0736 75.4307 16.8477 75.5698 20.8011C75.6717 23.6876 76.0952 28.841 75.3464 31.6626C75.097 32.5961 74.6474 33.4642 74.0307 34.2074C72.8154 35.6632 71.3528 36.36 69.4921 36.528C67.2121 36.7114 64.8316 36.7891 62.8735 35.449C61.4056 34.4494 60.3958 32.9057 60.0674 31.1592C59.9481 30.497 59.9301 29.7057 59.8663 29.0363C59.6491 26.7578 59.6936 24.6234 59.8817 22.3444C59.9548 21.4593 59.9441 20.5168 60.1547 19.6446C60.3577 18.8233 60.7132 18.0474 61.2026 17.3575C62.3827 15.6754 63.9287 14.913 65.8956 14.5706Z" fill="#403D38"/>
<path d="M66.0497 16.5343C69.1207 16.4136 72.3092 16.3631 73.4015 20.1284C73.8701 21.7441 73.7254 23.7624 73.7092 25.4363C73.6797 28.5588 72.5881 30.5741 69.4604 31.4061C67.8377 31.4778 66.0087 31.6153 64.5655 30.858C63.3739 30.228 62.486 29.1442 62.1023 27.8511C61.7171 26.5863 61.7266 22.1211 61.9651 20.7678C62.0627 20.2005 62.2512 19.6528 62.5235 19.1458C63.3621 17.5837 64.4363 17.0217 66.0497 16.5343Z" fill="#CCC6BA"/>
<path d="M64.1094 25.5137C65.6252 25.4581 64.7309 26.5943 65.5541 27.535C66.2414 28.3205 66.9861 27.7488 67.6186 28.372C67.9216 28.6707 67.7004 29.1916 67.3835 29.4357C67.1949 29.4485 66.993 29.4632 66.8022 29.4613C65.0656 29.4441 63.3908 27.6731 63.8152 25.9103C63.8546 25.7461 63.9882 25.6256 64.1094 25.5137Z" fill="#403D38"/>
</svg>
