<svg width="150" height="25" viewBox="0 0 150 25" fill="none" xmlns="http://www.w3.org/2000/svg">
<g clip-path="url(#clip0_2001_941)">
<path d="M58.8359 2.29273C58.8359 1.02521 59.8558 0 61.1113 0C62.3711 0 63.395 1.02521 63.395 2.29273C63.395 3.55862 62.3711 4.58491 61.1113 4.58491C59.8558 4.58491 58.8359 3.55862 58.8359 2.29273Z" fill="#CCC6BA"/>
<path d="M94.8064 17.5424C94.8064 16.2744 95.8258 15.248 97.0813 15.248C98.3407 15.248 99.3644 16.2744 99.3644 17.5424C99.3644 18.8072 98.3407 19.8346 97.0813 19.8346C95.8258 19.8346 94.8064 18.8072 94.8064 17.5424Z" fill="#CCC6BA"/>
<path d="M21.42 16.5518C19.4566 16.5518 18.0921 14.9877 18.0921 12.7525C18.0921 10.5179 19.4566 8.95484 21.42 8.95484C23.3947 8.95484 24.7742 10.5179 24.7742 12.7525C24.7742 15.023 23.4234 16.5518 21.42 16.5518ZM21.42 5.61572C17.2661 5.61572 14.2515 8.61799 14.2515 12.7525C14.2515 16.887 17.2661 19.8888 21.42 19.8888C25.5895 19.8888 28.6166 16.887 28.6166 12.7525C28.6166 8.61799 25.5895 5.61572 21.42 5.61572Z" fill="#CCC6BA"/>
<path d="M54.4207 13.1094C54.2593 12.8046 54.0741 12.5465 53.877 12.3417L53.7514 12.208L53.8835 12.0809C54.0741 11.8794 54.2691 11.6403 54.4571 11.3632L58.1228 5.89707H53.6728L50.9185 10.1728C50.7626 10.4021 50.4478 10.5179 49.9766 10.5179H49.3488V2.43407C49.3488 0.817205 48.3446 0.597168 47.2598 0.597168H45.4026L45.4058 19.6785H49.3488V13.9548H49.7183C50.1678 13.9548 50.4738 14.0069 50.6142 14.252L52.7894 18.3702C53.397 19.4877 54.0025 19.6785 55.1417 19.6785H58.1634L55.913 15.9443L54.4207 13.1094Z" fill="#CCC6BA"/>
<path d="M73.5629 5.58496C71.5572 5.58496 70.2774 6.47868 69.5603 7.23442L69.3209 7.47728L69.2364 7.14696C69.0257 6.33743 68.3156 5.89192 67.2469 5.89192H65.4797L65.4908 19.6733H69.4071V13.3216C69.4071 12.7006 69.4876 12.1616 69.6513 11.6699C70.0872 10.1818 71.3032 9.25659 72.8231 9.25659C74.0455 9.25659 74.5233 9.90366 74.5233 11.5759V17.5783C74.5233 19.0056 75.1813 19.6733 76.6053 19.6733H78.469L78.4627 10.9082C78.4627 7.42567 76.7695 5.58496 73.564 5.58496" fill="#CCC6BA"/>
<path d="M61.1634 5.89795H59.3071L59.3198 16.5537H59.3186V19.6766H61.3C61.3249 19.6766 61.3449 19.6793 61.3699 19.6793L62.2928 19.6766H63.2114V19.6712H63.2177L63.2257 7.99021C63.2257 6.58089 62.5539 5.89797 61.1648 5.89797" fill="#CCC6BA"/>
<path d="M36.8029 16.5518C34.8397 16.5518 33.4725 14.9877 33.4725 12.7525C33.4725 10.5179 34.8397 8.95484 36.8029 8.95484C38.7735 8.95484 40.1568 10.5179 40.1568 12.7525C40.1568 15.023 38.8065 16.5518 36.8029 16.5518ZM36.8029 5.61572C32.6449 5.61572 29.6296 8.61799 29.6296 12.7525C29.6296 16.887 32.6449 19.8888 36.8029 19.8888C40.9681 19.8888 44.0002 16.887 44.0002 12.7525C44.0002 8.61799 40.9681 5.61572 36.8029 5.61572Z" fill="#CCC6BA"/>
<path d="M120.749 16.5518C118.786 16.5518 117.418 14.9877 117.418 12.7525C117.418 10.5179 118.786 8.95484 120.749 8.95484C122.72 8.95484 124.104 10.5179 124.104 12.7525C124.104 15.023 122.753 16.5518 120.749 16.5518ZM120.749 5.61572C116.592 5.61572 113.576 8.61799 113.576 12.7525C113.576 16.887 116.592 19.8888 120.749 19.8888C124.914 19.8888 127.946 16.887 127.946 12.7525C127.946 8.61799 124.914 5.61572 120.749 5.61572Z" fill="#CCC6BA"/>
<path d="M86.7205 15.9454C84.5794 15.9454 83.8174 14.0715 83.8174 12.3156C83.8174 11.5419 84.0123 9.02045 86.5148 9.02045C87.7584 9.02045 89.4157 9.37794 89.4157 12.4454C89.4157 15.3385 87.9491 15.9454 86.7205 15.9454ZM91.449 5.86116C90.7058 5.86116 90.134 6.15834 89.8474 6.7011L89.7391 6.91189L89.5577 6.75381C88.9255 6.20507 87.792 5.5542 85.9515 5.5542C82.2894 5.5542 79.824 8.31308 79.824 12.4188C79.824 16.5196 82.375 19.3855 86.0252 19.3855C87.2719 19.3855 88.2572 19.0938 89.0382 18.5005L89.3405 18.2729V18.6559C89.3405 20.4966 88.1537 21.512 86.0024 21.512C84.957 21.512 84.0054 21.2567 83.369 21.0252C82.5381 20.7737 82.0511 20.9818 81.7142 21.8179L81.4034 22.5894L80.9636 23.7162L81.236 23.8618C82.6128 24.5947 84.4051 25.0321 86.0252 25.0321C89.3605 25.0321 93.2548 23.3196 93.2548 18.5005L93.2691 5.86116H91.4496" fill="#CCC6BA"/>
<path d="M6.83481 16.3936L3.64682 16.3904V12.5672C3.64682 11.75 3.9626 11.3252 4.66069 11.2274H6.83481C8.38657 11.2274 9.38917 12.2091 9.39028 13.7972C9.38917 15.4271 8.4115 16.3925 6.83481 16.3936ZM3.64682 6.08006V5.07386C3.64682 4.19318 4.01833 3.77429 4.83358 3.7205H6.46489C7.86392 3.7205 8.70188 4.56045 8.70188 5.96543C8.70188 7.03682 8.12826 8.28695 6.51633 8.28695H3.64682V6.08006ZM10.9063 9.89566L10.33 9.57077L10.8331 9.13939C11.4182 8.63466 12.399 7.50025 12.399 5.54002C12.399 2.54099 10.0798 0.605207 6.49029 0.605207H2.39401V0.604004H1.92756C0.86336 0.643133 0.0119073 1.51131 0 2.58542V19.6087H1.87993C1.88469 19.6099 1.88628 19.6087 1.88787 19.6099L6.57126 19.6087C10.5615 19.6087 13.137 17.43 13.137 14.0556C13.137 12.2388 12.3046 10.6855 10.9055 9.89554" fill="#CCC6BA"/>
<path d="M145.44 5.62988C143.815 5.62988 142.244 6.39322 141.236 7.67323L140.952 8.03398L140.73 7.6303C140.004 6.30357 138.756 5.62988 137.02 5.62988C135.199 5.62988 133.979 6.64856 133.411 7.25434L133.04 7.65748L132.898 7.12721C132.691 6.36388 132.013 5.94335 130.987 5.94335H129.341L129.325 19.6715H133.065V13.6115C133.065 13.0807 133.13 12.5553 133.263 12.0061C133.62 10.5419 134.601 8.96684 136.251 9.12439C137.268 9.22218 137.764 10.0105 137.764 11.5334V19.6715H141.531V13.6115C141.531 12.9481 141.593 12.4516 141.742 11.9534C142.045 10.5554 143.069 9.12222 144.661 9.12222C145.812 9.12222 146.238 9.77635 146.238 11.5334V17.6645C146.238 19.0516 146.855 19.6715 148.236 19.6715H149.997L150 10.9075C150 7.40648 148.463 5.62988 145.439 5.62988" fill="#CCC6BA"/>
<path d="M111.411 14.9047C111.4 14.9182 109.79 16.6204 107.672 16.6204C105.741 16.6204 103.791 15.4322 103.791 12.7798C103.791 10.4898 105.303 8.88925 107.467 8.88925C108.17 8.88925 108.97 9.1419 109.095 9.56675L109.113 9.63847C109.401 10.6018 110.274 10.6534 110.446 10.6534L112.495 10.6555V8.85878C112.495 6.48891 109.49 5.62939 107.467 5.62939C103.143 5.62939 100.005 8.6496 100.005 12.8086C100.005 16.9659 103.109 19.9818 107.388 19.9818C111.101 19.9818 113.12 17.5337 113.139 17.5092L113.247 17.3767L111.624 14.6765L111.411 14.9047Z" fill="#CCC6BA"/>
</g>
<defs>
<clipPath id="clip0_2001_941">
<rect width="150" height="25" fill="white"/>
</clipPath>
</defs>
</svg>
