<svg width="150" height="41" viewBox="0 0 150 41" fill="none" xmlns="http://www.w3.org/2000/svg">
<path d="M33.765 4.6792C34.1162 4.74999 34.3264 4.88194 34.5681 5.14621C35.0432 5.66554 37.0098 7.32288 37.0323 7.96068C36.5405 8.8021 33.9236 11.2817 33.1185 12.0856L25.6915 19.4952L20.8698 24.3136C20.1765 25.0038 19.0332 26.2109 18.3176 26.792C17.5189 26.2701 11.619 20.294 11.4306 19.8212C11.3769 19.6862 11.4157 19.5988 11.4755 19.4741C11.7645 18.8709 13.4535 17.2295 14.0007 16.8078C14.142 16.6989 14.3225 16.6307 14.4895 16.5708C15.6578 17.0358 17.1143 19.2395 18.3304 20.0891C18.5835 19.6985 19.716 18.5545 20.0726 18.197L23.5174 14.7876C24.2657 14.0499 24.8404 13.5752 25.5113 12.7466C25.4832 12.7212 25.4544 12.6965 25.4251 12.6725C24.4285 11.8541 22.1332 11.0187 20.8661 10.9149C18.8749 10.7669 16.7365 10.8508 14.7536 10.8326C14.2221 10.8277 9.36811 10.7498 9.2918 11.0236C8.99883 12.0751 9.10532 15.2415 9.10554 16.3603L9.10737 24.2864L9.10305 28.4685C9.10239 29.3028 9.05984 30.6183 9.21863 31.403C9.66526 31.8979 18.7111 31.5564 19.9214 31.6311C21.6486 31.7378 23.9947 30.7017 25.4509 29.7032C25.765 29.5326 27.1146 28.1569 27.3788 27.8628C28.995 26.0896 29.8802 23.7725 29.857 21.3757C29.8524 20.5019 29.7254 19.5577 29.6771 18.6707C29.8132 18.5092 30.2308 18.0633 30.3876 17.9347C31.0194 17.4169 32.6048 15.3118 33.4323 15.435C33.5892 15.5684 33.6787 15.7227 33.7509 15.9126C36.8033 23.9377 32.6841 32.3533 24.8084 35.4626C23.6183 35.9262 22.3748 36.2396 21.1068 36.3957C19.1415 36.6309 16.2299 36.5002 14.1601 36.5228C12.9929 36.5356 10.4177 36.5891 9.39397 36.4911C8.78122 36.4357 8.1813 36.2828 7.61697 36.0383C6.43518 35.5247 5.14143 34.317 4.70443 33.1066C4.15754 31.5919 4.32023 29.4358 4.32128 27.8314L4.32543 21.2869L4.31904 14.7619C4.31802 13.5765 4.28492 12.3577 4.34663 11.1768C4.4393 8.59666 6.66316 6.15449 9.32065 6.10931C13.1191 6.04473 17.0948 6.00574 20.8969 6.12984C23.6659 6.22023 26.6332 7.57071 28.8055 9.20457C29.1958 9.49815 30.0738 8.17321 30.3794 7.93203C31.023 7.40517 33.1378 4.92262 33.765 4.6792Z" fill="#CCC6BA"/>
<path d="M99.7391 5.77015C103.62 5.18079 107.246 7.84418 107.834 11.7176C108.422 15.5911 105.75 19.2064 101.868 19.7909C97.9893 20.3749 94.3697 17.7121 93.7823 13.8421C93.1949 9.97209 95.8609 6.35898 99.7391 5.77015ZM101.251 16.4445C103.235 16.1976 104.651 14.4045 104.428 12.4219C104.205 10.4392 102.426 9.00424 100.436 9.20259C99.1268 9.33305 97.9893 10.1558 97.4583 11.3564C96.9266 12.5571 97.0833 13.9503 97.8685 15.0034C98.6536 16.0565 99.9456 16.6071 101.251 16.4445Z" fill="#CCC6BA"/>
<path d="M51.7409 6.08883C53.4537 6.04085 56.1538 5.95358 57.7865 6.22714C63.2766 7.14696 64.7229 15.262 60.2666 18.3073C60.1244 18.3703 59.9723 18.473 59.8399 18.5547C57.8349 19.7912 55.5569 19.5952 53.3109 19.6088C52.8654 19.6115 52.315 19.6495 51.8759 19.5883C51.6163 19.5545 51.3674 19.4641 51.1467 19.3237C50.0987 18.6493 50.2967 17.042 50.3194 15.9487C50.3757 13.2418 50.2964 10.5396 50.3345 7.83481C50.3484 6.8448 50.7695 6.27438 51.7409 6.08883ZM53.7055 16.5759C55.1021 16.5733 57.3716 16.6845 58.3652 15.4988C58.9748 15.0176 59.3106 14.0443 59.3828 13.3197C59.598 11.1583 58.5064 9.28823 56.2134 9.12372C55.3201 9.05962 54.5715 9.06021 53.6848 9.07592C53.7596 11.4851 53.6746 14.1236 53.7055 16.5759Z" fill="#CCC6BA"/>
<path d="M135.733 6.0878C137.121 6.01946 138.878 6.19667 140.203 6.06943C145.217 5.5878 147.434 11.5684 143.2 14.4005C143.247 14.4603 143.292 14.5209 143.337 14.5825C144.202 15.8049 146.382 18.2096 144.56 19.439C144.172 19.6996 143.695 19.7926 143.238 19.6968C142.668 19.5821 142.389 19.3115 142.081 18.8495C141.744 18.4426 141.21 17.5279 140.909 17.0494C139.576 14.9295 140.026 15.1802 137.648 15.0651C137.608 16.0242 137.851 18.356 137.268 19.0502C136.081 20.4667 134.181 19.7469 134.197 17.755C134.212 14.3725 134.106 10.9676 134.245 7.58983C134.285 6.63556 134.862 6.21782 135.733 6.0878ZM137.652 12.1372C138.618 12.0517 140.725 12.2491 141.371 11.8217C142.208 10.8125 142.1 9.30028 140.621 9.08468C139.699 8.95021 138.628 9.08081 137.686 9.05274C137.666 9.99626 137.701 11.2355 137.652 12.1372Z" fill="#CCC6BA"/>
<path d="M79.409 22.8157C79.428 22.8147 79.4463 22.814 79.4654 22.8136C81.4092 22.772 84.6839 22.5902 86.493 23.1715C89.4556 24.1234 89.9581 29.0715 87.3169 30.7328C87.2378 30.7823 87.0364 30.999 86.9559 31.0818C87.5777 32.3049 88.9436 33.5032 88.9173 34.9491C88.8997 35.9076 87.9834 36.3998 87.0921 36.3703C86.531 36.3518 86.0242 35.8219 85.6741 35.3987C85.2662 34.5708 83.8819 32.6238 83.3135 31.7247C82.647 31.7519 81.9615 31.737 81.2928 31.731C81.3089 32.8375 81.4861 34.576 81.0474 35.5579C80.482 36.9665 78.0855 36.4402 78.0298 35.1201C77.8826 31.6173 77.9749 28.035 77.9859 24.5249C77.9895 23.3898 78.3975 23.0732 79.409 22.8157ZM85.1541 28.4192C85.4332 28.1012 85.5005 27.9283 85.6565 27.5338C85.4075 25.6263 84.6209 25.7541 82.8755 25.786C82.3848 25.795 81.8509 25.7996 81.3572 25.8036C81.3338 26.8846 81.3367 27.7715 81.3726 28.8553C82.6097 28.7349 84.1624 29.0216 85.1541 28.4192Z" fill="#CCC6BA"/>
<path d="M123.329 6.09307C123.493 6.08763 123.657 6.08358 123.821 6.08094C125.785 6.05306 127.756 6.07884 129.721 6.06582C130.419 6.06119 131.454 5.97205 131.977 6.4864C132.27 6.77622 132.436 7.17044 132.437 7.58212C132.436 8.01924 132.26 8.43786 131.948 8.74416C131.658 9.02714 131.27 9.13932 130.87 9.14509C129.023 9.17184 127.171 9.1467 125.324 9.13325L125.31 11.3286C126.747 11.2561 128.869 11.2256 130.316 11.3609C130.873 11.413 131.183 11.9847 131.463 12.4317C131.486 12.7282 131.466 13.1056 131.457 13.4096C131.221 13.7244 130.842 14.1123 130.517 14.3311C129.488 14.4855 125.902 14.2724 125.357 14.4685L125.33 14.6718C125.312 15.2813 125.316 15.9144 125.311 16.526C127.134 16.4921 129.071 16.4704 130.89 16.5173C131.835 16.5416 132.612 17.2902 132.422 18.2651C132.283 18.9734 132.009 19.1346 131.453 19.5637C130.316 19.6791 128.603 19.5771 127.418 19.6096C126.182 19.5721 124.898 19.6763 123.668 19.5762C121.813 19.4251 121.806 18.1016 121.834 16.6268C121.851 15.7212 121.835 14.7675 121.833 13.87L121.826 10.0315C121.826 8.59258 121.459 6.3856 123.329 6.09307Z" fill="#CCC6BA"/>
<path d="M69.8375 22.6027C70.5456 22.5356 71.7326 22.8257 72.0421 23.5254C73.487 26.7922 74.4831 30.3099 75.7377 33.6623C75.9311 34.1807 76.0849 35.0016 75.8007 35.4952C75.5583 35.915 75.1701 36.1955 74.6984 36.3247C72.6927 36.8021 72.2315 35.1804 71.8195 33.6515C71.3645 33.7048 70.7621 33.6934 70.2944 33.698L68.1242 33.7146C67.936 34.3925 67.7715 35.0217 67.3973 35.6244C66.6433 36.8386 64.5575 36.5663 64.1275 35.2358C63.9949 34.8255 64.1882 34.1702 64.2859 33.7606C65.3434 30.7691 66.4601 27.7961 67.5455 24.8143C68.0378 23.462 68.3349 22.8254 69.8375 22.6027ZM69.9583 30.3402L71.0524 30.3357C70.7647 29.7331 70.2853 27.5881 70.0035 27.441C69.6638 28.46 69.2957 29.3988 68.9448 30.4L69.9583 30.3402Z" fill="#CCC6BA"/>
<path d="M74.7889 5.95081C75.8062 5.87268 77.8233 6.02544 78.7183 6.55528C79.4449 6.98509 79.6382 7.34015 79.8477 8.10278C79.209 11.7041 75.6685 7.82185 73.7452 9.24471C73.6302 9.39293 73.584 9.60253 73.6097 9.7715C73.9312 10.8091 76.3284 11.1163 77.3245 11.46C80.2513 12.4695 81.2913 15.7897 79.2427 18.1746C78.2569 19.3225 76.7847 19.701 75.2144 19.7745C73.6822 19.746 70.2336 19.5046 70.0823 17.4536C70.01 16.4741 70.3404 15.7927 71.4071 15.7458C72.4468 15.7001 73.0949 16.2501 74.0272 16.5568C74.4278 16.6865 74.8482 16.7467 75.2701 16.7349C75.678 16.723 76.105 16.629 76.3921 16.3151C76.5562 16.1366 76.6412 15.899 76.6265 15.6569C76.5716 14.7869 75.5257 14.5072 74.8438 14.306C72.6534 13.6594 70.2762 12.9593 70.1428 10.2414C69.994 7.21269 72.0927 6.09741 74.7889 5.95081Z" fill="#CCC6BA"/>
<path d="M95.5395 22.7594C95.6171 22.7529 95.6955 22.7479 95.7739 22.7443C97.216 22.679 102.331 22.9824 100.317 26.0402C99.5019 27.2783 96.8747 25.4461 95.6765 25.6463C93.8139 25.9574 94.7324 27.3891 96.1218 27.5788C96.6227 27.6606 97.9404 28.0909 98.3879 28.2621C98.9423 28.472 99.4558 28.7761 99.9062 29.1608C101.499 30.5222 101.671 33.2299 100.261 34.7876C99.0676 36.1048 97.7609 36.3854 96.0771 36.5004C94.5646 36.5549 90.0024 35.8359 91.2219 33.2643C92.163 31.2797 94.3522 33.33 95.6962 33.4737C96.2836 33.5365 96.6139 33.4246 97.1794 33.2313C99.4763 30.225 91.5771 31.9713 91.1208 27.005C91.0197 26.0001 91.3303 24.997 91.9821 24.2243C92.8742 23.1692 94.2336 22.8685 95.5395 22.7594Z" fill="#CCC6BA"/>
<path d="M57.3661 22.6869C58.4151 22.5034 60.7895 22.9345 61.5023 23.7507C62.0874 24.1851 62.0469 25.7073 61.4278 26.1119C59.5699 27.326 57.3616 24.8557 55.3415 26.7545C53.8537 28.1528 53.7469 30.4281 55.0627 31.9667C55.8617 32.9011 57.3703 33.0647 58.4953 32.7985C59.5174 32.5447 60.7471 31.9497 61.6539 32.8738C62.03 33.2721 62.0878 33.9613 62.0618 34.4952C61.5291 36.0447 59.6399 36.3477 58.2155 36.4748C54.289 36.8251 50.6176 34.4317 50.3661 30.3056C50.2442 28.3071 50.6132 26.7059 51.96 25.1575C53.5006 23.4083 55.0864 22.8321 57.3661 22.6869Z" fill="#CCC6BA"/>
<path d="M114.42 14.8513C115.333 12.6375 116.023 10.142 116.911 7.89624C117.281 6.66851 117.941 5.53884 119.469 5.97647C121.904 6.67389 119.875 9.60129 119.463 10.9801C119.396 11.1862 119.316 11.3733 119.232 11.5724C118.252 13.9012 117.44 16.3247 116.355 18.6039C116.113 19.1123 115.444 19.5781 114.886 19.6792C112.549 20.1025 112.107 18.2301 111.444 16.5217L109.932 12.5194C109.366 11.0036 108.629 9.46177 108.25 7.88959C107.992 6.82149 108.754 6.13201 109.729 5.93413C110.291 5.87832 111.089 6.14 111.336 6.67059C112.551 9.28081 113.279 12.2134 114.42 14.8513Z" fill="#CCC6BA"/>
<path d="M88.0622 5.94676C90.1232 5.83347 93.551 6.16359 92.4685 9.09304C90.2653 10.4263 89.3015 8.29657 87.0346 9.32055C82.9953 11.1455 84.8044 17.591 89.3945 16.4372C91.071 16.0158 92.2619 15.2279 93.0647 17.3273C93.0105 17.8199 92.9328 18.1216 92.601 18.5154C91.9052 19.3414 90.3042 19.6119 89.2722 19.7066C87.2456 19.8927 85.1853 19.4541 83.6047 18.1117C82.216 16.9381 81.3584 15.2573 81.2243 13.4466C81.0822 11.6442 81.6587 9.85888 82.8283 8.47782C84.288 6.77368 85.8723 6.11767 88.0622 5.94676Z" fill="#CCC6BA"/>
<path d="M66.0069 5.92852C67.496 5.82741 68.1557 6.38277 68.1318 7.93786C68.0777 11.4523 68.2467 15.0912 68.0492 18.5957C68.0286 18.9622 67.3183 19.5246 66.9891 19.6894C66.6017 19.7533 66.2747 19.7664 65.8989 19.6298C65.4633 19.4673 65.1112 19.1371 64.9219 18.7133C64.4674 17.6793 65.0057 9.5965 64.8085 7.92887C64.6856 6.88888 65.0618 6.35189 66.0069 5.92852Z" fill="#CCC6BA"/>
<path d="M119.77 30.2329C120.317 30.3119 120.386 30.6149 120.689 30.9922L120.811 30.9922L121.1 30.6461C122.152 30.217 122.945 30.0637 123.78 30.9059C124.152 31.2798 124.739 30.4191 125.393 30.3289C128.189 29.9612 127.557 32.8516 127.667 34.6C127.725 35.512 127.094 37.2589 126.29 35.815C125.99 35.2785 126.186 33.392 126.098 32.6565C125.91 31.0982 125.282 30.8248 124.289 32.1407C124.065 33.0884 124.601 36.3567 123.368 36.2931C121.732 36.0686 123.41 31.5397 122.032 31.3881C119.43 31.1019 121.914 36.3969 119.775 36.312C119.146 36.2405 119.12 34.6695 119.185 34.2424C119.362 33.0903 118.715 30.9159 119.77 30.2329Z" fill="#CCC6BA"/>
<path d="M114.788 30.3465C116.417 29.9661 118.044 30.9812 118.416 32.6088C118.787 34.2364 117.76 35.8542 116.126 36.2143C114.507 36.5712 112.903 35.5569 112.535 33.9437C112.168 32.3305 113.174 30.7235 114.788 30.3465ZM116.002 35.1498C116.49 34.8145 116.789 34.3255 116.899 33.7474C117.011 33.1571 116.912 32.4762 116.569 31.9746C116.367 31.6789 116.047 31.4056 115.686 31.3405C115.466 31.3007 115.209 31.3337 114.987 31.3477C114.424 31.7636 114.109 32.2329 114.006 32.9347C113.925 33.4924 114.004 34.1417 114.353 34.6021C114.549 34.861 114.889 35.1254 115.22 35.1646C115.47 35.1943 115.751 35.1676 116.002 35.1498Z" fill="#CCC6BA"/>
<path d="M109.296 30.2838C109.967 30.278 110.82 30.5114 111.31 30.9951C111.694 31.3737 111.991 32.0044 111.535 32.4565C110.855 32.8131 110.347 31.9559 110.033 31.4942C109.823 31.4491 109.37 31.3646 109.166 31.3818C107.159 31.5527 107.43 35.3371 109.411 35.2308C110.13 35.1922 110.473 34.4195 110.901 33.9153C111.117 33.8079 111.522 33.7029 111.64 33.9126C112.411 35.2782 110.62 36.1841 109.664 36.2368C107.988 36.4342 106.401 35.4617 106.317 33.6473C106.217 31.5045 107.28 30.4438 109.296 30.2838Z" fill="#CCC6BA"/>
<path d="M104.248 34.6949C104.53 34.6318 104.825 34.7273 105.018 34.9443C105.21 35.1613 105.269 35.4653 105.171 35.7381C105.074 36.0107 104.835 36.2088 104.549 36.2551C104.123 36.3238 103.72 36.0429 103.639 35.6209C103.558 35.1988 103.827 34.7887 104.248 34.6949Z" fill="#CCC6BA"/>
</svg>
