<svg width="150" height="36" viewBox="0 0 150 36" fill="none" xmlns="http://www.w3.org/2000/svg">
<g clip-path="url(#clip0_2001_909)">
<path d="M57.5269 7.99217C58.2759 7.93974 59.087 7.94799 59.8433 7.95741C63.3197 8.00079 67.5759 7.45327 69.9233 10.6083C70.3808 11.2215 70.7193 11.9146 70.9216 12.6519C71.4507 14.6363 71.3422 19.3271 71.0653 21.4569C70.8934 22.7788 70.1994 24.2223 69.103 25.0311C67.1838 27.1628 62.4159 26.7915 59.8482 26.8112C59.3857 26.8148 57.4698 26.8986 57.1676 26.6381C56.9062 25.6167 57.0308 22.6721 57.0306 21.51L57.0329 13.5337C57.0335 12.6974 56.9281 8.79133 57.0888 8.21942C57.2758 8.01349 57.2303 8.06957 57.5269 7.99217ZM59.672 24.3712C61.8108 24.4036 65.1237 24.6896 66.8847 23.3693C67.6731 22.7417 68.4653 21.7513 68.5072 20.7121C68.5866 18.7419 68.6221 16.7037 68.5457 14.731C68.3659 10.084 63.6307 10.2194 60.2856 10.4075C60.0624 10.4167 59.8648 10.3836 59.7097 10.494C59.5757 11.8301 59.6327 14.9549 59.6529 16.441C59.6871 18.9561 59.5682 21.898 59.672 24.3712Z" fill="#CCC6BA"/>
<path d="M103.514 12.6738C103.719 12.6877 103.924 12.7043 104.128 12.7236C109.073 13.1994 108.261 17.7831 108.283 21.4045C108.293 23.0861 108.397 25.1585 108.231 26.8089C107.449 26.8167 106.751 26.8231 105.968 26.7782C105.783 25.9663 105.838 25.1095 105.841 24.2816C105.846 22.649 106.1 17.5652 105.508 16.333C105.229 15.7532 104.758 15.3048 104.143 15.0961C102.811 14.6435 101.189 15.1477 99.9859 15.7426C100.387 17.3335 100.243 20.0083 100.263 21.7018C100.272 22.4947 100.357 26.1096 100.128 26.6704C99.7749 26.8933 98.4082 26.8149 97.9256 26.8095C97.7901 25.7447 97.8406 23.9482 97.8421 22.8195C97.845 21.013 97.9087 19.0386 97.7469 17.2332C97.4671 14.1092 92.2295 14.6508 92.146 16.0272C91.9373 19.4794 92.3489 23.3191 92.0406 26.8024C91.4349 26.8188 90.4014 26.9687 89.8506 26.7268C89.7994 26.7044 89.7598 26.6967 89.7408 26.6436C89.5511 26.1294 89.5152 15.9436 89.6536 14.6987C89.6866 14.401 89.8858 14.0645 90.014 13.7941C91.9856 12.8363 95.2142 12.3202 97.3221 12.9783C97.6253 13.0144 98.4075 13.64 98.6661 13.5625C100.485 13.0167 101.581 12.719 103.514 12.6738Z" fill="#CCC6BA"/>
<path d="M117.05 12.6738C117.86 12.7458 118.39 12.8626 119.24 12.99C120.889 13.2375 124.319 16.3993 121.019 16.9472C120.255 17.0713 120.035 16.5079 119.655 15.9665C118.254 13.9693 112.217 14.8007 114.285 18.0095C117.322 19.7009 122.865 17.8138 122.687 23.1239C122.57 26.6463 119.291 27.2817 116.438 27.1896C114.987 27.1084 113.428 26.6809 112.344 25.6902C111.356 24.7878 110.519 22.8752 112.506 22.6529C113.516 22.5399 113.694 23.5779 114.28 24.1171C115.502 25.2172 117.675 25.1165 119.153 24.6636C119.743 24.4831 120.352 23.6227 120.302 22.9976C120.167 21.337 118.336 21.1925 117.038 21.0329C114.264 20.6918 111.349 20.3631 111.431 16.812C111.479 13.4253 114.204 12.7314 117.05 12.6738Z" fill="#CCC6BA"/>
<path d="M81.0945 12.6675C81.4212 12.6803 81.3465 12.6354 81.6057 12.8025C81.9456 13.308 81.8181 14.1955 81.7596 14.8C80.3826 15.0499 78.2359 14.7845 77.0179 15.5602C76.418 16.6917 77.001 24.8223 76.6861 26.8056C76.3147 26.836 75.5296 26.8072 75.1282 26.8046C74.6001 26.8234 74.398 26.7865 74.4009 26.1729C74.4207 22.4125 74.387 18.6505 74.4273 14.8904C74.4302 14.5915 74.4983 14.2443 74.5657 13.9522C76.0547 12.8064 79.2481 12.7159 81.0945 12.6675Z" fill="#CCC6BA"/>
<path d="M84.1691 13.091C84.632 13.0568 85.7672 12.9725 86.1195 13.2489C86.2279 13.5746 86.2455 13.9379 86.2558 14.279C86.2961 15.546 86.3356 26.141 86.1869 26.5645C86.1298 26.7286 86.0712 26.7331 85.9203 26.8072C85.2487 26.828 84.4723 26.8385 83.8124 26.7425C83.7165 26.1216 83.7348 13.6607 83.7948 13.4644C83.8593 13.2511 83.9875 13.1904 84.1691 13.091Z" fill="#CCC6BA"/>
<path d="M125.484 13.1865C126.042 13.071 127.241 12.9312 127.746 13.1898C127.875 13.421 127.875 13.8381 127.894 14.1158C127.76 16.0303 127.866 19.3107 127.866 21.316L127.869 24.4954C127.869 24.8405 127.848 25.7367 127.885 26.0518C127.806 26.8801 127.753 26.8221 126.927 26.8211C126.525 26.8206 125.868 26.8669 125.522 26.682C125.356 26.4486 125.388 14.2235 125.484 13.1865Z" fill="#CCC6BA"/>
<path d="M125.986 8.12071C127.972 7.91332 128.13 8.42791 128.087 10.2534C127.917 10.4767 127.741 10.751 127.49 10.8683C126.672 10.9465 126.211 10.9733 125.435 10.6424C125.221 9.77729 124.988 8.52007 125.986 8.12071Z" fill="#CCC6BA"/>
<path d="M85.1813 8.06494L85.9708 8.14088C86.0228 8.22406 86.0741 8.30825 86.1232 8.3934C86.556 9.14414 86.4476 9.82412 86.2352 10.6045C85.6888 10.836 85.5116 10.8877 84.9388 10.9128C83.4117 10.868 83.1107 9.60666 83.9325 8.41968C84.1852 8.05399 84.7513 8.07641 85.1813 8.06494Z" fill="#CCC6BA"/>
<path d="M127.894 14.1158C128.049 14.3524 127.991 15.4513 127.983 15.7984C128.11 15.463 127.907 13.8864 128.096 13.6128C128.37 14.1101 128.32 19.2739 128.298 20.1939C128.27 21.4195 128.473 25.7058 128.041 26.5484L127.931 26.3921L128.031 26.3543L127.915 26.3122C127.91 26.249 127.901 26.1057 127.885 26.0519C127.848 25.7368 127.869 24.8406 127.868 24.4955L127.866 21.316C127.866 19.3107 127.76 16.0303 127.894 14.1158Z" fill="#252422" fill-opacity="0.0156863"/>
<path d="M19.6949 0H20.1054C20.9069 0.175597 23.7235 0.1 24.6917 0.0985071L34.4227 0.0990672C37.2936 0.0977338 40.5143 -0.0917496 43.3117 0.401841C45.0158 0.702535 47.1594 3.11723 47.3271 4.83701C47.4164 5.75297 47.3833 6.91419 47.3827 7.85925L47.3785 13.2863L47.3806 20.5165C47.3836 21.6238 47.5149 24.4173 47.2231 25.3568C46.6581 27.1753 43.7162 29.7869 42.3766 31.1363C41.0236 32.4992 39.817 33.8259 38.3073 34.9427C37.5965 35.4503 36.2991 35.7668 35.9427 36H19.5933C18.594 35.3248 19.6647 34.4172 20.0786 33.7553L24.2905 27.1095C25.2911 25.5493 27.6151 21.3077 29.0677 20.6053C30.7594 19.7873 36.2075 20.7494 38.196 20.0076C39.0232 19.6989 39.6204 19.1926 40.269 18.7169C40.2906 18.5313 40.3084 18.3453 40.322 18.159C40.3504 17.7462 40.1974 17.3831 39.9054 17.0909C38.5617 15.7462 36.7469 15.7164 34.9878 15.7465C33.4026 15.7627 31.8236 15.7541 30.2393 15.7243C28.2831 15.6875 27.3754 13.8084 26.45 12.3554L24.0025 8.49381L20.7011 3.32636C20.2494 2.61619 19.2578 1.44193 19.2331 0.595008C19.2254 0.330224 19.5025 0.163125 19.6949 0ZM30.1433 22.744C28.9642 23.6193 27.009 27.5921 25.9883 28.9448C25.567 29.5032 24.0622 31.7586 23.8815 32.3435L23.9031 32.3885C25.3785 32.5518 27.6055 32.523 29.2768 32.4729C30.9938 32.4213 35.1911 32.8852 36.6082 31.7926C37.3092 31.2522 38.5393 29.9768 38.9816 29.2346C39.11 28.995 38.597 28.4794 38.4471 28.3294C37.7885 27.0717 33.7813 23.0436 37.688 23.7716C38.4611 23.9157 40.4159 26.7181 40.7794 27.4783C41.493 27.0728 43.6505 24.9772 43.7763 24.2208C44.0511 22.5675 43.9453 19.9777 43.9448 18.2588L43.9333 8.24714C42.427 8.21946 41.126 7.97192 40.2153 9.41345C39.6033 10.3821 38.9656 11.3726 38.1501 12.1844C37.6609 12.261 36.5065 12.4723 36.1021 12.1936C35.9589 11.993 35.8688 11.8391 35.911 11.5813C36.0042 11.0121 38.9113 7.04235 39.4304 6.67198C39.8326 6.38497 40.5257 6.01789 41.0111 5.93635C41.5451 5.84667 43.6632 6.21848 43.7753 5.61313C43.8334 5.29959 43.6985 4.9483 43.5075 4.7065C43.1085 4.20145 42.5141 3.76332 41.8622 3.69007C40.1165 3.49392 37.5731 3.63506 35.7607 3.63533C31.7844 3.61997 27.808 3.63166 23.8319 3.6704C23.9401 4.0779 29.5694 12.9671 29.9542 13.1917C30.4981 13.5091 31.2966 13.4498 31.9073 13.4463C35.0666 13.4281 38.5169 12.918 41.1635 15.0175C41.8382 15.5527 42.4954 16.3463 42.7319 17.1854C42.9381 17.9165 42.93 18.7381 42.5476 19.4068C41.751 20.7997 40.2628 21.918 38.7104 22.3385C35.9546 23.085 32.9431 22.3272 30.1433 22.744Z" fill="#CCC6BA"/>
<path d="M15.5095 0H15.5724L16.4725 0.382561C16.8444 0.99249 16.9607 1.54322 17.199 2.20247L18.3437 5.35031L19.4944 8.49432C19.6844 8.99927 20.1122 9.98828 20.2095 10.4751C20.3822 11.3392 20.2579 12.5184 20.3024 13.4301C20.9758 13.7205 23.3779 14.4974 23.0398 15.4566C23.0148 15.5275 22.967 15.6416 22.9356 15.7137C19.6162 15.8964 16.3498 15.6948 13.0031 16.2743C12.2468 16.4053 10.9339 15.9448 10.4295 15.4163C8.63525 13.6027 7.54058 11.0142 5.66135 9.29326C5.46382 9.11238 4.91328 8.97138 4.64059 8.8974C4.57468 8.3731 4.34277 7.40337 4.68946 6.95294C4.80421 6.80386 4.96945 6.73681 5.15251 6.71824C5.9376 6.63858 6.72899 6.98963 7.32136 7.47982C8.79353 8.69813 11.0944 13.1415 12.2372 13.7511C12.6554 13.9743 13.1878 13.9236 13.6449 13.8834C14.5219 13.8062 15.3843 13.6368 16.2573 13.5448C16.6368 13.5047 17.0561 13.5515 17.4242 13.4745C17.5372 13.4509 17.665 13.3967 17.7398 13.3059C18.0582 12.9198 17.9569 11.887 17.8909 11.4085C17.7875 10.6581 17.5123 9.9831 17.2529 9.27741C17.0142 8.62788 16.8085 7.96593 16.56 7.3199C16.1208 6.17841 15.5167 4.94635 15.3354 3.73455C14.5345 3.61153 13.5218 3.62375 12.7024 3.6366C10.297 3.67429 7.85706 3.54261 5.46067 3.71048C4.70694 3.76327 3.79137 4.59708 3.58117 5.32284C3.31554 6.25801 3.45124 8.40363 3.42973 9.44712C3.40898 10.4546 3.39901 11.83 3.42857 12.8161C3.45141 13.5778 3.32296 15.9083 3.50815 16.4806C4.35697 16.5329 8.61497 17.2085 8.70059 18.1148C8.34221 18.9443 6.06934 19.0425 5.255 19.2743C4.92805 19.3673 3.78581 19.4983 3.57567 19.6288C3.34295 20.3266 3.35492 30.0633 3.57586 30.8364C3.89357 31.4746 4.24909 31.7557 4.767 32.2377C6.35939 32.641 8.76797 32.4445 10.4632 32.477C11.5732 32.4984 14.3901 32.5885 15.3441 32.2784C15.9563 29.7269 17.3191 27.2576 17.8729 24.6833C17.9914 24.1322 17.9074 23.2269 17.8655 22.6653C16.8456 22.5344 13.3895 22.121 12.4839 22.163C11.6096 22.6742 11.2827 23.3368 10.7049 24.1413C9.7771 25.433 8.86868 26.7397 7.93718 28.0287C7.70383 28.3543 7.13522 28.7153 6.90889 29.0099C4.86187 29.6068 4.49434 29.6203 4.544 27.4043C5.00393 26.9257 5.62382 27.0131 6.07535 26.5003C7.55325 24.822 9.57114 20.6858 11.5556 19.9166C11.7486 19.8418 12.0653 19.8678 12.2779 19.8633C13.953 19.828 15.5591 20.1118 17.2195 20.2276C19.0328 20.3542 20.9128 20.3141 22.7301 20.2655C23.1163 20.7599 23.2326 21.1168 22.6173 21.5258C21.9147 21.9927 21.0406 22.2823 20.2749 22.6554C20.2913 23.6841 20.3605 24.947 20.2099 25.9504C20.1474 26.366 19.7299 26.8829 19.559 27.3779C19.3446 27.999 19.1531 28.6891 18.9253 29.293C18.1897 31.2429 17.3517 33.3797 16.7219 35.3532C16.4659 35.5795 16.2089 35.8209 15.9185 36H4.92019C4.65125 35.7845 3.72674 35.5496 3.36167 35.3825C1.2141 34.3994 0.943535 33.1899 0 31.4071V4.66501C0.405751 3.99753 0.493075 3.26262 1.14735 2.44203C3.13562 -0.051682 5.59491 0.0915313 8.50693 0.0960054L12.7156 0.0969955C13.324 0.10296 15.0291 0.194956 15.5095 0Z" fill="#CCC6BA"/>
<path d="M140.366 13.6015C143.339 12.6734 147.466 11.5951 149.389 14.9326C149.657 15.3978 149.821 15.8887 150 16.3922V26.714C149.454 26.8713 148.21 26.8154 147.639 26.7807C147.178 24.341 148.041 18.1632 147.189 16.4052C146.892 15.7933 146.383 15.3285 145.737 15.1069C144.409 14.6519 142.868 15.171 141.67 15.7524C142.087 17.5604 141.897 20.5954 141.937 22.5226C141.957 23.4781 141.983 25.8825 141.889 26.7813C141.089 26.8142 140.396 26.8116 139.598 26.7985C139.501 26.0208 139.532 24.8811 139.534 24.0723L139.541 19.8694C139.545 17.7498 139.707 15.1261 136.792 14.9578C136.011 14.9289 133.875 14.9784 133.83 16.0555C133.68 19.6175 133.918 23.2389 133.727 26.7973C133.208 26.8116 131.821 26.9306 131.441 26.6582C131.22 25.9988 131.24 15.1465 131.434 14.1757C132.71 12.7829 136.868 12.4018 138.651 12.8944C139.17 13.0378 139.775 13.4319 140.366 13.6015Z" fill="#CCC6BA"/>
<path d="M3.57582 19.6289C3.68976 20.2926 3.6666 20.9113 3.68948 21.5811C3.74603 23.0598 3.76136 24.5398 3.73549 26.0193C3.7156 27.8108 3.82325 29.0071 3.57601 30.8366C3.35507 30.0634 3.3431 20.3267 3.57582 19.6289Z" fill="#252422" fill-opacity="0.0117647"/>
<path d="M3.58117 5.32275C3.76505 6.43098 3.69869 8.41624 3.69546 9.56795C3.69236 10.6723 3.74332 11.7344 3.73669 12.8502C3.73 13.9754 3.64148 15.1544 3.6576 16.243L3.59994 16.242C3.58689 15.2825 3.64994 13.4581 3.55704 12.5849C3.52805 13.3731 3.60641 15.9724 3.50815 16.4805C3.32296 15.9083 3.45141 13.5778 3.42857 12.8161C3.39901 11.8299 3.40898 10.4545 3.42973 9.44703C3.45124 8.40354 3.31554 6.25792 3.58117 5.32275Z" fill="#252422" fill-opacity="0.0117647"/>
</g>
<defs>
<clipPath id="clip0_2001_909">
<rect width="150" height="36" fill="white"/>
</clipPath>
</defs>
</svg>
