<svg width="150" height="63" viewBox="0 0 150 63" fill="none" xmlns="http://www.w3.org/2000/svg">
<path d="M69.3491 24.3978C71.6763 24.4215 74.0038 24.4299 76.3315 24.4229C77.5839 24.4237 79.423 24.4749 80.6147 24.3809L72.2569 52.5293C68.6224 52.6075 64.3037 52.5992 60.6689 52.5287L58.4052 41.5429C58.1272 40.197 57.8656 38.8477 57.6206 37.4955C56.8819 40.4716 56.272 43.6031 55.5396 46.5948C55.0516 48.5875 54.7031 50.6065 54.0079 52.543C50.3402 52.5459 46.4372 52.6156 42.7882 52.5256C40.1637 43.0711 37.277 33.6912 34.1316 24.3967C34.9052 24.4556 36.2032 24.4191 37.0102 24.4196L42.4803 24.4145C43.2001 24.4129 44.9482 24.3624 45.5529 24.5035C46.0057 24.8468 46.9372 28.522 47.1503 29.2714L49.2391 36.6177C49.7436 35.1659 52.6291 24.6912 52.9509 24.4057L58.1949 24.4172C58.9813 24.4147 61.5371 24.3544 62.0972 24.4886C62.658 25.0415 65.3314 34.9208 65.8654 36.6006C67.0355 32.5535 68.1346 28.4219 69.3491 24.3978Z" fill="#CCC6BA"/>
<path d="M92.2829 23.5928C95.8528 23.3922 102.321 23.6773 105.166 25.9739C108.138 28.3718 108.011 31.8065 108.007 35.2295L108.001 40.0791C108.003 40.848 108.005 41.5667 108.052 42.3345C108.142 43.8138 109.359 43.4386 110.429 43.293C111.343 46.1085 111.927 48.7801 112.996 51.665C112.508 51.7345 111.613 52.0054 111.091 52.1285C110.071 52.3664 109.036 52.5394 107.995 52.6465C104.96 52.9681 101.151 52.7819 98.6902 50.7979C94.8596 52.9975 92.042 53.1812 87.8035 52.5533C82.4158 51.5817 79.9526 48.0771 80.6045 42.6572C81.4145 35.9279 88.1916 34.7871 93.7573 34.7177C94.3191 34.7108 96.3596 34.8617 96.7192 34.5804C96.9338 33.5012 95.5034 33.1498 94.7314 33.0031C91.2056 32.3327 87.5705 32.8719 84.0725 33.4586C83.417 30.6369 82.2488 27.3743 81.512 24.4939C82.5461 24.4322 84.4101 24.1227 85.5849 23.9951C87.9631 23.7371 89.9055 23.6688 92.2829 23.5928ZM91.8589 44.4521C93.3274 44.9697 95.6733 44.3819 97.1924 44.0682C97.2085 43.5856 97.2576 42.3717 97.1579 41.9401C97.1089 41.9164 97.0613 41.884 97.0122 41.8867C95.7224 41.9158 90.2373 41.4952 91.522 44.1809C91.5351 44.2088 91.8091 44.4153 91.8589 44.4521Z" fill="#CCC6BA"/>
<path d="M131.113 24.375C132.459 24.5018 135.335 24.4235 136.805 24.4254C138.254 24.4272 141.188 24.5059 142.526 24.3761C141.668 26.7774 140.808 29.2088 140.008 31.632C139.17 34.0812 138.591 36.6852 137.748 39.1207C137.161 40.8184 136.625 42.3808 136.11 44.114L133.447 53.0393C132.781 55.3082 132.133 57.6708 131.393 59.9145C127.789 60.0464 123.824 59.7835 120.2 59.9275C120.512 58.6701 120.949 57.525 121.345 56.2957C121.743 55.0624 122.054 53.7404 122.502 52.5294C121.008 52.5452 119.513 52.5506 118.018 52.5455C117.763 51.4882 117.409 50.3798 117.09 49.335C115.693 44.7734 114.442 40.1308 113.06 35.5617C112.863 34.9131 112.659 34.2668 112.431 33.629C111.353 30.6198 110.527 27.5063 109.649 24.4318C112.012 24.3888 114.429 24.4425 116.8 24.4171C117.483 24.4098 120.075 24.3672 120.642 24.4752C121.259 24.8722 122.529 29.8703 122.796 30.7829C123.853 34.2814 124.881 37.7885 125.88 41.3039C126.724 38.2548 127.613 35.218 128.544 32.1945C128.811 31.3459 129.204 30.398 129.486 29.5485C129.83 28.509 130.633 25.1671 131.113 24.375Z" fill="#CCC6BA"/>
<path d="M7.49365 24.4383C9.03423 24.373 10.8753 24.4203 12.4342 24.4213L21.0561 24.4132C20.6831 27.6925 20.5733 31.5481 20.3983 34.9004L19.5512 51.1203C19.4854 51.5673 19.4826 52.0945 19.469 52.5526C18.3394 52.508 16.9644 52.5429 15.8189 52.5426L8.9623 52.5415C9.02566 51.8995 8.88467 50.0381 8.84211 49.2808L8.55251 43.7662L7.49365 24.4383Z" fill="#CCC6BA"/>
<path d="M28.268 2.00438C28.4574 1.97687 28.6993 1.97871 28.8929 1.97549C34.4106 1.8837 36.2673 8.99156 33.5095 12.9374C31.7345 15.4773 28.5606 16.3266 25.6721 16.8576C25.0886 16.9131 23.4495 17.1948 23.032 16.9932C23.1193 16.6334 24.5213 16.3582 24.9038 16.1089C28.9732 13.5177 24.2654 12.3706 23.361 10.0868C21.91 6.42221 24.3268 2.39407 28.268 2.00438Z" fill="#CCC6BA"/>
<path d="M13.6124 9.83918C16.9174 9.43096 19.9294 11.7728 20.3449 15.0738C20.7603 18.3748 18.4223 21.3887 15.119 21.8104C11.8061 22.2333 8.77862 19.8894 8.36202 16.5789C7.94542 13.2683 10.2978 10.2486 13.6124 9.83918Z" fill="#CCC6BA"/>
</svg>
