<svg width="150" height="74" viewBox="0 0 150 74" fill="none" xmlns="http://www.w3.org/2000/svg">
<path d="M66.3657 31.4412C66.4308 31.2775 66.4969 31.0162 66.4969 30.8529C66.4969 29.971 65.8068 29.546 65.0837 29.546C64.4592 29.546 64.0646 29.8402 63.8343 30.5264L60.9418 39.3145L57.6216 30.4608C57.4243 29.9058 57.0632 29.546 56.3722 29.546C55.6821 29.546 55.3206 29.9054 55.1237 30.4608L51.8361 39.3145L48.9436 30.5264C48.7133 29.8406 48.3187 29.546 47.6942 29.546C46.9711 29.546 46.281 29.971 46.281 30.8529C46.281 31.0162 46.3461 31.2775 46.4122 31.4412L50.4555 43.3651C50.5872 43.8877 51.0139 44.2475 51.7375 44.2475C52.4606 44.2475 52.8552 43.8553 53.0525 43.3323L56.3722 34.283L59.7254 43.3323C59.9227 43.8872 60.3499 44.2475 61.0404 44.2475C61.731 44.2475 62.1251 43.921 62.3224 43.3651L66.3657 31.4412ZM36.2228 41.5208L31.4392 36.7955L36.2228 32.0706C36.8268 31.4694 36.8743 30.5454 36.2228 29.8989C35.5718 29.2519 34.6421 29.2977 34.0381 29.8989L28.2177 35.6833C28.0701 35.8285 27.9537 36.0019 27.8754 36.193C27.7971 36.3842 27.7585 36.5891 27.7622 36.7955C27.7585 37.0018 27.797 37.2068 27.8753 37.398C27.9536 37.5891 28.0701 37.7625 28.2177 37.9077L34.0381 43.6916C34.6421 44.2928 35.5718 44.339 36.2228 43.6916C36.8734 43.0456 36.8268 42.1216 36.2228 41.5208ZM27.0293 42.6016V30.9709C27.0293 30.1218 26.3722 29.4355 25.4844 29.4355C24.5965 29.4355 23.9395 30.1218 23.9395 30.9709V42.6016C23.9395 43.4502 24.5635 44.1365 25.4844 44.1365C26.4048 44.1365 27.0293 43.4502 27.0293 42.6011V42.6016ZM40.1074 31.0818V42.7112C40.1074 43.5607 40.7324 44.2475 41.6523 44.2475C42.5737 44.2475 43.1982 43.5607 43.1982 42.7112V31.0818C43.1982 30.2323 42.5402 29.5465 41.6528 29.5465C40.7654 29.5465 40.1074 30.2323 40.1074 31.0818ZM69.6328 31.0818V42.7112C69.6328 43.5607 70.2573 44.2475 71.1777 44.2475C72.0981 44.2475 72.7226 43.5607 72.7226 42.7112V31.0818C72.7226 30.2323 72.0651 29.5465 71.1777 29.5465C70.2903 29.5465 69.6328 30.2323 69.6328 31.0818ZM69.6328 31.0818V42.7112C69.6328 43.5607 70.2573 44.2475 71.1777 44.2475C72.0981 44.2475 72.7226 43.5607 72.7226 42.7112V31.0818C72.7226 30.2323 72.0651 29.5465 71.1777 29.5465C70.2903 29.5465 69.6328 30.2323 69.6328 31.0818ZM69.6328 31.0818V42.7112C69.6328 43.5607 70.2573 44.2475 71.1777 44.2475C72.0981 44.2475 72.7226 43.5607 72.7226 42.7112V31.0818C72.7226 30.2323 72.0651 29.5465 71.1777 29.5465C70.2903 29.5465 69.6328 30.2323 69.6328 31.0818ZM100.903 32.2195C102.288 32.2195 103.095 32.7448 103.868 33.3303C104.176 33.5421 104.478 33.6448 104.79 33.6448C105.54 33.6448 106.106 33.0732 106.106 32.3157C106.106 31.9624 105.962 31.647 105.666 31.3519C104.563 30.2175 102.783 29.5405 100.903 29.5405C96.6407 29.5405 93.663 32.5418 93.663 36.8389C93.663 41.1365 96.6402 44.1379 100.904 44.1379C102.783 44.1379 104.56 43.4632 105.658 42.3338C105.959 42.0332 106.106 41.716 106.106 41.3627C106.106 40.6052 105.54 40.0336 104.79 40.0336C104.477 40.0336 104.169 40.1413 103.845 40.3638C103.115 40.9178 102.287 41.4589 100.903 41.4589C98.3499 41.4589 96.5662 39.5591 96.5662 36.8389C96.5662 34.1188 98.3499 32.2195 100.903 32.2195ZM115.288 29.5405C111.138 29.5405 108.007 32.6782 108.007 36.8389C108.007 41.0001 111.137 44.1379 115.288 44.1379C119.439 44.1379 122.569 41.0001 122.569 36.8389C122.569 32.6782 119.44 29.5405 115.288 29.5405ZM115.288 41.531C112.408 41.531 110.901 39.1706 110.901 36.8389C110.901 33.759 113.108 32.1473 115.288 32.1473C118.17 32.1473 119.677 34.5077 119.677 36.8389C119.677 39.9194 117.469 41.531 115.288 41.531ZM138.288 29.6228C137.753 29.6228 137.283 29.9377 137.031 30.4645L132.53 39.8292L132.491 39.7469L127.98 30.446C127.669 29.8845 127.266 29.6228 126.711 29.6228C126.532 29.6209 126.355 29.6545 126.189 29.7217C126.024 29.7889 125.873 29.8883 125.747 30.0141C125.62 30.1399 125.52 30.2895 125.453 30.4542C125.385 30.6189 125.352 30.7953 125.354 30.9732V42.6844C125.354 43.4275 125.975 44.0551 126.711 44.0551C127.459 44.0551 128.09 43.4275 128.09 42.6844V36.4616L131.338 43.3022C131.598 43.8156 131.977 44.0551 132.531 44.0551C133.059 44.0551 133.495 43.7781 133.727 43.2953L136.93 36.463V42.7057C136.93 43.4497 137.54 44.0551 138.288 44.0551C139.061 44.0551 139.667 43.4622 139.667 42.7057V30.9935C139.667 30.174 139.113 29.6228 138.288 29.6228Z" fill="#CCC6BA"/>
<path d="M80.0871 50.3317C79.6898 50.0388 79.2081 49.881 78.7134 49.8817C78.3505 49.8824 77.9927 49.9673 77.6687 50.1299C77.3447 50.2924 77.0635 50.5279 76.8474 50.8177C73.9419 54.7301 69.8395 58.0103 64.9833 60.3032C59.934 62.6894 54.1624 63.9496 48.276 63.9496C39.2946 63.9496 30.8711 61.0792 24.558 55.8659C21.5273 53.3668 19.1531 50.4653 17.5012 47.243C15.8107 43.9433 14.953 40.443 14.9521 36.8396C14.953 33.2361 15.8107 29.7353 17.5012 26.4348C19.9875 21.5832 24.1322 17.441 29.4877 14.4563C35.0377 11.3624 41.538 9.7272 48.2881 9.7272C54.1736 9.7272 59.9591 10.9943 65.0196 13.3917C69.886 15.6966 73.9907 18.9906 76.8902 22.9183C77.1062 23.2094 77.3879 23.446 77.7126 23.6093C78.0373 23.7726 78.396 23.8579 78.7599 23.8584C79.2526 23.8593 79.7325 23.7028 80.1289 23.4122C80.6236 23.0503 80.9537 22.5082 81.0468 21.9048C81.1399 21.3015 80.9884 20.686 80.6254 20.1935C77.2723 15.6545 72.5659 11.8647 67.0135 9.23422C61.3346 6.54412 54.8595 5.12253 48.289 5.12207C38.2276 5.12392 28.7488 8.37221 21.5975 14.268C18.0796 17.1709 15.3123 20.5607 13.3723 24.3445C11.3449 28.2962 10.3169 32.4999 10.3179 36.8391C10.3169 41.1783 11.3449 45.3816 13.3723 49.3333C16.2797 54.9997 21.0689 59.8079 27.2211 63.2374C33.4621 66.7156 40.7469 68.5547 48.2881 68.5552C54.8414 68.5552 61.3025 67.1401 66.9726 64.4625C72.5142 61.8441 77.2178 58.0713 80.5757 53.5522C80.9399 53.0604 81.093 52.4452 81.0014 51.8413C80.9098 51.2375 80.581 50.6949 80.0871 50.3317Z" fill="#CCC6BA"/>
<path d="M83.7931 34.3027C83.1166 34.3036 82.4681 34.5711 81.9898 35.0465C81.5115 35.522 81.2424 36.1665 81.2417 36.8388C81.2424 37.5111 81.5115 38.1557 81.9898 38.6312C82.4681 39.1066 83.1166 39.3741 83.7931 39.3749C84.4696 39.3741 85.1182 39.1066 85.5965 38.6312C86.0748 38.1557 86.3438 37.5111 86.3445 36.8388C86.3438 36.1665 86.0748 35.522 85.5965 35.0465C85.1182 34.5711 84.4696 34.3036 83.7931 34.3027Z" fill="#CCC6BA"/>
</svg>
