<svg width="150" height="48" viewBox="0 0 150 48" fill="none" xmlns="http://www.w3.org/2000/svg">
<path d="M98.552 47.7395C101.442 47.701 104.177 46.574 106.162 44.5511C108.185 42.5283 109.312 39.7926 109.312 36.9413V10.8753C109.312 7.98549 108.185 5.24981 106.2 3.18842C104.177 1.16555 101.442 0 98.552 0H72.3608C69.471 0.0385307 66.7353 1.16555 64.751 3.18842C62.7281 5.24981 61.6011 7.98549 61.6011 10.8753V36.9798C61.6396 42.9039 66.4367 47.701 72.3608 47.7395" fill="#CCC6BA"/>
<path d="M91.1347 25.3531C90.1233 28.7245 91.7705 32.1056 95.2575 30.7474C94.2461 33.1844 92.5604 36.8256 92.5604 40.6112C92.5604 40.6112 92.5604 43.1639 94.4291 43.7996C94.4291 43.7996 97.0492 44.4354 96.4905 42.1139C96.0763 40.6498 95.9703 39.1567 96.1533 37.654C96.7891 34.5426 97.762 31.4987 99.0431 28.58C99.0431 28.58 103.05 20.2092 105.372 16.3176C105.372 16.3176 106.345 14.3237 104.36 14.3237C103.763 14.3237 103.195 14.6223 102.829 15.1135L97.1648 25.1989C96.3075 26.7787 95.4791 27.2603 94.8433 27.2603C93.4177 27.2603 93.7163 24.9774 93.9475 24.149C94.5832 21.3362 95.5946 18.6391 96.9432 16.0479C97.9546 13.842 95.9318 13.6494 95.9318 13.6494C94.6506 13.3122 93.6777 15.4121 93.6777 15.4121L91.4333 19.9877C89.9692 22.5403 88.3605 24.9774 86.6363 27.3374C86.6363 27.3374 86.3376 27.7131 86.1065 27.5686C85.8849 27.3759 86.0005 27.0003 86.0005 27.0003C86.3762 23.8889 87.0119 20.8161 87.8692 17.7722C87.9078 17.5891 87.9463 17.435 87.9463 17.252C87.9848 16.8378 87.8692 16.4236 87.6092 16.125C87.3491 15.7878 86.9734 15.6048 86.5592 15.6048C85.5478 15.4892 85.0661 15.9708 84.1607 17.0593C82.1763 19.4964 79.8549 23.1761 78.7278 24.8233C78.6122 25.0159 78.3907 24.9774 78.3907 24.7173C78.3907 23.966 81.0108 15.8649 81.0108 15.8649C81.0108 15.8649 81.319 14.7379 80.4136 14.3622C80.4136 14.3622 79.0264 13.5049 77.9091 15.1906L72.5051 22.5403C72.1006 23.099 71.8694 22.916 71.8694 22.916V22.4247L72.7363 17.6277C73.4106 13.948 72.1295 13.765 71.3107 13.6108C70.7134 13.6108 70.0681 13.8035 69.5479 14.1406C67.8622 14.9594 66.5907 18.302 66.5907 18.302C66.5907 18.302 66.215 19.4964 67.0338 19.9877C67.3035 20.1418 67.6021 20.2478 67.9007 20.2092C69.0952 20.1418 69.3263 17.9263 70.1837 17.9263C70.3378 17.9263 70.3378 18.1093 70.3378 18.1478L67.5636 29.813C67.3709 30.4873 67.6695 31.2001 68.2378 31.5758C68.6135 31.7973 69.0277 31.8359 69.4323 31.7684C69.808 31.6528 70.1451 31.3928 70.3763 31.0556L71.3877 29.4759C72.8423 26.8847 75.5394 23.1761 75.8091 23.1761C75.9151 23.1761 75.9536 23.1761 75.9536 23.2917L74.9422 30.1501C74.8362 30.7474 75.1734 31.3928 75.7321 31.6528C76.2522 31.8359 76.8206 31.7973 77.3022 31.5372C77.8705 31.0845 78.3522 30.5258 78.6893 29.8901C79.2576 28.9846 81.9548 25.8058 83.602 22.8775C83.7176 22.6848 83.8235 22.8775 83.785 22.9931C83.4478 24.5247 83.1878 28.6185 83.1492 29.63C83.0722 31.6143 84.6134 31.8359 84.6519 31.8359C85.6634 31.9129 86.6363 31.4602 87.195 30.6414" fill="#403D38"/>
<path fill-rule="evenodd" clip-rule="evenodd" d="M10.49 29.8901H7.49422V23.1761C7.53275 22.4248 7.37863 21.6734 7.04148 21.0377C6.70434 20.5464 6.10712 20.2478 5.50026 20.3248C4.98009 20.3248 4.48883 20.4404 4.08425 20.7005C3.63152 20.9991 3.25584 21.4133 2.99576 21.8661V29.8901H0V17.7047H1.68572L2.80311 19.3519C3.10172 19.0919 3.40997 18.8607 3.70858 18.6391C4.00719 18.4465 4.30581 18.302 4.64295 18.1479C4.97688 18.0002 5.31403 17.8878 5.65438 17.8107C5.99152 17.7336 6.3672 17.7047 6.74287 17.7047C7.15708 17.7047 7.56165 17.7336 7.93732 17.8492C8.23594 17.9648 8.54418 18.0708 8.84279 18.2634C9.06435 18.4465 9.2859 18.6776 9.47855 18.8992C9.7001 19.1978 9.85423 19.4675 9.99872 19.7661C10.2299 19.535 10.49 19.2749 10.7886 19.0533C11.0872 18.8221 11.4244 18.6006 11.8 18.4176C12.1404 18.1864 12.5161 17.9969 12.9271 17.8492C13.3702 17.7336 13.8229 17.6662 14.3142 17.6662C14.9114 17.6662 15.4701 17.8107 15.9999 18.0708C16.4815 18.379 16.8957 18.7547 17.1558 19.1978C17.4544 19.7661 17.6856 20.3248 17.7916 20.9606C17.9457 21.6734 18.0227 22.3862 18.0227 23.1376V29.8901H14.9884V23.1761C15.0559 22.4248 14.9114 21.6734 14.5357 21.0377C14.1986 20.5464 13.6399 20.2478 13.033 20.3248C12.5514 20.3248 12.0601 20.4404 11.617 20.7005C11.1643 20.9991 10.7501 21.3748 10.49 21.8661M27.7999 28.5415C27.3857 28.9557 26.8655 29.2929 26.3357 29.5144C25.6325 29.7745 24.8812 29.9286 24.1298 29.8901C23.6001 29.9286 23.0414 29.813 22.5597 29.63C22.1038 29.4373 21.6896 29.1741 21.3171 28.8401C20.9832 28.4612 20.7199 28.047 20.5272 27.5975C20.3442 27.1159 20.2671 26.5861 20.2671 26.0659C20.2671 23.8119 22.0299 22.3477 24.8427 22.3477H27.8384V21.6734C27.8384 21.2303 27.5783 20.8546 27.2027 20.662C26.6054 20.4019 25.9312 20.2478 25.2569 20.2863C24.5055 20.2863 23.7542 20.4019 23.0414 20.5464C22.4827 20.7005 21.9208 20.89 21.3556 21.1147L21.0185 18.6006C21.2015 18.485 21.4712 18.4176 21.8084 18.302C22.107 18.1864 22.4827 18.1093 22.8198 18.0034C23.157 17.9263 23.6001 17.8492 24.0528 17.7722C24.5055 17.7047 24.9872 17.7047 25.4784 17.7047C26.8655 17.5892 28.2912 18.0419 29.3411 18.9377C30.2755 19.9106 30.7282 21.2303 30.6512 22.5404V29.8901H28.5127L27.7999 28.5415ZM27.7999 24.3417H25.1413C24.5826 24.3031 24.0528 24.4476 23.5615 24.7559C23.2629 25.0545 23.0799 25.4687 23.0799 25.9118C23.0799 26.326 23.2244 26.7017 23.5326 27.0003C23.8698 27.2604 24.3129 27.4145 24.7656 27.376C25.1028 27.376 25.4399 27.3374 25.777 27.2315C26.0757 27.1544 26.3743 27.0388 26.6343 26.8943C26.8976 26.7017 27.1256 26.5122 27.3183 26.326C27.5398 26.1044 27.6843 25.8733 27.8384 25.6517L27.7999 24.3417ZM39.8696 23.5903L45.3795 29.8516H41.6324L36.5271 23.6674V29.8516H33.5699V13.1678H36.5271V23.6674L41.0641 17.5217H44.7052L39.8696 23.5903ZM51.8912 27.2604C52.3439 27.2604 52.8352 27.2218 53.2783 27.1062C53.6925 27.0388 54.1067 26.9232 54.4824 26.7691C54.8195 26.6631 55.1567 26.509 55.4553 26.326C55.5998 26.2489 55.7539 26.1333 55.908 26.0274L56.4667 28.686C55.831 29.0231 55.1567 29.3218 54.4439 29.5529C53.6155 29.7745 52.7582 29.8901 51.8912 29.8901C50.9568 29.8901 50.0225 29.736 49.117 29.4373C48.4042 29.1773 47.701 28.7631 47.1327 28.1947C46.574 27.6746 46.1598 27.0003 45.8997 26.2875C45.5626 25.5361 45.4084 24.7077 45.3699 23.8504C45.3699 23.0605 45.4855 22.2706 45.7456 21.5193C46.0153 20.7776 46.3813 20.1322 46.9111 19.535C47.3928 18.9763 48.0381 18.5235 48.751 18.2249C50.3596 17.5892 52.1898 17.5892 53.8081 18.2249C54.4824 18.485 55.0411 18.9377 55.5324 19.4579C55.9755 19.9877 56.3126 20.5849 56.5438 21.2207C56.7268 21.895 56.8424 22.6078 56.8424 23.3206C56.8424 23.5133 56.8424 23.7348 56.8424 23.9564C56.8039 24.1875 56.7653 24.4091 56.7268 24.6017H48.4427C48.4813 25.0127 48.5936 25.3852 48.7799 25.7191C48.934 26.0563 49.1941 26.3645 49.4927 26.5861C49.7913 26.8462 50.1284 27.0388 50.5426 27.1062C50.9536 27.2604 51.4032 27.3374 51.8912 27.3374V27.2604ZM51.3325 20.4019C50.9568 20.4019 50.5812 20.4308 50.244 20.5464C49.9454 20.6234 49.6468 20.7776 49.4253 20.9606C49.1555 21.1147 48.9725 21.3363 48.8184 21.5963C48.6739 21.8564 48.5583 22.1261 48.4813 22.4248H53.7696C53.7696 22.1647 53.7311 21.895 53.6155 21.6349C53.5384 21.4133 53.3554 21.1821 53.1724 20.9991C52.9412 20.8065 52.6811 20.662 52.421 20.5464C52.0453 20.4308 51.6697 20.3634 51.3325 20.4019ZM112.23 19.4194L116.199 14.6223H117.095V17.6566H120.505V20.2863H117.095V25.3146C117.095 25.5746 117.133 25.8733 117.21 26.1719C117.287 26.3581 117.4 26.5475 117.548 26.7402C117.702 26.8462 117.885 26.9617 118.077 27.0003C118.26 27.0773 118.453 27.1062 118.675 27.1062C119.012 27.1062 119.349 27.0773 119.647 26.9617C119.946 26.9232 120.206 26.8076 120.476 26.7017V29.3603C120.174 29.508 119.834 29.6204 119.455 29.6974C118.414 29.919 117.326 29.8901 116.315 29.5818C115.823 29.4373 115.409 29.1773 115.033 28.8401C114.735 28.503 114.475 28.0888 114.33 27.636C114.176 27.1448 114.06 26.5861 114.099 26.0563V20.3634H112.153L112.23 19.4194ZM125.61 20.1996C126.053 19.4579 126.622 18.8125 127.334 18.3309C127.932 17.8781 128.683 17.6566 129.473 17.6951C129.698 17.6566 129.922 17.6566 130.147 17.6951L130.552 17.7625C130.552 17.7625 130.484 18.4368 130.031 20.5368C129.81 20.5079 129.579 20.4693 129.357 20.5079C128.827 20.4693 128.346 20.5753 127.854 20.7679C127.411 20.951 127.036 21.2496 126.737 21.6252C126.429 22.0009 126.169 22.4537 126.024 22.9449C125.87 23.5421 125.793 24.1426 125.793 24.7462V29.8804H122.797V17.6951H124.676L125.61 20.1996ZM144.827 17.6855C145.656 17.647 146.446 17.83 147.149 18.1671C147.794 18.5043 148.314 18.957 148.767 19.5542C149.181 20.1611 149.518 20.8354 149.701 21.5482C149.884 22.2995 150 23.0798 150 23.8311C150 24.621 149.884 25.4109 149.663 26.1622C149.48 26.8751 149.143 27.5108 148.69 28.0695C148.237 28.6378 147.717 29.0809 147.081 29.3796C146.407 29.7263 145.617 29.8708 144.866 29.8708C144.114 29.8708 143.402 29.7552 142.727 29.4951C142.169 29.2351 141.648 28.8979 141.234 28.4067V34.7449H138.239V17.6855H139.992L141.157 19.1496C141.61 18.6969 142.169 18.3212 142.804 18.0226C143.44 17.7914 144.114 17.647 144.789 17.6855H144.827ZM144.008 20.3441C143.671 20.3056 143.334 20.3826 143.036 20.4982C142.737 20.6042 142.467 20.7583 142.207 20.9413C141.986 21.0955 141.793 21.317 141.61 21.5482C141.456 21.7697 141.311 21.9913 141.234 22.261V25.7095C141.35 25.9311 141.494 26.1237 141.687 26.3067C141.87 26.4994 142.063 26.6439 142.284 26.798C142.548 26.9457 142.811 27.0581 143.074 27.1351C143.816 27.3182 144.606 27.2796 145.319 27.0195C145.656 26.8365 145.993 26.6053 146.214 26.3067C146.484 26.0081 146.667 25.6324 146.783 25.2568C146.889 24.804 146.966 24.3224 147.004 23.8311C147.004 23.388 146.927 22.8968 146.783 22.4055C146.667 21.9945 146.478 21.6188 146.214 21.2785C145.954 20.9799 145.656 20.7198 145.28 20.5657C144.904 20.3826 144.529 20.3056 144.114 20.3056L144.008 20.3441ZM133.634 12.6572C134.048 12.6572 134.453 12.8499 134.723 13.1485C135.021 13.4471 135.204 13.8228 135.166 14.237C135.166 15.0943 134.491 15.8071 133.634 15.8071C132.767 15.8071 132.093 15.0943 132.093 14.237C132.093 13.37 132.767 12.6958 133.634 12.6958V12.6572ZM132.093 17.6855H135.098V29.8708H132.093V17.6855Z" fill="#CCC6BA"/>
</svg>
