<svg width="150" height="33" viewBox="0 0 150 33" fill="none" xmlns="http://www.w3.org/2000/svg">
<path d="M2.51123 18.1356C2.68874 17.6941 2.6979 16.4463 3.02155 15.6436C4.45885 12.0787 6.54455 7.86654 10.1066 6.0484C11.7407 5.26611 13.5238 5.39118 15.1423 5.99416C17.6683 6.93525 20.6633 8.66082 21.8112 11.207C22.5882 12.9307 22.3094 15.2708 21.6788 16.9915C21.1522 18.4288 19.8638 21.3834 18.7536 22.3808C20.5232 24.2779 21.2146 23.4691 23.4785 23.6799C22.8076 25.0545 22.4063 25.8093 21.6057 27.1102C20.3319 27.1944 18.4604 27.3778 17.4323 26.5198C17.0151 26.1716 16.5415 25.5494 16.0295 25.3616C12.4776 27.7109 8.84827 26.7544 5.65431 24.3111C4.29567 23.2718 3.04656 21.9664 2.65013 20.2396C2.56189 19.8553 2.57277 19.489 2.51268 19.0981L2.51123 18.1356ZM16.076 19.9525C17.1216 17.7313 19.1303 15.3026 18.2621 12.5915C17.836 11.2612 16.1219 10.3035 14.9733 9.68999C14.1213 9.2349 12.5173 9.01838 11.5835 9.42798C9.47215 10.354 7.88916 13.6709 6.85537 15.6178C6.28842 16.7221 6.01126 18.8035 6.36962 19.9577C6.66034 20.894 8.62327 22.2265 9.46819 22.6106C10.7945 23.2135 12.2055 23.5123 13.56 22.7687C15.1708 21.6066 14.9699 21.1063 16.076 19.9525Z" fill="#CCC6BA"/>
<path d="M16.0761 19.9526C16.4999 20.4378 18.2311 22.0074 18.7537 22.381C20.5233 24.2781 21.2146 23.4693 23.4786 23.6801C22.8076 25.0546 22.4063 25.8094 21.6057 27.1103C20.332 27.1946 18.4604 27.3779 17.4324 26.52C17.0151 26.1718 16.5415 25.5496 16.0296 25.3618C15.4956 24.4963 14.3394 23.6535 13.5601 22.7689C15.1708 21.6068 14.9699 21.1065 16.0761 19.9526Z" fill="#CCC6BA"/>
<path d="M68.3585 6.28828C70.2509 6.04604 73.3413 6.2223 74.968 7.14402C78.4521 9.11806 78.7649 13.4982 78.674 17.055C78.611 19.5149 78.57 21.0213 77.3183 23.2343C78.4975 23.6487 79.9616 23.3363 81.1936 23.4212C81.3803 23.746 81.1503 24.0394 80.976 24.3139C80.3952 25.2251 79.8825 26.1411 79.413 27.114C77.9401 27.2212 76.3354 27.3788 75.1621 26.4682C75.0969 26.3896 75.0046 26.3063 74.9299 26.234C74.6091 26.1677 72.5204 27.0246 71.7294 27.0969C66.4218 27.5819 61.9368 26.0784 61.3381 20.0606C61.1546 16.3586 60.7328 11.667 63.1457 8.55831C64.4649 6.85874 66.4346 6.47481 68.3585 6.28828ZM65.0356 13.8614C64.9709 14.2228 64.8024 14.593 64.767 14.8113C64.6584 15.482 64.5491 18.3712 64.7887 18.847C64.97 18.9837 64.9563 18.9344 65.0378 19.1286C64.8672 20.2134 65.2456 21.5263 65.9157 22.3275C67.4916 24.2119 72.0808 24.2178 73.6906 22.4618C75.1965 20.8198 75.1027 16.4343 74.9057 14.3291C74.6611 11.7075 73.4065 9.79666 70.6754 9.63114C67.7861 9.35156 64.9537 10.4883 65.0356 13.8614Z" fill="#CCC6BA"/>
<path d="M65.0375 19.1285C64.956 18.9344 64.9697 18.9837 64.7884 18.847C64.5488 18.3712 64.6581 15.4819 64.7667 14.8112C64.8021 14.5929 64.9706 14.2227 65.0353 13.8613C65.1388 15.4354 65.0532 17.5252 65.0375 19.1285Z" fill="#CCC6BA"/>
<path d="M125.181 16.6086C124.806 18.0766 125.036 18.2503 124.879 19.4834C124.589 21.4065 123.958 23.152 122.733 24.6684C120.078 27.9576 113.345 27.8732 110.194 25.4383C108.413 24.0215 107.623 20.9548 107.528 18.7474C107.309 13.6274 107.531 6.95823 114.029 6.32302C119.776 5.76118 123.971 6.78571 124.877 13.2949C124.964 13.9169 124.89 14.6641 124.946 15.3228C124.893 15.9486 125.161 16.1367 125.181 16.6086ZM117.373 23.7132C119.604 23.1372 120.983 22.1043 121.151 19.665C121.345 16.8757 121.901 11.9552 119.113 10.2536C118.216 9.70579 116.15 9.41151 115.192 9.65089C110.88 10.4286 111.146 13.5664 111.16 17.2114C111.163 18.1339 111.122 19.1007 111.267 20.0165C111.913 23.6144 114.349 23.7609 117.373 23.7132Z" fill="#CCC6BA"/>
<path d="M128.569 6.47644C129.159 6.42386 133.413 6.32344 133.789 6.66412C134.943 7.70837 136.774 17.2174 137.56 17.6711C137.917 17.0945 138.037 16.0308 138.28 15.4027C138.69 14.3441 138.927 13.2525 139.247 12.1908C139.762 10.487 140.406 8.85213 140.822 7.10946C141.154 6.80295 141.259 6.71101 141.652 6.48308C142.641 6.40593 143.823 6.48842 144.747 6.44036C147.035 6.32139 147.477 6.83737 147.439 9.10032C147.415 10.579 147.425 12.2003 147.425 13.6943L147.433 27.0951C146.788 27.209 144.491 27.1707 143.701 27.1811L143.694 12.9168C143.701 12.2044 143.702 11.7311 143.579 11.0296C143.366 12.1804 142.709 13.8195 142.344 14.9956L140.962 19.3578C140.601 20.5324 140.15 22.1946 139.619 23.286C138.774 23.2943 135.832 23.4009 135.183 23.1839C134.632 22.6498 132.629 14.9487 132.036 13.6851C131.756 13.0858 131.623 11.8905 131.396 11.352L131.33 11.393C131.1 12.162 131.182 16.2091 131.188 17.296C131.205 20.5457 131.144 23.9027 131.209 27.1462C130.452 27.1912 128.066 27.1941 127.432 27.0925C127.57 21.8763 127.355 16.5864 127.442 11.3638C127.468 9.76495 126.965 7.25304 128.569 6.47644Z" fill="#CCC6BA"/>
<path d="M27.1601 6.25897C28.0878 6.2041 29.332 6.23689 30.2838 6.23646L35.894 6.23558C36.6733 6.23559 40.3174 6.18912 40.8316 6.28326C40.8867 6.34558 40.9787 6.42232 40.9469 6.51984C40.7197 7.2693 40.207 9.14077 39.7145 9.64783C39.4052 9.96636 36.3249 9.85031 35.7103 9.84899L29.533 9.85156C29.553 11.5682 29.5336 13.2861 29.573 15.0019C30.2633 14.8836 31.3234 14.9715 32.0488 14.9427C34.163 14.8586 36.958 15.0906 39.0129 14.8737C39.1404 15.0105 39.3408 15.2779 39.4651 15.4329C39.5337 16.1056 39.5086 17.7871 39.4878 18.5012C37.9788 18.583 36.2539 18.474 34.7419 18.4552C33.0128 18.4338 31.2751 18.4432 29.5455 18.4468C29.5163 18.7654 29.5431 19.6593 29.5439 20.0127L29.5536 23.3246C31.7445 23.2626 33.9899 23.355 36.1865 23.3175C37.2314 23.2997 38.381 23.29 39.4146 23.3533C39.6274 23.9965 41.0981 26.6017 40.9382 27.051C40.7308 27.1952 28.1445 27.2025 27.1801 27.1112C26.8075 26.8435 26.3525 26.5033 26.1867 26.0696C25.7485 24.9241 25.9062 23.1334 25.9054 21.9186L25.9042 16.1209L25.9062 10.8298C25.907 9.87089 25.8999 8.885 25.9337 7.92668C25.941 7.71891 26.2011 6.99133 26.2817 6.75803C26.6272 6.44978 26.7068 6.36196 27.1601 6.25897Z" fill="#CCC6BA"/>
<path d="M44.4633 6.25862C45.3003 6.20398 46.4481 6.23483 47.3058 6.23422L52.3876 6.23257C53.5736 6.23258 57.6399 6.15998 58.6219 6.34175C58.6745 6.67255 57.4988 9.41845 57.1727 9.81585C54.0541 10.1204 50.4174 9.58125 47.2624 9.91139C46.7659 9.96336 46.9038 14.3868 47.0685 14.7739C47.477 15.1014 55.9019 14.9255 56.8862 14.8696C56.9577 15.8774 56.9091 17.4702 56.91 18.5209C53.7417 18.5195 50.6269 18.4404 47.4428 18.4505C47.3752 18.4574 47.1387 18.5192 47.0585 18.5381C46.8586 18.8181 46.9607 22.7121 46.9701 23.3032C50.0389 23.4294 53.7152 23.3092 56.8557 23.3252C57.1424 23.8109 58.6826 26.6933 58.6032 27.064C58.0427 27.1838 56.4485 27.1552 55.8083 27.1558L50.9766 27.155L47.1179 27.1582C45.376 27.1575 44.7545 27.5052 43.6195 26.0271C43.5406 25.3104 43.573 24.159 43.5729 23.3983L43.5732 18.91C43.5711 15.3461 43.5658 11.7821 43.5697 8.21825C43.5707 7.29687 43.507 6.66965 44.4633 6.25862Z" fill="#CCC6BA"/>
<path d="M99.0461 6.28916C100.642 6.10411 102.768 6.35505 104.347 6.66776C105.147 6.82628 103.271 9.82296 103.055 10.4109C100.925 10.2547 99.2944 9.79848 97.2663 10.8558C96.2754 11.3723 95.8044 12.1918 95.4778 13.2365C94.768 15.5021 94.6897 18.9725 95.8183 21.1317C96.0923 21.6547 96.457 22.1776 96.9521 22.5119C97.8611 23.1266 99.8423 23.3065 100.91 23.1767C101.473 23.1083 102.788 22.7913 103.301 22.9672C103.391 22.9982 104.528 25.271 104.672 25.5839C104.938 25.948 105.174 26.3395 104.572 26.5457C102.981 27.092 101.289 27.2339 99.6101 27.2022C97.5051 27.1623 95.3474 26.9765 93.6577 25.5396C91.4011 23.6207 91.3176 20.5183 90.9704 17.8002C90.8906 17.1724 90.9602 16.4479 90.9609 15.8152C91.2678 11.8609 92.0405 7.77027 96.4526 6.59959C97.4333 6.33928 98.0552 6.367 99.0461 6.28916Z" fill="#CCC6BA"/>
<path d="M85.8238 22.4077C86.5826 22.2859 87.3531 22.5359 87.8973 23.0802C88.4407 23.6244 88.6919 24.3971 88.5726 25.1586C88.4217 26.1232 87.7046 26.9007 86.7583 27.1267C85.566 27.4112 84.3516 26.7486 83.9422 25.5898C83.7041 24.9161 83.7767 24.1711 84.1399 23.5563C84.5032 22.9415 85.1206 22.5208 85.8238 22.4077Z" fill="#CCC6BA"/>
<path d="M124.946 15.323C124.988 15.1085 125.049 14.4216 125.124 14.3423C125.295 14.6838 125.327 16.1632 125.248 16.5309L125.181 16.6088C125.161 16.1369 124.893 15.9488 124.946 15.323Z" fill="#CCC6BA"/>
<path d="M2.51275 19.0983C2.37478 19.1945 2.41949 19.1943 2.27679 19.1852C2.10114 18.8756 2.19761 18.5637 2.2797 18.2319L2.5113 18.1357L2.51275 19.0983Z" fill="#CCC6BA"/>
</svg>
