<svg width="150" height="24" viewBox="0 0 150 24" fill="none" xmlns="http://www.w3.org/2000/svg">
<path d="M8.03463 1.86564C10.0832 1.7313 12.3599 2.77432 13.6947 4.27445C14.9424 5.70124 15.5587 7.55633 15.4071 9.42942C15.2229 11.6362 14.2041 13.0621 12.5407 14.4266C13.7739 16.6003 14.9944 18.781 16.2021 20.9684C14.9723 21.0062 13.6814 20.9875 12.4463 20.9871C11.7686 19.7261 11.0782 18.4717 10.3753 17.2241C10.0724 16.6901 9.84774 16.2554 9.58573 15.7011C7.96397 15.845 6.10981 15.8034 4.4644 15.8044C4.54826 17.355 4.48688 19.3777 4.49773 20.9923C3.40021 20.99 2.30278 20.9986 1.20545 21.0181C1.14114 17.984 1.2291 14.9122 1.19137 11.8741C1.17437 10.5022 1.11553 8.63909 1.40374 7.3248C1.64045 6.23534 2.14054 5.21741 2.862 4.35651C4.19437 2.77566 5.99331 2.05685 8.03463 1.86564ZM4.49783 12.647C5.83733 12.5594 7.11195 12.566 8.45146 12.5648C9.57781 12.4669 10.4855 12.1428 11.2422 11.2751C11.9195 10.4881 12.2461 9.46781 12.1487 8.44289C12.0501 7.44143 11.5481 6.51992 10.7539 5.88212C10.0295 5.30675 9.37531 5.15134 8.4756 5.03136C3.78742 5.43208 4.48326 9.16323 4.49783 12.647Z" fill="#CCC6BA"/>
<path d="M86.2946 8.37183C88.1867 8.0661 90.1472 8.73559 91.5409 9.98323C93.6714 11.8899 93.6861 14.1454 93.6304 16.772C93.601 18.1382 93.6137 19.6067 93.6616 20.9842C93.0928 20.996 90.7101 21.1128 90.3974 20.8783C90.373 20.6698 90.3564 20.4879 90.3407 20.2783C90.1267 20.2475 89.3087 20.6029 89.0282 20.7065C86.9455 21.2223 85.1062 21.0375 83.3285 19.77C81.9339 18.7874 81.0054 17.2938 80.7542 15.6295C80.206 12.0162 82.6014 8.87453 86.2946 8.37183ZM87.7381 17.7453C89.4924 17.4208 90.6437 15.7612 90.3065 14.0433C89.9693 12.3253 88.2708 11.2029 86.5184 11.5396C84.7749 11.8745 83.6363 13.5279 83.9725 15.2374C84.3078 16.9467 85.9917 18.0682 87.7381 17.7453Z" fill="#CCC6BA"/>
<path d="M55.4888 8.36718C55.7084 8.32974 56.0725 8.31576 56.3022 8.31145C58.0478 8.28273 59.7328 8.93748 60.9839 10.1304C63.0887 12.1654 62.8874 14.4157 62.8781 17.0388L62.8798 20.9749C61.9353 20.9984 60.8687 21.0514 59.9305 20.9881C59.4289 20.9542 59.8256 20.6204 59.5541 20.2411L58.2449 20.7332C58.0009 20.7882 57.7556 20.8381 57.5093 20.883C55.8235 21.175 54.0885 20.7966 52.6883 19.8317C51.2894 18.88 50.3375 17.4193 50.0449 15.7756C49.392 12.0829 51.7501 8.98257 55.4888 8.36718ZM57.0483 17.7255C58.7995 17.3705 59.9214 15.6872 59.5491 13.9736C59.1766 12.2599 57.4522 11.1704 55.7053 11.5451C53.9725 11.9166 52.8713 13.5896 53.2407 15.2894C53.61 16.9893 55.3113 18.0777 57.0483 17.7255Z" fill="#CCC6BA"/>
<path d="M21.1313 8.37818C24.5508 8.14799 27.349 10.1014 28.0733 13.4573C28.2462 14.258 28.1866 15.0045 28.1504 15.8145L18.4093 15.8087C19.5395 17.4346 20.8143 18.3461 22.9123 17.6932C23.2979 17.5732 23.7681 17.1434 24.1468 17.0696C25.0505 16.8932 26.0937 16.9656 27.0205 16.9762L27.4925 16.9798L27.6099 17.1137C27.6353 17.5106 27.4157 17.796 27.1902 18.1062C24.9772 21.1519 20.8347 22.0093 17.7691 19.6691C16.4197 18.6498 15.542 17.1446 15.331 15.4881C14.8643 11.7765 17.3546 8.77507 21.1313 8.37818ZM22.7002 13.3452C23.4083 13.3395 24.2008 13.3512 24.9012 13.3227C23.8428 11.6312 22.9554 11.1086 20.9055 11.3192C19.6119 11.7864 19.2355 12.161 18.5257 13.3377C19.9171 13.3479 21.3087 13.3504 22.7002 13.3452Z" fill="#CCC6BA"/>
<path d="M34.7417 8.38184C36.392 8.38682 37.8067 8.795 39.0085 9.95848C41.0007 11.8873 40.6964 14.2645 40.6905 16.765L40.6861 20.9765L37.4263 21.008C37.5154 18.6899 37.4978 15.9146 37.3821 13.5795C37.3194 12.3147 36.1758 11.7205 34.9833 11.4972C31.93 11.9969 32.5183 14.3774 32.53 16.7627L32.5229 20.9957C31.4453 20.9906 30.3139 20.9627 29.2464 21.0677C29.2148 18.6202 29.1424 15.9043 29.2973 13.4609C29.4796 10.583 31.7938 8.56424 34.7417 8.38184Z" fill="#CCC6BA"/>
<path d="M73.7802 8.37101C76.3017 7.96359 78.747 9.19552 80.1064 11.2666C79.2083 11.8991 78.4137 12.4173 77.4794 12.9983C76.6711 12.1993 75.9382 11.5421 74.7077 11.4949C73.8848 11.4666 73.0844 11.7663 72.4909 12.3256C71.8517 12.9152 71.4812 13.7316 71.4627 14.5915C71.4184 16.5612 72.9241 17.8492 74.87 17.7502C76.0965 17.6878 76.6829 17.0795 77.4501 16.2645L78.36 16.8307C78.9121 17.2211 79.5376 17.6009 80.1123 17.9656C80.0175 18.1177 79.9178 18.2671 79.8142 18.4134C78.8584 19.7343 77.4071 20.6306 75.7789 20.9062C74.0383 21.1899 72.2534 20.7849 70.8173 19.78C69.4494 18.8184 68.5317 17.36 68.2696 15.7306C67.6744 12.0674 70.0256 8.89582 73.7802 8.37101Z" fill="#CCC6BA"/>
<path d="M139.984 11.4258C141.064 11.4247 141.748 11.6716 142.607 12.2914C144.278 11.3334 146.058 10.9542 147.579 12.4554C148.031 12.9065 148.347 13.4689 148.498 14.0829C148.751 15.0725 148.65 19.7065 148.649 20.9831L146.244 21.0165C146.25 19.7343 146.413 14.8307 146.008 14.0232C145.776 13.8039 145.243 13.5583 144.929 13.5718C143.404 13.637 143.808 17.3417 143.805 18.4653C143.799 19.2626 143.85 20.1923 143.877 21.0004C143.061 20.9841 142.245 21.0073 141.429 21.0233C141.442 19.6895 141.749 14.867 141.081 14.0024C140.891 13.7568 140.623 13.5999 140.308 13.575C139.983 13.5492 139.681 13.6727 139.445 13.8914C139.306 14.0209 139.195 14.1805 139.154 14.3658C138.878 15.6093 139.093 19.423 139.069 21.0019C138.18 20.9909 137.526 20.9897 136.636 21.0567C136.628 19.3711 136.641 17.6384 136.616 15.9565C136.577 13.4563 137.346 11.933 139.984 11.4258Z" fill="#CCC6BA"/>
<path d="M41.7247 5.12193C42.7247 5.07683 43.9316 5.09866 44.9483 5.09033L44.9819 8.34712L49.0019 8.31916L49.0051 11.4845C47.6598 11.5079 46.3141 11.5111 44.9687 11.4944C44.9584 12.9208 44.8906 14.4292 45.0151 15.8191C45.1794 17.6519 46.823 17.6564 48.2495 17.7557C48.5528 17.7767 48.7059 18.0232 48.8732 18.2512C49.2912 18.8136 49.8237 19.6704 50.2193 20.2714C48.8564 20.8744 47.6442 21.1698 46.1525 20.8418C44.6494 20.5163 43.3411 19.6163 42.5185 18.3415C42.1758 17.8012 41.7998 16.8267 41.7703 16.2434C41.6974 14.8053 41.4971 6.0488 41.7247 5.12193Z" fill="#CCC6BA"/>
<path d="M130.595 11.4483C133.276 11.2304 135.632 13.1806 135.86 15.8075C136.088 18.4345 134.103 20.7465 131.422 20.9755C128.733 21.2052 126.365 19.2528 126.136 16.618C125.907 13.9831 127.905 11.6668 130.595 11.4483ZM131.52 18.5879C132.861 18.3027 133.711 17.0049 133.417 15.6917C133.122 14.3785 131.796 13.549 130.456 13.8407C129.121 14.1313 128.278 15.4257 128.571 16.7343C128.865 18.0429 130.184 18.8721 131.52 18.5879Z" fill="#CCC6BA"/>
<path d="M106.984 8.27828C108.369 8.20829 109.694 8.62088 110.959 9.11342C110.527 9.90778 110.087 10.6972 109.637 11.4819C108.614 11.1942 107.128 10.6335 106.182 11.3314C105.942 11.5107 105.795 11.7841 105.779 12.0791C105.713 13.165 108.133 13.4112 109.027 13.7623C109.662 14.008 110.23 14.395 110.687 14.8926C111.323 15.5856 111.643 16.5022 111.575 17.4315C111.388 20.1313 108.641 21.1127 106.234 20.9586C104.613 20.709 103.813 20.4356 102.359 19.6707C102.877 18.9156 103.413 18.1723 103.968 17.4414C105.138 17.9558 107.478 18.8595 108.403 17.5629C109.301 16.3041 106.266 15.8631 105.533 15.6152C105.076 15.46 104.643 15.2441 104.245 14.9734C102.96 14.0887 102.404 12.7895 102.764 11.2779C103.272 9.15604 104.984 8.55242 106.984 8.27828Z" fill="#CCC6BA"/>
<path d="M66.4824 3.50537L67.148 3.49023C67.2201 9.26806 67.1813 15.2045 67.1551 20.9873L64.5004 20.9927L64.0186 20.982C63.7936 20.7255 63.8718 17.6429 63.8707 17.0759L63.868 3.53016L66.4824 3.50537Z" fill="#CCC6BA"/>
<path d="M95.0309 11.8619C96.0982 8.68559 99.594 7.8469 102.605 8.70263C102.193 9.67777 101.775 10.6505 101.353 11.621C99.5344 11.3073 98.0215 11.9298 97.9043 13.9422C97.7694 16.2739 97.9394 18.6445 97.87 20.9904C97.1537 20.9899 95.5792 20.9543 94.942 21.0531C94.8423 21.0185 94.7055 20.9995 94.6996 20.9146C94.5452 18.4848 94.6019 15.786 94.6899 13.3436C94.7104 12.7882 94.8931 12.2061 95.0309 11.8619Z" fill="#CCC6BA"/>
<path d="M95.0309 11.8618L95.0143 17.9787C95.0134 18.5112 95.0407 20.6451 94.942 21.0531C94.8423 21.0184 94.7055 20.9995 94.6996 20.9145C94.5452 18.4847 94.6019 15.786 94.6899 13.3436C94.7104 12.7881 94.8931 12.206 95.0309 11.8618Z" fill="#CCC6BA"/>
<path d="M120.876 11.5242C123.146 11.2747 124.307 12.0094 125.757 13.6321C125.294 14.0545 124.277 14.6599 123.714 15.0046C122.433 13.7153 120.625 13.2024 119.526 15.0514C119.193 15.6032 119.113 16.2675 119.306 16.8803C119.512 17.5288 119.98 18.0663 120.6 18.3676C122.525 19.2864 122.926 17.3232 124.067 17.8913C124.621 18.2539 125.081 18.562 125.61 18.961C124.815 19.9388 123.775 20.6913 122.505 20.9365C121.256 21.1684 119.965 20.9043 118.916 20.2023C117.82 19.4837 117.065 18.3644 116.819 17.0954C116.294 14.2756 118.033 12.0057 120.876 11.5242Z" fill="#CCC6BA"/>
<path d="M113.904 17.8641C114.762 17.6392 115.645 18.1302 115.89 18.967C116.133 19.8039 115.647 20.6778 114.797 20.9308C114.234 21.0983 113.623 20.9554 113.198 20.557C112.774 20.1585 112.601 19.5665 112.748 19.0084C112.893 18.4503 113.336 18.0129 113.904 17.8641Z" fill="#CCC6BA"/>
</svg>
