<svg width="150" height="24" viewBox="0 0 150 24" fill="none" xmlns="http://www.w3.org/2000/svg">
<path d="M6.57809 20.382C12.4807 16.4285 16.3225 12.0555 13.892 3.41315C13.8833 3.38224 13.9106 3.35188 13.9421 3.35828C22.0733 5.01414 25.0735 15.5244 17.6141 20.7841C17.5598 20.8223 17.4888 20.8334 17.4254 20.8138C13.4417 19.5795 9.91397 19.6853 6.6118 20.4618C6.56489 20.4728 6.53802 20.4088 6.57809 20.382Z" fill="#CCC6BA"/>
<path d="M7.7181 18.5647C2.33757 14.1777 5.52549 4.88163 13.4945 5.99589C13.5517 6.00388 13.6033 5.95509 13.5948 5.89795C13.4403 4.86315 13.3066 4.22702 12.9866 3.23615C12.97 3.18486 12.9208 3.14917 12.867 3.14734C1.38187 2.75873 -0.518407 15.5391 5.31995 20.2048C5.36242 20.2388 5.42218 20.2417 5.46818 20.2127C6.35437 19.6541 6.88841 19.3339 7.71763 18.7017C7.76212 18.6678 7.76148 18.6001 7.7181 18.5647Z" fill="#CCC6BA"/>
<path d="M33.474 18.6496C32.7727 18.6496 32.0964 18.5807 31.4452 18.443C30.8065 18.3052 30.2367 18.0861 29.7358 17.7855C29.2349 17.4724 28.8342 17.0717 28.5336 16.5833C28.2456 16.0949 28.1016 15.4938 28.1016 14.78C28.1016 14.7174 28.1016 14.6548 28.1016 14.5921C28.1141 14.5295 28.1204 14.4669 28.1204 14.4043H29.9237C29.9237 14.4419 29.9174 14.5045 29.9049 14.5921C29.9049 14.6673 29.9049 14.7361 29.9049 14.7987C29.9049 15.2997 30.0552 15.7255 30.3557 16.0761C30.6563 16.4268 31.0695 16.6898 31.5955 16.8651C32.134 17.0279 32.7414 17.1093 33.4176 17.1093C33.7182 17.1093 34.0312 17.0905 34.3569 17.0529C34.695 17.0153 35.0143 16.9527 35.3149 16.8651C35.628 16.7649 35.9034 16.6397 36.1414 16.4894C36.3919 16.3266 36.586 16.1325 36.7237 15.9071C36.874 15.6691 36.9491 15.3811 36.9491 15.043C36.9491 14.6172 36.8239 14.2666 36.5735 13.991C36.3355 13.703 36.0162 13.4713 35.6154 13.296C35.2147 13.1081 34.7576 12.9453 34.2441 12.8076C33.7432 12.6573 33.2235 12.5133 32.685 12.3755C32.1465 12.2378 31.6205 12.0813 31.1071 11.9059C30.6062 11.7181 30.1554 11.4927 29.7546 11.2297C29.3539 10.9542 29.0283 10.6161 28.7778 10.2153C28.5399 9.81457 28.4209 9.32619 28.4209 8.7501C28.4209 8.21159 28.5274 7.72948 28.7402 7.30369C28.9656 6.87791 29.2913 6.52099 29.7171 6.23295C30.1554 5.93239 30.6939 5.70699 31.3325 5.55669C31.9712 5.39393 32.7038 5.3125 33.5303 5.3125C34.2066 5.3125 34.8327 5.38765 35.4088 5.5379C35.9974 5.67569 36.5108 5.89482 36.9491 6.19537C37.4 6.48342 37.7506 6.85284 38.0011 7.30369C38.2516 7.7545 38.3768 8.29925 38.3768 8.93793V9.16338H36.611V8.88161C36.611 8.45582 36.4795 8.09263 36.2165 7.79208C35.9536 7.49152 35.5904 7.25984 35.127 7.09703C34.6762 6.93427 34.1628 6.85284 33.5867 6.85284C32.8353 6.85284 32.2091 6.92799 31.7082 7.07825C31.2073 7.21603 30.8316 7.42265 30.5811 7.69814C30.3432 7.96116 30.2242 8.26172 30.2242 8.59984C30.2242 8.98806 30.3432 9.31363 30.5811 9.57661C30.8316 9.83963 31.1572 10.0588 31.5579 10.2341C31.9587 10.3969 32.4158 10.5472 32.9292 10.6849C33.4427 10.8227 33.9624 10.9667 34.4883 11.117C35.0268 11.2547 35.5466 11.4175 36.0475 11.6054C36.5609 11.7807 37.018 12.0061 37.4188 12.2816C37.832 12.5446 38.1576 12.8827 38.3956 13.296C38.6335 13.6967 38.7525 14.1914 38.7525 14.78C38.7525 15.6942 38.527 16.4393 38.0762 17.0153C37.6254 17.5789 37.0055 17.9922 36.2165 18.2551C35.4276 18.5181 34.5134 18.6496 33.474 18.6496Z" fill="#CCC6BA"/>
<path d="M44.1055 18.4234V5.53711H54.0236V7.07745H45.89V11.0598H53.1973V12.6002H45.89V16.8831H54.1362V18.4234H44.1055Z" fill="#CCC6BA"/>
<path d="M58.0625 18.4234L63.1531 5.53711H65.5009L70.6104 18.4234H68.6758L67.417 15.23H61.1428L59.9034 18.4234H58.0625ZM61.7254 13.7085H66.816L65.2567 9.66975C65.2193 9.55703 65.163 9.4005 65.0877 9.20016C65.0125 8.99977 64.9312 8.7806 64.8435 8.54269C64.7558 8.29222 64.6681 8.04175 64.5804 7.79128C64.4927 7.5283 64.4115 7.29035 64.3362 7.07745H64.2236C64.1359 7.32792 64.0357 7.61596 63.9231 7.94158C63.8105 8.26716 63.6978 8.5865 63.5852 8.8996C63.4721 9.20016 63.3784 9.45686 63.3032 9.66975L61.7254 13.7085Z" fill="#CCC6BA"/>
<path d="M75.0781 18.4234V5.53711H81.8596C82.7362 5.53711 83.4628 5.69992 84.0384 6.02554C84.6274 6.3386 85.0655 6.78317 85.3535 7.35926C85.6416 7.92279 85.7856 8.57399 85.7856 9.31284C85.7856 10.202 85.5852 10.9659 85.1846 11.6046C84.7839 12.2433 84.2327 12.7004 83.5315 12.9758L86.2366 18.4234H84.2826L81.7655 13.2952H76.8627V18.4234H75.0781ZM76.8627 11.7736H81.6906C82.4043 11.7736 82.9615 11.5545 83.3622 11.1162C83.7757 10.6779 83.9821 10.0768 83.9821 9.31284C83.9821 8.83696 83.8944 8.43624 83.7194 8.11062C83.544 7.78501 83.2874 7.53458 82.949 7.35926C82.6111 7.17139 82.1915 7.07745 81.6906 7.07745H76.8627V11.7736Z" fill="#CCC6BA"/>
<path d="M89.9707 18.4234L95.0613 5.53711H97.4091L102.519 18.4234H100.584L99.3252 15.23H93.051L91.8116 18.4234H89.9707ZM93.6336 13.7085H98.7242L97.1649 9.66975C97.1275 9.55703 97.0712 9.4005 96.9959 9.20016C96.9207 8.99977 96.8395 8.7806 96.7518 8.54269C96.664 8.29222 96.5763 8.04175 96.4886 7.79128C96.4009 7.5283 96.3197 7.29035 96.2444 7.07745H96.1318C96.0441 7.32792 95.9439 7.61596 95.8313 7.94158C95.7187 8.26716 95.606 8.5865 95.4934 8.8996C95.3803 9.20016 95.2866 9.45686 95.2114 9.66975L93.6336 13.7085Z" fill="#CCC6BA"/>
<path d="M106.986 18.4234V5.53711H111.795C113.148 5.53711 114.3 5.76256 115.252 6.21337C116.204 6.66422 116.93 7.36549 117.431 8.31724C117.944 9.25648 118.201 10.4775 118.201 11.9803C118.201 13.458 117.944 14.6728 117.431 15.6245C116.93 16.5762 116.204 17.2838 115.252 17.7472C114.3 18.198 113.148 18.4234 111.795 18.4234H106.986ZM108.771 16.8831H111.758C112.472 16.8831 113.11 16.7954 113.674 16.6201C114.237 16.4322 114.72 16.1505 115.12 15.7748C115.521 15.3991 115.822 14.917 116.022 14.3284C116.235 13.7272 116.341 13.0134 116.341 12.1869V11.8112C116.341 10.9596 116.235 10.2396 116.022 9.65097C115.822 9.04986 115.521 8.56147 115.12 8.18577C114.732 7.81007 114.256 7.53458 113.693 7.35926C113.129 7.17139 112.484 7.07745 111.758 7.07745H108.771V16.8831Z" fill="#CCC6BA"/>
<path d="M121.785 18.4234L126.876 5.53711H129.224L134.334 18.4234H132.398L131.14 15.23H124.866L123.626 18.4234H121.785ZM125.448 13.7085H130.539L128.98 9.66975C128.942 9.55703 128.886 9.4005 128.811 9.20016C128.736 8.99977 128.654 8.7806 128.567 8.54269C128.479 8.29222 128.391 8.04175 128.304 7.79128C128.216 7.5283 128.135 7.29035 128.059 7.07745H127.947C127.859 7.32792 127.759 7.61596 127.646 7.94158C127.534 8.26716 127.42 8.5865 127.308 8.8996C127.195 9.20016 127.101 9.45686 127.026 9.66975L125.448 13.7085Z" fill="#CCC6BA"/>
<path d="M138.801 18.4234V5.53711H145.582C146.459 5.53711 147.185 5.69992 147.761 6.02554C148.35 6.3386 148.788 6.78317 149.076 7.35926C149.364 7.92279 149.508 8.57399 149.508 9.31284C149.508 10.202 149.308 10.9659 148.907 11.6046C148.506 12.2433 147.955 12.7004 147.254 12.9758L149.959 18.4234H148.005L145.488 13.2952H140.585V18.4234H138.801ZM140.585 11.7736H145.413C146.127 11.7736 146.684 11.5545 147.085 11.1162C147.498 10.6779 147.705 10.0768 147.705 9.31284C147.705 8.83696 147.617 8.43624 147.442 8.11062C147.266 7.78501 147.01 7.53458 146.672 7.35926C146.333 7.17139 145.914 7.07745 145.413 7.07745H140.585V11.7736Z" fill="#CCC6BA"/>
</svg>
