<svg width="150" height="63" viewBox="0 0 150 63" fill="none" xmlns="http://www.w3.org/2000/svg">
<path d="M40.5683 17.3825C40.8344 17.3712 41.1006 17.3621 41.3669 17.3555C45.7139 17.2457 51.8306 17.3188 55.174 20.4923C57.2929 22.5036 57.7048 25.2101 57.7664 27.9508L46.5012 27.9615C46.4222 27.0454 46.2863 26.0798 45.8851 25.2432C45.4801 24.3986 44.7834 23.7299 43.8821 23.4269C42.7728 23.0541 41.2228 23.1703 40.179 23.6968C39.5479 24.0152 39.0119 24.5491 38.8049 25.2323C38.6153 25.8578 38.675 26.6258 39.01 27.1946C39.8812 28.6736 46.5187 30.1392 48.3622 30.6691C51.2427 31.497 55.3503 32.6505 57.4507 34.8776C58.1153 35.5821 58.5587 36.4159 59.0238 37.2537C59.0787 34.8103 58.9801 32.3259 59.0368 29.8595C63.2123 29.9304 66.3381 29.8704 70.5198 29.278C70.5974 35.4358 70.494 41.6493 70.538 47.8153C72.5666 44.8774 74.5789 41.9284 76.5753 38.9687C77.6795 37.338 78.9728 35.5312 80.0012 33.875C78.5754 32.0727 76.9834 30.0335 75.6334 28.1849C79.9775 26.9101 81.8191 25.9626 85.5047 23.428C86.2023 24.1478 87.6595 26.0803 88.3678 26.9592C89.6306 25.185 90.8328 23.2131 92.0772 21.4202C92.6308 20.6232 93.2204 19.6081 93.8315 18.8772C97.1556 18.7708 100.977 18.8613 104.332 18.8611L124.407 18.8624C124.504 21.7232 124.433 25.0813 124.415 27.9741C122.321 27.8979 119.662 27.9643 117.53 27.9641C117.496 29.1274 117.516 30.4009 117.513 31.5728L117.514 44.0862C117.514 46.1136 117.453 48.3719 117.515 50.3701C115.41 50.2577 112.335 50.3489 110.167 50.3481H93.7802L87.671 41.322C85.6693 44.3074 83.4226 47.3934 81.3444 50.3378C79.0992 50.4133 76.4619 50.3526 74.1823 50.3526L59.0352 50.3686C58.9633 48.3468 59.0702 46.241 59.0059 44.1938C58.4841 45.2622 58.0626 46.0904 57.2207 46.9767C54.0594 50.3045 47.9873 51.1135 43.5954 51.1855C39.1786 51.2584 32.2619 51.1522 28.8597 47.9056C26.7016 45.8461 26.4389 42.8551 26.3989 40.0818C27.7622 39.994 29.7045 40.0467 31.1058 40.0464C33.4113 40.0458 35.8131 40.0115 38.1075 40.0743C38.1599 41.6441 38.3169 43.0568 39.4912 44.2428C41.1217 45.8896 45.3691 45.5697 46.8613 43.9198C47.3782 43.3558 47.6408 42.6077 47.5888 41.8478C47.414 39.587 44.0039 39.0281 42.2253 38.4603C37.8465 37.0624 32.7399 36.314 29.0201 33.4684C27.5277 32.3266 26.8099 29.9639 26.7385 28.1864C26.2419 19.7355 33.6944 17.7912 40.5683 17.3825ZM96.056 34.0263L104.318 45.9876C104.753 46.614 105.646 47.9768 106.125 48.5045L106.121 27.9569C104.487 27.9605 102.028 27.881 100.445 27.9709C99.7515 28.7812 98.8472 30.1049 98.2101 31.0047C97.5791 31.8964 96.6181 33.1312 96.056 34.0263Z" fill="#CCC6BA"/>
<path d="M79.8327 12.0395C83.5864 12.036 87.8983 11.9309 91.6046 12.0786C91.1727 13.6851 90.1512 15.6162 89.1833 16.9807C84.6577 23.3625 77.6985 26.1683 70.2197 27.4985C67.3333 27.8775 64.6561 28.1202 61.736 28.0674C60.8512 28.0514 59.8806 28.105 59.0111 27.9621C58.9174 26.5375 58.9629 24.744 58.9558 23.2953C58.9495 21.9956 58.9057 20.1222 59.0263 18.868C65.4133 19.0703 72.1929 19.0372 77.419 14.79C78.4604 13.9431 79.0087 12.7695 79.8327 12.0395Z" fill="#CCC6BA"/>
</svg>
