<svg width="150" height="27" viewBox="0 0 150 27" fill="none" xmlns="http://www.w3.org/2000/svg">
<path d="M17.3861 21.9388C17.7249 21.9388 18.0476 21.8584 18.3542 21.6815L21.8877 19.6547C22.5977 19.2526 23.4206 19.0756 24.2435 19.1721C28.5354 19.6708 31.5365 20.4751 32.4239 20.7324C32.6014 20.7807 32.8112 20.7163 32.9241 20.5716C33.0693 20.3946 33.2468 20.1051 33.392 19.6869C33.5211 19.2847 33.5372 18.9469 33.5211 18.7057C33.505 18.5126 33.3759 18.3357 33.1823 18.2874C31.7947 17.8853 25.6472 16.2285 17.3861 16.2285C9.12491 16.2285 2.97746 17.8853 1.58985 18.2874C1.39623 18.3357 1.26715 18.5126 1.25101 18.7057C1.23488 18.9309 1.25101 19.2687 1.38009 19.6869C1.50917 20.1051 1.70279 20.3946 1.84801 20.5716C1.96096 20.7163 2.17071 20.7807 2.3482 20.7324C3.23562 20.4751 6.25288 19.6708 10.5287 19.1721C11.3516 19.0756 12.1744 19.2526 12.8844 19.6547L16.418 21.6815C16.7245 21.8584 17.0634 21.9388 17.3861 21.9388Z" fill="#CCC6BA"/>
<path d="M11.4967 10.5345C11.6903 10.8723 11.9969 11.0975 12.3518 11.194C12.7068 11.2905 13.0779 11.2422 13.4167 11.0492C13.7556 10.8562 13.9815 10.5506 14.0783 10.1967C14.1751 9.84282 14.1267 9.47285 13.9331 9.13506L10.7545 3.64994C10.6576 3.473 10.4479 3.40866 10.2543 3.42474C9.99611 3.44083 9.64114 3.56951 9.22163 3.81079C8.80212 4.05208 8.51169 4.29336 8.36647 4.50247C8.25353 4.66332 8.22125 4.87243 8.31807 5.04937L11.4967 10.5345Z" fill="#CCC6BA"/>
<path d="M8.59252 14.4591C8.93135 14.6521 9.31859 14.6843 9.65743 14.6038C10.0124 14.5073 10.319 14.2821 10.5126 13.9443C10.7062 13.6065 10.7385 13.2205 10.6578 12.8827C10.5771 12.5449 10.3351 12.2232 9.99627 12.0302L4.49421 8.86135C4.31673 8.76483 4.10697 8.797 3.94562 8.9096C3.73587 9.05437 3.49384 9.34391 3.25182 9.76213C3.00979 10.1803 2.88071 10.5342 2.86458 10.7916C2.84844 11.0007 2.92912 11.1937 3.09047 11.2902L8.59252 14.4591Z" fill="#CCC6BA"/>
<path d="M18.7899 8.58805C18.7899 8.9741 18.6286 9.32798 18.3865 9.58535C18.1284 9.84271 17.7895 9.98748 17.3862 9.98748C16.9989 9.98748 16.644 9.82663 16.3858 9.58535C16.1276 9.32798 15.9824 8.99019 15.9824 8.58805V2.26649C15.9824 2.05738 16.1115 1.89653 16.3051 1.8161C16.531 1.7035 16.9021 1.63916 17.3862 1.63916C17.8702 1.63916 18.2413 1.7035 18.4672 1.8161C18.6447 1.91261 18.7899 2.05738 18.7899 2.26649V8.58805Z" fill="#CCC6BA"/>
<path d="M23.2753 10.5345C23.0817 10.8723 22.7751 11.0975 22.4201 11.194C22.0651 11.2905 21.694 11.2422 21.3552 11.0492C21.0164 10.8562 20.7905 10.5506 20.6937 10.1967C20.5969 9.84282 20.6453 9.47285 20.8389 9.13506L24.0175 3.64994C24.1143 3.473 24.3241 3.40866 24.5177 3.42474C24.7758 3.44083 25.1308 3.56951 25.5503 3.81079C25.9698 4.05208 26.2603 4.29336 26.4055 4.50247C26.5184 4.66332 26.5507 4.87243 26.4539 5.04937L23.2753 10.5345Z" fill="#CCC6BA"/>
<path d="M26.1798 14.4591C25.8409 14.6521 25.4537 14.6843 25.1148 14.6038C24.7599 14.5073 24.4533 14.2821 24.2597 13.9443C24.0661 13.6065 24.0338 13.2205 24.1145 12.8827C24.2113 12.5288 24.4372 12.2232 24.776 12.0302L30.2781 8.86135C30.4555 8.76483 30.6653 8.797 30.8267 8.9096C31.0364 9.05437 31.2784 9.34391 31.5205 9.76213C31.7625 10.1803 31.8916 10.5342 31.9077 10.7916C31.9238 11.0007 31.8432 11.1937 31.6818 11.2902L26.1798 14.4591Z" fill="#CCC6BA"/>
<path d="M61.2734 10.1001H63.9195C64.0163 10.1001 64.097 10.1644 64.1454 10.2449L66.7754 16.9686L69.3247 10.2449C69.357 10.1484 69.4538 10.1001 69.5506 10.1001H72.1484C72.3259 10.1001 72.4388 10.277 72.3581 10.4218L65.9041 25.1882C65.8718 25.2686 65.775 25.333 65.6944 25.333H63.4032C63.2418 25.333 63.1128 25.156 63.1934 25.0113L65.4039 19.8478L61.0797 10.4218C60.9829 10.277 61.0959 10.1001 61.2734 10.1001Z" fill="#CCC6BA"/>
<path d="M100.336 11.5964V10.3417C100.336 10.2131 100.449 10.1005 100.578 10.1005H102.918C103.047 10.1005 103.16 10.2131 103.16 10.3417V20.363C103.16 20.4916 103.047 20.6042 102.918 20.6042H100.578C100.449 20.6042 100.336 20.4916 100.336 20.363V19.0439C99.8361 19.816 98.7389 20.8294 96.9479 20.8294C93.5273 20.8294 91.7524 18.2236 91.7524 15.3121C91.7524 11.516 94.3986 9.89136 96.8673 9.89136C98.4969 9.87527 99.6263 10.6474 100.336 11.5964ZM94.5761 15.3282C94.5761 17.1298 95.6894 18.5131 97.4804 18.5131C99.2714 18.5131 100.417 17.3067 100.417 15.4569C100.417 13.6071 99.3036 12.1916 97.3997 12.1916C95.6087 12.1916 94.5761 13.5749 94.5761 15.3282Z" fill="#CCC6BA"/>
<path d="M105.274 20.3627V10.3415C105.274 10.2128 105.387 10.1002 105.516 10.1002H107.855C107.984 10.1002 108.097 10.2128 108.097 10.3415V11.7088C108.646 10.7597 109.679 9.89111 111.437 9.89111C113.244 9.89111 115.261 10.7758 115.261 14.8454V20.3627C115.261 20.4914 115.148 20.604 115.019 20.604H112.68C112.551 20.604 112.438 20.4914 112.438 20.3627V14.8937C112.438 13.9125 112.196 12.2235 110.453 12.2235C108.71 12.2235 108.097 13.7516 108.097 15.1671V20.3627C108.097 20.4914 107.984 20.604 107.855 20.604H105.516C105.37 20.5879 105.274 20.4914 105.274 20.3627Z" fill="#CCC6BA"/>
<path d="M117.262 20.3627V10.3415C117.262 10.2128 117.375 10.1002 117.504 10.1002H119.844C119.973 10.1002 120.086 10.2128 120.086 10.3415V11.7088C120.634 10.7597 121.667 9.89111 123.426 9.89111C125.233 9.89111 127.25 10.7758 127.25 14.8454V20.3627C127.25 20.4914 127.137 20.604 127.008 20.604H124.668C124.539 20.604 124.426 20.4914 124.426 20.3627V14.8937C124.426 13.9125 124.184 12.2235 122.441 12.2235C120.699 12.2235 120.086 13.7516 120.086 15.1671V20.3627C120.086 20.4914 119.973 20.604 119.844 20.604H117.504C117.375 20.5879 117.262 20.4914 117.262 20.3627Z" fill="#CCC6BA"/>
<path d="M141.836 10.1005H144.111C144.24 10.1005 144.353 10.2131 144.353 10.3418V12.4168C144.805 10.3578 146.58 9.65008 147.87 9.95571C147.983 9.97179 148.048 10.0683 148.048 10.1809V12.465C148.048 12.6098 147.919 12.7224 147.757 12.6902C145.369 12.2237 144.401 13.5106 144.401 15.3121C144.401 16.599 144.401 19.5104 144.401 20.363C144.401 20.4916 144.288 20.6042 144.159 20.6042H141.82C141.691 20.6042 141.578 20.4916 141.578 20.363V10.3418C141.594 10.2131 141.707 10.1005 141.836 10.1005Z" fill="#CCC6BA"/>
<path d="M45.7677 12.3844C45.0416 12.1431 44.6543 11.9983 44.0735 11.8053C43.4765 11.5962 42.46 11.0171 42.46 10.0842C42.46 9.15122 43.1054 8.55606 44.4123 8.55606C45.6063 8.55606 46.2678 9.13513 46.7035 10.0681C46.768 10.1968 46.9132 10.245 47.0423 10.1807L48.9624 9.07079C49.0592 9.00645 49.1076 8.87777 49.0592 8.76517C48.4783 7.49442 47.123 5.96631 44.4446 5.96631C41.4596 5.96631 39.5879 7.7357 39.5879 10.0681C39.5879 12.3844 41.1208 13.5908 43.2022 14.2985C43.9605 14.5559 44.2671 14.6685 44.9125 14.8776C46.1388 15.2958 46.7035 15.8427 46.7035 16.5988C46.7035 17.3548 46.2194 18.2556 44.3155 18.2556C42.5729 18.2556 41.9598 17.3387 41.6048 16.4701C41.5564 16.3414 41.3951 16.277 41.266 16.3575L39.2491 17.5156C39.1523 17.58 39.1039 17.6926 39.1523 17.8052C39.9268 19.7032 42.0405 20.8292 44.4123 20.8292C47.2037 20.8292 49.5594 19.4137 49.5594 16.5505C49.5594 13.6873 46.4937 12.6257 45.7677 12.3844Z" fill="#CCC6BA"/>
<path d="M61.1767 17.8535C61.1122 17.7409 60.9508 17.6926 60.8379 17.773C59.9343 18.4325 58.8694 18.4486 58.0626 17.21C57.385 16.1645 56.5621 14.8777 56.5621 14.8777L60.1118 10.4863C60.2409 10.3255 60.1279 10.1003 59.9343 10.1003H57.1591C57.0784 10.1003 57.0139 10.1325 56.9655 10.1968L53.8998 14.3951V5.95027C53.8998 5.82158 53.7869 5.70898 53.6578 5.70898H51.3182C51.1891 5.70898 51.0762 5.82158 51.0762 5.95027V20.3628C51.0762 20.4915 51.1891 20.6041 51.3182 20.6041H53.6739C53.803 20.6041 53.9159 20.4915 53.9159 20.3628V15.6819C53.9159 15.6819 55.481 18.143 56.078 19.0599C56.8848 20.3145 58.0142 20.8293 59.2405 20.8293C60.4022 20.8293 61.1444 20.5236 62.0319 19.655C62.1125 19.5746 62.1287 19.462 62.0803 19.3655L61.1767 17.8535Z" fill="#CCC6BA"/>
<path d="M77.9733 14.5398C77.2311 14.2663 76.9729 14.1698 76.4082 13.9607C75.8434 13.7516 75.3433 13.446 75.3433 12.9956C75.3433 12.5452 75.7628 12.0466 76.6179 12.0466C77.3601 12.0466 77.8119 12.3361 78.0701 12.8508C78.1346 12.9795 78.2798 13.0117 78.3928 12.9473L80.0386 11.9983C80.1515 11.934 80.1838 11.7892 80.1192 11.6766C79.6675 10.8884 78.78 9.89111 76.6341 9.89111C74.004 9.89111 72.6487 11.4031 72.6487 13.076C72.6487 14.7489 74.0202 15.5371 75.2787 16.0357C76.6986 16.6148 76.7954 16.647 76.9729 16.7113C77.4085 16.8883 77.941 17.1617 77.941 17.6604C77.941 18.159 77.3601 18.6094 76.4727 18.6094C75.6498 18.6094 74.714 18.2716 74.3268 17.3226C74.2783 17.1939 74.117 17.1295 73.9879 17.21L72.326 18.159C72.2292 18.2233 72.1808 18.3359 72.2292 18.4485C72.7132 19.7032 74.1493 20.8131 76.4727 20.8131C78.9898 20.8131 80.6678 19.478 80.6678 17.596C80.6678 15.714 79.377 15.0545 77.9733 14.5398Z" fill="#CCC6BA"/>
<path d="M87.4283 12.3843C88.4771 12.3843 89.2516 12.706 89.9776 13.2208C90.0906 13.3012 90.2519 13.269 90.3165 13.1564L91.2846 11.4835C91.3491 11.3709 91.3169 11.2423 91.2039 11.1779C90.2035 10.5023 88.9611 9.875 87.2831 9.875C85.6212 9.875 84.0884 10.3254 82.9912 11.4353C81.894 12.5291 81.3938 13.832 81.3938 15.3762C81.3938 17.2421 82.1683 18.4324 83.0073 19.2689C83.8463 20.1053 85.363 20.8131 87.2992 20.8131C89.0418 20.8131 90.3326 20.0892 91.22 19.5102C91.3169 19.4458 91.3491 19.301 91.2846 19.2045L90.3326 17.5477C90.2681 17.4351 90.1067 17.3869 89.9938 17.4673C89.3645 17.9177 88.4609 18.3037 87.4444 18.3037C86.2989 18.3037 84.2174 17.6603 84.2174 15.344C84.2174 13.0277 86.2827 12.3843 87.4283 12.3843Z" fill="#CCC6BA"/>
<path d="M134.898 18.4968C133.962 18.4968 133.074 18.2716 132.429 17.7568C131.783 17.2421 131.477 16.7113 131.477 16.084H139.835C139.964 16.084 140.077 15.9714 140.077 15.8427C140.029 13.3655 139.222 12.2074 138.447 11.4192C137.641 10.6149 136.269 9.875 134.462 9.875C132.655 9.875 131.267 10.5345 130.315 11.4675C129.379 12.4004 128.669 13.5907 128.669 15.3923C128.669 17.1939 129.396 18.3842 130.283 19.2689C131.17 20.1536 132.623 20.8131 134.704 20.8131C136.672 20.8131 138.334 20.1214 139.528 18.7541C139.625 18.6415 139.593 18.4646 139.464 18.4003L137.802 17.4351C137.721 17.3869 137.608 17.3869 137.528 17.4673C136.705 18.2394 135.656 18.4968 134.898 18.4968ZM134.446 12.127C135.785 12.127 137.011 12.9312 137.205 14.3789H131.574C131.945 12.8186 133.107 12.127 134.446 12.127Z" fill="#CCC6BA"/>
</svg>
