<svg width="150" height="57" viewBox="0 0 150 57" fill="none" xmlns="http://www.w3.org/2000/svg">
<path d="M87.6334 17.6417C94.9102 17.3186 98.6984 22.3552 97.9545 29.3453C96.9099 29.4521 94.813 29.3611 93.6711 29.3747C90.3738 29.414 87.0228 29.3201 83.7297 29.3725C83.9935 33.2273 87.3337 34.723 90.8298 33.6718C91.3519 33.5149 91.8691 33.117 92.2854 32.7745C92.7145 33.128 93.3177 33.7927 93.7828 34.2201C94.2195 34.7514 95.0751 35.5085 95.5913 36.0549C95.5488 36.108 95.4908 36.1912 95.4441 36.2362C91.8396 39.7254 85.4394 39.5086 81.7892 36.2002C79.601 34.2309 78.6562 31.6904 78.465 28.8204C78.0917 23.2204 81.7623 17.9758 87.6334 17.6417ZM83.8721 25.6978L88.7136 25.6993C89.9253 25.7 91.5812 25.7523 92.7569 25.6876C92.4271 23.0257 90.6649 21.5595 87.967 21.787C85.6644 21.9843 84.0944 23.3395 83.8721 25.6978Z" fill="#CCC6BA"/>
<path d="M102.352 10.5236C102.984 10.4784 107.03 10.4436 107.337 10.6111C107.536 11.1789 107.424 16.6438 107.45 17.7833C108.184 17.7325 109.149 17.758 109.897 17.7579C110.711 17.7579 111.693 17.736 112.496 17.7849C112.578 18.8336 112.543 21.0558 112.514 22.1444L107.437 22.1434C107.49 23.9994 107.366 25.9193 107.424 27.7839C107.441 28.3312 107.411 28.8062 107.523 29.3546C107.68 30.1168 108.008 30.8336 108.479 31.4521C109.533 32.8278 110.88 33.2256 112.495 33.4325C112.574 34.3798 112.524 36.0722 112.526 37.0778L112.519 38.4799C109.797 38.4745 107.188 37.3822 105.27 35.4445C103.545 33.6712 102.613 31.6739 102.359 29.1992C102.274 28.3772 102.302 27.4288 102.301 26.592C102.298 25.1139 102.307 23.6359 102.328 22.158C101.211 22.1277 99.9944 22.1497 98.8708 22.1479C98.8928 20.7729 98.9138 19.144 98.8687 17.7808C99.9928 17.7175 101.179 17.7926 102.34 17.7339C102.255 15.4913 102.227 12.7532 102.352 10.5236Z" fill="#CCC6BA"/>
<path d="M45.2981 17.7876C46.4453 17.697 49.0848 17.7496 50.2678 17.7848C50.3812 18.8652 50.3369 20.0621 50.337 21.1621L50.3356 26.3688C50.3344 27.1007 50.2868 28.771 50.4174 29.4052C50.8058 31.2262 52.1694 32.6808 53.9578 33.1817C54.3043 33.2803 55.1027 33.3645 55.3145 33.504C55.4363 33.8601 55.43 38.0435 55.3703 38.4745C54.4489 38.4829 53.4588 38.3249 52.5755 38.0658C49.979 37.3149 47.7876 35.5578 46.4857 33.183C45.925 32.1791 45.5484 31.0825 45.3737 29.9453C45.3081 29.524 45.2675 29.0992 45.2522 28.6731C45.1413 25.3211 45.3387 21.8542 45.2447 18.4893C45.2386 18.2687 45.2364 17.9986 45.2981 17.7876Z" fill="#CCC6BA"/>
<path d="M71.3418 37.3522C68.827 38.7162 66.3555 39.1653 63.5608 38.3329C61.0084 37.5643 58.8635 35.8129 57.5958 33.462C56.1704 30.8146 56.0019 27.6831 56.8471 24.8244C57.6341 22.1629 59.4209 20.1151 61.8462 18.8236C63.883 17.7388 66.412 17.2809 68.6434 17.979C69.7439 18.3232 70.3873 18.7092 71.353 19.299C71.3606 18.8667 71.3903 18.206 71.368 17.7928C72.0397 17.7312 73.0975 17.7539 73.7976 17.7574C74.5866 17.7613 75.6216 17.7296 76.3881 17.781C76.488 18.4363 76.4262 20.8089 76.4241 21.5848L76.4267 29.3045L76.4208 42.9743L76.4214 47.2989C76.4224 47.8889 76.4633 48.8408 76.4278 49.4006H71.3547L71.3604 41.8048C71.3596 40.3575 71.3864 38.7913 71.3418 37.3522ZM66.5578 33.6277C68.0623 33.5189 69.1207 33.0986 70.1568 31.9542C72.1199 29.7863 71.9264 25.9211 69.6288 24.0649C68.6983 23.3131 67.7263 22.8203 66.4951 22.8134C65.4449 22.8678 64.7822 23.064 63.8947 23.6586C59.7621 26.4276 61.121 33.5423 66.5578 33.6277Z" fill="#CCC6BA"/>
<path d="M20 17.5381C20.1909 16.8898 20.2387 16.1768 20.4572 15.4266C21.1873 12.925 22.8773 10.8161 25.1561 9.56264C26.2278 8.96774 27.395 8.56555 28.6049 8.37425C29.8378 8.18297 32.5912 8.25656 33.9651 8.25949C36.828 8.26558 39.7447 8.23313 42.6033 8.2739C42.624 9.59787 42.6903 12.0543 42.6092 13.3264C40.654 13.3952 38.3568 13.3448 36.381 13.3438L36.3802 23.999C36.3796 25.6022 36.2656 27.8468 36.5109 29.3774C36.9038 31.8286 39.074 33.195 41.4542 33.428C41.5396 34.8414 41.4397 36.3088 41.4867 37.7276C41.4945 37.9637 41.5022 38.2248 41.496 38.4605C36.1198 38.6301 31.3243 33.896 31.342 28.5278C31.3478 26.7807 31.3307 25.029 31.3309 23.2809L31.3318 13.3373C30.0469 13.2999 28.9342 13.2837 27.7636 13.9293C25.9748 14.9157 25.2257 16.4204 25.0424 18.4013C23.3617 18.4208 21.6808 18.4248 20 18.4135V17.5381Z" fill="#CCC6BA"/>
<path d="M118.859 32.8605C119.379 33.4816 119.769 33.8355 120.537 34.1885C121.901 34.8643 124.579 34.6354 124.905 32.8032C125.192 31.191 123.128 30.7411 122.063 30.3943C119.361 29.5139 115.455 28.488 114.893 25.1948C113.788 18.7166 121.011 16.399 125.941 18.4336C127.26 18.9773 128.749 20.0184 129.32 21.3699C128.602 21.6621 127.733 21.9323 126.986 22.1847C126.272 22.4267 125.402 22.7524 124.692 22.9244C123.542 22.1197 122.42 21.6682 120.981 22.1562C120.464 22.3426 120.154 22.6429 119.932 23.1363C119.038 25.1219 122.058 25.6796 123.347 26.1163C124.146 26.387 124.97 26.62 125.773 26.9195C127.534 27.5759 128.959 28.8216 129.651 30.6041C129.829 31.0464 129.827 31.5225 129.993 31.8994L130 31.9149V33.3813C129.936 33.5309 129.895 33.7235 129.862 33.8841C128.946 38.2454 123.374 39.3683 119.653 38.4642C117.894 38.0369 116.213 37.1337 115.077 35.7068C114.767 35.3176 114.497 34.8516 114.239 34.4288C114.464 34.3257 114.696 34.2329 114.933 34.1597C116.242 33.7537 117.542 33.2325 118.859 32.8605Z" fill="#CCC6BA"/>
<path d="M47.2496 7.59961H48.3399C48.5549 7.70824 49.0121 7.80095 49.2205 7.9107C49.9118 8.27476 50.4784 8.91738 50.7585 9.63109C51.074 10.4158 51.0604 11.2951 50.7208 12.0696C50.3715 12.8645 49.7158 13.4834 48.9035 13.7848C48.1244 14.0803 47.2594 14.0483 46.5042 13.696C44.8332 12.9245 44.1901 11.0442 44.9339 9.35078C45.369 8.3603 46.2815 7.94821 47.2496 7.59961Z" fill="#CCC6BA"/>
</svg>
