<svg width="150" height="74" viewBox="0 0 150 74" fill="none" xmlns="http://www.w3.org/2000/svg">
<path d="M49.7946 37.2597C49.5576 35.9747 49.6819 33.9892 49.5739 32.605C49.2611 28.5977 48.8125 25.0016 47.9032 21.0691C47.3137 18.6169 46.6056 16.1946 45.7812 13.8109C45.0349 11.7079 42.6084 7.01504 42.6384 5.17001C42.6565 4.05398 43.0402 2.9534 43.8607 2.17364C44.6923 1.38333 45.8871 1.0624 47.0147 1.10359C48.1181 1.1439 49.1402 1.53882 49.8989 2.35814C50.9776 3.52312 51.5444 5.34595 52.1628 6.79571C55.6882 15.0616 58.4112 26.3523 58.0519 35.359C56.1241 38.8056 56.2005 40.4531 57.6527 44.0354C57.1723 51.1573 55.2746 59.3385 52.3954 65.8951C51.372 68.2255 49.3304 71.232 46.8048 72.0116C41.0245 73.7956 38.0645 68.2707 36.7012 63.6215C35.3989 59.3223 34.558 55.2055 33.7373 50.8584C32.9272 46.4172 32.0937 41.9803 31.2367 37.548C30.9047 35.8871 30.1647 32.0427 29.6362 30.5031C29.419 31.1854 29.2622 31.9474 29.0772 32.6445C27.7042 37.8152 26.7082 43.1164 25.2438 48.2586C24.2168 51.8651 22.5156 58.0721 18.3942 59.123C16.7703 59.5449 15.0449 59.3037 13.5994 58.4528C6.12598 53.9678 3.17807 24.825 1.70933 16.047C1.51029 14.8573 1.39611 13.3117 1.36759 12.1009C1.28719 8.69198 5.50062 7.47988 7.87629 8.97021C8.76415 9.53788 9.4035 10.4207 9.66538 11.4406C9.90907 12.3569 10.1053 14.9729 10.2579 16.0756C10.7557 19.7456 11.3054 23.4085 11.9068 27.0631C12.6502 31.6085 13.5383 36.1526 14.5674 40.6433C15.1272 43.0859 15.9304 45.4565 16.4945 47.8712L16.5095 47.8276C17.0746 46.1448 17.5733 43.9907 17.9919 42.2505C18.7793 38.834 19.5955 35.4242 20.4405 32.0214C21.4448 28.0251 23.2822 19.9825 27.2755 18.562C35.5668 15.6124 37.6205 27.0829 38.9195 32.696C39.1254 33.5861 39.4394 34.6062 39.1116 35.3693C39.4071 36.1312 40.8061 40.1067 41.234 40.4423C41.3882 40.2298 41.5635 39.4884 41.6892 39.1822C42.4767 37.2644 43.0154 35.0818 44.025 33.2868C44.2696 32.8518 47.0658 32.9474 47.5296 33.1213C47.6365 33.2316 47.7719 33.3476 47.7213 33.5354C47.4981 34.3643 47.0011 35.3381 46.7305 36.1688C47.332 37.552 47.9153 39.328 48.5514 40.6101C48.9084 39.6418 49.3977 38.1668 49.7946 37.2597ZM45.0578 61.7571C46.2351 57.794 47.6525 54.0478 48.2938 49.9113C48.3826 49.3384 48.5287 48.5581 48.672 47.997C48.4854 47.9449 48.1863 47.8351 48.081 47.6711C46.7953 45.6675 45.9249 42.5257 44.7432 40.5265C43.8922 42.8061 42.6787 45.4494 41.7063 47.7051C42.1024 49.0407 42.3969 50.8487 42.676 52.2457C43.1094 54.4381 43.6059 56.6176 44.1648 58.7814C44.3944 59.6526 44.7142 60.9662 45.0578 61.7571Z" fill="#CCC6BA"/>
<path d="M39.1116 35.3689C39.4072 36.1309 40.8061 40.1064 41.2341 40.4419C41.3883 40.2294 41.5635 39.488 41.6893 39.1819C42.4768 37.2641 43.0154 35.0814 44.025 33.2864C44.2697 32.8515 47.0659 32.947 47.5297 33.1209C47.6365 33.2312 47.7719 33.3472 47.7214 33.5351C47.4982 34.3639 47.0012 35.3378 46.7306 36.1684C47.332 37.5517 47.9153 39.3277 48.5515 40.6098C48.9085 39.6414 49.3978 38.1664 49.7946 37.2594C50.4218 35.9725 50.7028 34.3129 51.5022 33.0581C52.4091 33.0409 54.5321 32.9283 55.2771 33.178L55.3565 33.2787C55.1117 34.564 49.4362 47.102 48.6721 47.9967C48.4854 47.9446 48.1864 47.8348 48.081 47.6707C46.7954 45.6672 45.925 42.5254 44.7433 40.5262C43.8923 42.8058 42.6787 45.4491 41.7064 47.7047C41.2128 47.9745 40.7475 47.9373 40.4954 47.3961C38.4721 43.0528 36.4717 38.692 34.4981 34.3255C34.3613 34.0228 34.12 33.5348 34.2418 33.2165C34.6823 32.9388 37.3145 33.0233 38.0025 33.0309C38.5389 33.7229 38.7389 34.5648 39.1116 35.3689Z" fill="#CCC6BA"/>
<path d="M77.3819 33.0237C79.2162 32.8862 80.9445 33.3787 81.8252 35.1139C82.0132 34.7804 82.1166 34.4007 82.261 34.0468C82.36 33.805 82.5035 33.5109 82.7593 33.4091C83.3173 33.1864 84.6115 33.2345 85.1454 33.511C85.3228 33.603 85.4502 33.7101 85.5126 33.9044C85.6321 34.2784 85.616 45.6619 85.5099 46.6791C85.4288 47.5239 85.1953 48.3472 84.8218 49.1096C84.0606 50.608 82.7334 51.7425 81.1335 52.2631C78.8731 53.0138 76.4068 52.7465 74.2747 51.742C73.297 51.281 72.8119 50.7711 73.3418 49.7581C73.6962 49.2867 74.0296 48.8288 74.4369 48.3927C74.7694 47.9625 75.4307 48.3437 75.8684 48.5718C77.2901 49.3132 79.4088 49.5098 80.6575 48.3228C81.5783 47.4478 81.5863 46.0706 81.6095 44.859C80.9445 45.7187 80.1299 46.711 78.9961 46.8683C72.7865 47.7296 69.3674 40.9411 72.5692 35.972C73.7764 34.0983 75.3256 33.433 77.3819 33.0237ZM79.1645 43.376C80.211 42.9877 80.965 42.5312 81.4686 41.463C81.8635 40.6263 81.8983 39.6645 81.5649 38.8014C80.9579 37.1938 79.5282 36.3789 77.8222 36.5945C73.9574 37.5818 74.4369 43.9932 79.1645 43.376Z" fill="#CCC6BA"/>
<path d="M141.601 32.7408C143.477 32.5723 145.112 33.0264 146.551 34.273C149.548 36.8698 149.771 41.8703 147.147 44.8046C145.063 47.1355 141.532 47.8378 139.075 45.6524C139.016 46.6317 139.033 47.6581 139.032 48.6421C139.025 49.5268 139.196 51.1553 138.866 51.9053C138.567 52.5894 135.831 52.4415 135.31 52.0744C135.073 51.6196 135.155 48.6506 135.154 47.9595L135.154 41.5254C135.154 39.6 135.04 35.128 135.255 33.3586C135.703 32.7944 137.431 32.9411 138.062 33.1452C138.466 33.2757 138.663 34.1233 138.783 34.5079C139.643 33.4611 140.314 33.0476 141.601 32.7408ZM142.378 43.4124C145.493 42.352 146.028 38.2869 143.136 36.5443C142.65 36.2509 141.864 36.2644 141.295 36.3013C137.371 37.2188 137.892 43.6738 142.378 43.4124Z" fill="#CCC6BA"/>
<path d="M94.3912 32.7856C98.3834 32.1784 102.109 34.9294 102.699 38.92C103.289 42.9106 100.518 46.6196 96.5206 47.1909C92.5488 47.7586 88.864 45.0123 88.2775 41.0469C87.6919 37.0817 90.4247 33.3889 94.3912 32.7856ZM96.1097 43.7575C97.2835 43.2299 97.9912 42.7257 98.461 41.4932C99.1562 39.6684 98.5831 37.1804 96.5945 36.4494C95.9626 36.2171 95.3698 36.2669 94.7227 36.3129C90.8071 37.3798 91.3116 44.0904 96.1097 43.7575Z" fill="#CCC6BA"/>
<path d="M58.0518 35.3586C58.3731 35.0032 58.6775 34.6721 59.0329 34.3502C61.5511 32.0692 65.2646 32.1804 67.7535 34.4472C69.084 35.6751 69.8766 37.3771 69.9595 39.1847C70.0334 40.978 69.0519 41.2676 67.524 41.2744C65.1313 41.2851 62.7346 41.2488 60.3428 41.273C60.9201 42.8017 62.1285 44.1821 63.9928 43.7201C66.0785 43.2034 67.1887 41.589 68.3695 44.6432C68.8294 45.8528 66.3895 46.7286 65.5651 46.9941C62.6391 47.9366 59.3162 46.5916 57.6526 44.0349C56.2004 40.4526 56.124 38.8051 58.0518 35.3586ZM60.365 38.3648C61.6859 38.4017 63.0075 38.412 64.3288 38.3952C64.9805 38.3901 65.7411 38.4027 66.3834 38.3654C65.4297 36.4912 64.7156 36.1813 62.6767 36.3016C61.311 36.6614 60.9595 37.1442 60.365 38.3648Z" fill="#CCC6BA"/>
<path d="M108.031 28.3019C108.554 28.2336 109.07 28.2337 109.169 28.847C109.374 30.1021 109.252 31.7111 109.228 32.9819C109.718 32.9942 111.093 32.9284 111.381 33.1661C111.902 33.5978 111.855 35.8114 111.451 36.3056C111.211 36.6012 109.645 36.5246 109.239 36.5283L109.247 42.7971C109.247 43.9005 109.274 45.0069 109.206 46.1079C109.149 47.038 108.526 46.9498 107.802 46.9659C107.225 46.9695 105.946 47.0581 105.522 46.73C105.202 45.8862 105.364 38.113 105.368 36.5674C105.11 36.5434 104.453 36.4907 104.246 36.4355C103.472 36.2298 103.741 33.839 103.927 33.2938C104.316 32.8978 104.784 32.9903 105.376 32.9846C105.339 29.4831 104.286 28.8075 108.031 28.3019Z" fill="#CCC6BA"/>
<path d="M120.138 33.0198C120.381 33.0029 120.625 32.999 120.868 33.0085C121.953 33.0516 123.476 33.6093 124.261 34.3495C125.086 35.1277 123.277 37.0749 122.681 37.5557C120.888 36.0749 119.35 36.0389 118.049 38.1149C117.966 39.8167 118.212 45.7509 117.783 46.8742C117.166 46.9971 114.675 47.1273 114.269 46.6786C113.927 45.2706 114.106 35.6264 114.221 33.5448C114.242 33.4352 114.357 33.3194 114.462 33.3021C116.862 32.9053 117.022 33.1128 117.803 34.9307C118.58 33.8336 118.818 33.4106 120.138 33.0198Z" fill="#CCC6BA"/>
<path d="M127.493 33.0297C128.364 33 130.169 32.7951 130.801 33.3543C130.92 33.6472 131.002 34.0869 131.002 34.409C130.997 38.3455 131.11 42.3096 130.943 46.2398C130.931 46.5033 130.793 46.783 130.575 46.9356C130.003 46.9584 127.875 47.1042 127.334 46.7636C127.16 46.5776 127.095 45.9495 127.092 45.7252C127.038 41.9681 127.135 38.2122 127.059 34.4549C127.049 33.9023 127.083 33.4244 127.493 33.0297Z" fill="#CCC6BA"/>
<path d="M128.365 27.0745C129.146 26.8496 129.987 27.0647 130.564 27.6365C131.141 28.2085 131.362 29.0475 131.142 29.8289C130.922 30.6102 130.296 31.2114 129.505 31.3997C128.322 31.6816 127.131 30.9684 126.821 29.7935C126.51 28.6184 127.197 27.4113 128.365 27.0745Z" fill="#CCC6BA"/>
</svg>
