<svg width="311" height="265" viewBox="0 0 311 265" fill="none" xmlns="http://www.w3.org/2000/svg">
<path d="M39.4811 447.675C40.6467 446.51 40.6467 444.62 39.481 443.454C38.3154 442.289 36.4256 442.289 35.2599 443.454C34.0943 444.62 34.0943 446.51 35.26 447.675C36.4256 448.841 38.3154 448.841 39.4811 447.675Z" fill="#9BA7FF"/>
<path d="M73.7585 481.953C75.0685 480.643 75.0685 478.519 73.7585 477.209C72.4486 475.899 70.3248 475.899 69.0148 477.209C67.7049 478.519 67.7049 480.643 69.0148 481.953C70.3248 483.263 72.4486 483.263 73.7585 481.953Z" fill="#9BA7FF"/>
<path d="M108.016 516.21C109.459 514.767 109.459 512.427 108.016 510.984C106.573 509.541 104.233 509.541 102.79 510.984C101.347 512.427 101.347 514.767 102.79 516.21C104.233 517.653 106.573 517.653 108.016 516.21Z" fill="#9BA7FF"/>
<path d="M141.791 549.985C143.101 548.675 143.101 546.551 141.791 545.241C140.481 543.932 138.357 543.932 137.047 545.241C135.737 546.551 135.737 548.675 137.047 549.985C138.357 551.295 140.481 551.295 141.791 549.985Z" fill="#9BA7FF"/>
<path d="M175.546 583.74C176.711 582.574 176.711 580.685 175.546 579.519C174.38 578.353 172.49 578.353 171.325 579.519C170.159 580.685 170.159 582.574 171.325 583.74C172.49 584.906 174.38 584.906 175.546 583.74Z" fill="#9BA7FF"/>
<path d="M5.72617 345.888C7.03611 344.578 7.03611 342.454 5.72617 341.144C4.41623 339.834 2.29239 339.834 0.982455 341.144C-0.327485 342.454 -0.327485 344.578 0.982455 345.888C2.29239 347.198 4.41623 347.198 5.72617 345.888Z" fill="#9BA7FF"/>
<path d="M40.2449 380.407C41.8323 378.819 41.8323 376.245 40.2449 374.658C38.6574 373.071 36.0836 373.071 34.4961 374.658C32.9087 376.245 32.9087 378.819 34.4961 380.407C36.0836 381.994 38.6574 381.994 40.2449 380.407Z" fill="#9BA7FF"/>
<path d="M74.7837 414.946C76.6598 413.069 76.6598 410.028 74.7837 408.152C72.9076 406.275 69.8658 406.275 67.9897 408.152C66.1136 410.028 66.1136 413.069 67.9897 414.946C69.8658 416.822 72.9076 416.822 74.7837 414.946Z" fill="#9BA7FF"/>
<path d="M109.322 449.484C111.487 447.32 111.487 443.81 109.322 441.645C107.158 439.48 103.648 439.48 101.483 441.645C99.3185 443.81 99.3185 447.32 101.483 449.484C103.648 451.649 107.158 451.649 109.322 449.484Z" fill="#9BA7FF"/>
<path d="M143.861 484.023C146.315 481.57 146.315 477.592 143.861 475.139C141.408 472.685 137.43 472.685 134.977 475.139C132.523 477.592 132.523 481.57 134.977 484.023C137.43 486.476 141.408 486.476 143.861 484.023Z" fill="#9BA7FF"/>
<path d="M177.355 517.517C179.52 515.352 179.52 511.842 177.355 509.678C175.19 507.513 171.68 507.513 169.516 509.678C167.351 511.842 167.351 515.352 169.516 517.517C171.68 519.681 175.19 519.681 177.355 517.517Z" fill="#9BA7FF"/>
<path d="M210.848 551.01C212.724 549.134 212.725 546.092 210.848 544.216C208.972 542.34 205.931 542.34 204.054 544.216C202.178 546.092 202.178 549.134 204.054 551.01C205.931 552.886 208.972 552.886 210.848 551.01Z" fill="#9BA7FF"/>
<path d="M244.342 584.504C245.929 582.916 245.929 580.343 244.342 578.755C242.754 577.168 240.181 577.168 238.593 578.755C237.006 580.343 237.006 582.916 238.593 584.504C240.181 586.091 242.755 586.091 244.342 584.504Z" fill="#9BA7FF"/>
<path d="M277.856 618.018C279.166 616.708 279.166 614.584 277.856 613.274C276.546 611.964 274.422 611.964 273.112 613.274C271.802 614.584 271.802 616.708 273.112 618.018C274.422 619.327 276.546 619.327 277.856 618.018Z" fill="#9BA7FF"/>
<path d="M5.72617 277.856C7.03611 276.546 7.03611 274.422 5.72617 273.112C4.41623 271.802 2.29239 271.802 0.982455 273.112C-0.327485 274.422 -0.327485 276.546 0.982455 277.856C2.29239 279.166 4.41623 279.166 5.72617 277.856Z" fill="#9BA7FF"/>
<path d="M40.5062 312.636C42.238 310.904 42.238 308.096 40.5062 306.364C38.7744 304.633 35.9666 304.633 34.2348 306.364C32.503 308.096 32.503 310.904 34.2348 312.636C35.9666 314.367 38.7744 314.367 40.5062 312.636Z" fill="#9BA7FF"/>
<path d="M75.3063 347.436C77.471 345.271 77.471 341.761 75.3063 339.597C73.1415 337.432 69.6318 337.432 67.4671 339.597C65.3024 341.761 65.3024 345.271 67.4671 347.436C69.6318 349.6 73.1416 349.6 75.3063 347.436Z" fill="#9BA7FF"/>
<path d="M110.106 382.236C112.704 379.638 112.704 375.427 110.106 372.829C107.509 370.231 103.297 370.231 100.699 372.829C98.1017 375.427 98.1017 379.638 100.699 382.236C103.297 384.834 107.509 384.834 110.106 382.236Z" fill="#9BA7FF"/>
<path d="M144.906 417.036C147.937 414.005 147.937 409.092 144.906 406.061C141.876 403.031 136.962 403.031 133.932 406.061C130.901 409.092 130.901 414.005 133.932 417.036C136.962 420.067 141.876 420.067 144.906 417.036Z" fill="#9BA7FF"/>
<path d="M179.686 451.816C183.139 448.363 183.139 442.766 179.686 439.314C176.234 435.861 170.636 435.861 167.184 439.314C163.732 442.766 163.732 448.363 167.184 451.816C170.636 455.268 176.234 455.268 179.686 451.816Z" fill="#9BA7FF"/>
<path d="M212.939 485.068C215.969 482.038 215.969 477.124 212.939 474.094C209.908 471.063 204.995 471.063 201.964 474.094C198.933 477.124 198.933 482.038 201.964 485.068C204.995 488.099 209.908 488.099 212.939 485.068Z" fill="#9BA7FF"/>
<path d="M246.171 518.301C248.769 515.703 248.769 511.491 246.171 508.894C243.573 506.296 239.362 506.296 236.764 508.894C234.166 511.491 234.166 515.703 236.764 518.301C239.362 520.898 243.573 520.898 246.171 518.301Z" fill="#9BA7FF"/>
<path d="M279.403 551.533C281.568 549.368 281.568 545.858 279.403 543.694C277.239 541.529 273.729 541.529 271.564 543.694C269.399 545.858 269.399 549.368 271.564 551.533C273.729 553.698 277.239 553.698 279.403 551.533Z" fill="#9BA7FF"/>
<path d="M312.636 584.765C314.367 583.033 314.367 580.226 312.636 578.494C310.904 576.762 308.096 576.762 306.364 578.494C304.633 580.226 304.633 583.033 306.364 584.765C308.096 586.497 310.904 586.497 312.636 584.765Z" fill="#9BA7FF"/>
<path d="M345.888 618.017C347.198 616.708 347.198 614.584 345.888 613.274C344.578 611.964 342.454 611.964 341.144 613.274C339.834 614.584 339.834 616.708 341.144 618.018C342.454 619.327 344.578 619.327 345.888 618.017Z" fill="#9BA7FF"/>
<path d="M40.2449 244.342C41.8323 242.755 41.8323 240.181 40.2449 238.593C38.6574 237.006 36.0836 237.006 34.4961 238.593C32.9087 240.181 32.9087 242.755 34.4961 244.342C36.0836 245.929 38.6574 245.929 40.2449 244.342Z" fill="#9BA7FF"/>
<path d="M75.3063 279.403C77.471 277.239 77.471 273.729 75.3063 271.564C73.1416 269.399 69.6318 269.399 67.4671 271.564C65.3024 273.729 65.3024 277.239 67.4671 279.403C69.6318 281.568 73.1415 281.568 75.3063 279.403Z" fill="#9BA7FF"/>
<path d="M110.368 314.465C113.11 311.723 113.11 307.277 110.368 304.535C107.626 301.793 103.18 301.793 100.438 304.535C97.6961 307.277 97.6961 311.723 100.438 314.465C103.18 317.207 107.626 317.207 110.368 314.465Z" fill="#9BA7FF"/>
<path d="M145.409 349.506C148.717 346.198 148.717 340.834 145.409 337.526C142.101 334.218 136.737 334.218 133.429 337.526C130.121 340.834 130.121 346.198 133.429 349.506C136.737 352.814 142.101 352.814 145.409 349.506Z" fill="#9BA7FF"/>
<path d="M180.47 384.568C184.356 380.682 184.356 374.383 180.47 370.497C176.585 366.612 170.285 366.612 166.4 370.497C162.515 374.383 162.515 380.682 166.4 384.568C170.285 388.453 176.585 388.453 180.47 384.568Z" fill="#9BA7FF"/>
<path d="M215.532 419.629C219.994 415.166 219.995 407.931 215.532 403.468C211.069 399.005 203.834 399.005 199.371 403.468C194.908 407.931 194.908 415.166 199.371 419.629C203.834 424.092 211.069 424.092 215.532 419.629Z" fill="#9BA7FF"/>
<path d="M248.503 452.6C252.388 448.715 252.388 442.415 248.503 438.53C244.617 434.644 238.318 434.644 234.432 438.53C230.547 442.415 230.547 448.715 234.432 452.6C238.318 456.485 244.617 456.485 248.503 452.6Z" fill="#9BA7FF"/>
<path d="M281.474 485.571C284.782 482.263 284.782 476.899 281.474 473.591C278.166 470.283 272.802 470.283 269.494 473.591C266.186 476.899 266.186 482.263 269.494 485.571C272.802 488.879 278.166 488.879 281.474 485.571Z" fill="#9BA7FF"/>
<path d="M314.465 518.562C317.207 515.82 317.207 511.374 314.465 508.632C311.723 505.89 307.277 505.89 304.535 508.632C301.793 511.374 301.793 515.82 304.535 518.562C307.277 521.304 311.723 521.304 314.465 518.562Z" fill="#9BA7FF"/>
<path d="M347.436 551.533C349.6 549.368 349.6 545.858 347.436 543.694C345.271 541.529 341.761 541.529 339.597 543.694C337.432 545.858 337.432 549.368 339.597 551.533C341.761 553.698 345.271 553.698 347.436 551.533Z" fill="#9BA7FF"/>
<path d="M380.407 584.504C381.994 582.916 381.994 580.343 380.407 578.755C378.819 577.168 376.245 577.168 374.658 578.755C373.07 580.343 373.07 582.916 374.658 584.504C376.245 586.091 378.819 586.091 380.407 584.504Z" fill="#9BA7FF"/>
<path d="M39.481 175.546C40.6467 174.38 40.6467 172.49 39.4811 171.325C38.3154 170.159 36.4256 170.159 35.26 171.325C34.0943 172.49 34.0943 174.38 35.2599 175.546C36.4256 176.711 38.3154 176.711 39.481 175.546Z" fill="#9BA7FF"/>
<path d="M74.7837 210.848C76.6598 208.972 76.6598 205.931 74.7837 204.054C72.9076 202.178 69.8658 202.178 67.9897 204.054C66.1136 205.931 66.1136 208.972 67.9897 210.848C69.8658 212.725 72.9076 212.725 74.7837 210.848Z" fill="#9BA7FF"/>
<path d="M110.106 246.171C112.704 243.573 112.704 239.362 110.106 236.764C107.509 234.166 103.297 234.166 100.699 236.764C98.1017 239.362 98.1017 243.573 100.699 246.171C103.297 248.769 107.509 248.769 110.106 246.171Z" fill="#9BA7FF"/>
<path d="M145.409 281.474C148.717 278.166 148.717 272.802 145.409 269.494C142.101 266.186 136.737 266.186 133.429 269.494C130.121 272.802 130.121 278.166 133.429 281.474C136.737 284.782 142.101 284.782 145.409 281.474Z" fill="#9BA7FF"/>
<path d="M180.732 316.796C184.761 312.767 184.761 306.233 180.732 302.204C176.702 298.174 170.169 298.174 166.139 302.204C162.109 306.233 162.109 312.767 166.139 316.796C170.169 320.826 176.702 320.826 180.732 316.796Z" fill="#9BA7FF"/>
<path d="M216.054 352.119C220.806 347.368 220.806 339.664 216.054 334.913C211.303 330.162 203.6 330.162 198.848 334.913C194.097 339.664 194.097 347.368 198.848 352.119C203.6 356.87 211.303 356.87 216.054 352.119Z" fill="#9BA7FF"/>
<path d="M251.357 387.422C256.819 381.96 256.819 373.105 251.357 367.643C245.895 362.181 237.04 362.181 231.578 367.643C226.116 373.105 226.116 381.96 231.578 387.422C237.04 392.884 245.895 392.884 251.357 387.422Z" fill="#9BA7FF"/>
<path d="M284.087 420.152C288.838 415.4 288.838 407.697 284.087 402.946C279.336 398.194 271.632 398.194 266.881 402.946C262.13 407.697 262.13 415.4 266.881 420.152C271.632 424.903 279.336 424.903 284.087 420.152Z" fill="#9BA7FF"/>
<path d="M316.796 452.861C320.826 448.831 320.826 442.298 316.796 438.268C312.767 434.239 306.233 434.239 302.204 438.268C298.174 442.298 298.174 448.831 302.204 452.861C306.233 456.891 312.767 456.891 316.796 452.861Z" fill="#9BA7FF"/>
<path d="M349.506 485.571C352.814 482.263 352.814 476.899 349.506 473.591C346.198 470.283 340.834 470.283 337.526 473.591C334.218 476.899 334.218 482.263 337.526 485.571C340.834 488.879 346.198 488.879 349.506 485.571Z" fill="#9BA7FF"/>
<path d="M382.236 518.301C384.834 515.703 384.834 511.491 382.236 508.894C379.638 506.296 375.427 506.296 372.829 508.894C370.231 511.491 370.231 515.703 372.829 518.301C375.427 520.898 379.638 520.898 382.236 518.301Z" fill="#9BA7FF"/>
<path d="M414.946 551.01C416.822 549.134 416.822 546.092 414.946 544.216C413.069 542.34 410.028 542.34 408.152 544.216C406.275 546.092 406.275 549.134 408.152 551.01C410.028 552.886 413.069 552.886 414.946 551.01Z" fill="#9BA7FF"/>
<path d="M447.675 583.74C448.841 582.574 448.841 580.685 447.675 579.519C446.51 578.353 444.62 578.353 443.454 579.519C442.289 580.685 442.289 582.574 443.454 583.74C444.62 584.906 446.51 584.906 447.675 583.74Z" fill="#9BA7FF"/>
<path d="M73.7585 141.791C75.0685 140.481 75.0685 138.357 73.7585 137.047C72.4486 135.737 70.3248 135.737 69.0148 137.047C67.7049 138.357 67.7049 140.481 69.0148 141.791C70.3248 143.101 72.4486 143.101 73.7585 141.791Z" fill="#9BA7FF"/>
<path d="M109.322 177.355C111.487 175.19 111.487 171.68 109.322 169.516C107.158 167.351 103.648 167.351 101.483 169.516C99.3185 171.68 99.3185 175.19 101.483 177.355C103.648 179.52 107.158 179.52 109.322 177.355Z" fill="#9BA7FF"/>
<path d="M144.906 212.939C147.937 209.908 147.937 204.995 144.906 201.964C141.876 198.933 136.962 198.933 133.932 201.964C130.901 204.995 130.901 209.908 133.932 212.939C136.962 215.969 141.876 215.969 144.906 212.939Z" fill="#9BA7FF"/>
<path d="M180.47 248.503C184.356 244.617 184.356 238.318 180.47 234.432C176.585 230.547 170.285 230.547 166.4 234.432C162.515 238.318 162.515 244.617 166.4 248.503C170.285 252.388 176.585 252.388 180.47 248.503Z" fill="#9BA7FF"/>
<path d="M216.054 284.087C220.806 279.336 220.806 271.632 216.054 266.881C211.303 262.129 203.6 262.13 198.848 266.881C194.097 271.632 194.097 279.336 198.848 284.087C203.6 288.838 211.303 288.838 216.054 284.087Z" fill="#9BA7FF"/>
<path d="M251.618 319.651C257.224 314.045 257.224 304.955 251.618 299.349C246.012 293.743 236.923 293.743 231.317 299.349C225.711 304.955 225.711 314.045 231.317 319.651C236.923 325.257 246.012 325.257 251.618 319.651Z" fill="#9BA7FF"/>
<path d="M287.202 355.235C293.674 348.763 293.674 338.27 287.202 331.798C280.73 325.326 270.237 325.326 263.765 331.798C257.293 338.27 257.293 348.763 263.765 355.235C270.237 361.707 280.73 361.707 287.202 355.235Z" fill="#9BA7FF"/>
<path d="M319.651 387.683C325.257 382.077 325.257 372.988 319.651 367.382C314.045 361.776 304.955 361.776 299.349 367.382C293.743 372.988 293.743 382.077 299.349 387.683C304.955 393.289 314.045 393.289 319.651 387.683Z" fill="#9BA7FF"/>
<path d="M352.119 420.152C356.87 415.4 356.87 407.697 352.119 402.946C347.368 398.194 339.664 398.194 334.913 402.946C330.162 407.697 330.162 415.4 334.913 420.152C339.664 424.903 347.368 424.903 352.119 420.152Z" fill="#9BA7FF"/>
<path d="M384.568 452.6C388.453 448.714 388.453 442.415 384.568 438.53C380.682 434.644 374.383 434.644 370.497 438.53C366.612 442.415 366.612 448.714 370.497 452.6C374.383 456.485 380.682 456.485 384.568 452.6Z" fill="#9BA7FF"/>
<path d="M417.036 485.068C420.067 482.038 420.067 477.124 417.036 474.093C414.005 471.063 409.092 471.063 406.061 474.094C403.031 477.124 403.031 482.038 406.061 485.068C409.092 488.099 414.005 488.099 417.036 485.068Z" fill="#9BA7FF"/>
<path d="M449.484 517.517C451.649 515.352 451.649 511.842 449.484 509.678C447.32 507.513 443.81 507.513 441.645 509.678C439.48 511.842 439.48 515.352 441.645 517.517C443.81 519.681 447.32 519.681 449.484 517.517Z" fill="#9BA7FF"/>
<path d="M481.953 549.985C483.263 548.675 483.263 546.551 481.953 545.241C480.643 543.931 478.519 543.931 477.209 545.241C475.899 546.551 475.899 548.675 477.209 549.985C478.519 551.295 480.643 551.295 481.953 549.985Z" fill="#9BA7FF"/>
<path d="M108.016 108.016C109.459 106.573 109.459 104.233 108.016 102.79C106.573 101.347 104.233 101.347 102.79 102.79C101.347 104.233 101.347 106.573 102.79 108.016C104.233 109.459 106.573 109.459 108.016 108.016Z" fill="#9BA7FF"/>
<path d="M143.861 143.861C146.315 141.408 146.315 137.43 143.861 134.977C141.408 132.523 137.43 132.523 134.977 134.977C132.523 137.43 132.523 141.408 134.977 143.861C137.43 146.315 141.408 146.315 143.861 143.861Z" fill="#9BA7FF"/>
<path d="M179.686 179.686C183.139 176.234 183.139 170.636 179.686 167.184C176.234 163.732 170.636 163.732 167.184 167.184C163.732 170.636 163.732 176.234 167.184 179.686C170.636 183.139 176.234 183.139 179.686 179.686Z" fill="#9BA7FF"/>
<path d="M215.532 215.532C219.995 211.069 219.994 203.834 215.532 199.371C211.069 194.908 203.834 194.908 199.371 199.371C194.908 203.834 194.908 211.069 199.371 215.532C203.834 219.994 211.069 219.994 215.532 215.532Z" fill="#9BA7FF"/>
<path d="M251.357 251.357C256.819 245.895 256.819 237.04 251.357 231.578C245.895 226.116 237.04 226.116 231.578 231.578C226.116 237.04 226.116 245.895 231.578 251.357C237.04 256.819 245.895 256.819 251.357 251.357Z" fill="#9BA7FF"/>
<path d="M287.202 287.202C293.674 280.73 293.674 270.237 287.202 263.765C280.73 257.293 270.237 257.293 263.765 263.765C257.293 270.237 257.293 280.73 263.765 287.202C270.237 293.674 280.73 293.674 287.202 287.202Z" fill="#9BA7FF"/>
<path d="M323.028 323.028C330.499 315.557 330.499 303.443 323.028 295.972C315.557 288.501 303.443 288.501 295.972 295.972C288.501 303.443 288.501 315.557 295.972 323.028C303.443 330.499 315.557 330.499 323.028 323.028Z" fill="#9BA7FF"/>
<path d="M355.235 355.235C361.707 348.763 361.707 338.27 355.235 331.798C348.763 325.326 338.27 325.326 331.798 331.798C325.326 338.27 325.326 348.763 331.798 355.235C338.27 361.707 348.763 361.707 355.235 355.235Z" fill="#9BA7FF"/>
<path d="M387.422 387.422C392.884 381.96 392.884 373.105 387.422 367.643C381.96 362.181 373.105 362.181 367.643 367.643C362.181 373.105 362.181 381.96 367.643 387.422C373.105 392.884 381.96 392.884 387.422 387.422Z" fill="#9BA7FF"/>
<path d="M419.629 419.629C424.092 415.166 424.092 407.931 419.629 403.468C415.166 399.005 407.931 399.005 403.468 403.468C399.005 407.931 399.005 415.166 403.468 419.629C407.931 424.092 415.166 424.092 419.629 419.629Z" fill="#9BA7FF"/>
<path d="M451.816 451.816C455.268 448.363 455.268 442.766 451.816 439.313C448.363 435.861 442.766 435.861 439.313 439.313C435.861 442.766 435.861 448.363 439.313 451.816C442.766 455.268 448.363 455.268 451.816 451.816Z" fill="#9BA7FF"/>
<path d="M484.023 484.023C486.476 481.57 486.476 477.592 484.023 475.139C481.57 472.685 477.592 472.685 475.139 475.139C472.685 477.592 472.685 481.57 475.139 484.023C477.592 486.476 481.57 486.476 484.023 484.023Z" fill="#9BA7FF"/>
<path d="M516.21 516.21C517.653 514.767 517.653 512.427 516.21 510.984C514.767 509.541 512.427 509.541 510.984 510.984C509.541 512.427 509.541 514.767 510.984 516.21C512.427 517.653 514.767 517.653 516.21 516.21Z" fill="#9BA7FF"/>
<path d="M141.791 73.7585C143.101 72.4486 143.101 70.3248 141.791 69.0148C140.481 67.7049 138.357 67.7049 137.047 69.0148C135.737 70.3248 135.737 72.4486 137.047 73.7585C138.357 75.0685 140.481 75.0685 141.791 73.7585Z" fill="#9BA7FF"/>
<path d="M177.355 109.322C179.52 107.158 179.52 103.648 177.355 101.483C175.19 99.3185 171.68 99.3185 169.516 101.483C167.351 103.648 167.351 107.158 169.516 109.322C171.68 111.487 175.19 111.487 177.355 109.322Z" fill="#9BA7FF"/>
<path d="M212.939 144.906C215.969 141.876 215.969 136.962 212.939 133.932C209.908 130.901 204.995 130.901 201.964 133.932C198.933 136.962 198.933 141.876 201.964 144.906C204.995 147.937 209.908 147.937 212.939 144.906Z" fill="#9BA7FF"/>
<path d="M248.503 180.47C252.388 176.585 252.388 170.285 248.503 166.4C244.617 162.515 238.318 162.515 234.432 166.4C230.547 170.285 230.547 176.585 234.432 180.47C238.318 184.356 244.617 184.356 248.503 180.47Z" fill="#9BA7FF"/>
<path d="M284.087 216.054C288.838 211.303 288.838 203.6 284.087 198.848C279.336 194.097 271.632 194.097 266.881 198.848C262.13 203.6 262.13 211.303 266.881 216.054C271.632 220.806 279.336 220.806 284.087 216.054Z" fill="#9BA7FF"/>
<path d="M319.651 251.618C325.257 246.012 325.257 236.923 319.651 231.317C314.045 225.711 304.955 225.711 299.349 231.317C293.743 236.923 293.743 246.012 299.349 251.618C304.955 257.224 314.045 257.224 319.651 251.618Z" fill="#9BA7FF"/>
<path d="M355.235 287.202C361.707 280.73 361.707 270.237 355.235 263.765C348.763 257.293 338.27 257.293 331.798 263.765C325.326 270.237 325.326 280.73 331.798 287.202C338.27 293.674 348.763 293.674 355.235 287.202Z" fill="#9BA7FF"/>
<path d="M387.683 319.651C393.289 314.045 393.289 304.955 387.683 299.349C382.077 293.743 372.988 293.743 367.382 299.349C361.776 304.955 361.776 314.045 367.382 319.651C372.988 325.257 382.077 325.257 387.683 319.651Z" fill="#9BA7FF"/>
<path d="M420.152 352.119C424.903 347.368 424.903 339.664 420.152 334.913C415.4 330.162 407.697 330.162 402.946 334.913C398.194 339.664 398.194 347.368 402.946 352.119C407.697 356.87 415.4 356.87 420.152 352.119Z" fill="#9BA7FF"/>
<path d="M452.6 384.568C456.485 380.682 456.485 374.383 452.6 370.497C448.714 366.612 442.415 366.612 438.53 370.497C434.644 374.383 434.644 380.682 438.53 384.568C442.415 388.453 448.714 388.453 452.6 384.568Z" fill="#9BA7FF"/>
<path d="M485.068 417.036C488.099 414.005 488.099 409.092 485.068 406.061C482.038 403.03 477.124 403.03 474.094 406.061C471.063 409.092 471.063 414.005 474.094 417.036C477.124 420.067 482.038 420.067 485.068 417.036Z" fill="#9BA7FF"/>
<path d="M517.517 449.484C519.681 447.32 519.681 443.81 517.517 441.645C515.352 439.48 511.842 439.48 509.678 441.645C507.513 443.81 507.513 447.32 509.678 449.484C511.842 451.649 515.352 451.649 517.517 449.484Z" fill="#9BA7FF"/>
<path d="M549.985 481.953C551.295 480.643 551.295 478.519 549.985 477.209C548.675 475.899 546.551 475.899 545.241 477.209C543.931 478.519 543.932 480.643 545.241 481.953C546.551 483.263 548.675 483.263 549.985 481.953Z" fill="#9BA7FF"/>
<path d="M175.546 39.481C176.711 38.3154 176.711 36.4256 175.546 35.26C174.38 34.0943 172.49 34.0943 171.325 35.2599C170.159 36.4256 170.159 38.3154 171.325 39.481C172.49 40.6467 174.38 40.6467 175.546 39.481Z" fill="#9BA7FF"/>
<path d="M210.848 74.7837C212.725 72.9076 212.724 69.8658 210.848 67.9897C208.972 66.1136 205.931 66.1136 204.054 67.9897C202.178 69.8658 202.178 72.9076 204.054 74.7837C205.931 76.6598 208.972 76.6598 210.848 74.7837Z" fill="#9BA7FF"/>
<path d="M246.171 110.106C248.769 107.509 248.769 103.297 246.171 100.699C243.573 98.1017 239.362 98.1017 236.764 100.699C234.166 103.297 234.166 107.509 236.764 110.106C239.362 112.704 243.573 112.704 246.171 110.106Z" fill="#9BA7FF"/>
<path d="M281.474 145.409C284.782 142.101 284.782 136.737 281.474 133.429C278.166 130.121 272.802 130.121 269.494 133.429C266.186 136.737 266.186 142.101 269.494 145.409C272.802 148.717 278.166 148.717 281.474 145.409Z" fill="#9BA7FF"/>
<path d="M316.796 180.732C320.826 176.702 320.826 170.169 316.796 166.139C312.767 162.109 306.233 162.109 302.204 166.139C298.174 170.169 298.174 176.702 302.204 180.732C306.233 184.761 312.767 184.761 316.796 180.732Z" fill="#9BA7FF"/>
<path d="M352.119 216.054C356.87 211.303 356.87 203.6 352.119 198.848C347.368 194.097 339.664 194.097 334.913 198.848C330.162 203.6 330.162 211.303 334.913 216.054C339.664 220.806 347.368 220.806 352.119 216.054Z" fill="#9BA7FF"/>
<path d="M387.422 251.357C392.884 245.895 392.884 237.04 387.422 231.578C381.96 226.116 373.105 226.116 367.643 231.578C362.181 237.04 362.181 245.895 367.643 251.357C373.105 256.819 381.96 256.819 387.422 251.357Z" fill="#9BA7FF"/>
<path d="M420.152 284.087C424.903 279.336 424.903 271.632 420.152 266.881C415.4 262.13 407.697 262.129 402.946 266.881C398.194 271.632 398.194 279.336 402.946 284.087C407.697 288.838 415.4 288.838 420.152 284.087Z" fill="#9BA7FF"/>
<path d="M452.861 316.796C456.891 312.767 456.891 306.233 452.861 302.204C448.831 298.174 442.298 298.174 438.268 302.203C434.239 306.233 434.239 312.767 438.268 316.796C442.298 320.826 448.831 320.826 452.861 316.796Z" fill="#9BA7FF"/>
<path d="M485.571 349.506C488.879 346.198 488.879 340.834 485.571 337.526C482.263 334.218 476.899 334.218 473.591 337.526C470.283 340.834 470.283 346.198 473.591 349.506C476.899 352.814 482.263 352.814 485.571 349.506Z" fill="#9BA7FF"/>
<path d="M518.301 382.236C520.898 379.638 520.898 375.427 518.301 372.829C515.703 370.231 511.491 370.231 508.894 372.829C506.296 375.427 506.296 379.638 508.894 382.236C511.491 384.834 515.703 384.834 518.301 382.236Z" fill="#9BA7FF"/>
<path d="M551.01 414.946C552.886 413.069 552.886 410.028 551.01 408.152C549.134 406.275 546.092 406.275 544.216 408.152C542.34 410.028 542.34 413.069 544.216 414.946C546.092 416.822 549.134 416.822 551.01 414.946Z" fill="#9BA7FF"/>
<path d="M583.74 447.675C584.906 446.51 584.906 444.62 583.74 443.454C582.574 442.289 580.685 442.289 579.519 443.454C578.353 444.62 578.353 446.51 579.519 447.675C580.685 448.841 582.574 448.841 583.74 447.675Z" fill="#9BA7FF"/>
<path d="M244.342 40.2449C245.929 38.6574 245.929 36.0836 244.342 34.4961C242.755 32.9087 240.181 32.9087 238.593 34.4961C237.006 36.0836 237.006 38.6574 238.593 40.2449C240.181 41.8323 242.754 41.8324 244.342 40.2449Z" fill="#9BA7FF"/>
<path d="M279.403 75.3063C281.568 73.1416 281.568 69.6318 279.403 67.4671C277.239 65.3024 273.729 65.3024 271.564 67.4671C269.399 69.6318 269.399 73.1416 271.564 75.3063C273.729 77.471 277.239 77.471 279.403 75.3063Z" fill="#9BA7FF"/>
<path d="M314.465 110.368C317.207 107.626 317.207 103.18 314.465 100.438C311.723 97.6961 307.277 97.6961 304.535 100.438C301.793 103.18 301.793 107.626 304.535 110.368C307.277 113.11 311.723 113.11 314.465 110.368Z" fill="#9BA7FF"/>
<path d="M349.506 145.409C352.814 142.101 352.814 136.737 349.506 133.429C346.198 130.121 340.834 130.121 337.526 133.429C334.218 136.737 334.218 142.101 337.526 145.409C340.834 148.717 346.198 148.717 349.506 145.409Z" fill="#9BA7FF"/>
<path d="M384.568 180.47C388.453 176.585 388.453 170.286 384.568 166.4C380.682 162.515 374.383 162.515 370.497 166.4C366.612 170.286 366.612 176.585 370.497 180.47C374.383 184.356 380.682 184.356 384.568 180.47Z" fill="#9BA7FF"/>
<path d="M419.629 215.532C424.092 211.069 424.092 203.834 419.629 199.371C415.166 194.908 407.931 194.908 403.468 199.371C399.005 203.834 399.005 211.069 403.468 215.532C407.931 219.994 415.166 219.995 419.629 215.532Z" fill="#9BA7FF"/>
<path d="M452.6 248.503C456.485 244.617 456.485 238.318 452.6 234.432C448.714 230.547 442.415 230.547 438.53 234.432C434.644 238.318 434.644 244.617 438.53 248.503C442.415 252.388 448.714 252.388 452.6 248.503Z" fill="#9BA7FF"/>
<path d="M485.571 281.474C488.879 278.166 488.879 272.802 485.571 269.494C482.263 266.186 476.899 266.186 473.591 269.494C470.283 272.802 470.283 278.166 473.591 281.474C476.899 284.782 482.263 284.782 485.571 281.474Z" fill="#9BA7FF"/>
<path d="M518.562 314.465C521.304 311.723 521.304 307.277 518.562 304.535C515.82 301.793 511.374 301.793 508.632 304.535C505.89 307.277 505.89 311.723 508.632 314.465C511.374 317.207 515.82 317.207 518.562 314.465Z" fill="#9BA7FF"/>
<path d="M551.533 347.436C553.698 345.271 553.698 341.761 551.533 339.597C549.368 337.432 545.858 337.432 543.694 339.597C541.529 341.761 541.529 345.271 543.694 347.436C545.858 349.6 549.368 349.6 551.533 347.436Z" fill="#9BA7FF"/>
<path d="M584.504 380.407C586.091 378.819 586.091 376.245 584.504 374.658C582.916 373.07 580.343 373.07 578.755 374.658C577.168 376.245 577.168 378.819 578.755 380.407C580.343 381.994 582.916 381.994 584.504 380.407Z" fill="#9BA7FF"/>
<path d="M277.856 5.72618C279.166 4.41624 279.166 2.29239 277.856 0.982447C276.546 -0.327493 274.422 -0.327477 273.112 0.982463C271.802 2.2924 271.802 4.41622 273.112 5.72616C274.422 7.0361 276.546 7.03612 277.856 5.72618Z" fill="#9BA7FF"/>
<path d="M312.636 40.5062C314.367 38.7744 314.367 35.9666 312.636 34.2348C310.904 32.5031 308.096 32.5031 306.364 34.2348C304.633 35.9666 304.633 38.7744 306.364 40.5062C308.096 42.238 310.904 42.238 312.636 40.5062Z" fill="#9BA7FF"/>
<path d="M347.436 75.3063C349.6 73.1416 349.6 69.6318 347.436 67.4671C345.271 65.3024 341.761 65.3024 339.597 67.4671C337.432 69.6318 337.432 73.1416 339.597 75.3063C341.761 77.471 345.271 77.471 347.436 75.3063Z" fill="#9BA7FF"/>
<path d="M382.236 110.106C384.834 107.509 384.834 103.297 382.236 100.699C379.638 98.1017 375.427 98.1017 372.829 100.699C370.231 103.297 370.231 107.509 372.829 110.106C375.427 112.704 379.638 112.704 382.236 110.106Z" fill="#9BA7FF"/>
<path d="M417.036 144.907C420.067 141.876 420.067 136.962 417.036 133.932C414.005 130.901 409.092 130.901 406.061 133.932C403.031 136.962 403.031 141.876 406.061 144.906C409.092 147.937 414.005 147.937 417.036 144.907Z" fill="#9BA7FF"/>
<path d="M451.816 179.687C455.268 176.234 455.268 170.636 451.816 167.184C448.363 163.732 442.766 163.732 439.313 167.184C435.861 170.636 435.861 176.234 439.313 179.687C442.766 183.139 448.363 183.139 451.816 179.687Z" fill="#9BA7FF"/>
<path d="M485.068 212.939C488.099 209.908 488.099 204.995 485.068 201.964C482.038 198.933 477.124 198.933 474.094 201.964C471.063 204.995 471.063 209.908 474.094 212.939C477.124 215.969 482.038 215.969 485.068 212.939Z" fill="#9BA7FF"/>
<path d="M518.301 246.171C520.898 243.573 520.898 239.362 518.301 236.764C515.703 234.166 511.491 234.166 508.894 236.764C506.296 239.362 506.296 243.573 508.894 246.171C511.491 248.769 515.703 248.769 518.301 246.171Z" fill="#9BA7FF"/>
<path d="M551.533 279.403C553.698 277.239 553.698 273.729 551.533 271.564C549.368 269.399 545.858 269.399 543.694 271.564C541.529 273.729 541.529 277.239 543.694 279.403C545.858 281.568 549.368 281.568 551.533 279.403Z" fill="#9BA7FF"/>
<path d="M584.765 312.636C586.497 310.904 586.497 308.096 584.765 306.364C583.033 304.633 580.226 304.633 578.494 306.364C576.762 308.096 576.762 310.904 578.494 312.636C580.226 314.367 583.033 314.367 584.765 312.636Z" fill="#9BA7FF"/>
<path d="M618.017 345.888C619.327 344.578 619.327 342.454 618.018 341.144C616.708 339.834 614.584 339.834 613.274 341.144C611.964 342.454 611.964 344.578 613.274 345.888C614.584 347.198 616.708 347.198 618.017 345.888Z" fill="#9BA7FF"/>
<path d="M345.888 5.72618C347.198 4.41624 347.198 2.29242 345.888 0.982478C344.578 -0.327462 342.454 -0.327477 341.144 0.982463C339.834 2.2924 339.834 4.41625 341.144 5.72619C342.454 7.03613 344.578 7.03612 345.888 5.72618Z" fill="#9BA7FF"/>
<path d="M380.407 40.2449C381.994 38.6574 381.994 36.0836 380.407 34.4962C378.819 32.9087 376.245 32.9087 374.658 34.4961C373.07 36.0836 373.07 38.6574 374.658 40.2449C376.245 41.8324 378.819 41.8323 380.407 40.2449Z" fill="#9BA7FF"/>
<path d="M414.946 74.7837C416.822 72.9076 416.822 69.8658 414.946 67.9897C413.069 66.1136 410.028 66.1136 408.152 67.9897C406.275 69.8658 406.275 72.9076 408.152 74.7837C410.028 76.6598 413.069 76.6598 414.946 74.7837Z" fill="#9BA7FF"/>
<path d="M449.484 109.322C451.649 107.158 451.649 103.648 449.484 101.483C447.32 99.3186 443.81 99.3186 441.645 101.483C439.48 103.648 439.48 107.158 441.645 109.322C443.81 111.487 447.32 111.487 449.484 109.322Z" fill="#9BA7FF"/>
<path d="M484.023 143.861C486.476 141.408 486.476 137.43 484.023 134.977C481.57 132.524 477.592 132.523 475.139 134.977C472.685 137.43 472.685 141.408 475.139 143.861C477.592 146.315 481.57 146.315 484.023 143.861Z" fill="#9BA7FF"/>
<path d="M517.517 177.355C519.681 175.19 519.681 171.68 517.517 169.516C515.352 167.351 511.842 167.351 509.678 169.516C507.513 171.68 507.513 175.19 509.678 177.355C511.842 179.52 515.352 179.52 517.517 177.355Z" fill="#9BA7FF"/>
<path d="M551.01 210.848C552.886 208.972 552.886 205.931 551.01 204.054C549.134 202.178 546.092 202.178 544.216 204.054C542.34 205.931 542.34 208.972 544.216 210.848C546.092 212.725 549.134 212.725 551.01 210.848Z" fill="#9BA7FF"/>
<path d="M584.504 244.342C586.091 242.755 586.091 240.181 584.504 238.593C582.916 237.006 580.343 237.006 578.755 238.593C577.168 240.181 577.168 242.755 578.755 244.342C580.343 245.929 582.916 245.929 584.504 244.342Z" fill="#9BA7FF"/>
<path d="M618.018 277.856C619.327 276.546 619.327 274.422 618.017 273.112C616.708 271.802 614.584 271.802 613.274 273.112C611.964 274.422 611.964 276.546 613.274 277.856C614.584 279.166 616.708 279.166 618.018 277.856Z" fill="#9BA7FF"/>
<path d="M447.675 39.4811C448.841 38.3154 448.841 36.4256 447.675 35.26C446.51 34.0943 444.62 34.0943 443.454 35.2599C442.289 36.4256 442.289 38.3154 443.454 39.4811C444.62 40.6467 446.51 40.6467 447.675 39.4811Z" fill="#9BA7FF"/>
<path d="M481.953 73.7585C483.263 72.4486 483.263 70.3248 481.953 69.0148C480.643 67.7049 478.519 67.7049 477.209 69.0148C475.899 70.3248 475.899 72.4486 477.209 73.7585C478.519 75.0685 480.643 75.0685 481.953 73.7585Z" fill="#9BA7FF"/>
<path d="M516.21 108.016C517.653 106.573 517.653 104.233 516.21 102.79C514.767 101.347 512.427 101.347 510.984 102.79C509.541 104.233 509.541 106.573 510.984 108.016C512.427 109.459 514.767 109.459 516.21 108.016Z" fill="#9BA7FF"/>
<path d="M549.985 141.791C551.295 140.481 551.295 138.357 549.985 137.047C548.675 135.737 546.551 135.737 545.241 137.047C543.932 138.357 543.931 140.481 545.241 141.791C546.551 143.101 548.675 143.101 549.985 141.791Z" fill="#9BA7FF"/>
<path d="M583.74 175.546C584.906 174.38 584.906 172.49 583.74 171.325C582.574 170.159 580.685 170.159 579.519 171.325C578.353 172.49 578.353 174.38 579.519 175.546C580.685 176.711 582.574 176.711 583.74 175.546Z" fill="#9BA7FF"/>
</svg>
