<svg width="389" height="294" viewBox="0 0 389 294" fill="none" xmlns="http://www.w3.org/2000/svg">
<path d="M-190.935 122.36C-189.769 121.194 -189.769 119.304 -190.935 118.139C-192.101 116.973 -193.99 116.973 -195.156 118.139C-196.322 119.304 -196.322 121.194 -195.156 122.36C-193.99 123.525 -192.101 123.525 -190.935 122.36Z" fill="#9BA7FF"/>
<path d="M-156.657 156.637C-155.348 155.327 -155.348 153.204 -156.657 151.894C-157.967 150.584 -160.091 150.584 -161.401 151.894C-162.711 153.204 -162.711 155.327 -161.401 156.637C-160.091 157.947 -157.967 157.947 -156.657 156.637Z" fill="#9BA7FF"/>
<path d="M-122.4 190.895C-120.957 189.452 -120.957 187.112 -122.4 185.669C-123.843 184.225 -126.183 184.225 -127.626 185.669C-129.069 187.112 -129.069 189.452 -127.626 190.895C-126.183 192.338 -123.843 192.338 -122.4 190.895Z" fill="#9BA7FF"/>
<path d="M-88.6251 224.67C-87.3152 223.36 -87.3152 221.236 -88.6251 219.926C-89.935 218.616 -92.0589 218.616 -93.3688 219.926C-94.6788 221.236 -94.6787 223.36 -93.3688 224.67C-92.0589 225.98 -89.935 225.98 -88.6251 224.67Z" fill="#9BA7FF"/>
<path d="M-54.8702 258.425C-53.7046 257.259 -53.7046 255.369 -54.8702 254.203C-56.0358 253.038 -57.9257 253.038 -59.0913 254.203C-60.2569 255.369 -60.2569 257.259 -59.0913 258.425C-57.9257 259.59 -56.0359 259.59 -54.8702 258.425Z" fill="#9BA7FF"/>
<path d="M-224.69 20.5726C-223.38 19.2627 -223.38 17.1389 -224.69 15.8289C-226 14.519 -228.124 14.519 -229.434 15.8289C-230.744 17.1389 -230.744 19.2627 -229.434 20.5726C-228.124 21.8825 -226 21.8825 -224.69 20.5726Z" fill="#9BA7FF"/>
<path d="M-190.171 55.0913C-188.584 53.5038 -188.584 50.9301 -190.171 49.3426C-191.759 47.7551 -194.332 47.7551 -195.92 49.3426C-197.507 50.9301 -197.507 53.5038 -195.92 55.0913C-194.332 56.6788 -191.759 56.6788 -190.171 55.0913Z" fill="#9BA7FF"/>
<path d="M-155.632 89.6301C-153.756 87.754 -153.756 84.7122 -155.632 82.8361C-157.508 80.96 -160.55 80.96 -162.426 82.8361C-164.302 84.7122 -164.302 87.754 -162.426 89.6301C-160.55 91.5062 -157.508 91.5062 -155.632 89.6301Z" fill="#9BA7FF"/>
<path d="M-121.094 124.169C-118.929 122.004 -118.929 118.494 -121.094 116.33C-123.258 114.165 -126.768 114.165 -128.933 116.33C-131.097 118.494 -131.097 122.004 -128.933 124.169C-126.768 126.334 -123.258 126.334 -121.094 124.169Z" fill="#9BA7FF"/>
<path d="M-86.5547 158.708C-84.1014 156.254 -84.1014 152.277 -86.5547 149.823C-89.0081 147.37 -92.9858 147.37 -95.4392 149.823C-97.8925 152.277 -97.8925 156.254 -95.4392 158.708C-92.9858 161.161 -89.0081 161.161 -86.5547 158.708Z" fill="#9BA7FF"/>
<path d="M-53.0612 192.201C-50.8964 190.037 -50.8964 186.527 -53.0612 184.362C-55.2259 182.197 -58.7356 182.197 -60.9004 184.362C-63.0651 186.527 -63.0651 190.037 -60.9003 192.201C-58.7356 194.366 -55.2259 194.366 -53.0612 192.201Z" fill="#9BA7FF"/>
<path d="M-19.5676 225.695C-17.6915 223.819 -17.6915 220.777 -19.5676 218.901C-21.4437 217.025 -24.4855 217.025 -26.3616 218.901C-28.2377 220.777 -28.2377 223.819 -26.3616 225.695C-24.4855 227.571 -21.4437 227.571 -19.5676 225.695Z" fill="#9BA7FF"/>
<path d="M13.926 259.188C15.5134 257.601 15.5134 255.027 13.9259 253.44C12.3385 251.852 9.76471 251.852 8.17723 253.44C6.58977 255.027 6.58974 257.601 8.17722 259.188C9.76468 260.776 12.3385 260.776 13.926 259.188Z" fill="#9BA7FF"/>
<path d="M47.4396 292.702C48.7496 291.392 48.7496 289.268 47.4396 287.958C46.1297 286.648 44.0059 286.648 42.6959 287.958C41.386 289.268 41.386 291.392 42.6959 292.702C44.0059 294.012 46.1297 294.012 47.4396 292.702Z" fill="#9BA7FF"/>
<path d="M-224.69 -47.4598C-223.38 -48.7697 -223.38 -50.8936 -224.69 -52.2035C-226 -53.5134 -228.124 -53.5134 -229.434 -52.2035C-230.744 -50.8936 -230.744 -48.7697 -229.434 -47.4598C-228.124 -46.1498 -226 -46.1498 -224.69 -47.4598Z" fill="#9BA7FF"/>
<path d="M-189.91 -12.6797C-188.178 -14.4116 -188.178 -17.2193 -189.91 -18.9511C-191.642 -20.6829 -194.449 -20.6829 -196.181 -18.9511C-197.913 -17.2193 -197.913 -14.4116 -196.181 -12.6797C-194.449 -10.948 -191.642 -10.948 -189.91 -12.6797Z" fill="#9BA7FF"/>
<path d="M-155.11 22.1203C-152.945 19.9556 -152.945 16.4459 -155.11 14.2812C-157.274 12.1164 -160.784 12.1164 -162.949 14.2812C-165.114 16.4459 -165.114 19.9556 -162.949 22.1203C-160.784 24.2851 -157.274 24.2851 -155.11 22.1203Z" fill="#9BA7FF"/>
<path d="M-120.31 56.9204C-117.712 54.3228 -117.712 50.1111 -120.31 47.5134C-122.907 44.9157 -127.119 44.9157 -129.717 47.5134C-132.314 50.1111 -132.314 54.3228 -129.717 56.9204C-127.119 59.5181 -122.907 59.5181 -120.31 56.9204Z" fill="#9BA7FF"/>
<path d="M-85.5095 91.7205C-82.4789 88.6899 -82.4789 83.7763 -85.5095 80.7457C-88.5402 77.7151 -93.4538 77.7151 -96.4844 80.7457C-99.515 83.7763 -99.515 88.6899 -96.4844 91.7205C-93.4538 94.7512 -88.5401 94.7512 -85.5095 91.7205Z" fill="#9BA7FF"/>
<path d="M-50.7295 126.501C-47.2771 123.048 -47.2771 117.451 -50.7295 113.998C-54.182 110.546 -59.7795 110.546 -63.232 113.998C-66.6845 117.451 -66.6845 123.048 -63.232 126.501C-59.7795 129.953 -54.182 129.953 -50.7295 126.501Z" fill="#9BA7FF"/>
<path d="M-17.4771 159.753C-14.4465 156.722 -14.4465 151.809 -17.4771 148.778C-20.5078 145.747 -25.4214 145.747 -28.452 148.778C-31.4826 151.809 -31.4826 156.722 -28.452 159.753C-25.4214 162.784 -20.5078 162.784 -17.4771 159.753Z" fill="#9BA7FF"/>
<path d="M15.7551 192.985C18.3528 190.388 18.3528 186.176 15.7551 183.578C13.1574 180.98 8.94576 180.98 6.34808 183.578C3.7504 186.176 3.75043 190.388 6.3481 192.985C8.94579 195.583 13.1574 195.583 15.7551 192.985Z" fill="#9BA7FF"/>
<path d="M48.9874 226.217C51.1521 224.053 51.1521 220.543 48.9874 218.378C46.8226 216.214 43.3129 216.214 41.1482 218.378C38.9835 220.543 38.9835 224.053 41.1482 226.217C43.3129 228.382 46.8227 228.382 48.9874 226.217Z" fill="#9BA7FF"/>
<path d="M82.2196 259.45C83.9514 257.718 83.9514 254.91 82.2196 253.178C80.4879 251.447 77.6801 251.447 75.9483 253.178C74.2165 254.91 74.2165 257.718 75.9483 259.45C77.6801 261.182 80.4879 261.181 82.2196 259.45Z" fill="#9BA7FF"/>
<path d="M115.472 292.702C116.782 291.392 116.782 289.268 115.472 287.958C114.162 286.648 112.038 286.648 110.728 287.958C109.418 289.268 109.418 291.392 110.728 292.702C112.038 294.012 114.162 294.012 115.472 292.702Z" fill="#9BA7FF"/>
<path d="M-190.171 -80.9734C-188.584 -82.5609 -188.584 -85.1347 -190.171 -86.7222C-191.759 -88.3096 -194.332 -88.3096 -195.92 -86.7222C-197.507 -85.1347 -197.507 -82.5609 -195.92 -80.9734C-194.332 -79.386 -191.759 -79.386 -190.171 -80.9734Z" fill="#9BA7FF"/>
<path d="M-155.11 -45.912C-152.945 -48.0768 -152.945 -51.5865 -155.11 -53.7512C-157.274 -55.916 -160.784 -55.916 -162.949 -53.7512C-165.114 -51.5865 -165.114 -48.0768 -162.949 -45.912C-160.784 -43.7473 -157.274 -43.7473 -155.11 -45.912Z" fill="#9BA7FF"/>
<path d="M-120.048 -10.8506C-117.306 -13.5926 -117.306 -18.0383 -120.048 -20.7802C-122.79 -23.5222 -127.236 -23.5222 -129.978 -20.7802C-132.72 -18.0383 -132.72 -13.5926 -129.978 -10.8506C-127.236 -8.10864 -122.79 -8.10864 -120.048 -10.8506Z" fill="#9BA7FF"/>
<path d="M-85.007 24.1907C-81.6989 20.8825 -81.6989 15.519 -85.007 12.2108C-88.3152 8.90265 -93.6787 8.90265 -96.9869 12.2108C-100.295 15.519 -100.295 20.8825 -96.9869 24.1907C-93.6787 27.4988 -88.3152 27.4988 -85.007 24.1907Z" fill="#9BA7FF"/>
<path d="M-49.9456 59.2521C-46.0602 55.3667 -46.0602 49.0671 -49.9456 45.1817C-53.831 41.2963 -60.1305 41.2963 -64.0159 45.1817C-67.9014 49.0671 -67.9014 55.3667 -64.0159 59.2521C-60.1305 63.1375 -53.831 63.1375 -49.9456 59.2521Z" fill="#9BA7FF"/>
<path d="M-14.8842 94.3135C-10.4215 89.8508 -10.4215 82.6154 -14.8842 78.1527C-19.3469 73.6901 -26.5823 73.6901 -31.045 78.1527C-35.5076 82.6154 -35.5076 89.8508 -31.045 94.3135C-26.5823 98.7762 -19.3469 98.7762 -14.8842 94.3135Z" fill="#9BA7FF"/>
<path d="M18.0868 127.284C21.9722 123.399 21.9722 117.1 18.0868 113.214C14.2014 109.329 7.90187 109.329 4.01645 113.214C0.131027 117.1 0.131027 123.399 4.01645 127.284C7.90187 131.17 14.2014 131.17 18.0868 127.284Z" fill="#9BA7FF"/>
<path d="M51.0577 160.255C54.3659 156.947 54.3659 151.584 51.0577 148.276C47.7496 144.967 42.386 144.967 39.0778 148.276C35.7697 151.584 35.7697 156.947 39.0779 160.255C42.386 163.564 47.7496 163.564 51.0577 160.255Z" fill="#9BA7FF"/>
<path d="M84.0488 193.246C86.7908 190.505 86.7907 186.059 84.0488 183.317C81.3068 180.575 76.8611 180.575 74.1191 183.317C71.3771 186.059 71.3771 190.505 74.1191 193.246C76.8611 195.988 81.3068 195.988 84.0488 193.246Z" fill="#9BA7FF"/>
<path d="M117.02 226.217C119.184 224.053 119.184 220.543 117.02 218.378C114.855 216.214 111.345 216.214 109.181 218.378C107.016 220.543 107.016 224.053 109.181 226.217C111.345 228.382 114.855 228.382 117.02 226.217Z" fill="#9BA7FF"/>
<path d="M149.991 259.188C151.578 257.601 151.578 255.027 149.991 253.44C148.403 251.852 145.829 251.852 144.242 253.44C142.654 255.027 142.654 257.601 144.242 259.188C145.829 260.776 148.403 260.776 149.991 259.188Z" fill="#9BA7FF"/>
<path d="M-190.935 -149.77C-189.769 -150.935 -189.769 -152.825 -190.935 -153.991C-192.101 -155.156 -193.99 -155.156 -195.156 -153.991C-196.322 -152.825 -196.322 -150.935 -195.156 -149.77C-193.99 -148.604 -192.101 -148.604 -190.935 -149.77Z" fill="#9BA7FF"/>
<path d="M-155.632 -114.467C-153.756 -116.343 -153.756 -119.385 -155.632 -121.261C-157.508 -123.137 -160.55 -123.137 -162.426 -121.261C-164.302 -119.385 -164.302 -116.343 -162.426 -114.467C-160.55 -112.591 -157.508 -112.591 -155.632 -114.467Z" fill="#9BA7FF"/>
<path d="M-120.31 -79.1443C-117.712 -81.742 -117.712 -85.9536 -120.31 -88.5513C-122.907 -91.149 -127.119 -91.149 -129.717 -88.5513C-132.314 -85.9537 -132.314 -81.742 -129.717 -79.1443C-127.119 -76.5466 -122.907 -76.5466 -120.31 -79.1443Z" fill="#9BA7FF"/>
<path d="M-85.007 -43.8417C-81.6989 -47.1498 -81.6989 -52.5134 -85.007 -55.8216C-88.3152 -59.1297 -93.6787 -59.1297 -96.9869 -55.8216C-100.295 -52.5134 -100.295 -47.1498 -96.9869 -43.8417C-93.6787 -40.5335 -88.3152 -40.5335 -85.007 -43.8417Z" fill="#9BA7FF"/>
<path d="M-49.6843 -8.51898C-45.6546 -12.5487 -45.6546 -19.0822 -49.6843 -23.1119C-53.714 -27.1416 -60.2475 -27.1416 -64.2772 -23.1119C-68.307 -19.0822 -68.307 -12.5487 -64.2772 -8.51898C-60.2475 -4.48926 -53.714 -4.48926 -49.6843 -8.51898Z" fill="#9BA7FF"/>
<path d="M-14.3616 26.8037C-9.61026 22.0525 -9.61029 14.349 -14.3616 9.59772C-19.1129 4.84644 -26.8163 4.84644 -31.5676 9.59772C-36.3189 14.349 -36.3189 22.0524 -31.5676 26.8037C-26.8163 31.5551 -19.1129 31.5551 -14.3616 26.8037Z" fill="#9BA7FF"/>
<path d="M20.941 62.1064C26.4028 56.6446 26.4028 47.7893 20.941 42.3275C15.4792 36.8657 6.62398 36.8657 1.16219 42.3275C-4.29959 47.7893 -4.29959 56.6446 1.16219 62.1064C6.62398 67.5681 15.4792 67.5681 20.941 62.1064Z" fill="#9BA7FF"/>
<path d="M53.6708 94.8361C58.4221 90.0848 58.4221 82.3814 53.6708 77.6301C48.9195 72.8788 41.2161 72.8788 36.4648 77.6301C31.7135 82.3814 31.7135 90.0848 36.4648 94.8361C41.2161 99.5874 48.9195 99.5874 53.6708 94.8361Z" fill="#9BA7FF"/>
<path d="M86.3804 127.546C90.4102 123.516 90.4102 116.983 86.3804 112.953C82.3507 108.923 75.8172 108.923 71.7875 112.953C67.7578 116.983 67.7578 123.516 71.7875 127.546C75.8172 131.576 82.3507 131.575 86.3804 127.546Z" fill="#9BA7FF"/>
<path d="M119.09 160.255C122.398 156.947 122.398 151.584 119.09 148.276C115.782 144.967 110.418 144.967 107.11 148.276C103.802 151.584 103.802 156.947 107.11 160.255C110.418 163.564 115.782 163.564 119.09 160.255Z" fill="#9BA7FF"/>
<path d="M151.82 192.985C154.418 190.387 154.418 186.176 151.82 183.578C149.222 180.98 145.01 180.98 142.413 183.578C139.815 186.176 139.815 190.388 142.413 192.985C145.01 195.583 149.222 195.583 151.82 192.985Z" fill="#9BA7FF"/>
<path d="M184.53 225.695C186.406 223.819 186.406 220.777 184.53 218.901C182.653 217.025 179.612 217.025 177.736 218.901C175.859 220.777 175.859 223.819 177.736 225.695C179.612 227.571 182.653 227.571 184.53 225.695Z" fill="#9BA7FF"/>
<path d="M217.259 258.425C218.425 257.259 218.425 255.369 217.259 254.203C216.094 253.038 214.204 253.038 213.038 254.203C211.873 255.369 211.873 257.259 213.038 258.425C214.204 259.59 216.094 259.59 217.259 258.425Z" fill="#9BA7FF"/>
<path d="M-156.657 -183.525C-155.348 -184.834 -155.348 -186.958 -156.657 -188.268C-157.967 -189.578 -160.091 -189.578 -161.401 -188.268C-162.711 -186.958 -162.711 -184.834 -161.401 -183.525C-160.091 -182.215 -157.967 -182.215 -156.657 -183.525Z" fill="#9BA7FF"/>
<path d="M-121.094 -147.961C-118.929 -150.125 -118.929 -153.635 -121.094 -155.8C-123.258 -157.965 -126.768 -157.965 -128.933 -155.8C-131.097 -153.635 -131.097 -150.125 -128.933 -147.961C-126.768 -145.796 -123.258 -145.796 -121.094 -147.961Z" fill="#9BA7FF"/>
<path d="M-85.5095 -112.377C-82.4789 -115.407 -82.4789 -120.321 -85.5095 -123.351C-88.5401 -126.382 -93.4538 -126.382 -96.4844 -123.351C-99.515 -120.321 -99.515 -115.407 -96.4844 -112.377C-93.4538 -109.346 -88.5402 -109.346 -85.5095 -112.377Z" fill="#9BA7FF"/>
<path d="M-49.9456 -76.8126C-46.0602 -80.6981 -46.0602 -86.9975 -49.9456 -90.883C-53.831 -94.7684 -60.1305 -94.7684 -64.0159 -90.883C-67.9014 -86.9976 -67.9014 -80.6981 -64.0159 -76.8126C-60.1305 -72.9272 -53.831 -72.9272 -49.9456 -76.8126Z" fill="#9BA7FF"/>
<path d="M-14.3616 -41.2286C-9.61029 -45.9799 -9.61026 -53.6833 -14.3616 -58.4346C-19.1129 -63.1859 -26.8163 -63.1859 -31.5676 -58.4346C-36.3189 -53.6833 -36.3189 -45.9799 -31.5676 -41.2286C-26.8163 -36.4773 -19.1129 -36.4773 -14.3616 -41.2286Z" fill="#9BA7FF"/>
<path d="M21.2023 -5.6647C26.8084 -11.2708 26.8084 -20.3601 21.2023 -25.9662C15.5963 -31.5723 6.50694 -31.5723 0.900848 -25.9662C-4.70525 -20.3601 -4.70525 -11.2708 0.900848 -5.6647C6.50694 -0.0586243 15.5963 -0.0585938 21.2023 -5.6647Z" fill="#9BA7FF"/>
<path d="M56.7864 29.9193C63.2584 23.4473 63.2584 12.9542 56.7864 6.48218C50.3144 0.0101929 39.8212 0.0101929 33.3492 6.48218C26.8772 12.9542 26.8772 23.4473 33.3492 29.9193C39.8212 36.3913 50.3144 36.3913 56.7864 29.9193Z" fill="#9BA7FF"/>
<path d="M89.2347 62.3677C94.8408 56.7616 94.8408 47.6723 89.2347 42.0662C83.6286 36.4601 74.5393 36.4601 68.9332 42.0662C63.3271 47.6723 63.3271 56.7616 68.9333 62.3677C74.5393 67.9738 83.6286 67.9738 89.2347 62.3677Z" fill="#9BA7FF"/>
<path d="M121.703 94.8361C126.454 90.0848 126.454 82.3814 121.703 77.6301C116.952 72.8788 109.248 72.8788 104.497 77.6301C99.7458 82.3814 99.7458 90.0848 104.497 94.8361C109.248 99.5874 116.952 99.5874 121.703 94.8361Z" fill="#9BA7FF"/>
<path d="M154.151 127.284C158.037 123.399 158.037 117.1 154.151 113.214C150.266 109.329 143.967 109.329 140.081 113.214C136.196 117.1 136.196 123.399 140.081 127.284C143.967 131.17 150.266 131.17 154.151 127.284Z" fill="#9BA7FF"/>
<path d="M186.62 159.753C189.651 156.722 189.651 151.809 186.62 148.778C183.589 145.747 178.676 145.747 175.645 148.778C172.615 151.809 172.615 156.722 175.645 159.753C178.676 162.784 183.589 162.784 186.62 159.753Z" fill="#9BA7FF"/>
<path d="M219.068 192.201C221.233 190.037 221.233 186.527 219.068 184.362C216.904 182.197 213.394 182.197 211.229 184.362C209.064 186.527 209.064 190.037 211.229 192.201C213.394 194.366 216.904 194.366 219.068 192.201Z" fill="#9BA7FF"/>
<path d="M251.537 224.67C252.847 223.36 252.847 221.236 251.537 219.926C250.227 218.616 248.103 218.616 246.793 219.926C245.483 221.236 245.483 223.36 246.793 224.67C248.103 225.98 250.227 225.98 251.537 224.67Z" fill="#9BA7FF"/>
<path d="M-122.4 -217.3C-120.957 -218.743 -120.957 -221.082 -122.4 -222.526C-123.843 -223.969 -126.183 -223.969 -127.626 -222.526C-129.069 -221.082 -129.069 -218.743 -127.626 -217.299C-126.183 -215.856 -123.843 -215.856 -122.4 -217.3Z" fill="#9BA7FF"/>
<path d="M-86.5547 -181.454C-84.1014 -183.908 -84.1014 -187.885 -86.5547 -190.339C-89.0081 -192.792 -92.9858 -192.792 -95.4392 -190.339C-97.8925 -187.885 -97.8925 -183.908 -95.4392 -181.454C-92.9858 -179.001 -89.0081 -179.001 -86.5547 -181.454Z" fill="#9BA7FF"/>
<path d="M-50.7295 -145.629C-47.2771 -149.081 -47.2771 -154.679 -50.7295 -158.131C-54.182 -161.584 -59.7795 -161.584 -63.232 -158.131C-66.6845 -154.679 -66.6845 -149.081 -63.232 -145.629C-59.7795 -142.176 -54.182 -142.176 -50.7295 -145.629Z" fill="#9BA7FF"/>
<path d="M-14.8842 -109.784C-10.4215 -114.246 -10.4215 -121.482 -14.8842 -125.944C-19.3469 -130.407 -26.5823 -130.407 -31.045 -125.944C-35.5076 -121.482 -35.5076 -114.246 -31.045 -109.784C-26.5823 -105.321 -19.3469 -105.321 -14.8842 -109.784Z" fill="#9BA7FF"/>
<path d="M20.941 -73.9584C26.4028 -79.4202 26.4028 -88.2755 20.941 -93.7372C15.4792 -99.199 6.62398 -99.199 1.16219 -93.7372C-4.29959 -88.2755 -4.29959 -79.4202 1.16219 -73.9584C6.62398 -68.4966 15.4792 -68.4966 20.941 -73.9584Z" fill="#9BA7FF"/>
<path d="M56.7864 -38.1131C63.2584 -44.5851 63.2584 -55.0782 56.7864 -61.5502C50.3144 -68.0222 39.8212 -68.0222 33.3492 -61.5502C26.8772 -55.0782 26.8772 -44.5851 33.3492 -38.1131C39.8212 -31.6411 50.3144 -31.6411 56.7864 -38.1131Z" fill="#9BA7FF"/>
<path d="M92.6116 -2.28781C100.083 -9.75891 100.083 -21.872 92.6116 -29.3431C85.1405 -36.8142 73.0275 -36.8142 65.5564 -29.3431C58.0853 -21.872 58.0853 -9.75891 65.5564 -2.28781C73.0275 5.18329 85.1405 5.18329 92.6116 -2.28781Z" fill="#9BA7FF"/>
<path d="M124.819 29.9193C131.291 23.4473 131.291 12.9542 124.819 6.48218C118.347 0.0101929 107.854 0.0101929 101.382 6.48218C94.9096 12.9542 94.9096 23.4473 101.382 29.9193C107.854 36.3913 118.347 36.3913 124.819 29.9193Z" fill="#9BA7FF"/>
<path d="M157.006 62.1064C162.468 56.6446 162.468 47.7893 157.006 42.3275C151.544 36.8657 142.689 36.8657 137.227 42.3275C131.765 47.7892 131.765 56.6446 137.227 62.1064C142.689 67.5681 151.544 67.5681 157.006 62.1064Z" fill="#9BA7FF"/>
<path d="M189.213 94.3135C193.676 89.8508 193.676 82.6154 189.213 78.1527C184.75 73.6901 177.515 73.6901 173.052 78.1527C168.589 82.6154 168.589 89.8508 173.052 94.3134C177.515 98.7761 184.75 98.7762 189.213 94.3135Z" fill="#9BA7FF"/>
<path d="M221.4 126.501C224.852 123.048 224.852 117.451 221.4 113.998C217.947 110.546 212.35 110.546 208.897 113.998C205.445 117.451 205.445 123.048 208.897 126.501C212.35 129.953 217.947 129.953 221.4 126.501Z" fill="#9BA7FF"/>
<path d="M253.607 158.708C256.06 156.254 256.06 152.277 253.607 149.823C251.154 147.37 247.176 147.37 244.723 149.823C242.269 152.277 242.269 156.254 244.723 158.708C247.176 161.161 251.154 161.161 253.607 158.708Z" fill="#9BA7FF"/>
<path d="M285.794 190.895C287.237 189.452 287.237 187.112 285.794 185.669C284.351 184.225 282.011 184.225 280.568 185.669C279.125 187.112 279.125 189.452 280.568 190.895C282.011 192.338 284.351 192.338 285.794 190.895Z" fill="#9BA7FF"/>
<path d="M-88.6251 -251.557C-87.3152 -252.867 -87.3152 -254.991 -88.6251 -256.301C-89.935 -257.611 -92.0589 -257.611 -93.3688 -256.301C-94.6787 -254.991 -94.6788 -252.867 -93.3688 -251.557C-92.0589 -250.247 -89.935 -250.247 -88.6251 -251.557Z" fill="#9BA7FF"/>
<path d="M-53.0612 -215.993C-50.8964 -218.158 -50.8964 -221.667 -53.0612 -223.832C-55.2259 -225.997 -58.7356 -225.997 -60.9003 -223.832C-63.0651 -221.667 -63.0651 -218.158 -60.9004 -215.993C-58.7356 -213.828 -55.2259 -213.828 -53.0612 -215.993Z" fill="#9BA7FF"/>
<path d="M-17.4771 -180.409C-14.4465 -183.44 -14.4465 -188.353 -17.4771 -191.384C-20.5078 -194.414 -25.4214 -194.414 -28.452 -191.384C-31.4826 -188.353 -31.4826 -183.44 -28.452 -180.409C-25.4214 -177.378 -20.5078 -177.378 -17.4771 -180.409Z" fill="#9BA7FF"/>
<path d="M18.0868 -144.845C21.9722 -148.73 21.9722 -155.03 18.0868 -158.915C14.2014 -162.801 7.90187 -162.801 4.01645 -158.915C0.131027 -155.03 0.131027 -148.73 4.01645 -144.845C7.90187 -140.96 14.2014 -140.96 18.0868 -144.845Z" fill="#9BA7FF"/>
<path d="M53.6708 -109.261C58.4221 -114.012 58.4221 -121.716 53.6708 -126.467C48.9195 -131.218 41.2161 -131.218 36.4648 -126.467C31.7135 -121.716 31.7135 -114.012 36.4648 -109.261C41.2161 -104.51 48.9195 -104.51 53.6708 -109.261Z" fill="#9BA7FF"/>
<path d="M89.2347 -73.6971C94.8408 -79.3032 94.8408 -88.3925 89.2347 -93.9986C83.6286 -99.6047 74.5393 -99.6047 68.9333 -93.9986C63.3271 -88.3925 63.3271 -79.3032 68.9332 -73.6971C74.5393 -68.091 83.6286 -68.091 89.2347 -73.6971Z" fill="#9BA7FF"/>
<path d="M124.819 -38.1131C131.291 -44.5851 131.291 -55.0782 124.819 -61.5502C118.347 -68.0222 107.854 -68.0222 101.382 -61.5502C94.9096 -55.0782 94.9096 -44.5851 101.382 -38.1131C107.854 -31.6411 118.347 -31.6411 124.819 -38.1131Z" fill="#9BA7FF"/>
<path d="M157.267 -5.6647C162.873 -11.2708 162.873 -20.3601 157.267 -25.9662C151.661 -31.5723 142.572 -31.5723 136.966 -25.9662C131.36 -20.3601 131.36 -11.2708 136.966 -5.6647C142.572 -0.0585938 151.661 -0.0585938 157.267 -5.6647Z" fill="#9BA7FF"/>
<path d="M189.736 26.8037C194.487 22.0524 194.487 14.349 189.736 9.59772C184.984 4.84644 177.281 4.84641 172.53 9.59772C167.778 14.349 167.778 22.0525 172.53 26.8037C177.281 31.5551 184.984 31.5551 189.736 26.8037Z" fill="#9BA7FF"/>
<path d="M222.184 59.2521C226.069 55.3667 226.069 49.0671 222.184 45.1817C218.298 41.2963 211.999 41.2963 208.114 45.1817C204.228 49.0671 204.228 55.3667 208.114 59.2521C211.999 63.1375 218.298 63.1375 222.184 59.2521Z" fill="#9BA7FF"/>
<path d="M254.652 91.7205C257.683 88.6899 257.683 83.7763 254.652 80.7457C251.622 77.715 246.708 77.715 243.677 80.7457C240.647 83.7763 240.647 88.6899 243.677 91.7205C246.708 94.7512 251.622 94.7512 254.652 91.7205Z" fill="#9BA7FF"/>
<path d="M287.101 124.169C289.265 122.004 289.265 118.494 287.101 116.33C284.936 114.165 281.426 114.165 279.262 116.33C277.097 118.494 277.097 122.004 279.262 124.169C281.426 126.334 284.936 126.334 287.101 124.169Z" fill="#9BA7FF"/>
<path d="M319.569 156.637C320.879 155.327 320.879 153.204 319.569 151.894C318.259 150.584 316.135 150.584 314.825 151.894C313.515 153.204 313.516 155.327 314.825 156.637C316.135 157.947 318.259 157.947 319.569 156.637Z" fill="#9BA7FF"/>
<path d="M-54.8702 -285.834C-53.7046 -287 -53.7046 -288.89 -54.8702 -290.055C-56.0359 -291.221 -57.9257 -291.221 -59.0913 -290.055C-60.2569 -288.89 -60.2569 -287 -59.0913 -285.834C-57.9257 -284.669 -56.0358 -284.669 -54.8702 -285.834Z" fill="#9BA7FF"/>
<path d="M-19.5676 -250.532C-17.6915 -252.408 -17.6915 -255.45 -19.5676 -257.326C-21.4437 -259.202 -24.4855 -259.202 -26.3616 -257.326C-28.2377 -255.45 -28.2377 -252.408 -26.3616 -250.532C-24.4855 -248.656 -21.4437 -248.656 -19.5676 -250.532Z" fill="#9BA7FF"/>
<path d="M15.7551 -215.209C18.3528 -217.807 18.3528 -222.018 15.7551 -224.616C13.1574 -227.214 8.94579 -227.214 6.3481 -224.616C3.75043 -222.018 3.7504 -217.807 6.34808 -215.209C8.94576 -212.611 13.1574 -212.611 15.7551 -215.209Z" fill="#9BA7FF"/>
<path d="M51.0577 -179.906C54.3659 -183.215 54.3659 -188.578 51.0577 -191.886C47.7496 -195.194 42.386 -195.194 39.0779 -191.886C35.7697 -188.578 35.7697 -183.215 39.0778 -179.906C42.386 -176.598 47.7496 -176.598 51.0577 -179.906Z" fill="#9BA7FF"/>
<path d="M86.3804 -144.584C90.4102 -148.613 90.4102 -155.147 86.3804 -159.177C82.3507 -163.206 75.8172 -163.206 71.7875 -159.177C67.7578 -155.147 67.7578 -148.613 71.7875 -144.584C75.8172 -140.554 82.3507 -140.554 86.3804 -144.584Z" fill="#9BA7FF"/>
<path d="M121.703 -109.261C126.454 -114.012 126.454 -121.716 121.703 -126.467C116.952 -131.218 109.248 -131.218 104.497 -126.467C99.7458 -121.716 99.7458 -114.012 104.497 -109.261C109.248 -104.51 116.952 -104.51 121.703 -109.261Z" fill="#9BA7FF"/>
<path d="M157.006 -73.9584C162.468 -79.4202 162.468 -88.2755 157.006 -93.7372C151.544 -99.199 142.689 -99.199 137.227 -93.7372C131.765 -88.2755 131.765 -79.4201 137.227 -73.9584C142.689 -68.4966 151.544 -68.4966 157.006 -73.9584Z" fill="#9BA7FF"/>
<path d="M189.736 -41.2286C194.487 -45.9799 194.487 -53.6833 189.736 -58.4346C184.984 -63.1859 177.281 -63.1859 172.53 -58.4346C167.778 -53.6833 167.778 -45.9799 172.53 -41.2286C177.281 -36.4773 184.984 -36.4773 189.736 -41.2286Z" fill="#9BA7FF"/>
<path d="M222.445 -8.51901C226.475 -12.5487 226.475 -19.0822 222.445 -23.1119C218.415 -27.1416 211.882 -27.1417 207.852 -23.1119C203.823 -19.0822 203.823 -12.5487 207.852 -8.51895C211.882 -4.48923 218.415 -4.48926 222.445 -8.51901Z" fill="#9BA7FF"/>
<path d="M255.155 24.1907C258.463 20.8825 258.463 15.5189 255.155 12.2108C251.847 8.90262 246.483 8.90262 243.175 12.2108C239.867 15.5189 239.867 20.8825 243.175 24.1907C246.483 27.4988 251.847 27.4988 255.155 24.1907Z" fill="#9BA7FF"/>
<path d="M287.885 56.9204C290.482 54.3227 290.482 50.1111 287.885 47.5134C285.287 44.9157 281.075 44.9157 278.478 47.5134C275.88 50.1111 275.88 54.3228 278.478 56.9204C281.075 59.5181 285.287 59.5181 287.885 56.9204Z" fill="#9BA7FF"/>
<path d="M320.594 89.6301C322.47 87.754 322.47 84.7123 320.594 82.8362C318.718 80.9601 315.676 80.96 313.8 82.8361C311.924 84.7122 311.924 87.754 313.8 89.6301C315.676 91.5062 318.718 91.5062 320.594 89.6301Z" fill="#9BA7FF"/>
<path d="M353.324 122.36C354.49 121.194 354.49 119.304 353.324 118.139C352.158 116.973 350.269 116.973 349.103 118.139C347.937 119.304 347.937 121.194 349.103 122.36C350.269 123.525 352.158 123.525 353.324 122.36Z" fill="#9BA7FF"/>
<path d="M13.9259 -285.071C15.5134 -286.658 15.5134 -289.232 13.926 -290.819C12.3385 -292.407 9.76468 -292.407 8.17722 -290.819C6.58974 -289.232 6.58977 -286.658 8.17723 -285.071C9.76471 -283.483 12.3385 -283.483 13.9259 -285.071Z" fill="#9BA7FF"/>
<path d="M48.9874 -250.009C51.1521 -252.174 51.1521 -255.684 48.9874 -257.848C46.8227 -260.013 43.3129 -260.013 41.1482 -257.848C38.9835 -255.684 38.9835 -252.174 41.1482 -250.009C43.3129 -247.844 46.8226 -247.844 48.9874 -250.009Z" fill="#9BA7FF"/>
<path d="M84.0488 -214.948C86.7907 -217.69 86.7908 -222.135 84.0488 -224.877C81.3068 -227.619 76.8611 -227.619 74.1191 -224.877C71.3771 -222.135 71.3771 -217.69 74.1191 -214.948C76.8611 -212.206 81.3068 -212.206 84.0488 -214.948Z" fill="#9BA7FF"/>
<path d="M119.09 -179.906C122.398 -183.215 122.398 -188.578 119.09 -191.886C115.782 -195.194 110.418 -195.194 107.11 -191.886C103.802 -188.578 103.802 -183.215 107.11 -179.906C110.418 -176.598 115.782 -176.598 119.09 -179.906Z" fill="#9BA7FF"/>
<path d="M154.151 -144.845C158.037 -148.73 158.037 -155.03 154.151 -158.915C150.266 -162.801 143.967 -162.801 140.081 -158.915C136.196 -155.03 136.196 -148.73 140.081 -144.845C143.967 -140.96 150.266 -140.96 154.151 -144.845Z" fill="#9BA7FF"/>
<path d="M189.213 -109.784C193.676 -114.246 193.676 -121.482 189.213 -125.944C184.75 -130.407 177.515 -130.407 173.052 -125.944C168.589 -121.482 168.589 -114.246 173.052 -109.784C177.515 -105.321 184.75 -105.321 189.213 -109.784Z" fill="#9BA7FF"/>
<path d="M222.184 -76.8126C226.069 -80.698 226.069 -86.9975 222.184 -90.8829C218.298 -94.7684 211.999 -94.7684 208.114 -90.8829C204.228 -86.9975 204.228 -80.698 208.114 -76.8126C211.999 -72.9272 218.298 -72.9272 222.184 -76.8126Z" fill="#9BA7FF"/>
<path d="M255.155 -43.8417C258.463 -47.1498 258.463 -52.5134 255.155 -55.8216C251.847 -59.1297 246.483 -59.1297 243.175 -55.8216C239.867 -52.5134 239.867 -47.1498 243.175 -43.8417C246.483 -40.5335 251.847 -40.5335 255.155 -43.8417Z" fill="#9BA7FF"/>
<path d="M288.146 -10.8506C290.888 -13.5926 290.888 -18.0383 288.146 -20.7802C285.404 -23.5222 280.958 -23.5222 278.216 -20.7802C275.474 -18.0383 275.474 -13.5926 278.216 -10.8506C280.958 -8.10864 285.404 -8.10864 288.146 -10.8506Z" fill="#9BA7FF"/>
<path d="M321.117 22.1203C323.282 19.9556 323.282 16.4459 321.117 14.2812C318.952 12.1164 315.442 12.1164 313.278 14.2812C311.113 16.4459 311.113 19.9556 313.278 22.1203C315.442 24.2851 318.952 24.2851 321.117 22.1203Z" fill="#9BA7FF"/>
<path d="M354.088 55.0913C355.675 53.5038 355.675 50.93 354.088 49.3425C352.5 47.7551 349.927 47.7551 348.339 49.3425C346.752 50.93 346.752 53.5038 348.339 55.0913C349.927 56.6788 352.5 56.6788 354.088 55.0913Z" fill="#9BA7FF"/>
<path d="M47.4396 -319.589C48.7496 -320.899 48.7496 -323.023 47.4396 -324.333C46.1297 -325.643 44.0059 -325.643 42.6959 -324.333C41.386 -323.023 41.386 -320.899 42.6959 -319.589C44.0059 -318.279 46.1297 -318.279 47.4396 -319.589Z" fill="#9BA7FF"/>
<path d="M82.2196 -284.809C83.9514 -286.541 83.9514 -289.349 82.2196 -291.081C80.4879 -292.812 77.6801 -292.812 75.9483 -291.081C74.2165 -289.349 74.2165 -286.541 75.9483 -284.809C77.6801 -283.077 80.4879 -283.077 82.2196 -284.809Z" fill="#9BA7FF"/>
<path d="M117.02 -250.009C119.184 -252.174 119.184 -255.684 117.02 -257.848C114.855 -260.013 111.345 -260.013 109.181 -257.848C107.016 -255.684 107.016 -252.174 109.181 -250.009C111.345 -247.844 114.855 -247.844 117.02 -250.009Z" fill="#9BA7FF"/>
<path d="M151.82 -215.209C154.418 -217.807 154.418 -222.018 151.82 -224.616C149.222 -227.214 145.01 -227.214 142.413 -224.616C139.815 -222.018 139.815 -217.807 142.413 -215.209C145.01 -212.611 149.222 -212.611 151.82 -215.209Z" fill="#9BA7FF"/>
<path d="M186.62 -180.409C189.651 -183.44 189.651 -188.353 186.62 -191.384C183.589 -194.414 178.676 -194.414 175.645 -191.384C172.615 -188.353 172.615 -183.44 175.645 -180.409C178.676 -177.378 183.589 -177.378 186.62 -180.409Z" fill="#9BA7FF"/>
<path d="M221.4 -145.629C224.852 -149.081 224.852 -154.679 221.4 -158.131C217.947 -161.584 212.35 -161.584 208.897 -158.131C205.445 -154.679 205.445 -149.081 208.897 -145.629C212.35 -142.176 217.947 -142.176 221.4 -145.629Z" fill="#9BA7FF"/>
<path d="M254.652 -112.377C257.683 -115.407 257.683 -120.321 254.652 -123.351C251.622 -126.382 246.708 -126.382 243.677 -123.351C240.647 -120.321 240.647 -115.407 243.677 -112.377C246.708 -109.346 251.622 -109.346 254.652 -112.377Z" fill="#9BA7FF"/>
<path d="M287.885 -79.1443C290.482 -81.742 290.482 -85.9536 287.885 -88.5513C285.287 -91.149 281.075 -91.149 278.478 -88.5513C275.88 -85.9537 275.88 -81.742 278.478 -79.1443C281.075 -76.5466 285.287 -76.5466 287.885 -79.1443Z" fill="#9BA7FF"/>
<path d="M321.117 -45.912C323.282 -48.0768 323.282 -51.5865 321.117 -53.7512C318.952 -55.916 315.442 -55.916 313.278 -53.7512C311.113 -51.5865 311.113 -48.0768 313.278 -45.912C315.442 -43.7473 318.952 -43.7473 321.117 -45.912Z" fill="#9BA7FF"/>
<path d="M354.349 -12.6797C356.081 -14.4116 356.081 -17.2193 354.349 -18.9511C352.617 -20.6829 349.81 -20.6829 348.078 -18.9511C346.346 -17.2193 346.346 -14.4116 348.078 -12.6797C349.81 -10.948 352.617 -10.948 354.349 -12.6797Z" fill="#9BA7FF"/>
<path d="M387.601 20.5726C388.911 19.2626 388.911 17.1388 387.602 15.8289C386.292 14.519 384.168 14.519 382.858 15.8289C381.548 17.1388 381.548 19.2626 382.858 20.5726C384.168 21.8825 386.292 21.8825 387.601 20.5726Z" fill="#9BA7FF"/>
<path d="M115.472 -319.589C116.782 -320.899 116.782 -323.023 115.472 -324.333C114.162 -325.643 112.038 -325.643 110.728 -324.333C109.418 -323.023 109.418 -320.899 110.728 -319.589C112.038 -318.279 114.162 -318.279 115.472 -319.589Z" fill="#9BA7FF"/>
<path d="M149.991 -285.071C151.578 -286.658 151.578 -289.232 149.991 -290.819C148.403 -292.407 145.829 -292.407 144.242 -290.819C142.654 -289.232 142.654 -286.658 144.242 -285.071C145.829 -283.483 148.403 -283.483 149.991 -285.071Z" fill="#9BA7FF"/>
<path d="M184.53 -250.532C186.406 -252.408 186.406 -255.45 184.53 -257.326C182.653 -259.202 179.612 -259.202 177.736 -257.326C175.859 -255.45 175.859 -252.408 177.736 -250.532C179.612 -248.656 182.653 -248.656 184.53 -250.532Z" fill="#9BA7FF"/>
<path d="M219.068 -215.993C221.233 -218.158 221.233 -221.667 219.068 -223.832C216.904 -225.997 213.394 -225.997 211.229 -223.832C209.064 -221.667 209.064 -218.158 211.229 -215.993C213.394 -213.828 216.904 -213.828 219.068 -215.993Z" fill="#9BA7FF"/>
<path d="M253.607 -181.454C256.06 -183.908 256.06 -187.885 253.607 -190.339C251.154 -192.792 247.176 -192.792 244.723 -190.339C242.269 -187.885 242.269 -183.908 244.723 -181.454C247.176 -179.001 251.154 -179.001 253.607 -181.454Z" fill="#9BA7FF"/>
<path d="M287.101 -147.961C289.265 -150.125 289.265 -153.635 287.101 -155.8C284.936 -157.964 281.426 -157.965 279.262 -155.8C277.097 -153.635 277.097 -150.125 279.262 -147.961C281.426 -145.796 284.936 -145.796 287.101 -147.961Z" fill="#9BA7FF"/>
<path d="M320.594 -114.467C322.47 -116.343 322.47 -119.385 320.594 -121.261C318.718 -123.137 315.676 -123.137 313.8 -121.261C311.924 -119.385 311.924 -116.343 313.8 -114.467C315.676 -112.591 318.718 -112.591 320.594 -114.467Z" fill="#9BA7FF"/>
<path d="M354.088 -80.9734C355.675 -82.5609 355.675 -85.1347 354.088 -86.7222C352.5 -88.3096 349.927 -88.3096 348.339 -86.7222C346.752 -85.1347 346.752 -82.5609 348.339 -80.9734C349.927 -79.386 352.5 -79.386 354.088 -80.9734Z" fill="#9BA7FF"/>
<path d="M387.602 -47.4598C388.911 -48.7697 388.911 -50.8935 387.601 -52.2035C386.292 -53.5134 384.168 -53.5134 382.858 -52.2035C381.548 -50.8935 381.548 -48.7697 382.858 -47.4598C384.168 -46.1498 386.292 -46.1498 387.602 -47.4598Z" fill="#9BA7FF"/>
<path d="M217.259 -285.834C218.425 -287 218.425 -288.89 217.259 -290.055C216.094 -291.221 214.204 -291.221 213.038 -290.055C211.873 -288.89 211.873 -287 213.038 -285.834C214.204 -284.669 216.094 -284.669 217.259 -285.834Z" fill="#9BA7FF"/>
<path d="M251.537 -251.557C252.847 -252.867 252.847 -254.991 251.537 -256.301C250.227 -257.611 248.103 -257.611 246.793 -256.301C245.483 -254.991 245.483 -252.867 246.793 -251.557C248.103 -250.247 250.227 -250.247 251.537 -251.557Z" fill="#9BA7FF"/>
<path d="M285.794 -217.299C287.237 -218.743 287.237 -221.082 285.794 -222.526C284.351 -223.969 282.011 -223.969 280.568 -222.526C279.125 -221.082 279.125 -218.743 280.568 -217.299C282.011 -215.856 284.351 -215.856 285.794 -217.299Z" fill="#9BA7FF"/>
<path d="M319.569 -183.525C320.879 -184.834 320.879 -186.958 319.569 -188.268C318.259 -189.578 316.135 -189.578 314.825 -188.268C313.516 -186.958 313.515 -184.834 314.825 -183.525C316.135 -182.215 318.259 -182.215 319.569 -183.525Z" fill="#9BA7FF"/>
<path d="M353.324 -149.77C354.49 -150.935 354.49 -152.825 353.324 -153.991C352.158 -155.156 350.269 -155.156 349.103 -153.991C347.937 -152.825 347.937 -150.935 349.103 -149.77C350.269 -148.604 352.158 -148.604 353.324 -149.77Z" fill="#9BA7FF"/>
</svg>
