<svg width="32" height="32" viewBox="0 0 32 32" fill="none" xmlns="http://www.w3.org/2000/svg">
<path d="M29.2927 24.44C29.2927 24.92 29.186 25.4133 28.9593 25.8933C28.7327 26.3733 28.4393 26.8266 28.0527 27.2533C27.3993 27.9733 26.6793 28.4933 25.866 28.8266C25.066 29.16 24.1993 29.3333 23.266 29.3333C21.906 29.3333 20.4527 29.0133 18.9193 28.36C17.386 27.7066 15.8527 26.8266 14.3327 25.72C12.7993 24.6 11.346 23.36 9.95935 21.9866C8.58602 20.6 7.34601 19.1466 6.23935 17.6266C5.14602 16.1066 4.26602 14.5866 3.62602 13.08C2.98602 11.56 2.66602 10.1066 2.66602 8.71996C2.66602 7.81329 2.82602 6.94663 3.14602 6.14663C3.46602 5.33329 3.97268 4.58663 4.67935 3.91996C5.53268 3.07996 6.46602 2.66663 7.45268 2.66663C7.82602 2.66663 8.19935 2.74663 8.53268 2.90663C8.87935 3.06663 9.18602 3.30663 9.42602 3.65329L12.5193 8.01329C12.7593 8.34663 12.9327 8.65329 13.0527 8.94663C13.1727 9.22663 13.2393 9.50663 13.2393 9.75996C13.2393 10.08 13.146 10.4 12.9593 10.7066C12.786 11.0133 12.5327 11.3333 12.2127 11.6533L11.1993 12.7066C11.0527 12.8533 10.986 13.0266 10.986 13.24C10.986 13.3466 10.9993 13.44 11.026 13.5466C11.066 13.6533 11.106 13.7333 11.1327 13.8133C11.3727 14.2533 11.786 14.8266 12.3727 15.52C12.9727 16.2133 13.6127 16.92 14.306 17.6266C15.026 18.3333 15.7193 18.9866 16.426 19.5866C17.1193 20.1733 17.6927 20.5733 18.146 20.8133C18.2127 20.84 18.2927 20.88 18.386 20.92C18.4927 20.96 18.5993 20.9733 18.7193 20.9733C18.946 20.9733 19.1193 20.8933 19.266 20.7466L20.2793 19.7466C20.6127 19.4133 20.9327 19.16 21.2393 19C21.546 18.8133 21.8527 18.72 22.186 18.72C22.4393 18.72 22.706 18.7733 22.9993 18.8933C23.2927 19.0133 23.5993 19.1866 23.9327 19.4133L28.346 22.5466C28.6927 22.7866 28.9327 23.0666 29.0793 23.4C29.2127 23.7333 29.2927 24.0666 29.2927 24.44Z" fill="#384CE3"/>
</svg>
