<svg width="32" height="32" viewBox="0 0 32 32" fill="none" xmlns="http://www.w3.org/2000/svg">
<g clip-path="url(#clip0_220_17992)">
<path d="M12.2005 9.98669C11.4539 9.98669 10.8672 10.5867 10.8672 11.32C10.8672 12.0534 11.4672 12.6534 12.2005 12.6534C12.9339 12.6534 13.5339 12.0534 13.5339 11.32C13.5339 10.5867 12.9339 9.98669 12.2005 9.98669Z" fill="#384CE3"/>
<path d="M28.6127 6.71996C27.4927 4.11996 25.026 2.66663 21.586 2.66663H10.4127C6.13268 2.66663 2.66602 6.13329 2.66602 10.4133V21.5866C2.66602 25.0266 4.11935 27.4933 6.71935 28.6133C6.97268 28.72 7.26602 28.6533 7.45268 28.4666L28.466 7.45329C28.666 7.25329 28.7327 6.95996 28.6127 6.71996ZM14.0393 16.32C13.5193 16.8266 12.8393 17.0666 12.1593 17.0666C11.4793 17.0666 10.7993 16.8133 10.2793 16.32C8.91935 15.04 7.42602 13 7.99935 10.5733C8.50602 8.37329 10.4527 7.38663 12.1593 7.38663C13.866 7.38663 15.8127 8.37329 16.3193 10.5866C16.8793 13 15.386 15.04 14.0393 16.32Z" fill="#384CE3"/>
<path d="M25.9605 27.3733C26.2538 27.6667 26.2138 28.1467 25.8538 28.3467C24.6805 29 23.2538 29.3333 21.5872 29.3333H10.4138C10.0272 29.3333 9.86718 28.88 10.1338 28.6133L18.1872 20.56C18.4538 20.2933 18.8672 20.2933 19.1338 20.56L25.9605 27.3733Z" fill="#384CE3"/>
<path d="M29.3324 10.4134V21.5867C29.3324 23.2534 28.999 24.6934 28.3457 25.8534C28.1457 26.2134 27.6657 26.24 27.3724 25.96L20.5457 19.1334C20.279 18.8667 20.279 18.4534 20.5457 18.1867L28.599 10.1334C28.879 9.86669 29.3324 10.0267 29.3324 10.4134Z" fill="#384CE3"/>
</g>
<defs>
<clipPath id="clip0_220_17992">
<rect width="32" height="32" fill="white"/>
</clipPath>
</defs>
</svg>
