<svg preserveAspectRatio="none" width="100%" height="100%" overflow="visible" style="display: block;" viewBox="0 0 26.6667 26.6667" fill="none" xmlns="http://www.w3.org/2000/svg">
<path id="Vector" d="M2.66667 21.3333C2.66667 22.8061 3.86057 24 5.33333 24H8V26.6667H0V18.6667H2.66667V21.3333ZM26.6667 26.6667H18.6667V24H21.3333C22.8061 24 24 22.8061 24 21.3333V18.6667H26.6667V26.6667ZM19.9257 9.80208L11.6511 18.8281L6.66667 13.8437L8.55208 11.9584L9.59765 13.0039C10.6709 14.0768 12.422 14.0389 13.4479 12.9205L17.9596 8L19.9257 9.80208ZM8 2.66667L5.33464 2.66536C3.86183 2.665 2.66701 3.85931 2.66667 5.33203V8H0V0H8V2.66667ZM26.6667 8H24V5.33333C24 3.86057 22.8061 2.66667 21.3333 2.66667H18.6667V0H26.6667V8Z" fill="var(--fill-0, #384CE3)"/>
</svg>
