<svg preserveAspectRatio="none" width="100%" height="100%" overflow="visible" style="display: block;" viewBox="0 0 26.6666 26.6667" fill="none" xmlns="http://www.w3.org/2000/svg">
<path id="Vector" d="M26.6666 26.6667H0V0H26.6666V26.6667ZM5.33724 2.78776C3.86449 2.78776 2.67057 3.98167 2.67057 5.45443V21.2123C2.67057 22.6849 3.86449 23.8789 5.33724 23.8789H21.3281C22.8009 23.8789 23.9948 22.6851 23.9948 21.2123V5.45443C23.9948 3.98167 22.8009 2.78776 21.3281 2.78776H5.33724ZM15.1953 15.2148C16.9277 15.2149 18.332 16.6205 18.332 18.3528V19.6068H8.29428V18.3528C8.29428 16.6205 9.69863 15.2149 11.431 15.2148H15.1953ZM13.3138 6.43229C15.3924 6.43263 17.0768 8.11792 17.0768 10.1966C17.0768 12.2752 15.3924 13.9607 13.3138 13.9609C11.2349 13.9609 9.54955 12.2755 9.54948 10.1966C9.54948 8.11772 11.2349 6.43229 13.3138 6.43229Z" fill="var(--fill-0, #384CE3)"/>
</svg>
