<svg preserveAspectRatio="none" width="100%" height="100%" overflow="visible" style="display: block;" viewBox="0 0 29.3333 28" fill="none" xmlns="http://www.w3.org/2000/svg">
<path id="Vector" d="M16 4H5.33333C3.86057 4 2.66667 5.19391 2.66667 6.66667V22.6667C2.66667 24.1395 3.86057 25.3333 5.33333 25.3333H21.3333C22.8061 25.3333 24 24.1395 24 22.6667V14.6667H26.6667V28H0V1.33333H16V4ZM9.33333 21.3333H6.66667V16H9.33333V21.3333ZM14.6667 21.3333H12V8H14.6667V21.3333ZM20 21.3333H17.3333V12H20V21.3333ZM25.0143 2.74349C25.2844 3.47313 25.8601 4.04891 26.5899 4.31901L29.3333 5.33333L26.5899 6.34765C25.8601 6.61776 25.2844 7.19353 25.0143 7.92317L24 10.6667L22.9857 7.92317C22.7156 7.19353 22.1399 6.61776 21.4101 6.34765L18.6667 5.33333L21.4101 4.31901C22.1399 4.04891 22.7156 3.47313 22.9857 2.74349L24 0L25.0143 2.74349Z" fill="var(--fill-0, #384CE3)"/>
</svg>
