<svg preserveAspectRatio="none" width="100%" height="100%" overflow="visible" style="display: block;" viewBox="0 0 15.6922 15.6923" fill="none" xmlns="http://www.w3.org/2000/svg">
<g id="Group">
<path id="Vector" d="M6.97014 0.698203L6.48985 5.1032C6.41071 5.82743 5.82743 6.41071 5.1032 6.48986L0.698207 6.97014L0 7.04603V8.64628L0.698207 8.72216L5.1032 9.20245C5.82743 9.2816 6.41071 9.86488 6.48985 10.5891L6.97014 14.9941L7.04603 15.6923H8.64628L8.72216 14.9941L9.20245 10.5891C9.28159 9.86488 9.86488 9.2816 10.5891 9.20245L14.9941 8.72216L15.6922 8.64627V7.04603L14.9941 6.97014L10.5891 6.48986C9.86488 6.41071 9.28159 5.82743 9.20245 5.1032L8.72216 0.698203L8.64626 0H7.04603L6.97014 0.698203Z" fill="var(--fill-0, white)"/>
</g>
</svg>
