<svg preserveAspectRatio="none" width="100%" height="100%" overflow="visible" style="display: block;" viewBox="0 0 26.6666 26.6667" fill="none" xmlns="http://www.w3.org/2000/svg">
<path id="Vector" d="M26.6666 26.6667H0V0H26.6666V26.6667ZM5.33724 2.78776C3.86449 2.78776 2.67057 3.98167 2.67057 5.45443V21.2123C2.67057 22.6851 3.86449 23.8789 5.33724 23.8789H21.3281C22.8009 23.8789 23.9948 22.6851 23.9948 21.2123V5.45443C23.9948 3.98167 22.8009 2.78776 21.3281 2.78776H5.33724ZM14.901 6.54557L19.9792 19.2448H16.5586L15.9232 17.6576H10.7005L10.0664 19.2448H6.64715L8.54948 14.4857L8.55079 14.4817L11.7265 6.54557H14.901ZM11.9688 14.4817H14.6549L13.3138 11.1251L11.9688 14.4817Z" fill="var(--fill-0, #384CE3)"/>
</svg>
