<svg width="389" height="294" viewBox="0 0 389 294" fill="none" xmlns="http://www.w3.org/2000/svg">
<path d="M-190.935 122.36C-189.769 121.194 -189.769 119.304 -190.935 118.139C-192.1 116.973 -193.99 116.973 -195.156 118.139C-196.321 119.304 -196.321 121.194 -195.156 122.36C-193.99 123.525 -192.1 123.525 -190.935 122.36Z" fill="#9BA7FF"/>
<path d="M-156.657 156.637C-155.347 155.327 -155.347 153.203 -156.657 151.893C-157.967 150.583 -160.091 150.583 -161.401 151.893C-162.711 153.203 -162.711 155.327 -161.401 156.637C-160.091 157.947 -157.967 157.947 -156.657 156.637Z" fill="#9BA7FF"/>
<path d="M-122.4 190.895C-120.957 189.451 -120.957 187.112 -122.4 185.668C-123.843 184.225 -126.183 184.225 -127.626 185.668C-129.069 187.112 -129.069 189.451 -127.626 190.894C-126.183 192.338 -123.843 192.338 -122.4 190.895Z" fill="#9BA7FF"/>
<path d="M-88.6249 224.669C-87.3149 223.36 -87.3149 221.236 -88.6248 219.926C-89.9348 218.616 -92.0586 218.616 -93.3686 219.926C-94.6785 221.236 -94.6785 223.36 -93.3686 224.669C-92.0586 225.979 -89.9348 225.979 -88.6249 224.669Z" fill="#9BA7FF"/>
<path d="M-54.87 258.424C-53.7044 257.259 -53.7044 255.369 -54.87 254.203C-56.0356 253.038 -57.9255 253.038 -59.0911 254.203C-60.2567 255.369 -60.2567 257.259 -59.0911 258.424C-57.9255 259.59 -56.0356 259.59 -54.87 258.424Z" fill="#9BA7FF"/>
<path d="M-224.69 20.5724C-223.38 19.2624 -223.38 17.1386 -224.69 15.8286C-226 14.5187 -228.123 14.5187 -229.433 15.8286C-230.743 17.1386 -230.743 19.2624 -229.433 20.5724C-228.123 21.8823 -226 21.8823 -224.69 20.5724Z" fill="#9BA7FF"/>
<path d="M-190.171 55.0911C-188.583 53.5036 -188.583 50.9298 -190.171 49.3423C-191.758 47.7549 -194.332 47.7549 -195.92 49.3423C-197.507 50.9298 -197.507 53.5036 -195.92 55.0911C-194.332 56.6785 -191.758 56.6785 -190.171 55.0911Z" fill="#9BA7FF"/>
<path d="M-155.632 89.6299C-153.756 87.7538 -153.756 84.712 -155.632 82.8359C-157.508 80.9598 -160.55 80.9598 -162.426 82.8359C-164.302 84.712 -164.302 87.7538 -162.426 89.6299C-160.55 91.506 -157.508 91.506 -155.632 89.6299Z" fill="#9BA7FF"/>
<path d="M-121.093 124.169C-118.929 122.004 -118.929 118.494 -121.093 116.329C-123.258 114.165 -126.768 114.165 -128.933 116.329C-131.097 118.494 -131.097 122.004 -128.933 124.169C-126.768 126.333 -123.258 126.333 -121.093 124.169Z" fill="#9BA7FF"/>
<path d="M-86.5545 158.707C-84.1012 156.254 -84.1012 152.276 -86.5545 149.823C-89.0079 147.37 -92.9855 147.37 -95.4389 149.823C-97.8923 152.276 -97.8923 156.254 -95.4389 158.707C-92.9855 161.161 -89.0079 161.161 -86.5545 158.707Z" fill="#9BA7FF"/>
<path d="M-53.0609 192.201C-50.8962 190.036 -50.8962 186.527 -53.0609 184.362C-55.2257 182.197 -58.7354 182.197 -60.9001 184.362C-63.0649 186.527 -63.0648 190.036 -60.9001 192.201C-58.7354 194.366 -55.2257 194.366 -53.0609 192.201Z" fill="#9BA7FF"/>
<path d="M-19.5674 225.695C-17.6913 223.818 -17.6913 220.777 -19.5674 218.901C-21.4435 217.025 -24.4852 217.025 -26.3613 218.901C-28.2374 220.777 -28.2374 223.818 -26.3613 225.695C-24.4852 227.571 -21.4435 227.571 -19.5674 225.695Z" fill="#9BA7FF"/>
<path d="M13.9262 259.188C15.5137 257.601 15.5137 255.027 13.9262 253.439C12.3387 251.852 9.76495 251.852 8.17747 253.439C6.59001 255.027 6.58998 257.601 8.17746 259.188C9.76492 260.776 12.3387 260.776 13.9262 259.188Z" fill="#9BA7FF"/>
<path d="M47.4399 292.702C48.7498 291.392 48.7498 289.268 47.4399 287.958C46.1299 286.648 44.0061 286.648 42.6962 287.958C41.3862 289.268 41.3862 291.392 42.6962 292.702C44.0061 294.012 46.1299 294.012 47.4399 292.702Z" fill="#9BA7FF"/>
<path d="M-224.69 -47.46C-223.38 -48.77 -223.38 -50.8938 -224.69 -52.2037C-226 -53.5137 -228.123 -53.5137 -229.433 -52.2037C-230.743 -50.8938 -230.743 -48.77 -229.433 -47.46C-228.123 -46.1501 -226 -46.1501 -224.69 -47.46Z" fill="#9BA7FF"/>
<path d="M-189.91 -12.68C-188.178 -14.4118 -188.178 -17.2196 -189.91 -18.9514C-191.641 -20.6831 -194.449 -20.6831 -196.181 -18.9514C-197.913 -17.2196 -197.913 -14.4118 -196.181 -12.68C-194.449 -10.9482 -191.641 -10.9482 -189.91 -12.68Z" fill="#9BA7FF"/>
<path d="M-155.109 22.1201C-152.945 19.9554 -152.945 16.4456 -155.109 14.2809C-157.274 12.1162 -160.784 12.1162 -162.949 14.2809C-165.113 16.4456 -165.113 19.9554 -162.949 22.1201C-160.784 24.2848 -157.274 24.2848 -155.109 22.1201Z" fill="#9BA7FF"/>
<path d="M-120.309 56.9202C-117.712 54.3225 -117.712 50.1108 -120.309 47.5132C-122.907 44.9155 -127.119 44.9155 -129.716 47.5132C-132.314 50.1108 -132.314 54.3225 -129.716 56.9202C-127.119 59.5179 -122.907 59.5179 -120.309 56.9202Z" fill="#9BA7FF"/>
<path d="M-85.5093 91.7203C-82.4787 88.6897 -82.4787 83.7761 -85.5093 80.7455C-88.5399 77.7148 -93.4535 77.7148 -96.4841 80.7455C-99.5148 83.7761 -99.5148 88.6897 -96.4841 91.7203C-93.4535 94.7509 -88.5399 94.7509 -85.5093 91.7203Z" fill="#9BA7FF"/>
<path d="M-50.7293 126.5C-47.2768 123.048 -47.2768 117.45 -50.7293 113.998C-54.1817 110.545 -59.7793 110.545 -63.2318 113.998C-66.6842 117.45 -66.6842 123.048 -63.2318 126.5C-59.7793 129.953 -54.1817 129.953 -50.7293 126.5Z" fill="#9BA7FF"/>
<path d="M-17.4769 159.753C-14.4463 156.722 -14.4463 151.808 -17.4769 148.778C-20.5075 145.747 -25.4211 145.747 -28.4518 148.778C-31.4824 151.808 -31.4824 156.722 -28.4518 159.753C-25.4211 162.783 -20.5075 162.783 -17.4769 159.753Z" fill="#9BA7FF"/>
<path d="M15.7554 192.985C18.353 190.387 18.353 186.176 15.7554 183.578C13.1577 180.98 8.946 180.98 6.34833 183.578C3.75064 186.176 3.75067 190.387 6.34834 192.985C8.94603 195.583 13.1577 195.583 15.7554 192.985Z" fill="#9BA7FF"/>
<path d="M48.9876 226.217C51.1524 224.052 51.1523 220.543 48.9876 218.378C46.8229 216.213 43.3132 216.213 41.1484 218.378C38.9837 220.543 38.9837 224.052 41.1484 226.217C43.3132 228.382 46.8229 228.382 48.9876 226.217Z" fill="#9BA7FF"/>
<path d="M82.2199 259.449C83.9517 257.718 83.9517 254.91 82.2199 253.178C80.4881 251.446 77.6803 251.446 75.9485 253.178C74.2168 254.91 74.2168 257.718 75.9485 259.449C77.6803 261.181 80.4881 261.181 82.2199 259.449Z" fill="#9BA7FF"/>
<path d="M115.472 292.702C116.782 291.392 116.782 289.268 115.472 287.958C114.162 286.648 112.038 286.648 110.729 287.958C109.419 289.268 109.419 291.392 110.729 292.702C112.038 294.012 114.162 294.012 115.472 292.702Z" fill="#9BA7FF"/>
<path d="M-190.171 -80.9737C-188.583 -82.5612 -188.583 -85.1349 -190.171 -86.7224C-191.758 -88.3099 -194.332 -88.3099 -195.92 -86.7224C-197.507 -85.1349 -197.507 -82.5612 -195.92 -80.9737C-194.332 -79.3862 -191.758 -79.3862 -190.171 -80.9737Z" fill="#9BA7FF"/>
<path d="M-155.109 -45.9123C-152.945 -48.077 -152.945 -51.5867 -155.109 -53.7515C-157.274 -55.9162 -160.784 -55.9162 -162.949 -53.7515C-165.113 -51.5867 -165.113 -48.077 -162.949 -45.9123C-160.784 -43.7475 -157.274 -43.7476 -155.109 -45.9123Z" fill="#9BA7FF"/>
<path d="M-120.048 -10.8509C-117.306 -13.5929 -117.306 -18.0385 -120.048 -20.7805C-122.79 -23.5225 -127.236 -23.5225 -129.978 -20.7805C-132.72 -18.0385 -132.72 -13.5929 -129.978 -10.8509C-127.236 -8.10889 -122.79 -8.10889 -120.048 -10.8509Z" fill="#9BA7FF"/>
<path d="M-85.0068 24.1904C-81.6986 20.8823 -81.6986 15.5187 -85.0068 12.2106C-88.3149 8.9024 -93.6785 8.9024 -96.9866 12.2106C-100.295 15.5187 -100.295 20.8823 -96.9866 24.1904C-93.6785 27.4986 -88.3149 27.4986 -85.0068 24.1904Z" fill="#9BA7FF"/>
<path d="M-49.9454 59.2518C-46.06 55.3664 -46.06 49.0669 -49.9454 45.1815C-53.8308 41.2961 -60.1303 41.2961 -64.0157 45.1815C-67.9011 49.0669 -67.9011 55.3664 -64.0157 59.2518C-60.1303 63.1372 -53.8308 63.1372 -49.9454 59.2518Z" fill="#9BA7FF"/>
<path d="M-14.884 94.3133C-10.4213 89.8506 -10.4213 82.6152 -14.8839 78.1525C-19.3466 73.6898 -26.582 73.6898 -31.0447 78.1525C-35.5074 82.6152 -35.5074 89.8506 -31.0447 94.3133C-26.582 98.7759 -19.3466 98.7759 -14.884 94.3133Z" fill="#9BA7FF"/>
<path d="M18.087 127.284C21.9724 123.399 21.9724 117.099 18.087 113.214C14.2016 109.328 7.90211 109.328 4.01669 113.214C0.131271 117.099 0.131271 123.399 4.01669 127.284C7.90211 131.17 14.2016 131.17 18.087 127.284Z" fill="#9BA7FF"/>
<path d="M51.058 160.255C54.3661 156.947 54.3661 151.583 51.058 148.275C47.7498 144.967 42.3862 144.967 39.0781 148.275C35.7699 151.583 35.7699 156.947 39.0781 160.255C42.3862 163.563 47.7498 163.563 51.058 160.255Z" fill="#9BA7FF"/>
<path d="M84.049 193.246C86.791 190.504 86.791 186.059 84.049 183.317C81.307 180.575 76.8614 180.575 74.1194 183.317C71.3774 186.059 71.3774 190.504 74.1194 193.246C76.8614 195.988 81.307 195.988 84.049 193.246Z" fill="#9BA7FF"/>
<path d="M117.02 226.217C119.185 224.052 119.185 220.543 117.02 218.378C114.855 216.213 111.346 216.213 109.181 218.378C107.016 220.543 107.016 224.052 109.181 226.217C111.346 228.382 114.855 228.382 117.02 226.217Z" fill="#9BA7FF"/>
<path d="M149.991 259.188C151.578 257.601 151.578 255.027 149.991 253.439C148.404 251.852 145.83 251.852 144.242 253.439C142.655 255.027 142.655 257.601 144.242 259.188C145.83 260.776 148.403 260.776 149.991 259.188Z" fill="#9BA7FF"/>
<path d="M-190.935 -149.77C-189.769 -150.936 -189.769 -152.825 -190.935 -153.991C-192.1 -155.157 -193.99 -155.157 -195.156 -153.991C-196.321 -152.825 -196.321 -150.936 -195.156 -149.77C-193.99 -148.604 -192.1 -148.604 -190.935 -149.77Z" fill="#9BA7FF"/>
<path d="M-155.632 -114.467C-153.756 -116.343 -153.756 -119.385 -155.632 -121.261C-157.508 -123.137 -160.55 -123.137 -162.426 -121.261C-164.302 -119.385 -164.302 -116.343 -162.426 -114.467C-160.55 -112.591 -157.508 -112.591 -155.632 -114.467Z" fill="#9BA7FF"/>
<path d="M-120.309 -79.1445C-117.712 -81.7422 -117.712 -85.9539 -120.309 -88.5516C-122.907 -91.1492 -127.119 -91.1493 -129.716 -88.5516C-132.314 -85.9539 -132.314 -81.7422 -129.716 -79.1445C-127.119 -76.5469 -122.907 -76.5469 -120.309 -79.1445Z" fill="#9BA7FF"/>
<path d="M-85.0068 -43.8419C-81.6986 -47.1501 -81.6986 -52.5137 -85.0068 -55.8218C-88.3149 -59.13 -93.6785 -59.13 -96.9866 -55.8218C-100.295 -52.5137 -100.295 -47.1501 -96.9866 -43.8419C-93.6785 -40.5338 -88.3149 -40.5338 -85.0068 -43.8419Z" fill="#9BA7FF"/>
<path d="M-49.6841 -8.51923C-45.6543 -12.549 -45.6543 -19.0824 -49.6841 -23.1122C-53.7138 -27.1419 -60.2473 -27.1419 -64.277 -23.1122C-68.3067 -19.0824 -68.3067 -12.549 -64.277 -8.51923C-60.2473 -4.4895 -53.7138 -4.4895 -49.6841 -8.51923Z" fill="#9BA7FF"/>
<path d="M-14.3613 26.8035C-9.61002 22.0522 -9.61005 14.3488 -14.3614 9.59747C-19.1127 4.84619 -26.816 4.84619 -31.5673 9.59747C-36.3186 14.3488 -36.3186 22.0522 -31.5673 26.8035C-26.816 31.5548 -19.1126 31.5548 -14.3613 26.8035Z" fill="#9BA7FF"/>
<path d="M20.9413 62.1061C26.4031 56.6443 26.4031 47.7891 20.9413 42.3273C15.4795 36.8655 6.62422 36.8655 1.16243 42.3273C-4.29935 47.7891 -4.29935 56.6443 1.16243 62.1061C6.62422 67.5679 15.4795 67.5679 20.9413 62.1061Z" fill="#9BA7FF"/>
<path d="M53.6711 94.8359C58.4224 90.0846 58.4224 82.3812 53.6711 77.6299C48.9197 72.8785 41.2163 72.8785 36.465 77.6299C31.7137 82.3812 31.7137 90.0846 36.465 94.8359C41.2163 99.5872 48.9197 99.5872 53.6711 94.8359Z" fill="#9BA7FF"/>
<path d="M86.3807 127.546C90.4104 123.516 90.4104 116.982 86.3807 112.953C82.351 108.923 75.8175 108.923 71.7878 112.953C67.758 116.982 67.758 123.516 71.7878 127.546C75.8175 131.575 82.351 131.575 86.3807 127.546Z" fill="#9BA7FF"/>
<path d="M119.09 160.255C122.398 156.947 122.398 151.583 119.09 148.275C115.782 144.967 110.419 144.967 107.11 148.275C103.802 151.583 103.802 156.947 107.11 160.255C110.419 163.563 115.782 163.563 119.09 160.255Z" fill="#9BA7FF"/>
<path d="M151.82 192.985C154.418 190.387 154.418 186.176 151.82 183.578C149.222 180.98 145.011 180.98 142.413 183.578C139.815 186.176 139.815 190.387 142.413 192.985C145.011 195.583 149.222 195.583 151.82 192.985Z" fill="#9BA7FF"/>
<path d="M184.53 225.695C186.406 223.818 186.406 220.777 184.53 218.901C182.654 217.025 179.612 217.025 177.736 218.901C175.86 220.777 175.86 223.818 177.736 225.695C179.612 227.571 182.654 227.571 184.53 225.695Z" fill="#9BA7FF"/>
<path d="M217.26 258.424C218.425 257.259 218.425 255.369 217.26 254.203C216.094 253.038 214.204 253.038 213.038 254.203C211.873 255.369 211.873 257.259 213.038 258.424C214.204 259.59 216.094 259.59 217.26 258.424Z" fill="#9BA7FF"/>
<path d="M-156.657 -183.525C-155.347 -184.835 -155.347 -186.959 -156.657 -188.268C-157.967 -189.578 -160.091 -189.578 -161.401 -188.268C-162.711 -186.959 -162.711 -184.835 -161.401 -183.525C-160.091 -182.215 -157.967 -182.215 -156.657 -183.525Z" fill="#9BA7FF"/>
<path d="M-121.093 -147.961C-118.929 -150.126 -118.929 -153.635 -121.093 -155.8C-123.258 -157.965 -126.768 -157.965 -128.933 -155.8C-131.097 -153.635 -131.097 -150.126 -128.933 -147.961C-126.768 -145.796 -123.258 -145.796 -121.093 -147.961Z" fill="#9BA7FF"/>
<path d="M-85.5093 -112.377C-82.4787 -115.407 -82.4787 -120.321 -85.5093 -123.352C-88.5399 -126.382 -93.4535 -126.382 -96.4841 -123.352C-99.5148 -120.321 -99.5148 -115.407 -96.4841 -112.377C-93.4535 -109.346 -88.5399 -109.346 -85.5093 -112.377Z" fill="#9BA7FF"/>
<path d="M-49.9454 -76.8129C-46.06 -80.6983 -46.06 -86.9978 -49.9454 -90.8832C-53.8308 -94.7686 -60.1303 -94.7686 -64.0157 -90.8832C-67.9011 -86.9978 -67.9011 -80.6983 -64.0157 -76.8129C-60.1303 -72.9275 -53.8308 -72.9275 -49.9454 -76.8129Z" fill="#9BA7FF"/>
<path d="M-14.3614 -41.2289C-9.61005 -45.9802 -9.61002 -53.6836 -14.3613 -58.4349C-19.1126 -63.1862 -26.816 -63.1862 -31.5673 -58.4349C-36.3186 -53.6836 -36.3186 -45.9802 -31.5673 -41.2289C-26.816 -36.4775 -19.1127 -36.4775 -14.3614 -41.2289Z" fill="#9BA7FF"/>
<path d="M21.2026 -5.66495C26.8087 -11.271 26.8087 -20.3603 21.2026 -25.9664C15.5965 -31.5725 6.50719 -31.5725 0.901093 -25.9664C-4.705 -20.3603 -4.705 -11.2711 0.901093 -5.66495C6.50719 -0.0588684 15.5965 -0.0588379 21.2026 -5.66495Z" fill="#9BA7FF"/>
<path d="M56.7866 29.9191C63.2586 23.4471 63.2586 12.9539 56.7866 6.48193C50.3146 0.00994873 39.8214 0.00994873 33.3495 6.48193C26.8774 12.9539 26.8775 23.4471 33.3495 29.9191C39.8214 36.3911 50.3146 36.3911 56.7866 29.9191Z" fill="#9BA7FF"/>
<path d="M89.235 62.3674C94.8411 56.7613 94.8411 47.672 89.235 42.0659C83.6289 36.4598 74.5396 36.4598 68.9335 42.0659C63.3274 47.672 63.3274 56.7613 68.9335 62.3674C74.5396 67.9735 83.6289 67.9735 89.235 62.3674Z" fill="#9BA7FF"/>
<path d="M121.703 94.8359C126.455 90.0846 126.455 82.3812 121.703 77.6299C116.952 72.8785 109.249 72.8785 104.497 77.6299C99.7461 82.3812 99.7461 90.0846 104.497 94.8359C109.249 99.5872 116.952 99.5872 121.703 94.8359Z" fill="#9BA7FF"/>
<path d="M154.152 127.284C158.037 123.399 158.037 117.099 154.152 113.214C150.266 109.328 143.967 109.328 140.081 113.214C136.196 117.099 136.196 123.399 140.081 127.284C143.967 131.17 150.266 131.17 154.152 127.284Z" fill="#9BA7FF"/>
<path d="M186.62 159.753C189.651 156.722 189.651 151.808 186.62 148.778C183.59 145.747 178.676 145.747 175.645 148.778C172.615 151.808 172.615 156.722 175.645 159.753C178.676 162.783 183.59 162.783 186.62 159.753Z" fill="#9BA7FF"/>
<path d="M219.069 192.201C221.233 190.036 221.233 186.527 219.069 184.362C216.904 182.197 213.394 182.197 211.229 184.362C209.065 186.527 209.065 190.036 211.229 192.201C213.394 194.366 216.904 194.366 219.069 192.201Z" fill="#9BA7FF"/>
<path d="M251.537 224.669C252.847 223.36 252.847 221.236 251.537 219.926C250.227 218.616 248.103 218.616 246.793 219.926C245.483 221.236 245.483 223.36 246.793 224.669C248.103 225.979 250.227 225.979 251.537 224.669Z" fill="#9BA7FF"/>
<path d="M-122.4 -217.3C-120.957 -218.743 -120.957 -221.083 -122.4 -222.526C-123.843 -223.969 -126.183 -223.969 -127.626 -222.526C-129.069 -221.083 -129.069 -218.743 -127.626 -217.3C-126.183 -215.857 -123.843 -215.857 -122.4 -217.3Z" fill="#9BA7FF"/>
<path d="M-86.5545 -181.454C-84.1012 -183.908 -84.1012 -187.885 -86.5545 -190.339C-89.0079 -192.792 -92.9855 -192.792 -95.4389 -190.339C-97.8923 -187.885 -97.8923 -183.908 -95.4389 -181.454C-92.9855 -179.001 -89.0079 -179.001 -86.5545 -181.454Z" fill="#9BA7FF"/>
<path d="M-50.7293 -145.629C-47.2768 -149.082 -47.2768 -154.679 -50.7293 -158.132C-54.1817 -161.584 -59.7793 -161.584 -63.2318 -158.132C-66.6842 -154.679 -66.6842 -149.082 -63.2318 -145.629C-59.7793 -142.177 -54.1817 -142.177 -50.7293 -145.629Z" fill="#9BA7FF"/>
<path d="M-14.8839 -109.784C-10.4213 -114.247 -10.4213 -121.482 -14.884 -125.945C-19.3466 -130.407 -26.582 -130.407 -31.0447 -125.945C-35.5074 -121.482 -35.5074 -114.247 -31.0447 -109.784C-26.582 -105.321 -19.3466 -105.321 -14.8839 -109.784Z" fill="#9BA7FF"/>
<path d="M20.9413 -73.9586C26.4031 -79.4204 26.4031 -88.2757 20.9413 -93.7375C15.4795 -99.1993 6.62422 -99.1993 1.16243 -93.7375C-4.29935 -88.2757 -4.29935 -79.4204 1.16243 -73.9586C6.62422 -68.4968 15.4795 -68.4969 20.9413 -73.9586Z" fill="#9BA7FF"/>
<path d="M56.7866 -38.1133C63.2586 -44.5853 63.2586 -55.0785 56.7866 -61.5504C50.3146 -68.0225 39.8214 -68.0224 33.3495 -61.5504C26.8775 -55.0785 26.8774 -44.5853 33.3495 -38.1133C39.8214 -31.6413 50.3146 -31.6413 56.7866 -38.1133Z" fill="#9BA7FF"/>
<path d="M92.6118 -2.28806C100.083 -9.75916 100.083 -21.8722 92.6118 -29.3433C85.1407 -36.8144 73.0277 -36.8144 65.5566 -29.3433C58.0855 -21.8722 58.0855 -9.75916 65.5566 -2.28806C73.0277 5.18304 85.1407 5.18304 92.6118 -2.28806Z" fill="#9BA7FF"/>
<path d="M124.819 29.9191C131.291 23.4471 131.291 12.9539 124.819 6.48193C118.347 0.00994873 107.854 0.00994873 101.382 6.48193C94.9099 12.9539 94.9099 23.4471 101.382 29.9191C107.854 36.3911 118.347 36.3911 124.819 29.9191Z" fill="#9BA7FF"/>
<path d="M157.006 62.1061C162.468 56.6443 162.468 47.7891 157.006 42.3273C151.544 36.8655 142.689 36.8654 137.227 42.3272C131.765 47.789 131.765 56.6443 137.227 62.1061C142.689 67.5679 151.544 67.5679 157.006 62.1061Z" fill="#9BA7FF"/>
<path d="M189.213 94.3133C193.676 89.8506 193.676 82.6152 189.213 78.1525C184.75 73.6898 177.515 73.6898 173.052 78.1525C168.59 82.6152 168.59 89.8505 173.052 94.3132C177.515 98.7759 184.75 98.7759 189.213 94.3133Z" fill="#9BA7FF"/>
<path d="M221.4 126.5C224.853 123.048 224.853 117.45 221.4 113.998C217.948 110.545 212.35 110.545 208.898 113.998C205.445 117.45 205.445 123.048 208.898 126.5C212.35 129.953 217.948 129.953 221.4 126.5Z" fill="#9BA7FF"/>
<path d="M253.607 158.707C256.061 156.254 256.061 152.276 253.607 149.823C251.154 147.37 247.176 147.37 244.723 149.823C242.27 152.276 242.27 156.254 244.723 158.707C247.176 161.161 251.154 161.161 253.607 158.707Z" fill="#9BA7FF"/>
<path d="M285.794 190.894C287.238 189.451 287.238 187.112 285.794 185.668C284.351 184.225 282.011 184.225 280.568 185.668C279.125 187.112 279.125 189.451 280.568 190.894C282.011 192.338 284.351 192.338 285.794 190.894Z" fill="#9BA7FF"/>
<path d="M-88.6248 -251.557C-87.3149 -252.867 -87.3149 -254.991 -88.6249 -256.301C-89.9348 -257.611 -92.0586 -257.611 -93.3686 -256.301C-94.6785 -254.991 -94.6785 -252.867 -93.3686 -251.557C-92.0586 -250.247 -89.9348 -250.247 -88.6248 -251.557Z" fill="#9BA7FF"/>
<path d="M-53.0609 -215.993C-50.8962 -218.158 -50.8962 -221.668 -53.0609 -223.832C-55.2257 -225.997 -58.7354 -225.997 -60.9001 -223.832C-63.0648 -221.668 -63.0649 -218.158 -60.9001 -215.993C-58.7354 -213.828 -55.2257 -213.828 -53.0609 -215.993Z" fill="#9BA7FF"/>
<path d="M-17.4769 -180.409C-14.4463 -183.44 -14.4463 -188.353 -17.4769 -191.384C-20.5075 -194.415 -25.4211 -194.415 -28.4518 -191.384C-31.4824 -188.353 -31.4824 -183.44 -28.4518 -180.409C-25.4211 -177.379 -20.5075 -177.379 -17.4769 -180.409Z" fill="#9BA7FF"/>
<path d="M18.087 -144.845C21.9724 -148.731 21.9724 -155.03 18.087 -158.916C14.2016 -162.801 7.90211 -162.801 4.01669 -158.916C0.131271 -155.03 0.131271 -148.731 4.01669 -144.845C7.90211 -140.96 14.2016 -140.96 18.087 -144.845Z" fill="#9BA7FF"/>
<path d="M53.6711 -109.261C58.4224 -114.013 58.4224 -121.716 53.6711 -126.467C48.9197 -131.219 41.2163 -131.219 36.465 -126.467C31.7137 -121.716 31.7137 -114.013 36.465 -109.261C41.2163 -104.51 48.9197 -104.51 53.6711 -109.261Z" fill="#9BA7FF"/>
<path d="M89.235 -73.6973C94.8411 -79.3034 94.8411 -88.3927 89.235 -93.9988C83.6289 -99.6049 74.5396 -99.6049 68.9335 -93.9988C63.3274 -88.3927 63.3274 -79.3034 68.9335 -73.6973C74.5396 -68.0912 83.6289 -68.0912 89.235 -73.6973Z" fill="#9BA7FF"/>
<path d="M124.819 -38.1133C131.291 -44.5853 131.291 -55.0785 124.819 -61.5504C118.347 -68.0225 107.854 -68.0225 101.382 -61.5504C94.9099 -55.0785 94.9099 -44.5853 101.382 -38.1133C107.854 -31.6413 118.347 -31.6413 124.819 -38.1133Z" fill="#9BA7FF"/>
<path d="M157.267 -5.66495C162.873 -11.271 162.873 -20.3603 157.267 -25.9664C151.661 -31.5725 142.572 -31.5725 136.966 -25.9664C131.36 -20.3603 131.36 -11.271 136.966 -5.66495C142.572 -0.0588379 151.661 -0.0588379 157.267 -5.66495Z" fill="#9BA7FF"/>
<path d="M189.736 26.8035C194.487 22.0522 194.487 14.3488 189.736 9.59747C184.984 4.84619 177.281 4.84616 172.53 9.59747C167.778 14.3488 167.778 22.0522 172.53 26.8035C177.281 31.5548 184.984 31.5548 189.736 26.8035Z" fill="#9BA7FF"/>
<path d="M222.184 59.2518C226.07 55.3664 226.07 49.0669 222.184 45.1815C218.299 41.2961 211.999 41.2961 208.114 45.1815C204.228 49.0669 204.228 55.3664 208.114 59.2518C211.999 63.1372 218.299 63.1372 222.184 59.2518Z" fill="#9BA7FF"/>
<path d="M254.653 91.7203C257.683 88.6897 257.683 83.776 254.653 80.7454C251.622 77.7148 246.708 77.7148 243.678 80.7454C240.647 83.776 240.647 88.6897 243.678 91.7203C246.708 94.7509 251.622 94.7509 254.653 91.7203Z" fill="#9BA7FF"/>
<path d="M287.101 124.169C289.266 122.004 289.266 118.494 287.101 116.329C284.936 114.165 281.426 114.165 279.262 116.329C277.097 118.494 277.097 122.004 279.262 124.169C281.426 126.333 284.936 126.333 287.101 124.169Z" fill="#9BA7FF"/>
<path d="M319.569 156.637C320.879 155.327 320.879 153.203 319.569 151.893C318.259 150.583 316.136 150.583 314.826 151.893C313.516 153.203 313.516 155.327 314.826 156.637C316.136 157.947 318.259 157.947 319.569 156.637Z" fill="#9BA7FF"/>
<path d="M-54.87 -285.835C-53.7044 -287 -53.7044 -288.89 -54.87 -290.056C-56.0356 -291.221 -57.9255 -291.221 -59.0911 -290.056C-60.2567 -288.89 -60.2567 -287 -59.0911 -285.835C-57.9255 -284.669 -56.0356 -284.669 -54.87 -285.835Z" fill="#9BA7FF"/>
<path d="M-19.5674 -250.532C-17.6913 -252.408 -17.6913 -255.45 -19.5674 -257.326C-21.4435 -259.202 -24.4852 -259.202 -26.3613 -257.326C-28.2374 -255.45 -28.2374 -252.408 -26.3613 -250.532C-24.4852 -248.656 -21.4435 -248.656 -19.5674 -250.532Z" fill="#9BA7FF"/>
<path d="M15.7554 -215.209C18.353 -217.807 18.353 -222.019 15.7554 -224.616C13.1577 -227.214 8.94603 -227.214 6.34834 -224.616C3.75067 -222.019 3.75064 -217.807 6.34833 -215.209C8.946 -212.612 13.1577 -212.612 15.7554 -215.209Z" fill="#9BA7FF"/>
<path d="M51.058 -179.907C54.3661 -183.215 54.3661 -188.578 51.058 -191.887C47.7498 -195.195 42.3862 -195.195 39.0781 -191.887C35.7699 -188.578 35.7699 -183.215 39.0781 -179.907C42.3862 -176.598 47.7498 -176.599 51.058 -179.907Z" fill="#9BA7FF"/>
<path d="M86.3807 -144.584C90.4104 -148.614 90.4104 -155.147 86.3807 -159.177C82.351 -163.207 75.8175 -163.207 71.7878 -159.177C67.758 -155.147 67.758 -148.614 71.7878 -144.584C75.8175 -140.554 82.351 -140.554 86.3807 -144.584Z" fill="#9BA7FF"/>
<path d="M121.703 -109.261C126.455 -114.013 126.455 -121.716 121.703 -126.467C116.952 -131.219 109.249 -131.219 104.497 -126.467C99.7461 -121.716 99.7461 -114.013 104.497 -109.261C109.249 -104.51 116.952 -104.51 121.703 -109.261Z" fill="#9BA7FF"/>
<path d="M157.006 -73.9586C162.468 -79.4204 162.468 -88.2757 157.006 -93.7375C151.544 -99.1993 142.689 -99.1993 137.227 -93.7375C131.765 -88.2757 131.765 -79.4204 137.227 -73.9586C142.689 -68.4968 151.544 -68.4969 157.006 -73.9586Z" fill="#9BA7FF"/>
<path d="M189.736 -41.2289C194.487 -45.9802 194.487 -53.6836 189.736 -58.4349C184.984 -63.1862 177.281 -63.1862 172.53 -58.4349C167.778 -53.6836 167.778 -45.9801 172.53 -41.2289C177.281 -36.4775 184.984 -36.4775 189.736 -41.2289Z" fill="#9BA7FF"/>
<path d="M222.445 -8.51926C226.475 -12.549 226.475 -19.0824 222.445 -23.1121C218.416 -27.1418 211.882 -27.1419 207.852 -23.1122C203.823 -19.0824 203.823 -12.5489 207.852 -8.5192C211.882 -4.48947 218.416 -4.4895 222.445 -8.51926Z" fill="#9BA7FF"/>
<path d="M255.155 24.1904C258.463 20.8823 258.463 15.5187 255.155 12.2105C251.847 8.90237 246.483 8.90237 243.175 12.2105C239.867 15.5187 239.867 20.8823 243.175 24.1904C246.483 27.4986 251.847 27.4986 255.155 24.1904Z" fill="#9BA7FF"/>
<path d="M287.885 56.9202C290.482 54.3225 290.482 50.1108 287.885 47.5132C285.287 44.9155 281.076 44.9155 278.478 47.5132C275.88 50.1108 275.88 54.3225 278.478 56.9202C281.075 59.5179 285.287 59.5179 287.885 56.9202Z" fill="#9BA7FF"/>
<path d="M320.594 89.6299C322.471 87.7538 322.471 84.712 320.594 82.8359C318.718 80.9598 315.677 80.9598 313.801 82.8359C311.924 84.712 311.924 87.7538 313.801 89.6299C315.677 91.506 318.718 91.506 320.594 89.6299Z" fill="#9BA7FF"/>
<path d="M353.324 122.36C354.49 121.194 354.49 119.304 353.324 118.139C352.159 116.973 350.269 116.973 349.103 118.139C347.938 119.304 347.938 121.194 349.103 122.36C350.269 123.525 352.159 123.525 353.324 122.36Z" fill="#9BA7FF"/>
<path d="M13.9262 -285.071C15.5137 -286.658 15.5137 -289.232 13.9262 -290.82C12.3387 -292.407 9.76492 -292.407 8.17746 -290.82C6.58998 -289.232 6.59001 -286.658 8.17747 -285.071C9.76495 -283.483 12.3387 -283.483 13.9262 -285.071Z" fill="#9BA7FF"/>
<path d="M48.9876 -250.009C51.1523 -252.174 51.1524 -255.684 48.9876 -257.849C46.8229 -260.013 43.3132 -260.013 41.1484 -257.849C38.9837 -255.684 38.9837 -252.174 41.1484 -250.009C43.3132 -247.845 46.8229 -247.845 48.9876 -250.009Z" fill="#9BA7FF"/>
<path d="M84.049 -214.948C86.791 -217.69 86.791 -222.136 84.049 -224.878C81.307 -227.62 76.8614 -227.62 74.1194 -224.878C71.3774 -222.136 71.3774 -217.69 74.1194 -214.948C76.8614 -212.206 81.307 -212.206 84.049 -214.948Z" fill="#9BA7FF"/>
<path d="M119.09 -179.907C122.398 -183.215 122.398 -188.578 119.09 -191.887C115.782 -195.195 110.419 -195.195 107.11 -191.887C103.802 -188.578 103.802 -183.215 107.11 -179.907C110.419 -176.598 115.782 -176.599 119.09 -179.907Z" fill="#9BA7FF"/>
<path d="M154.152 -144.845C158.037 -148.731 158.037 -155.03 154.152 -158.916C150.266 -162.801 143.967 -162.801 140.081 -158.916C136.196 -155.03 136.196 -148.731 140.081 -144.845C143.967 -140.96 150.266 -140.96 154.152 -144.845Z" fill="#9BA7FF"/>
<path d="M189.213 -109.784C193.676 -114.247 193.676 -121.482 189.213 -125.945C184.75 -130.407 177.515 -130.407 173.052 -125.945C168.59 -121.482 168.59 -114.247 173.052 -109.784C177.515 -105.321 184.75 -105.321 189.213 -109.784Z" fill="#9BA7FF"/>
<path d="M222.184 -76.8129C226.07 -80.6983 226.07 -86.9978 222.184 -90.8832C218.299 -94.7686 211.999 -94.7686 208.114 -90.8832C204.228 -86.9978 204.228 -80.6983 208.114 -76.8129C211.999 -72.9274 218.299 -72.9274 222.184 -76.8129Z" fill="#9BA7FF"/>
<path d="M255.155 -43.8419C258.463 -47.1501 258.463 -52.5137 255.155 -55.8218C251.847 -59.13 246.483 -59.13 243.175 -55.8218C239.867 -52.5137 239.867 -47.1501 243.175 -43.8419C246.483 -40.5338 251.847 -40.5338 255.155 -43.8419Z" fill="#9BA7FF"/>
<path d="M288.146 -10.8509C290.888 -13.5929 290.888 -18.0385 288.146 -20.7805C285.404 -23.5225 280.958 -23.5225 278.216 -20.7805C275.474 -18.0385 275.474 -13.5929 278.216 -10.8509C280.958 -8.10889 285.404 -8.10889 288.146 -10.8509Z" fill="#9BA7FF"/>
<path d="M321.117 22.1201C323.282 19.9554 323.282 16.4456 321.117 14.2809C318.952 12.1162 315.443 12.1162 313.278 14.2809C311.113 16.4456 311.113 19.9554 313.278 22.1201C315.443 24.2848 318.952 24.2848 321.117 22.1201Z" fill="#9BA7FF"/>
<path d="M354.088 55.0911C355.676 53.5036 355.676 50.9298 354.088 49.3423C352.501 47.7548 349.927 47.7548 348.339 49.3423C346.752 50.9298 346.752 53.5036 348.339 55.0911C349.927 56.6785 352.501 56.6785 354.088 55.0911Z" fill="#9BA7FF"/>
<path d="M47.4399 -319.589C48.7498 -320.899 48.7498 -323.023 47.4399 -324.333C46.1299 -325.643 44.0061 -325.643 42.6962 -324.333C41.3862 -323.023 41.3862 -320.899 42.6962 -319.59C44.0061 -318.28 46.1299 -318.28 47.4399 -319.589Z" fill="#9BA7FF"/>
<path d="M82.2199 -284.809C83.9517 -286.541 83.9517 -289.349 82.2199 -291.081C80.4881 -292.813 77.6803 -292.813 75.9485 -291.081C74.2168 -289.349 74.2168 -286.541 75.9485 -284.809C77.6803 -283.078 80.4881 -283.078 82.2199 -284.809Z" fill="#9BA7FF"/>
<path d="M117.02 -250.009C119.185 -252.174 119.185 -255.684 117.02 -257.849C114.855 -260.013 111.346 -260.013 109.181 -257.849C107.016 -255.684 107.016 -252.174 109.181 -250.009C111.346 -247.845 114.855 -247.845 117.02 -250.009Z" fill="#9BA7FF"/>
<path d="M151.82 -215.209C154.418 -217.807 154.418 -222.019 151.82 -224.616C149.222 -227.214 145.011 -227.214 142.413 -224.616C139.815 -222.019 139.815 -217.807 142.413 -215.209C145.011 -212.612 149.222 -212.612 151.82 -215.209Z" fill="#9BA7FF"/>
<path d="M186.62 -180.409C189.651 -183.44 189.651 -188.353 186.62 -191.384C183.59 -194.415 178.676 -194.415 175.645 -191.384C172.615 -188.353 172.615 -183.44 175.645 -180.409C178.676 -177.379 183.59 -177.379 186.62 -180.409Z" fill="#9BA7FF"/>
<path d="M221.4 -145.629C224.853 -149.082 224.853 -154.679 221.4 -158.132C217.948 -161.584 212.35 -161.584 208.898 -158.132C205.445 -154.679 205.445 -149.082 208.898 -145.629C212.35 -142.177 217.948 -142.177 221.4 -145.629Z" fill="#9BA7FF"/>
<path d="M254.653 -112.377C257.683 -115.407 257.683 -120.321 254.653 -123.352C251.622 -126.382 246.708 -126.382 243.678 -123.352C240.647 -120.321 240.647 -115.407 243.678 -112.377C246.708 -109.346 251.622 -109.346 254.653 -112.377Z" fill="#9BA7FF"/>
<path d="M287.885 -79.1445C290.482 -81.7422 290.482 -85.9539 287.885 -88.5516C285.287 -91.1492 281.075 -91.1493 278.478 -88.5516C275.88 -85.9539 275.88 -81.7422 278.478 -79.1445C281.076 -76.5469 285.287 -76.5469 287.885 -79.1445Z" fill="#9BA7FF"/>
<path d="M321.117 -45.9123C323.282 -48.077 323.282 -51.5867 321.117 -53.7515C318.952 -55.9162 315.443 -55.9162 313.278 -53.7515C311.113 -51.5867 311.113 -48.077 313.278 -45.9123C315.443 -43.7476 318.952 -43.7475 321.117 -45.9123Z" fill="#9BA7FF"/>
<path d="M354.349 -12.68C356.081 -14.4118 356.081 -17.2196 354.349 -18.9514C352.618 -20.6831 349.81 -20.6831 348.078 -18.9514C346.346 -17.2196 346.346 -14.4118 348.078 -12.68C349.81 -10.9482 352.618 -10.9482 354.349 -12.68Z" fill="#9BA7FF"/>
<path d="M387.602 20.5723C388.912 19.2624 388.912 17.1386 387.602 15.8286C386.292 14.5187 384.168 14.5187 382.858 15.8286C381.548 17.1386 381.548 19.2624 382.858 20.5723C384.168 21.8823 386.292 21.8823 387.602 20.5723Z" fill="#9BA7FF"/>
<path d="M115.472 -319.589C116.782 -320.899 116.782 -323.023 115.472 -324.333C114.162 -325.643 112.038 -325.643 110.729 -324.333C109.419 -323.023 109.419 -320.899 110.729 -319.589C112.038 -318.28 114.162 -318.28 115.472 -319.589Z" fill="#9BA7FF"/>
<path d="M149.991 -285.071C151.578 -286.658 151.578 -289.232 149.991 -290.82C148.403 -292.407 145.83 -292.407 144.242 -290.82C142.655 -289.232 142.655 -286.658 144.242 -285.071C145.83 -283.483 148.404 -283.483 149.991 -285.071Z" fill="#9BA7FF"/>
<path d="M184.53 -250.532C186.406 -252.408 186.406 -255.45 184.53 -257.326C182.654 -259.202 179.612 -259.202 177.736 -257.326C175.86 -255.45 175.86 -252.408 177.736 -250.532C179.612 -248.656 182.654 -248.656 184.53 -250.532Z" fill="#9BA7FF"/>
<path d="M219.069 -215.993C221.233 -218.158 221.233 -221.668 219.069 -223.832C216.904 -225.997 213.394 -225.997 211.229 -223.832C209.065 -221.668 209.065 -218.158 211.229 -215.993C213.394 -213.828 216.904 -213.828 219.069 -215.993Z" fill="#9BA7FF"/>
<path d="M253.607 -181.454C256.061 -183.908 256.061 -187.885 253.607 -190.339C251.154 -192.792 247.176 -192.792 244.723 -190.339C242.27 -187.885 242.27 -183.908 244.723 -181.454C247.176 -179.001 251.154 -179.001 253.607 -181.454Z" fill="#9BA7FF"/>
<path d="M287.101 -147.961C289.266 -150.126 289.266 -153.635 287.101 -155.8C284.936 -157.965 281.426 -157.965 279.262 -155.8C277.097 -153.635 277.097 -150.126 279.262 -147.961C281.426 -145.796 284.936 -145.796 287.101 -147.961Z" fill="#9BA7FF"/>
<path d="M320.594 -114.467C322.471 -116.343 322.471 -119.385 320.594 -121.261C318.718 -123.137 315.677 -123.137 313.801 -121.261C311.924 -119.385 311.924 -116.343 313.801 -114.467C315.677 -112.591 318.718 -112.591 320.594 -114.467Z" fill="#9BA7FF"/>
<path d="M354.088 -80.9737C355.676 -82.5612 355.676 -85.1349 354.088 -86.7224C352.501 -88.3099 349.927 -88.3099 348.339 -86.7224C346.752 -85.1349 346.752 -82.5612 348.339 -80.9737C349.927 -79.3862 352.501 -79.3862 354.088 -80.9737Z" fill="#9BA7FF"/>
<path d="M387.602 -47.46C388.912 -48.77 388.912 -50.8938 387.602 -52.2037C386.292 -53.5136 384.168 -53.5136 382.858 -52.2037C381.548 -50.8938 381.548 -48.77 382.858 -47.46C384.168 -46.1501 386.292 -46.1501 387.602 -47.46Z" fill="#9BA7FF"/>
<path d="M217.26 -285.835C218.425 -287 218.425 -288.89 217.26 -290.056C216.094 -291.221 214.204 -291.221 213.038 -290.056C211.873 -288.89 211.873 -287 213.038 -285.835C214.204 -284.669 216.094 -284.669 217.26 -285.835Z" fill="#9BA7FF"/>
<path d="M251.537 -251.557C252.847 -252.867 252.847 -254.991 251.537 -256.301C250.227 -257.611 248.103 -257.611 246.793 -256.301C245.483 -254.991 245.483 -252.867 246.793 -251.557C248.103 -250.247 250.227 -250.247 251.537 -251.557Z" fill="#9BA7FF"/>
<path d="M285.794 -217.3C287.238 -218.743 287.238 -221.083 285.794 -222.526C284.351 -223.969 282.011 -223.969 280.568 -222.526C279.125 -221.083 279.125 -218.743 280.568 -217.3C282.011 -215.857 284.351 -215.857 285.794 -217.3Z" fill="#9BA7FF"/>
<path d="M319.569 -183.525C320.879 -184.835 320.879 -186.959 319.569 -188.268C318.259 -189.578 316.136 -189.578 314.826 -188.268C313.516 -186.959 313.516 -184.835 314.826 -183.525C316.136 -182.215 318.259 -182.215 319.569 -183.525Z" fill="#9BA7FF"/>
<path d="M353.324 -149.77C354.49 -150.936 354.49 -152.825 353.324 -153.991C352.159 -155.157 350.269 -155.157 349.103 -153.991C347.938 -152.825 347.938 -150.936 349.103 -149.77C350.269 -148.604 352.159 -148.604 353.324 -149.77Z" fill="#9BA7FF"/>
</svg>
