<svg width="32" height="32" viewBox="0 0 32 32" fill="none" xmlns="http://www.w3.org/2000/svg">
<path d="M17.96 9.87999L21.24 8.26666C21.64 8.06666 21.7467 7.54666 21.44 7.22666C20.2533 5.91999 19.0533 4.82666 18.0933 3.99999C17.6533 3.62666 17 3.93333 17 4.50666V9.27999C17 9.77333 17.52 10.0933 17.96 9.87999Z" fill="white"/>
<path d="M17 26.32V28.52C17 28.92 17.36 29.2533 17.76 29.1866C21.4 28.5866 24.44 26.1466 25.88 22.8666C26.1333 22.3066 25.52 21.7466 24.96 22.0133L17.3733 25.7333C17.1467 25.84 17 26.0666 17 26.32Z" fill="white"/>
<path d="M14.9998 4.48C14.9998 3.90666 14.3465 3.6 13.9065 3.96C10.7598 6.6 5.17314 12.16 5.1998 18.5333C5.1998 23.8933 9.1198 28.3333 14.2398 29.1867C14.6398 29.2533 14.9998 28.92 14.9998 28.52V4.48Z" fill="white"/>
<path d="M17.9201 16.6266L24.9735 13.6666C25.3335 13.5066 25.5068 13.0933 25.3335 12.7466C24.8402 11.7733 24.2668 10.8266 23.6401 9.94659C23.4535 9.67993 23.1068 9.59993 22.8135 9.73326L17.3602 12.3866C17.1335 12.4933 16.9868 12.7333 16.9868 12.9866V16.0133C17.0001 16.4799 17.4801 16.8133 17.9201 16.6266Z" fill="white"/>
<path d="M26.44 19.0801C26.6533 18.9735 26.7867 18.7734 26.7867 18.5468C26.7867 17.6934 26.68 16.8535 26.4933 16.0268C26.4 15.6268 25.96 15.4135 25.5867 15.5735L17.4 19.0668C17.16 19.1735 17 19.4135 17 19.6801V22.6134C17 23.1068 17.52 23.4268 17.96 23.2135L25.8267 19.3868L26.44 19.0801Z" fill="white"/>
</svg>
