<svg width="32" height="32" viewBox="0 0 32 32" fill="none" xmlns="http://www.w3.org/2000/svg">
<path d="M15.9999 18.6666C9.31988 18.6666 3.87988 23.1466 3.87988 28.6666C3.87988 29.04 4.17322 29.3333 4.54655 29.3333H27.4532C27.8265 29.3333 28.1199 29.04 28.1199 28.6666C28.1199 23.1466 22.6799 18.6666 15.9999 18.6666Z" fill="white"/>
<path d="M16.0002 2.66663C14.4268 2.66663 12.9868 3.21329 11.8402 4.13329C10.3068 5.34663 9.3335 7.22663 9.3335 9.33329C9.3335 10.5866 9.68016 11.76 10.3068 12.76C11.4535 14.6933 13.5602 16 16.0002 16C17.6802 16 19.2135 15.3866 20.3868 14.3333C20.9068 13.8933 21.3602 13.36 21.7068 12.76C22.3202 11.76 22.6668 10.5866 22.6668 9.33329C22.6668 5.65329 19.6802 2.66663 16.0002 2.66663ZM19.4535 8.61329L15.8935 11.8933C15.6535 12.12 15.3468 12.2266 15.0402 12.2266C14.7202 12.2266 14.4002 12.1066 14.1602 11.8666L12.5202 10.2133C12.0268 9.71996 12.0268 8.93329 12.5202 8.43996C13.0135 7.94663 13.8002 7.94663 14.2935 8.43996L15.0802 9.22663L17.7602 6.75996C18.2668 6.29329 19.0535 6.31996 19.5202 6.82663C19.9868 7.34663 19.9602 8.14663 19.4535 8.61329Z" fill="white"/>
</svg>
