<svg width="32" height="32" viewBox="0 0 32 32" fill="none" xmlns="http://www.w3.org/2000/svg">
<path d="M28.3335 6.86663V10.4666C28.3335 12.92 27.5868 13.6666 25.1335 13.6666H21.5335C19.0802 13.6666 18.3335 12.92 18.3335 10.4666V6.86663C18.3335 4.41329 19.0802 3.66663 21.5335 3.66663H25.1335C27.5868 3.66663 28.3335 4.41329 28.3335 6.86663Z" fill="white"/>
<path d="M13.6665 21.5334V25.1334C13.6665 27.5867 12.9198 28.3334 10.4665 28.3334H6.8665C4.41317 28.3334 3.6665 27.5867 3.6665 25.1334V21.5334C3.6665 19.08 4.41317 18.3334 6.8665 18.3334H10.4665C12.9198 18.3334 13.6665 19.08 13.6665 21.5334Z" fill="white"/>
<path d="M21.6733 15.6667C21.9495 15.6667 22.1733 15.8905 22.1733 16.1667V18.16C22.1733 21.2 21.2 22.1733 18.16 22.1733H16.1667C15.8905 22.1733 15.6667 21.9495 15.6667 21.6733V21.5333C15.6667 17.9867 14.0133 16.3333 10.4667 16.3333H10.3267C10.0505 16.3333 9.82666 16.1095 9.82666 15.8333V13.84C9.82666 10.8 10.8 9.82666 13.84 9.82666H15.8333C16.1095 9.82666 16.3333 10.0505 16.3333 10.3267V10.4667C16.3333 14.0133 17.9867 15.6667 21.5333 15.6667H21.6733Z" fill="white"/>
</svg>
