<svg width="32" height="32" viewBox="0 0 32 32" fill="none" xmlns="http://www.w3.org/2000/svg">
<path d="M15.9998 2.66675C8.63984 2.66675 2.6665 8.64008 2.6665 16.0001C2.6665 23.3601 8.63984 29.3334 15.9998 29.3334C23.3598 29.3334 29.3332 23.3601 29.3332 16.0001C29.3332 8.64008 23.3598 2.66675 15.9998 2.66675ZM11.3732 17.9601C11.7598 18.3467 11.7598 18.9867 11.3732 19.3734C11.1732 19.5734 10.9198 19.6667 10.6665 19.6667C10.4132 19.6667 10.1598 19.5734 9.95984 19.3734L7.29317 16.7067C6.9065 16.3201 6.9065 15.6801 7.29317 15.2934L9.95984 12.6267C10.3465 12.2401 10.9865 12.2401 11.3732 12.6267C11.7598 13.0134 11.7598 13.6534 11.3732 14.0401L9.41317 16.0001L11.3732 17.9601ZM18.2532 13.2801L15.5865 19.5067C15.4265 19.8801 15.0532 20.1067 14.6665 20.1067C14.5332 20.1067 14.3998 20.0801 14.2798 20.0267C13.7732 19.8134 13.5332 19.2267 13.7598 18.7067L16.4265 12.4801C16.6398 11.9734 17.2265 11.7334 17.7332 11.9601C18.2398 12.1867 18.4665 12.7734 18.2532 13.2801ZM24.7065 16.7067L22.0398 19.3734C21.8398 19.5734 21.5865 19.6667 21.3332 19.6667C21.0798 19.6667 20.8265 19.5734 20.6265 19.3734C20.2398 18.9867 20.2398 18.3467 20.6265 17.9601L22.5865 16.0001L20.6265 14.0401C20.2398 13.6534 20.2398 13.0134 20.6265 12.6267C21.0132 12.2401 21.6532 12.2401 22.0398 12.6267L24.7065 15.2934C25.0932 15.6801 25.0932 16.3201 24.7065 16.7067Z" fill="white"/>
</svg>
