<svg width="32" height="32" viewBox="0 0 32 32" fill="none" xmlns="http://www.w3.org/2000/svg">
<path d="M21.5865 2.66699H10.4132C5.55984 2.66699 2.6665 5.56033 2.6665 10.4137V21.5737C2.6665 26.4403 5.55984 29.3337 10.4132 29.3337H21.5732C26.4265 29.3337 29.3198 26.4403 29.3198 21.587V10.4137C29.3332 5.56033 26.4398 2.66699 21.5865 2.66699ZM10.1732 24.2003C10.1732 24.747 9.71984 25.2003 9.17317 25.2003C8.6265 25.2003 8.17317 24.747 8.17317 24.2003V21.4403C8.17317 20.8937 8.6265 20.4403 9.17317 20.4403C9.71984 20.4403 10.1732 20.8937 10.1732 21.4403V24.2003ZM16.9998 24.2003C16.9998 24.747 16.5465 25.2003 15.9998 25.2003C15.4532 25.2003 14.9998 24.747 14.9998 24.2003V18.667C14.9998 18.1203 15.4532 17.667 15.9998 17.667C16.5465 17.667 16.9998 18.1203 16.9998 18.667V24.2003ZM23.8265 24.2003C23.8265 24.747 23.3732 25.2003 22.8265 25.2003C22.2798 25.2003 21.8265 24.747 21.8265 24.2003V15.907C21.8265 15.3603 22.2798 14.907 22.8265 14.907C23.3732 14.907 23.8265 15.3603 23.8265 15.907V24.2003ZM23.8265 11.6937C23.8265 12.2403 23.3732 12.6937 22.8265 12.6937C22.2798 12.6937 21.8265 12.2403 21.8265 11.6937V10.4003C18.4265 13.8937 14.1732 16.3603 9.41317 17.547C9.33317 17.5737 9.25317 17.5737 9.17317 17.5737C8.71984 17.5737 8.31984 17.267 8.19984 16.8137C8.0665 16.2803 8.3865 15.7337 8.93317 15.6003C13.4265 14.4803 17.4265 12.1203 20.5998 8.78699H18.9332C18.3865 8.78699 17.9332 8.33366 17.9332 7.78699C17.9332 7.24033 18.3865 6.78699 18.9332 6.78699H22.8398C22.8932 6.78699 22.9332 6.81366 22.9865 6.81366C23.0532 6.82699 23.1198 6.82699 23.1865 6.85366C23.2532 6.88033 23.3065 6.92032 23.3732 6.96032C23.4132 6.98699 23.4532 7.00033 23.4932 7.02699C23.5065 7.04033 23.5065 7.05366 23.5198 7.05366C23.5732 7.10699 23.6132 7.16033 23.6532 7.21366C23.6932 7.26699 23.7332 7.30699 23.7465 7.36033C23.7732 7.41366 23.7732 7.46699 23.7865 7.53366C23.7998 7.60033 23.8265 7.66699 23.8265 7.74699C23.8265 7.76032 23.8398 7.77366 23.8398 7.78699V11.6937H23.8265Z" fill="white"/>
</svg>
