<svg width="32" height="32" viewBox="0 0 32 32" fill="none" xmlns="http://www.w3.org/2000/svg">
<path d="M29.3332 3.6665H2.6665C2.11984 3.6665 1.6665 3.21317 1.6665 2.6665C1.6665 2.11984 2.11984 1.6665 2.6665 1.6665H29.3332C29.8798 1.6665 30.3332 2.11984 30.3332 2.6665C30.3332 3.21317 29.8798 3.6665 29.3332 3.6665Z" fill="white"/>
<path d="M22.2265 29.7865C22.0532 30.1332 21.6932 30.3332 21.3332 30.3332C21.1865 30.3332 21.0265 30.2932 20.8932 30.2265L15.9999 27.7865L11.1065 30.2265C10.9732 30.2932 10.8132 30.3332 10.6665 30.3332C10.3065 30.3332 9.94652 30.1332 9.77319 29.7865C9.51986 29.2798 9.71986 28.6798 10.2265 28.4398L14.9999 26.0532V22.6665H16.9999V26.0532L21.7732 28.4398C22.2799 28.6798 22.4799 29.2798 22.2265 29.7865Z" fill="white"/>
<path d="M4 2.6665V18.7998C4 21.3332 5.33333 22.6665 7.86667 22.6665H24.1333C26.6667 22.6665 28 21.3332 28 18.7998V2.6665H4ZM22.64 11.4398L18.44 14.9465C18.0533 15.2665 17.56 15.3998 17.0933 15.3198C16.6133 15.2398 16.2 14.9465 15.9467 14.5198L14.5467 12.1865L10.64 15.4398C10.4533 15.5998 10.2267 15.6665 10 15.6665C9.72 15.6665 9.42667 15.5465 9.22667 15.3065C8.86667 14.8798 8.93333 14.2532 9.36 13.8932L13.56 10.3865C13.9467 10.0665 14.44 9.93317 14.9067 10.0132C15.3867 10.0932 15.8 10.3865 16.0533 10.8132L17.4533 13.1465L21.36 9.89317C21.7867 9.53317 22.4133 9.59984 22.7733 10.0265C23.12 10.4532 23.0667 11.0798 22.64 11.4398Z" fill="white"/>
</svg>
