<svg width="16" height="16" viewBox="0 0 16 16" fill="none" xmlns="http://www.w3.org/2000/svg">
<g clip-path="url(#clip0_66_26637)">
<path d="M7.06014 1.27249L6.6081 5.41837C6.53361 6.1 5.98464 6.64897 5.30302 6.72346L1.15714 7.17549L0.5 7.24691V8.75303L1.15714 8.82445L5.30302 9.27649C5.98464 9.35098 6.53361 9.89995 6.6081 10.5816L7.06014 14.7275L7.13156 15.3846H8.63767L8.7091 14.7275L9.16113 10.5816C9.23562 9.89995 9.78459 9.35098 10.4662 9.27649L14.6121 8.82445L15.2692 8.75302V7.24691L14.6121 7.17549L10.4662 6.72346C9.78459 6.64897 9.23562 6.1 9.16113 5.41837L8.7091 1.27249L8.63766 0.615356H7.13156L7.06014 1.27249Z" fill="#384CE3"/>
</g>
<defs>
<clipPath id="clip0_66_26637">
<rect width="16" height="16" fill="white"/>
</clipPath>
</defs>
</svg>
