<svg width="24" height="24" viewBox="0 0 24 24" fill="none" xmlns="http://www.w3.org/2000/svg">
<path d="M5.53 2C5.11 2 4.78 2.34 4.78 2.75V4.78H2.75C2.34 4.78 2 5.11 2 5.53C2 5.95 2.34 6.28 2.75 6.28H5.53C5.94 6.28 6.28 5.94 6.28 5.53V2.75C6.28 2.34 5.94 2 5.53 2Z" fill="#67E3FF"/>
<path d="M21.2502 17.7197H18.4702C18.0602 17.7197 17.7202 18.0597 17.7202 18.4697V21.2497C17.7202 21.6597 18.0602 21.9997 18.4702 21.9997C18.8802 21.9997 19.2202 21.6597 19.2202 21.2497V19.2197H21.2502C21.6602 19.2197 22.0002 18.8797 22.0002 18.4697C22.0002 18.0597 21.6602 17.7197 21.2502 17.7197Z" fill="#67E3FF"/>
<path d="M16.7201 18.4703C16.7201 17.5103 17.5101 16.7203 18.4701 16.7203H19.1601V10.0503C19.1601 7.16031 16.8201 4.82031 13.9301 4.82031H7.28008V5.51031C7.28008 6.47031 6.49008 7.26031 5.53008 7.26031H4.83008V13.9303C4.83008 16.8203 7.17008 19.1603 10.0601 19.1603H16.7301V18.4703H16.7201Z" fill="#67E3FF"/>
</svg>
