<svg preserveAspectRatio="none" width="100%" height="100%" overflow="visible" style="display: block;" viewBox="0 0 60 60" fill="none" xmlns="http://www.w3.org/2000/svg">
<g id="AirplaneTilt">
<path id="Vector" d="M43.4367 26.768L50.2664 20.3414L50.3063 20.3016C51.7129 18.8949 52.5032 16.987 52.5032 14.9977C52.5032 13.0083 51.7129 11.1004 50.3063 9.69375C48.8996 8.28707 46.9917 7.4968 45.0023 7.4968C43.013 7.4968 41.1051 8.28707 39.6984 9.69375C39.6984 9.70781 39.6727 9.71953 39.6586 9.73359L33.232 16.5633L13.7789 9.48516C13.4436 9.36321 13.0805 9.33945 12.7322 9.41667C12.3839 9.49389 12.0648 9.66888 11.8125 9.92109L6.1875 15.5461C5.99149 15.7423 5.84143 15.9795 5.74814 16.2406C5.65485 16.5018 5.62064 16.7804 5.64799 17.0563C5.67534 17.3323 5.76356 17.5987 5.9063 17.8365C6.04904 18.0742 6.24274 18.2774 6.47344 18.4312L21.4477 28.4133L17.9742 31.875H13.125C12.6284 31.8752 12.1521 32.0725 11.8008 32.4234L6.17578 38.0484C5.95641 38.2673 5.79469 38.5371 5.70509 38.8337C5.61549 39.1303 5.60079 39.4445 5.66232 39.7482C5.72385 40.0519 5.85968 40.3356 6.05767 40.5739C6.25565 40.8123 6.50963 40.9979 6.79688 41.1141L15.4266 44.5664L18.8719 53.1797L18.8859 53.2172C19.0051 53.5057 19.1945 53.7599 19.4368 53.9567C19.6791 54.1535 19.9667 54.2867 20.2735 54.3442C20.5803 54.4017 20.8966 54.3817 21.1938 54.286C21.4909 54.1902 21.7594 54.0219 21.975 53.7961L27.5695 48.1992C27.7446 48.0258 27.8838 47.8196 27.9791 47.5924C28.0744 47.3652 28.124 47.1214 28.125 46.875V42.0258L31.5844 38.5664L41.5664 53.5406C41.7203 53.7713 41.9234 53.965 42.1612 54.1078C42.3989 54.2505 42.6654 54.3387 42.9413 54.3661C43.2173 54.3934 43.4959 54.3592 43.757 54.2659C44.0182 54.1726 44.2554 54.0226 44.4516 53.8266L50.0766 48.2016C50.3288 47.9492 50.5038 47.6302 50.581 47.2819C50.6582 46.9336 50.6344 46.5704 50.5125 46.2352L43.4367 26.768ZM43.4203 49.5562L33.4383 34.5844C33.2853 34.3519 33.0824 34.1564 32.8444 34.0121C32.6065 33.8678 32.3394 33.7783 32.0625 33.75C31.9992 33.75 31.9383 33.75 31.8773 33.75C31.6309 33.7501 31.3869 33.7988 31.1592 33.8933C30.9316 33.9878 30.7248 34.1263 30.5508 34.3008L24.9258 39.9258C24.574 40.2768 24.3759 40.753 24.375 41.25V46.0992L21.3117 49.1625L18.6164 42.4219C18.5221 42.1879 18.3815 41.9753 18.2031 41.7969C18.0247 41.6185 17.8121 41.4779 17.5781 41.3836L10.8422 38.6883L13.9031 35.625H18.75C18.9963 35.6252 19.2402 35.5769 19.4678 35.4828C19.6955 35.3887 19.9023 35.2506 20.0766 35.0766L25.7016 29.4516C25.898 29.2554 26.0484 29.018 26.142 28.7566C26.2355 28.4953 26.2698 28.2164 26.2425 27.9401C26.2151 27.6638 26.1268 27.3971 25.9838 27.1591C25.8408 26.9211 25.6467 26.7179 25.4156 26.5641L10.4438 16.5797L13.6078 13.418L33.1125 20.5102C33.4562 20.6364 33.8293 20.6593 34.1858 20.576C34.5423 20.4927 34.8666 20.3069 35.1187 20.0414L42.3703 12.3281C43.0771 11.642 44.0255 11.2615 45.0106 11.2689C45.9956 11.2763 46.9382 11.6711 47.6346 12.3678C48.331 13.0645 48.7253 14.0072 48.7322 14.9922C48.7392 15.9773 48.3583 16.9255 47.6719 17.632L39.968 24.8813C39.7025 25.1334 39.5166 25.4577 39.4333 25.8142C39.35 26.1707 39.3729 26.5438 39.4992 26.8875L46.5914 46.3922L43.4203 49.5562Z" fill="var(--fill-0, #FFFDF1)"/>
</g>
</svg>
