<svg preserveAspectRatio="none" width="100%" height="100%" overflow="visible" style="display: block;" viewBox="0 0 60 60" fill="none" xmlns="http://www.w3.org/2000/svg">
<g id="MapPinSimpleArea">
<path id="Vector" d="M28.125 24.1875V41.25C28.125 41.7473 28.3225 42.2242 28.6742 42.5758C29.0258 42.9275 29.5027 43.125 30 43.125C30.4973 43.125 30.9742 42.9275 31.3258 42.5758C31.6775 42.2242 31.875 41.7473 31.875 41.25V24.1875C34.1513 23.7228 36.174 22.4295 37.551 20.5583C38.9279 18.687 39.561 16.3711 39.3275 14.0596C39.094 11.7481 38.0105 9.60568 36.2872 8.04762C34.5638 6.48956 32.3233 5.62691 30 5.62691C27.6767 5.62691 25.4362 6.48956 23.7128 8.04762C21.9895 9.60568 20.906 11.7481 20.6725 14.0596C20.439 16.3711 21.0721 18.687 22.449 20.5583C23.826 22.4295 25.8487 23.7228 28.125 24.1875ZM30 9.375C31.1125 9.375 32.2001 9.7049 33.1251 10.323C34.0501 10.9411 34.7711 11.8196 35.1968 12.8474C35.6226 13.8752 35.734 15.0062 35.5169 16.0974C35.2999 17.1885 34.7641 18.1908 33.9775 18.9775C33.1908 19.7641 32.1885 20.2999 31.0974 20.5169C30.0062 20.734 28.8752 20.6226 27.8474 20.1968C26.8196 19.7711 25.9411 19.0501 25.323 18.1251C24.7049 17.2001 24.375 16.1125 24.375 15C24.375 13.5082 24.9676 12.0774 26.0225 11.0225C27.0774 9.96763 28.5082 9.375 30 9.375ZM56.25 41.25C56.25 48.5578 42.7242 52.5 30 52.5C17.2758 52.5 3.75 48.5578 3.75 41.25C3.75 39.4359 4.64297 36.7664 8.90625 34.357C11.7797 32.7305 15.7312 31.4813 20.3367 30.743C20.5803 30.7045 20.8291 30.7144 21.0689 30.7721C21.3087 30.8297 21.5348 30.9341 21.7343 31.0792C21.9337 31.2242 22.1027 31.4071 22.2314 31.6175C22.3602 31.8278 22.4463 32.0615 22.4848 32.3051C22.5232 32.5487 22.5134 32.7975 22.4557 33.0373C22.398 33.2771 22.2936 33.5032 22.1486 33.7026C22.0035 33.9021 21.8206 34.071 21.6103 34.1998C21.3999 34.3286 21.1663 34.4147 20.9227 34.4531C16.8117 35.1141 13.1883 36.2414 10.7461 37.6289C8.68359 38.7891 7.5 40.1109 7.5 41.25C7.5 44.3813 16.0594 48.75 30 48.75C43.9406 48.75 52.5 44.3813 52.5 41.25C52.5 40.1109 51.3164 38.7891 49.2539 37.6195C46.8023 36.232 43.1883 35.1047 39.0773 34.4438C38.8286 34.4113 38.5888 34.3292 38.3723 34.2023C38.1559 34.0755 37.967 33.9065 37.8171 33.7053C37.6671 33.5042 37.559 33.275 37.4992 33.0313C37.4394 32.7877 37.4292 32.5345 37.469 32.2868C37.5088 32.039 37.598 31.8018 37.7312 31.5892C37.8644 31.3766 38.0389 31.1928 38.2444 31.0489C38.4499 30.9049 38.6822 30.8037 38.9275 30.7511C39.1728 30.6986 39.4262 30.6958 39.6727 30.743C44.2781 31.4813 48.2297 32.7305 51.1031 34.357C55.357 36.7664 56.25 39.4359 56.25 41.25Z" fill="var(--fill-0, #FFFDF1)"/>
</g>
</svg>
