<svg preserveAspectRatio="none" width="100%" height="100%" overflow="visible" style="display: block;" viewBox="0 0 60 60" fill="none" xmlns="http://www.w3.org/2000/svg">
<g id="UserCheck" clip-path="url(#clip0_0_807)">
<path id="Vector" d="M33.75 36.9563C36.6893 35.1256 38.9524 32.3874 40.1969 29.156C41.4414 25.9245 41.5996 22.3757 40.6475 19.0464C39.6955 15.717 37.685 12.7884 34.9203 10.7034C32.1556 8.61842 28.787 7.49063 25.3242 7.49063C21.8614 7.49063 18.4929 8.61842 15.7281 10.7034C12.9634 12.7884 10.9529 15.717 10.0009 19.0464C9.04886 22.3757 9.20706 25.9245 10.4516 29.156C11.6961 32.3874 13.9591 35.1256 16.8984 36.9563C12.0586 38.5406 7.70391 41.5008 4.20234 45.668C3.88222 46.0487 3.72645 46.541 3.76931 47.0366C3.81216 47.5322 4.05013 47.9904 4.43086 48.3106C4.81159 48.6307 5.3039 48.7864 5.79948 48.7436C6.29506 48.7007 6.75331 48.4628 7.07344 48.082C11.7773 42.4664 18.2602 39.375 25.3125 39.375C32.3648 39.375 38.8477 42.4664 43.5633 48.082C43.8834 48.4628 44.3417 48.7007 44.8372 48.7436C45.3328 48.7864 45.8251 48.6307 46.2059 48.3106C46.5866 47.9904 46.8246 47.5322 46.8674 47.0366C46.9103 46.541 46.7545 46.0487 46.4344 45.668C42.9328 41.5008 38.5781 38.5406 33.75 36.9563ZM13.125 23.4375C13.125 21.027 13.8398 18.6707 15.179 16.6665C16.5181 14.6623 18.4216 13.1002 20.6485 12.1777C22.8755 11.2553 25.326 11.0139 27.6902 11.4842C30.0543 11.9544 32.2259 13.1152 33.9304 14.8196C35.6348 16.5241 36.7956 18.6957 37.2658 21.0598C37.7361 23.424 37.4947 25.8745 36.5723 28.1015C35.6498 30.3284 34.0877 32.2319 32.0835 33.571C30.0793 34.9102 27.723 35.625 25.3125 35.625C22.0813 35.6213 18.9835 34.336 16.6987 32.0513C14.414 29.7665 13.1287 26.6687 13.125 23.4375ZM59.4516 31.3266L51.9516 38.8266C51.7774 39.0009 51.5706 39.1392 51.343 39.2336C51.1154 39.3279 50.8714 39.3765 50.625 39.3765C50.3786 39.3765 50.1346 39.3279 49.907 39.2336C49.6794 39.1392 49.4726 39.0009 49.2984 38.8266L45.5484 35.0766C45.1966 34.7247 44.999 34.2476 44.999 33.75C44.999 33.2524 45.1966 32.7753 45.5484 32.4234C45.9003 32.0716 46.3774 31.874 46.875 31.874C47.3726 31.874 47.8497 32.0716 48.2016 32.4234L50.625 34.8492L56.7984 28.6734C57.1503 28.3216 57.6274 28.124 58.125 28.124C58.6226 28.124 59.0997 28.3216 59.4516 28.6734C59.8034 29.0253 60.001 29.5024 60.001 30C60.001 30.4976 59.8034 30.9747 59.4516 31.3266Z" fill="var(--fill-0, #FFFDF1)"/>
</g>
<defs>
<clipPath id="clip0_0_807">
<rect width="60" height="60" fill="white"/>
</clipPath>
</defs>
</svg>
