<svg preserveAspectRatio="none" width="100%" height="100%" overflow="visible" style="display: block;" viewBox="0 0 60 60" fill="none" xmlns="http://www.w3.org/2000/svg">
<g id="Handshake">
<path id="Vector" d="M59.6016 25.2914L53.6203 13.3242C53.4 12.8837 53.095 12.491 52.7229 12.1684C52.3507 11.8458 51.9187 11.5997 51.4514 11.444C50.9841 11.2884 50.4908 11.2264 49.9995 11.2615C49.5083 11.2965 49.0287 11.428 48.5883 11.6484L42.7594 14.5617L30.4805 11.3133C30.1654 11.2313 29.8346 11.2313 29.5195 11.3133L17.2406 14.5617L11.4117 11.6484C10.9713 11.428 10.4917 11.2965 10.0005 11.2615C9.50923 11.2264 9.01588 11.2884 8.5486 11.444C8.08132 11.5997 7.64927 11.8458 7.27713 12.1684C6.90498 12.491 6.60003 12.8837 6.37969 13.3242L0.398438 25.2891C0.178022 25.7295 0.0465242 26.209 0.0114535 26.7003C-0.0236173 27.1916 0.0384261 27.6849 0.19404 28.1522C0.349655 28.6195 0.595792 29.0515 0.918395 29.4237C1.241 29.7958 1.63375 30.1007 2.07422 30.3211L8.40234 33.4875L21.4078 42.7758C21.5994 42.9121 21.8149 43.0115 22.043 43.0688L37.043 46.8188C37.3571 46.8975 37.6863 46.8936 37.9984 46.8073C38.3106 46.7211 38.5951 46.5555 38.8242 46.3266L51.7313 33.4172L57.9234 30.3211C58.8124 29.8761 59.4883 29.0963 59.8025 28.1532C60.1168 27.21 60.0436 26.1807 59.5992 25.2914H59.6016ZM46.7367 33.1125L38.6719 26.6531C38.3106 26.3638 37.855 26.2183 37.3929 26.2447C36.9308 26.2711 36.4948 26.4675 36.1688 26.7961C31.9945 31.0008 27.3422 30.4688 24.375 28.5938L34.5094 18.75H41.9648L48.3422 31.5023L46.7367 33.1125ZM9.73359 15L14.5313 17.3953L8.53828 29.3602L3.75 26.9672L9.73359 15ZM36.9211 42.9211L23.3016 39.518L11.7703 31.282L18.3328 18.157L30 15.0656L32.2969 15.6727L21.75 25.9102L21.7313 25.9313C21.3342 26.3283 21.0314 26.8094 20.8452 27.339C20.659 27.8687 20.594 28.4335 20.6552 28.9916C20.7164 29.5497 20.9022 30.087 21.1987 30.5637C21.4953 31.0405 21.8951 31.4445 22.3688 31.7461C27.1875 34.8234 33.0023 34.3242 37.582 30.5742L44.0625 35.7797L36.9211 42.9211ZM51.4523 29.3578L45.4711 17.4047L50.2664 15L56.25 26.9672L51.4523 29.3578ZM30.8859 51.0773C30.7846 51.4826 30.5509 51.8424 30.2219 52.0997C29.8928 52.357 29.4872 52.4971 29.0695 52.4977C28.9155 52.4975 28.762 52.4786 28.6125 52.4414L18.8461 49.9992C18.6177 49.9429 18.4021 49.8434 18.2109 49.7063L12.0352 45.2953C11.6554 44.9972 11.4053 44.564 11.337 44.0861C11.2686 43.6082 11.3872 43.1223 11.6681 42.7296C11.949 42.337 12.3706 42.0678 12.8449 41.9782C13.3193 41.8885 13.81 41.9853 14.2148 42.2484L20.1 46.4531L29.5313 48.8063C30.0136 48.9269 30.4282 49.2342 30.684 49.6605C30.9398 50.0869 31.0158 50.5973 30.8953 51.0797L30.8859 51.0773Z" fill="var(--fill-0, #FFFDF1)"/>
</g>
</svg>
