<svg preserveAspectRatio="none" width="100%" height="100%" overflow="visible" style="display: block;" viewBox="0 0 60 60" fill="none" xmlns="http://www.w3.org/2000/svg">
<g id="Jeep">
<path id="Vector" d="M56.25 20.625H54.0164L51.8391 10.4648C51.6562 9.6271 51.193 8.87677 50.5262 8.33774C49.8593 7.79871 49.0286 7.5032 48.1711 7.5H11.8289C10.9714 7.5032 10.1407 7.79871 9.47382 8.33774C8.80695 8.87677 8.34384 9.6271 8.16094 10.4648L5.98359 20.625H3.75C3.25272 20.625 2.77581 20.8225 2.42417 21.1742C2.07254 21.5258 1.875 22.0027 1.875 22.5C1.875 22.9973 2.07254 23.4742 2.42417 23.8258C2.77581 24.1775 3.25272 24.375 3.75 24.375H5.625V46.875C5.625 47.8696 6.02009 48.8234 6.72335 49.5266C7.42661 50.2299 8.38044 50.625 9.375 50.625H15C15.9946 50.625 16.9484 50.2299 17.6516 49.5266C18.3549 48.8234 18.75 47.8696 18.75 46.875V41.25H41.25V46.875C41.25 47.8696 41.6451 48.8234 42.3484 49.5266C43.0516 50.2299 44.0054 50.625 45 50.625H50.625C51.6196 50.625 52.5734 50.2299 53.2766 49.5266C53.9799 48.8234 54.375 47.8696 54.375 46.875V24.375H56.25C56.7473 24.375 57.2242 24.1775 57.5758 23.8258C57.9275 23.4742 58.125 22.9973 58.125 22.5C58.125 22.0027 57.9275 21.5258 57.5758 21.1742C57.2242 20.8225 56.7473 20.625 56.25 20.625ZM11.8289 11.25H48.1711L50.1797 20.625H9.82031L11.8289 11.25ZM15 46.875H9.375V41.25H15V46.875ZM45 46.875V41.25H50.625V46.875H45ZM50.625 37.5H35.625V30C35.625 29.5027 35.4275 29.0258 35.0758 28.6742C34.7242 28.3225 34.2473 28.125 33.75 28.125C33.2527 28.125 32.7758 28.3225 32.4242 28.6742C32.0725 29.0258 31.875 29.5027 31.875 30V37.5H28.125V30C28.125 29.5027 27.9275 29.0258 27.5758 28.6742C27.2242 28.3225 26.7473 28.125 26.25 28.125C25.7527 28.125 25.2758 28.3225 24.9242 28.6742C24.5725 29.0258 24.375 29.5027 24.375 30V37.5H9.375V24.375H50.625V37.5ZM13.125 30.9375C13.125 30.3812 13.29 29.8375 13.599 29.375C13.908 28.9124 14.3473 28.552 14.8612 28.3391C15.3751 28.1262 15.9406 28.0705 16.4862 28.179C17.0318 28.2876 17.5329 28.5554 17.9262 28.9488C18.3196 29.3421 18.5874 29.8432 18.696 30.3888C18.8045 30.9344 18.7488 31.4999 18.5359 32.0138C18.323 32.5277 17.9626 32.967 17.5 33.276C17.0375 33.585 16.4938 33.75 15.9375 33.75C15.1916 33.75 14.4762 33.4537 13.9488 32.9262C13.4213 32.3988 13.125 31.6834 13.125 30.9375ZM41.25 30.9375C41.25 30.3812 41.415 29.8375 41.724 29.375C42.033 28.9124 42.4723 28.552 42.9862 28.3391C43.5001 28.1262 44.0656 28.0705 44.6112 28.179C45.1568 28.2876 45.6579 28.5554 46.0512 28.9488C46.4446 29.3421 46.7124 29.8432 46.821 30.3888C46.9295 30.9344 46.8738 31.4999 46.6609 32.0138C46.448 32.5277 46.0876 32.967 45.625 33.276C45.1625 33.585 44.6188 33.75 44.0625 33.75C43.3166 33.75 42.6012 33.4537 42.0738 32.9262C41.5463 32.3988 41.25 31.6834 41.25 30.9375Z" fill="var(--fill-0, #FFFDF1)"/>
</g>
</svg>
