<svg preserveAspectRatio="none" width="100%" height="100%" overflow="visible" style="display: block;" viewBox="0 0 60 60" fill="none" xmlns="http://www.w3.org/2000/svg">
<g id="RoadHorizon">
<path id="Vector" d="M55.2937 46.6406C55.0785 46.762 54.8413 46.8396 54.5959 46.869C54.3506 46.8984 54.1018 46.879 53.864 46.8119C53.6261 46.7448 53.4039 46.6314 53.21 46.4781C53.0161 46.3248 52.8545 46.1347 52.7344 45.9187L36.4031 16.875H31.875V18.75C31.875 19.2473 31.6775 19.7242 31.3258 20.0758C30.9742 20.4275 30.4973 20.625 30 20.625C29.5027 20.625 29.0258 20.4275 28.6742 20.0758C28.3225 19.7242 28.125 19.2473 28.125 18.75V16.875H23.5969L7.26562 45.9187C7.02196 46.3539 6.61542 46.6744 6.13544 46.8097C5.65547 46.9451 5.14137 46.8843 4.70625 46.6406C4.27113 46.397 3.95063 45.9904 3.81525 45.5104C3.67987 45.0305 3.74071 44.5164 3.98437 44.0812L19.2937 16.875H5.625C5.12772 16.875 4.65081 16.6775 4.29917 16.3258C3.94754 15.9742 3.75 15.4973 3.75 15C3.75 14.5027 3.94754 14.0258 4.29917 13.6742C4.65081 13.3225 5.12772 13.125 5.625 13.125H54.375C54.8723 13.125 55.3492 13.3225 55.7008 13.6742C56.0525 14.0258 56.25 14.5027 56.25 15C56.25 15.4973 56.0525 15.9742 55.7008 16.3258C55.3492 16.6775 54.8723 16.875 54.375 16.875H40.7062L56.0156 44.0812C56.137 44.2965 56.2146 44.5337 56.244 44.779C56.2734 45.0244 56.254 45.2732 56.1869 45.511C56.1198 45.7489 56.0064 45.9711 55.8531 46.165C55.6998 46.3589 55.5097 46.5205 55.2937 46.6406ZM30 26.25C29.5027 26.25 29.0258 26.4475 28.6742 26.7992C28.3225 27.1508 28.125 27.6277 28.125 28.125V31.875C28.125 32.3723 28.3225 32.8492 28.6742 33.2008C29.0258 33.5525 29.5027 33.75 30 33.75C30.4973 33.75 30.9742 33.5525 31.3258 33.2008C31.6775 32.8492 31.875 32.3723 31.875 31.875V28.125C31.875 27.6277 31.6775 27.1508 31.3258 26.7992C30.9742 26.4475 30.4973 26.25 30 26.25ZM30 39.375C29.5027 39.375 29.0258 39.5725 28.6742 39.9242C28.3225 40.2758 28.125 40.7527 28.125 41.25V45C28.125 45.4973 28.3225 45.9742 28.6742 46.3258C29.0258 46.6775 29.5027 46.875 30 46.875C30.4973 46.875 30.9742 46.6775 31.3258 46.3258C31.6775 45.9742 31.875 45.4973 31.875 45V41.25C31.875 40.7527 31.6775 40.2758 31.3258 39.9242C30.9742 39.5725 30.4973 39.375 30 39.375Z" fill="var(--fill-0, #FFFDF1)"/>
</g>
</svg>
