<svg preserveAspectRatio="none" width="100%" height="100%" overflow="visible" style="display: block;" viewBox="0 0 60 60" fill="none" xmlns="http://www.w3.org/2000/svg">
<g id="Island">
<path id="Vector" d="M55.8398 53.6719C55.686 53.8643 55.4958 54.0246 55.28 54.1435C55.0642 54.2624 54.8271 54.3376 54.5822 54.3648C54.3373 54.392 54.0895 54.3707 53.8529 54.3021C53.6162 54.2334 53.3954 54.1189 53.2031 53.9648C53.1164 53.8945 44.1047 46.875 30 46.875C15.8953 46.875 6.88125 53.9062 6.79687 53.9672C6.60435 54.1211 6.38341 54.2355 6.14665 54.3041C5.90989 54.3726 5.66196 54.3938 5.41701 54.3664C4.92231 54.3113 4.46978 54.0619 4.15898 53.673C3.84818 53.2842 3.70457 52.7879 3.75973 52.2932C3.81489 51.7985 4.06431 51.346 4.45312 51.0352C4.83516 50.7305 13.4812 43.943 27.4898 43.1953C26.7611 40.292 26.5008 37.2909 26.7188 34.3055C27.1266 29.2172 29.2781 22.4391 36.7969 17.318C35.514 16.9998 34.195 16.8509 32.8734 16.875C28.4203 17.0203 25.6219 19.6195 24.3188 24.825C24.2183 25.2315 23.9846 25.5927 23.6549 25.8509C23.3253 26.1092 22.9187 26.2497 22.5 26.25C22.3467 26.2508 22.1938 26.2319 22.0453 26.1937C21.563 26.0731 21.1483 25.7658 20.8925 25.3395C20.6367 24.9131 20.5607 24.4027 20.6812 23.9203C22.8492 15.2602 28.4414 13.275 32.7516 13.1391C34.4634 13.1018 36.1725 13.2949 37.8328 13.7133C36.9352 12.2297 35.6227 10.6828 33.7992 9.90469C31.4555 8.91094 28.6031 9.34453 25.2891 11.1961C24.8539 11.4385 24.3403 11.4982 23.8612 11.3619C23.3821 11.2256 22.9768 10.9047 22.7344 10.4695C22.492 10.0344 22.4323 9.52081 22.5686 9.04171C22.7048 8.56261 23.0258 8.15727 23.4609 7.91484C27.8531 5.46562 31.8328 4.97578 35.2922 6.46172C38.2195 7.71797 40.1508 10.1602 41.3555 12.3211C42.8039 10.0617 44.6086 8.53125 46.6031 7.88203C49.3828 6.975 52.3781 7.71328 55.5094 10.0781C55.8886 10.3838 56.134 10.8251 56.1936 11.3085C56.2532 11.7919 56.1223 12.2795 55.8287 12.6682C55.5351 13.0568 55.1018 13.3159 54.6205 13.3907C54.1392 13.4655 53.6477 13.35 53.25 13.0687C51.1617 11.4914 49.3195 10.9453 47.7773 11.4445C46.0688 11.9953 44.7609 13.7883 43.9406 15.3375C45.6271 15.6794 47.2498 16.2828 48.75 17.1258C52.1742 19.0828 56.25 23.2312 56.25 31.8773C56.25 32.3746 56.0525 32.8515 55.7008 33.2032C55.3492 33.5548 54.8723 33.7523 54.375 33.7523C53.8777 33.7523 53.4008 33.5548 53.0492 33.2032C52.6975 32.8515 52.5 32.3746 52.5 31.8773C52.5 26.3789 50.6086 22.5023 46.875 20.393C46.4401 20.146 45.99 19.9268 45.5273 19.7367C46.7079 22.1368 47.122 24.8418 46.7133 27.4852C46.4186 29.4408 45.7107 31.3112 44.6367 32.9719C44.3493 33.375 43.9141 33.648 43.4261 33.7315C42.9382 33.8149 42.437 33.702 42.0319 33.4173C41.6269 33.1326 41.3509 32.6993 41.2641 32.2119C41.1773 31.7245 41.2869 31.2226 41.5688 30.8156C41.7422 30.5602 45.3961 25.1016 40.8047 19.2445C34.4766 22.8094 30.9867 27.975 30.4547 34.6172C30.2474 37.4947 30.5514 40.3862 31.3523 43.1578C46.0359 43.582 55.1461 50.7352 55.5398 51.0469C55.9262 51.3562 56.1745 51.8058 56.2307 52.2976C56.2869 52.7893 56.1464 53.2833 55.8398 53.6719ZM5.625 32.8125C5.625 31.5146 6.00988 30.2458 6.73098 29.1666C7.45208 28.0874 8.477 27.2462 9.67614 26.7495C10.8753 26.2528 12.1948 26.1229 13.4678 26.3761C14.7408 26.6293 15.9101 27.2543 16.8279 28.1721C17.7457 29.0899 18.3707 30.2592 18.6239 31.5322C18.8771 32.8052 18.7472 34.1247 18.2505 35.3239C17.7538 36.523 16.9126 37.5479 15.8334 38.269C14.7542 38.9901 13.4854 39.375 12.1875 39.375C10.447 39.375 8.77782 38.6836 7.54711 37.4529C6.3164 36.2222 5.625 34.553 5.625 32.8125ZM9.375 32.8125C9.375 33.3688 9.53995 33.9125 9.84899 34.375C10.158 34.8376 10.5973 35.198 11.1112 35.4109C11.6251 35.6238 12.1906 35.6795 12.7362 35.571C13.2818 35.4624 13.7829 35.1946 14.1762 34.8012C14.5696 34.4079 14.8374 33.9068 14.946 33.3612C15.0545 32.8156 14.9988 32.2501 14.7859 31.7362C14.573 31.2223 14.2126 30.783 13.75 30.474C13.2875 30.165 12.7438 30 12.1875 30C11.4416 30 10.7262 30.2963 10.1988 30.8238C9.67132 31.3512 9.375 32.0666 9.375 32.8125Z" fill="var(--fill-0, #FFFDF1)"/>
</g>
</svg>
