<svg width="1440" height="420" viewBox="0 0 1440 420" fill="none" xmlns="http://www.w3.org/2000/svg">
<g clip-path="url(#clip0_2002_27469)">
<g clip-path="url(#clip1_2002_27469)">
<path d="M596.568 233.629C603.169 230.463 617.856 237.202 625.309 238.714C633.061 240.283 637.649 244.749 631.85 252.271C631.545 252.487 629.611 253.667 629.136 253.574C618.491 251.412 606.001 248.413 596.102 243.998C592.569 242.425 594.562 236.081 596.568 233.629Z" fill="#EB5E28" fill-opacity="0.1"/>
<path d="M541.921 226.573C545.849 225.031 556.353 226.116 560.926 226.405C569.323 226.943 587.095 227.221 577.667 240.196C577.562 240.242 577.458 240.293 577.347 240.337C577.171 240.411 576.987 240.475 576.804 240.542C576.457 240.675 576.316 240.74 575.949 240.848C572.829 241.774 544.307 239.67 542.03 238.228C540.689 237.378 539.533 235.94 539.231 234.359C538.67 231.452 540.378 228.861 541.921 226.573Z" fill="#EB5E28" fill-opacity="0.1"/>
<path d="M278.678 362.57C289.116 358.241 290.558 371.883 284.079 375.192C276.79 378.917 267.34 382.569 259.712 385.843C251.844 388.449 247.837 383.501 250.81 375.983C256.187 371.286 271.546 366.004 278.678 362.57Z" fill="#EB5E28" fill-opacity="0.1"/>
<path d="M144.042 372.388C149.298 370.087 157.961 374.782 163.698 376.307C171.152 378.285 187.764 380.232 178.875 391.431C172.589 395.587 151.909 387.035 144.783 384.327C140.12 382.553 141.451 375.939 144.042 372.388Z" fill="#EB5E28" fill-opacity="0.1"/>
<path d="M651.171 250.121C651.922 249.937 652.676 249.834 653.454 249.788C657.249 249.557 681.223 261.778 683.952 264.47C684.984 265.49 685.491 266.937 685.461 268.378C685.412 271.008 683.458 273.087 681.752 274.863C681.356 274.982 679.837 275.393 679.628 275.37C674.358 274.909 650.162 262.452 647.233 260.144C646.673 254.822 646.711 253.173 651.171 250.121Z" fill="#EB5E28" fill-opacity="0.1"/>
<path d="M409.627 261.543C412.004 260.411 414.135 260.176 416.467 261.663C429.682 270.062 400.913 282.537 394.062 287.608L393.526 288.011C385.008 292.146 379.229 281.717 385.766 276.837C393.202 271.282 401.824 266.786 409.627 261.543Z" fill="#EB5E28" fill-opacity="0.1"/>
<path d="M486.264 232.582C492.652 230.176 536.682 219.216 522.351 239.125C516.337 242.054 497.862 242.936 490.495 244.515C489.897 244.642 487.011 243.704 486.52 243.246C483.095 240.058 483.408 236.014 486.264 232.582Z" fill="#EB5E28" fill-opacity="0.1"/>
<path d="M324.611 328.998C332.323 327.749 335.808 336.562 329.759 341.649C322.628 347.65 314.299 355.446 306.386 360.266C298.752 359.878 296.169 356.724 298.905 349.562C305.079 344.716 318.821 332.806 324.611 328.998Z" fill="#EB5E28" fill-opacity="0.1"/>
<path d="M95.551 345.874C96.6723 345.387 97.7697 344.919 99.013 344.865C101.57 344.753 124.438 359.608 127.312 362.023C128.67 363.167 129.631 364.105 129.75 365.954C129.924 368.677 128.193 370.529 126.545 372.473C121.445 374.902 114.23 369.886 109.92 366.791C102.438 361.423 86.625 356.421 95.551 345.874Z" fill="#EB5E28" fill-opacity="0.1"/>
<path d="M698.843 276.463C704.653 274.248 711.849 279.886 716.511 283.489C723.653 289.015 738.048 294.175 729.125 304.311C727.785 304.86 725.939 305.553 724.457 304.854C721.597 303.5 718.978 301.613 716.351 299.829C710.556 295.889 704.672 292.012 698.947 287.973C697.192 286.739 696.121 284.648 695.919 282.551C695.666 279.879 697.204 278.279 698.843 276.463Z" fill="#EB5E28" fill-opacity="0.1"/>
<path d="M15.1114 269.146C15.5037 268.951 15.8947 268.751 16.2962 268.574C18.2629 267.705 19.8531 267.6 21.8578 268.466C25.1429 269.884 43.3782 291.214 44.3517 294.704C45.0428 297.181 43.1377 299.806 41.9276 301.838C41.5588 302.052 41.1931 302.274 40.8098 302.459C39.3023 303.188 37.7308 303.117 36.215 302.495C32.2124 300.852 15.1517 281.096 13.6257 276.683C12.6562 273.879 13.7918 271.601 15.1114 269.146Z" fill="#EB5E28" fill-opacity="0.1"/>
<path d="M364.151 292.823C371.587 289.059 376.337 297.59 372.453 302.768C370.746 305.039 365.832 308.791 363.425 310.859C358.859 314.749 354.361 318.716 349.933 322.761C348.843 323.15 346.416 324.049 345.408 323.644C331.452 318.044 347.01 306.795 352.464 302.324C357.031 298.582 360.163 295.86 364.151 292.823Z" fill="#EB5E28" fill-opacity="0.1"/>
<path d="M53.4984 309.988C55.8525 309.077 57.3322 309.468 59.761 309.876C67.5225 315.869 75.7284 325.022 83.2043 331.58C85.9476 333.987 83.1124 338.449 81.2937 340.617C77.0716 343.137 72.8619 340.46 69.3825 336.984C63.5494 331.157 53.4861 324.421 50.2558 316.634C49.5372 314.901 52.477 311.253 53.4984 309.988Z" fill="#EB5E28" fill-opacity="0.1"/>
<path d="M434.457 249.26C443.16 245.809 453.128 241.68 462.152 238.968C465.463 237.971 470.778 239.268 470.557 243.628C470.39 246.995 469.508 248.411 467.846 251.289C462.085 253.58 456.01 255.319 450.082 257.491C445.738 259.078 438.15 264.045 433.96 260.26C429.985 256.671 431.487 252.947 434.457 249.26Z" fill="#EB5E28" fill-opacity="0.1"/>
<path d="M198.16 383.817C202.281 382.066 213.512 382.481 218.56 381.878C222.27 381.433 228.318 380.676 231.813 380.72C236.926 384.44 238.315 387.001 233.807 392.472L233.014 392.844C232.278 393.192 229.935 394.111 228.995 394.112C221.525 394.102 196.413 401.542 195.474 390.101C195.236 387.199 196.423 385.915 198.16 383.817Z" fill="#EB5E28" fill-opacity="0.1"/>
<path d="M-15.4639 223.588C-11.2685 221.902 -7.46276 225.687 -5.4745 228.985C-1.24113 236.008 6.51779 244.207 9.59417 251.703C9.1091 255.705 8.72348 256.238 6.09538 259.223C3.16549 259.99 2.56858 259.786 -0.368709 258.845C-1.14866 257.931 -1.91492 257.007 -2.66749 256.071C-6.33893 251.503 -10.0143 246.241 -13.3472 241.385C-17.6851 235.063 -23.7747 229.264 -15.4639 223.588Z" fill="#EB5E28" fill-opacity="0.1"/>
</g>
<path d="M1328.08 33.1522C1332.13 27.0531 1348.2 25.3245 1355.37 22.8078C1362.83 20.1876 1369.06 21.675 1367.93 31.1058C1367.78 31.4475 1366.72 33.4509 1366.27 33.6143C1356.02 37.2059 1343.75 41.0241 1332.99 42.2981C1329.15 42.7555 1327.61 36.2854 1328.08 33.1522Z" fill="#EB5E28" fill-opacity="0.1"/>
<path d="M1277.52 55.0646C1280.11 51.729 1289.69 47.2838 1293.76 45.1915C1301.25 41.3554 1316.66 32.4966 1315.2 48.4684C1315.14 48.5623 1315.07 48.6589 1315 48.7536C1314.89 48.9072 1314.76 49.0562 1314.64 49.2079C1314.41 49.4999 1314.32 49.628 1314.06 49.9082C1311.86 52.3008 1286.28 65.0942 1283.58 65.0207C1282 64.9773 1280.27 64.3333 1279.2 63.13C1277.23 60.9195 1277.37 57.8192 1277.52 55.0646Z" fill="#EB5E28" fill-opacity="0.1"/>
<path d="M1121 306.645C1127.75 297.583 1135.97 308.564 1132.1 314.724C1127.75 321.655 1121.5 329.629 1116.62 336.346C1111.2 342.613 1105.22 340.413 1103.93 332.433C1106.14 325.646 1116.63 313.245 1121 306.645Z" fill="#EB5E28" fill-opacity="0.1"/>
<path d="M1010.37 383.999C1013.71 379.331 1023.55 378.93 1029.26 377.303C1036.68 375.187 1051.94 368.356 1050.04 382.526C1046.77 389.315 1024.62 392.554 1017.12 393.875C1012.2 394.738 1009.96 388.375 1010.37 383.999Z" fill="#EB5E28" fill-opacity="0.1"/>
<path d="M1383.43 19.3684C1383.98 18.8263 1384.57 18.3512 1385.22 17.9139C1388.36 15.7724 1415.21 13.9987 1418.93 14.9145C1420.34 15.262 1421.52 16.2462 1422.23 17.499C1423.53 19.7833 1422.92 22.5693 1422.36 24.9688C1422.08 25.2735 1420.99 26.404 1420.8 26.4919C1416.04 28.7932 1388.87 30.4779 1385.18 29.9947C1381.97 25.7088 1381.16 24.2732 1383.43 19.3684Z" fill="#EB5E28" fill-opacity="0.1"/>
<path d="M1181.78 152.825C1183.24 150.637 1184.95 149.344 1187.71 149.427C1203.37 149.878 1185.04 175.321 1181.75 183.185L1181.49 183.805C1176.29 191.718 1165.99 185.716 1169.11 178.178C1172.65 169.6 1177.76 161.324 1181.78 152.825Z" fill="#EB5E28" fill-opacity="0.1"/>
<path d="M1232.79 88.7166C1237.04 83.3802 1269.26 51.4261 1267.14 75.8647C1263.47 81.4593 1248.05 91.6742 1242.53 96.8022C1242.08 97.2172 1239.12 97.8888 1238.47 97.7466C1233.89 96.7614 1232.09 93.1269 1232.79 88.7166Z" fill="#EB5E28" fill-opacity="0.1"/>
<path d="M1143.27 254.292C1149.26 249.271 1156.76 255.059 1154.17 262.525C1151.12 271.33 1147.95 282.291 1143.62 290.482C1136.87 294.057 1133.03 292.669 1131.72 285.117C1134.54 277.793 1140.25 260.527 1143.27 254.292Z" fill="#EB5E28" fill-opacity="0.1"/>
<path d="M955.14 386.044C955.854 385.052 956.557 384.088 957.597 383.405C959.736 382 986.985 383.055 990.69 383.659C992.442 383.946 993.749 384.26 994.797 385.788C996.34 388.037 995.801 390.515 995.381 393.028C992.243 397.726 983.477 397.109 978.191 396.658C969.016 395.876 952.871 399.673 955.14 386.044Z" fill="#EB5E28" fill-opacity="0.1"/>
<path d="M1437.87 17.5949C1441.72 12.7175 1450.79 13.8772 1456.64 14.5864C1465.6 15.6775 1480.61 12.7412 1478.13 26.0159C1477.26 27.1741 1476.03 28.7137 1474.4 28.8717C1471.25 29.1733 1468.04 28.8929 1464.87 28.7043C1457.87 28.286 1450.83 27.9681 1443.85 27.4286C1441.71 27.2674 1439.72 26.0195 1438.47 24.3214C1436.88 22.1556 1437.39 19.9937 1437.87 17.5949Z" fill="#EB5E28" fill-opacity="0.1"/>
<path d="M846.761 361.308C846.998 360.939 847.232 360.567 847.486 360.21C848.731 358.457 850.043 357.552 852.209 357.27C855.757 356.807 882.34 365.795 884.963 368.295C886.825 370.069 886.532 373.3 886.533 375.665C886.326 376.037 886.125 376.415 885.89 376.77C884.969 378.168 883.582 378.912 881.962 379.153C877.682 379.791 852.913 371.553 849.344 368.543C847.075 366.631 846.885 364.093 846.761 361.308Z" fill="#EB5E28" fill-opacity="0.1"/>
<path d="M1158.72 202.975C1163.18 195.936 1171.63 200.833 1170.95 207.269C1170.64 210.094 1168.34 215.832 1167.33 218.841C1165.4 224.52 1163.57 230.231 1161.83 235.972C1161.1 236.864 1159.47 238.879 1158.4 239.047C1143.54 241.38 1151.15 223.752 1153.55 217.12C1155.56 211.567 1156.85 207.626 1158.72 202.975Z" fill="#EB5E28" fill-opacity="0.1"/>
<path d="M900.645 376.743C902.201 374.755 903.672 374.334 905.967 373.441C915.702 374.616 927.437 378.278 937.216 380.085C940.805 380.749 940.653 386.033 940.201 388.827C937.864 393.153 932.877 393.008 928.109 391.802C920.115 389.782 908.022 389.148 901.261 384.112C899.757 382.991 900.415 378.352 900.645 376.743Z" fill="#EB5E28" fill-opacity="0.1"/>
<path d="M1196.82 129.564C1202.53 122.144 1208.98 113.494 1215.34 106.545C1217.68 103.994 1222.91 102.387 1224.95 106.246C1226.53 109.224 1226.5 110.892 1226.54 114.215C1222.77 119.132 1218.44 123.736 1214.46 128.636C1211.54 132.223 1207.56 140.374 1202.02 139.268C1196.77 138.219 1196.16 134.251 1196.82 129.564Z" fill="#EB5E28" fill-opacity="0.1"/>
<path d="M1062.71 366.113C1065.35 362.5 1075.21 357.107 1079.24 354.005C1082.2 351.724 1087.01 347.978 1090.03 346.227C1096.33 346.805 1098.83 348.294 1097.76 355.302L1097.27 356.027C1096.82 356.703 1095.27 358.691 1094.47 359.173C1088.05 362.989 1070.28 382.235 1063.62 372.888C1061.93 370.516 1062.29 368.805 1062.71 366.113Z" fill="#EB5E28" fill-opacity="0.1"/>
<path d="M797.175 337.822C799.916 334.226 805.123 335.53 808.519 337.346C815.75 341.211 826.613 344.283 833.093 349.147C834.725 352.834 834.667 353.489 833.937 357.399C831.813 359.558 831.195 359.687 828.19 360.382C827.052 359.997 825.921 359.595 824.796 359.177C819.303 357.132 813.452 354.493 808.103 352.027C801.141 348.817 792.941 346.953 797.175 337.822Z" fill="#EB5E28" fill-opacity="0.1"/>
<path d="M746.409 314.486C752.92 304.044 762.327 314.817 770.657 318.119C774.33 319.575 780.631 323.526 783.654 326.013C784.116 328.393 784.068 329.422 784.084 331.81C783.652 332.593 783.211 333.383 782.633 334.069C781.501 335.412 780.085 336.258 778.309 336.355C774.771 336.55 751.485 323.582 748.499 320.573C746.74 318.801 746.421 316.896 746.409 314.486Z" fill="#EB5E28" fill-opacity="0.1"/>
</g>
<defs>
<clipPath id="clip0_2002_27469">
<rect width="1440" height="420" fill="white"/>
</clipPath>
<clipPath id="clip1_2002_27469">
<rect width="906.983" height="906.983" fill="white" transform="translate(-232 -17.0039) rotate(-21.6055)"/>
</clipPath>
</defs>
</svg>
