<svg preserveAspectRatio="none" width="100%" height="100%" overflow="visible" style="display: block;" viewBox="0 0 1858 1858" fill="none" xmlns="http://www.w3.org/2000/svg">
<g id="image 34 [Vectorized]">
<path id="Vector" d="M1654.86 1261.08C1662.08 1261.87 1667.32 1264.64 1669.18 1272.19C1669.8 1274.78 1669.96 1277.46 1669.65 1280.1C1668.93 1286.21 1666.87 1296.17 1665.84 1302.84C1663.2 1320.88 1660.4 1338.89 1657.43 1356.87C1654.22 1376.69 1651.64 1396.42 1648.36 1416.5C1646.86 1425.67 1639.38 1438.15 1627.97 1431.58C1618.5 1426.11 1608.59 1418.12 1599.35 1411.84C1573.81 1394.64 1548.46 1377.2 1523.29 1359.48C1515.18 1353.38 1492.08 1342.74 1503.62 1328.79C1506.31 1325.57 1510.19 1323.54 1514.38 1323.17C1524.78 1322.34 1567.21 1357.46 1578.86 1363.86C1582.77 1366.01 1596.57 1375.93 1600.2 1378.91C1599.73 1364.47 1601 1360.63 1615.24 1356.79C1621.33 1359.26 1624.73 1359.3 1627.07 1365.65L1628.31 1365.66C1628.66 1360.59 1629.52 1355.43 1630.42 1350.4C1635.22 1323.81 1638.38 1296.69 1643.99 1270.31C1644.97 1265.65 1650.98 1262.89 1654.86 1261.08Z" fill="var(--fill-0, #FFBE65)" fill-opacity="0.5"/>
<path id="Vector_2" d="M1389.05 1102.35C1404.01 1101.3 1426.9 1125.21 1439.96 1133.72C1453.54 1142.55 1458.91 1154.52 1442.19 1164.47C1441.45 1164.65 1436.87 1165.44 1436.04 1164.91C1417.4 1152.76 1395.87 1137.63 1380.35 1121.75C1374.8 1116.09 1383.38 1105.51 1389.05 1102.35Z" fill="var(--fill-0, #FFBE65)" fill-opacity="0.5"/>
<path id="Vector_3" d="M1290.29 1047.69C1298.94 1047.72 1318.13 1057.71 1326.62 1061.71C1342.21 1069.07 1375.85 1083 1348.1 1100.6C1347.87 1100.61 1347.63 1100.63 1347.39 1100.63C1347 1100.64 1346.6 1100.62 1346.2 1100.61C1345.44 1100.6 1345.12 1100.62 1344.34 1100.55C1337.7 1099.96 1284.96 1074.44 1281.71 1069.97C1279.8 1067.34 1278.68 1063.73 1279.3 1060.49C1280.42 1054.53 1285.63 1050.89 1290.29 1047.69Z" fill="var(--fill-0, #FFBE65)" fill-opacity="0.5"/>
<path id="Vector_4" d="M686.334 1108.15C709.479 1107.78 701.936 1134.85 687.099 1136.26C670.407 1137.86 649.654 1137.69 632.655 1138.17C615.705 1137.2 611.805 1124.75 623.139 1112.68C636.923 1107.79 670.161 1109.31 686.334 1108.15Z" fill="var(--fill-0, #FFBE65)" fill-opacity="0.5"/>
<path id="Vector_5" d="M422.497 1025.29C434.245 1024.88 447.202 1040.35 456.979 1047.58C469.684 1056.97 499.856 1073.21 474.478 1087.84C459.37 1091.01 426.433 1059.12 414.903 1048.59C407.361 1041.7 414.884 1030.1 422.497 1025.29Z" fill="var(--fill-0, #FFBE65)" fill-opacity="0.5"/>
<path id="Vector_6" d="M1480.61 1174.95C1482.18 1175.17 1483.7 1175.54 1485.21 1176.04C1492.61 1178.46 1529.06 1219.82 1532.22 1227.01C1533.42 1229.73 1533.29 1232.87 1532.15 1235.59C1530.07 1240.56 1524.78 1243.05 1520.19 1245.14C1519.35 1245.07 1516.15 1244.71 1515.77 1244.51C1506.08 1239.65 1469.39 1197.68 1465.55 1191.07C1468.5 1180.51 1469.82 1177.4 1480.61 1174.95Z" fill="var(--fill-0, #FFBE65)" fill-opacity="0.5"/>
<path id="Vector_7" d="M1011.95 1014.51C1017.33 1014.14 1021.56 1015.3 1024.88 1019.9C1043.72 1045.86 979.514 1047.92 962.64 1052.41L961.315 1052.77C941.973 1054.22 938.834 1030 954.965 1025.64C973.318 1020.67 993.132 1018.61 1011.95 1014.51Z" fill="var(--fill-0, #FFBE65)" fill-opacity="0.5"/>
<path id="Vector_8" d="M1179.76 1017.16C1193.74 1017.39 1285.87 1029.73 1243.55 1056.84C1229.89 1057.88 1194.04 1045.62 1178.81 1043.07C1177.58 1042.87 1172.79 1038.9 1172.2 1037.66C1168.08 1029 1171.73 1021.54 1179.76 1017.16Z" fill="var(--fill-0, #FFBE65)" fill-opacity="0.5"/>
<path id="Vector_9" d="M799.141 1078.86C814.774 1082.29 814.762 1101.71 799.404 1106.83C781.296 1112.89 759.552 1121.45 740.846 1124.66C726.598 1118.17 724.058 1110.21 734.67 1098.63C750.086 1094.06 785.243 1081.74 799.141 1078.86Z" fill="var(--fill-0, #FFBE65)" fill-opacity="0.5"/>
<path id="Vector_10" d="M350.14 938.218C352.643 938.136 355.086 938.073 357.495 938.907C362.45 940.622 394.799 986.165 398.451 992.933C400.176 996.135 401.299 998.648 400.13 1002.26C398.407 1007.58 393.713 1009.8 389.109 1012.26C377.562 1013.04 367.605 998.04 361.73 988.896C351.529 973.028 325.184 951.572 350.14 938.218Z" fill="var(--fill-0, #FFBE65)" fill-opacity="0.5"/>
<path id="Vector_11" d="M1551.54 1261.08C1564.28 1261.24 1573.73 1277.41 1579.89 1287.79C1589.32 1303.7 1612.85 1324.39 1588.21 1336.96C1585.24 1337 1581.21 1336.93 1578.91 1334.48C1574.48 1329.74 1570.92 1324.17 1567.26 1318.79C1559.2 1306.91 1550.91 1295.09 1543.06 1283.08C1540.64 1279.41 1540.18 1274.62 1541.38 1270.47C1542.91 1265.19 1547.05 1263.3 1551.54 1261.08Z" fill="var(--fill-0, #FFBE65)" fill-opacity="0.5"/>
<path id="Vector_12" d="M254.81 731.404C255.704 731.328 256.6 731.242 257.498 731.208C261.899 731.037 265.007 732.036 268.172 735.197C273.359 740.377 292.002 794.756 291.223 802.137C290.671 807.378 285.062 810.94 281.225 813.898C280.361 814.027 279.497 814.173 278.627 814.237C275.206 814.488 272.267 813.168 269.849 810.84C263.465 804.691 245.873 754.194 246.295 744.639C246.563 738.567 250.444 735.085 254.81 731.404Z" fill="var(--fill-0, #FFBE65)" fill-opacity="0.5"/>
<path id="Vector_13" d="M901.739 1039.78C918.739 1038.22 921.352 1058.05 910.048 1064.98C905.085 1068.02 892.895 1071.46 886.75 1073.58C875.12 1077.55 863.56 1081.71 852.075 1086.08C849.707 1086 844.405 1085.88 842.791 1084.34C820.434 1063.15 858.552 1053.46 872.313 1049.06C883.834 1045.38 891.852 1042.56 901.739 1039.78Z" fill="var(--fill-0, #FFBE65)" fill-opacity="0.5"/>
<path id="Vector_14" d="M297.115 838.148C302.286 838.188 304.809 840.05 309.127 842.658C319.39 859.926 328.115 883.55 337.407 901.68C340.816 908.333 332.05 914.693 326.951 917.451C317.009 919.066 311.01 910.792 307.005 901.545C300.291 886.047 286.205 865.628 285.926 848.36C285.864 844.518 294.215 839.787 297.115 838.148Z" fill="var(--fill-0, #FFBE65)" fill-opacity="0.5"/>
<path id="Vector_15" d="M1068.5 1009.84C1087.68 1009.83 1109.78 1009.49 1129.02 1011.13C1136.07 1011.73 1145.22 1018.21 1141.51 1026.35C1138.65 1032.63 1135.9 1034.66 1130.57 1038.89C1117.87 1038.91 1104.98 1037.64 1092.06 1037.3C1082.58 1037.05 1064.39 1040.79 1059.26 1030.42C1054.4 1020.58 1060.07 1014.62 1068.5 1009.84Z" fill="var(--fill-0, #FFBE65)" fill-opacity="0.5"/>
<path id="Vector_16" d="M516.952 1087.88C526.122 1087.66 547.199 1096.92 557.268 1099.58C564.67 1101.53 576.759 1104.65 583.384 1107.37C590.316 1118.31 591.029 1124.24 578.317 1131.26L576.525 1131.37C574.861 1131.47 569.707 1131.46 567.915 1130.75C553.695 1125.1 500.253 1120.33 507.094 1097.83C508.831 1092.12 512.06 1090.57 516.952 1087.88Z" fill="var(--fill-0, #FFBE65)" fill-opacity="0.5"/>
<path id="Vector_17" d="M230.94 621.57C240.203 621.523 244.596 631.604 245.895 639.385C248.661 655.953 257.254 677.422 257.459 694.019C253.516 701.276 252.38 702.001 245.123 705.703C238.963 704.955 237.981 704.115 233.096 700.107C232.3 697.779 231.538 695.44 230.81 693.09C227.263 681.621 224.232 668.827 221.547 657.063C218.054 641.75 210.829 626.112 230.94 621.57Z" fill="var(--fill-0, #FFBE65)" fill-opacity="0.5"/>
<path id="Vector_18" d="M205.355 510.009C230.441 507.522 224.716 536.257 229.769 553.903C231.998 561.683 233.462 576.848 233.204 584.863C229.919 588.59 228.189 589.797 224.333 592.809C222.523 593.086 220.689 593.358 218.853 593.278C215.258 593.119 212.117 591.879 209.739 589.118C204.999 583.618 196.937 529.616 198.088 521.009C198.766 515.939 201.459 513.041 205.355 510.009Z" fill="var(--fill-0, #FFBE65)" fill-opacity="0.5"/>
<path id="Vector_19" d="M201.613 422.739C215.462 425.643 216.142 439.921 217.206 451.514C218.605 466.745 221.977 474.596 205.887 481.275C189.752 480.13 190.41 469.317 189.036 455.69C188.304 448.426 187.921 441.091 188.054 433.78C192.83 427.227 194.113 425.786 201.613 422.739Z" fill="var(--fill-0, #FFBE65)" fill-opacity="0.5"/>
</g>
</svg>
