<svg width="1440" height="468" viewBox="0 0 1440 468" fill="none" xmlns="http://www.w3.org/2000/svg">
<g clip-path="url(#clip0_2002_26173)">
<g clip-path="url(#clip1_2002_26173)">
<path d="M1324.36 121.075C1337.89 114.588 1367.97 128.394 1383.24 131.491C1399.12 134.706 1408.52 143.854 1396.64 159.263C1396.02 159.706 1392.05 162.123 1391.08 161.933C1369.27 157.504 1343.69 151.361 1323.41 142.316C1316.17 139.094 1320.26 126.098 1324.36 121.075Z" fill="#EB5E28" fill-opacity="0.1"/>
<path d="M1212.42 106.621C1220.47 103.463 1241.98 105.684 1251.35 106.277C1268.55 107.379 1304.96 107.948 1285.65 134.527C1285.43 134.623 1285.22 134.726 1284.99 134.816C1284.63 134.969 1284.25 135.099 1283.88 135.237C1283.17 135.509 1282.88 135.643 1282.13 135.863C1275.73 137.76 1217.3 133.451 1212.64 130.497C1209.89 128.756 1207.53 125.81 1206.91 122.571C1205.76 116.615 1209.26 111.307 1212.42 106.621Z" fill="#EB5E28" fill-opacity="0.1"/>
<path d="M673.148 385.216C694.53 376.348 697.485 404.295 684.211 411.074C669.28 418.705 649.922 426.186 634.295 432.892C618.177 438.231 609.968 428.094 616.059 412.694C627.075 403.072 658.539 392.251 673.148 385.216Z" fill="#EB5E28" fill-opacity="0.1"/>
<path d="M397.337 405.328C408.106 400.614 425.852 410.233 437.604 413.356C452.874 417.408 486.905 421.396 468.695 444.338C455.818 452.853 413.453 435.332 398.855 429.785C389.304 426.151 392.029 412.602 397.337 405.328Z" fill="#EB5E28" fill-opacity="0.1"/>
<path d="M1436.22 154.859C1437.76 154.484 1439.3 154.272 1440.89 154.178C1448.67 153.704 1497.78 178.739 1503.37 184.254C1505.49 186.343 1506.52 189.309 1506.46 192.26C1506.36 197.647 1502.36 201.906 1498.86 205.545C1498.05 205.788 1494.94 206.63 1494.51 206.585C1483.72 205.64 1434.15 180.121 1428.15 175.393C1427 164.489 1427.08 161.112 1436.22 154.859Z" fill="#EB5E28" fill-opacity="0.1"/>
<path d="M941.408 178.256C946.276 175.937 950.642 175.457 955.42 178.502C982.491 195.708 923.556 221.264 909.521 231.652L908.423 232.477C890.974 240.949 879.137 219.584 892.527 209.587C907.76 198.207 925.424 188.996 941.408 178.256Z" fill="#EB5E28" fill-opacity="0.1"/>
<path d="M1098.4 118.93C1111.48 114.002 1201.68 91.5502 1172.32 132.334C1160.01 138.335 1122.16 140.141 1107.07 143.376C1105.84 143.636 1099.93 141.714 1098.92 140.776C1091.91 134.246 1092.55 125.961 1098.4 118.93Z" fill="#EB5E28" fill-opacity="0.1"/>
<path d="M767.246 316.442C783.046 313.883 790.184 331.938 777.792 342.359C763.185 354.652 746.121 370.621 729.912 380.495C714.273 379.702 708.983 373.239 714.587 358.569C727.235 348.642 755.386 324.242 767.246 316.442Z" fill="#EB5E28" fill-opacity="0.1"/>
<path d="M298.004 351.013C300.301 350.016 302.55 349.057 305.096 348.946C310.335 348.716 357.18 379.147 363.068 384.095C365.85 386.438 367.82 388.361 368.063 392.148C368.419 397.725 364.873 401.52 361.497 405.501C351.049 410.478 336.27 400.202 327.44 393.863C312.113 382.866 279.719 372.619 298.004 351.013Z" fill="#EB5E28" fill-opacity="0.1"/>
<path d="M133.218 193.833C134.021 193.432 134.822 193.023 135.645 192.661C139.674 190.881 142.931 190.666 147.038 192.439C153.768 195.345 191.124 239.039 193.118 246.189C194.534 251.264 190.631 256.642 188.152 260.804C187.396 261.242 186.647 261.696 185.862 262.076C182.774 263.57 179.555 263.424 176.449 262.15C168.25 258.784 133.3 218.312 130.174 209.274C128.188 203.529 130.514 198.863 133.218 193.833Z" fill="#EB5E28" fill-opacity="0.1"/>
<path d="M848.245 242.335C863.477 234.624 873.208 252.101 865.251 262.708C861.755 267.361 851.688 275.046 846.757 279.282C837.403 287.251 828.189 295.379 819.118 303.665C816.886 304.461 811.913 306.304 809.847 305.473C781.258 294.001 813.13 270.957 824.304 261.799C833.659 254.132 840.075 248.557 848.245 242.335Z" fill="#EB5E28" fill-opacity="0.1"/>
<path d="M211.86 277.501C216.683 275.634 219.714 276.436 224.689 277.271C240.589 289.547 257.399 308.298 272.714 321.733C278.334 326.664 272.526 335.804 268.8 340.246C260.151 345.408 251.527 339.924 244.399 332.802C232.45 320.865 211.835 307.068 205.217 291.115C203.745 287.566 209.768 280.092 211.86 277.501Z" fill="#EB5E28" fill-opacity="0.1"/>
<path d="M992.269 153.096C1010.1 146.026 1030.52 137.568 1049 132.012C1055.79 129.97 1066.67 132.625 1066.22 141.558C1065.88 148.455 1064.07 151.357 1060.67 157.252C1048.87 161.945 1036.42 165.508 1024.28 169.956C1015.38 173.208 999.834 183.384 991.25 175.63C983.108 168.277 986.185 160.648 992.269 153.096Z" fill="#EB5E28" fill-opacity="0.1"/>
<path d="M508.203 428.742C516.645 425.155 539.652 426.006 549.992 424.77C557.592 423.858 569.981 422.308 577.143 422.399C587.616 430.019 590.461 435.265 581.227 446.474L579.602 447.235C578.095 447.949 573.295 449.83 571.369 449.832C556.067 449.813 504.623 465.054 502.699 441.617C502.212 435.672 504.643 433.04 508.203 428.742Z" fill="#EB5E28" fill-opacity="0.1"/>
<path d="M70.5864 100.505C79.1811 97.0501 86.9772 104.805 91.0502 111.562C99.7225 125.947 115.617 142.743 121.919 158.099C120.925 166.298 120.135 167.39 114.752 173.505C108.75 175.077 107.527 174.657 101.51 172.729C99.9119 170.858 98.3422 168.964 96.8005 167.048C89.2794 157.691 81.7502 146.911 74.9226 136.962C66.0362 124.012 53.5615 112.133 70.5864 100.505Z" fill="#EB5E28" fill-opacity="0.1"/>
<path d="M5.72008 6.20135C28.1277 -5.34754 33.3857 23.4761 44.5816 38.022C49.5181 44.4353 56.4632 57.9951 59.175 65.5421C57.493 70.2168 56.3291 71.9765 53.8533 76.1966C52.2724 77.1203 50.6671 78.0488 48.9302 78.6498C45.5298 79.8257 42.1522 79.8296 38.9249 78.1384C32.4935 74.7703 5.11293 27.5304 3.01415 19.1044C1.77755 14.1414 3.21371 10.455 5.72008 6.20135Z" fill="#EB5E28" fill-opacity="0.1"/>
</g>
</g>
<defs>
<clipPath id="clip0_2002_26173">
<rect width="1440" height="468" fill="white"/>
</clipPath>
<clipPath id="clip1_2002_26173">
<rect width="1858" height="1858" fill="white" transform="translate(-373 -392.359) rotate(-21.6055)"/>
</clipPath>
</defs>
</svg>
