<svg width="1440" height="561" viewBox="0 0 1440 561" fill="none" xmlns="http://www.w3.org/2000/svg">
<g clip-path="url(#clip0_30_953)">
<g clip-path="url(#clip1_30_953)">
<path d="M1324.36 134.575C1337.88 128.088 1367.97 141.894 1383.24 144.991C1399.12 148.205 1408.52 157.353 1396.64 172.763C1396.01 173.206 1392.05 175.623 1391.08 175.433C1369.27 171.003 1343.69 164.861 1323.41 155.815C1316.17 152.593 1320.25 139.598 1324.36 134.575Z" fill="#FFBE65" fill-opacity="0.5"/>
<path d="M1212.41 120.12C1220.46 116.962 1241.98 119.183 1251.35 119.776C1268.55 120.878 1304.96 121.447 1285.64 148.026C1285.43 148.121 1285.21 148.225 1284.99 148.315C1284.63 148.467 1284.25 148.598 1283.87 148.736C1283.16 149.008 1282.87 149.142 1282.12 149.362C1275.73 151.259 1217.3 146.95 1212.64 143.996C1209.89 142.255 1207.52 139.309 1206.9 136.07C1205.76 130.114 1209.25 124.806 1212.41 120.12Z" fill="#FFBE65" fill-opacity="0.5"/>
<path d="M673.149 398.716C694.531 389.848 697.485 417.795 684.212 424.574C669.281 432.205 649.923 439.686 634.295 446.392C618.178 451.731 609.969 441.594 616.06 426.194C627.076 416.572 658.54 405.751 673.149 398.716Z" fill="#FFBE65" fill-opacity="0.5"/>
<path d="M397.34 418.829C408.108 414.115 425.854 423.734 437.607 426.856C452.876 430.908 486.908 434.897 468.698 457.839C455.82 466.354 413.456 448.833 398.857 443.286C389.307 439.652 392.032 426.102 397.34 418.829Z" fill="#FFBE65" fill-opacity="0.5"/>
<path d="M1436.22 168.358C1437.76 167.983 1439.3 167.771 1440.9 167.677C1448.67 167.203 1497.78 192.238 1503.37 197.753C1505.49 199.842 1506.53 202.808 1506.46 205.759C1506.36 211.146 1502.36 215.405 1498.87 219.044C1498.05 219.287 1494.94 220.129 1494.51 220.084C1483.72 219.139 1434.15 193.62 1428.15 188.892C1427.01 177.988 1427.08 174.611 1436.22 168.358Z" fill="#FFBE65" fill-opacity="0.5"/>
<path d="M941.404 191.756C946.273 189.438 950.639 188.957 955.417 192.003C982.488 209.208 923.553 234.764 909.518 245.153L908.42 245.978C890.971 254.449 879.133 233.084 892.524 223.087C907.757 211.707 925.42 202.497 941.404 191.756Z" fill="#FFBE65" fill-opacity="0.5"/>
<path d="M1098.4 132.429C1111.48 127.501 1201.68 105.049 1172.32 145.833C1160.01 151.834 1122.16 153.64 1107.07 156.875C1105.84 157.135 1099.93 155.213 1098.92 154.275C1091.91 147.744 1092.55 139.46 1098.4 132.429Z" fill="#FFBE65" fill-opacity="0.5"/>
<path d="M767.244 329.943C783.044 327.383 790.182 345.438 777.79 355.859C763.183 368.153 746.12 384.122 729.91 393.995C714.272 393.202 708.981 386.74 714.585 372.07C727.234 362.142 755.384 337.743 767.244 329.943Z" fill="#FFBE65" fill-opacity="0.5"/>
<path d="M298.004 364.514C300.301 363.516 302.55 362.557 305.096 362.447C310.335 362.216 357.18 392.648 363.068 397.596C365.85 399.938 367.82 401.861 368.063 405.648C368.419 411.225 364.873 415.02 361.497 419.002C351.049 423.979 336.27 413.702 327.44 407.363C312.113 396.367 279.719 386.119 298.004 364.514Z" fill="#FFBE65" fill-opacity="0.5"/>
<path d="M133.22 207.332C134.024 206.932 134.825 206.523 135.647 206.16C139.676 204.381 142.934 204.165 147.04 205.938C153.77 208.845 191.126 252.539 193.12 259.688C194.536 264.763 190.633 270.141 188.154 274.304C187.399 274.742 186.649 275.195 185.864 275.576C182.776 277.069 179.557 276.923 176.452 275.649C168.252 272.283 133.302 231.812 130.176 222.773C128.19 217.029 130.517 212.362 133.22 207.332Z" fill="#FFBE65" fill-opacity="0.5"/>
<path d="M848.245 255.836C863.477 248.125 873.208 265.602 865.251 276.208C861.755 280.862 851.688 288.547 846.757 292.783C837.403 300.752 828.189 308.88 819.118 317.166C816.886 317.962 811.913 319.805 809.847 318.973C781.258 307.502 813.13 284.458 824.304 275.3C833.659 267.633 840.075 262.057 848.245 255.836Z" fill="#FFBE65" fill-opacity="0.5"/>
<path d="M211.857 291C216.68 289.133 219.711 289.935 224.687 290.77C240.587 303.046 257.397 321.797 272.711 335.232C278.331 340.163 272.523 349.303 268.797 353.745C260.148 358.907 251.525 353.423 244.397 346.301C232.448 334.364 211.832 320.567 205.215 304.614C203.743 301.065 209.765 293.591 211.857 291Z" fill="#FFBE65" fill-opacity="0.5"/>
<path d="M992.27 166.596C1010.1 159.525 1030.52 151.067 1049.01 145.512C1055.79 143.47 1066.68 146.125 1066.22 155.057C1065.88 161.955 1064.07 164.857 1060.67 170.751C1048.87 175.445 1036.42 179.008 1024.28 183.456C1015.38 186.707 999.835 196.884 991.251 189.13C983.109 181.777 986.186 174.147 992.27 166.596Z" fill="#FFBE65" fill-opacity="0.5"/>
<path d="M508.205 442.241C516.646 438.654 539.654 439.505 549.994 438.269C557.594 437.357 569.983 435.807 577.144 435.898C587.618 443.518 590.463 448.763 581.229 459.973L579.603 460.734C578.097 461.448 573.297 463.329 571.371 463.331C556.069 463.312 504.624 478.553 502.701 455.116C502.214 449.171 504.645 446.539 508.205 442.241Z" fill="#FFBE65" fill-opacity="0.5"/>
<path d="M70.5848 114.005C79.1794 110.55 86.9756 118.305 91.0486 125.062C99.7209 139.447 115.615 156.243 121.918 171.599C120.924 179.798 120.134 180.89 114.75 187.005C108.748 188.577 107.525 188.157 101.508 186.229C99.9103 184.358 98.3406 182.464 96.7989 180.548C89.2778 171.19 81.7486 160.411 74.921 150.462C66.0346 137.512 53.5599 125.633 70.5848 114.005Z" fill="#FFBE65" fill-opacity="0.5"/>
<path d="M5.71915 19.7017C28.1267 8.15278 33.3848 36.9764 44.5807 51.5223C49.5171 57.9357 56.4622 71.4954 59.174 79.0425C57.4921 83.7171 56.3281 85.4768 53.8524 89.6969C52.2715 90.6206 50.6662 91.5491 48.9293 92.1501C45.5289 93.3261 42.1513 93.3299 38.924 91.6387C32.4926 88.2706 5.112 41.0308 3.01322 32.6047C1.77662 27.6418 3.21278 23.9554 5.71915 19.7017Z" fill="#FFBE65" fill-opacity="0.5"/>
</g>
</g>
<defs>
<clipPath id="clip0_30_953">
<rect width="1440" height="561" fill="white"/>
</clipPath>
<clipPath id="clip1_30_953">
<rect width="1858" height="1858" fill="white" transform="translate(-373 -378.86) rotate(-21.6055)"/>
</clipPath>
</defs>
</svg>
