<svg width="1440" height="354" viewBox="0 0 1440 354" fill="none" xmlns="http://www.w3.org/2000/svg">
<g clip-path="url(#clip0_2002_28432)">
<path d="M668.982 141.199C675.77 137.948 690.831 144.775 698.48 146.293C706.436 147.869 711.134 152.41 705.154 160.102C704.84 160.324 702.851 161.534 702.363 161.44C691.438 159.269 678.621 156.25 668.469 151.778C664.846 150.185 666.914 143.707 668.982 141.199Z" fill="#EB5E28" fill-opacity="0.1"/>
<path d="M612.884 134.177C616.924 132.591 627.707 133.664 632.402 133.944C641.023 134.466 659.274 134.692 649.55 147.958C649.442 148.006 649.335 148.058 649.221 148.103C649.04 148.179 648.851 148.245 648.663 148.314C648.305 148.451 648.161 148.518 647.783 148.629C644.576 149.583 615.292 147.529 612.959 146.066C611.584 145.203 610.402 143.74 610.097 142.128C609.53 139.164 611.293 136.515 612.884 134.177Z" fill="#EB5E28" fill-opacity="0.1"/>
<path d="M342.11 273.754C352.843 269.304 354.28 283.217 347.616 286.613C340.119 290.436 330.403 294.192 322.558 297.556C314.47 300.24 310.37 295.205 313.448 287.527C318.985 282.718 334.775 277.28 342.11 273.754Z" fill="#EB5E28" fill-opacity="0.1"/>
<path d="M203.814 284.202C209.22 281.838 218.101 286.6 223.987 288.136C231.636 290.13 248.69 292.063 239.525 303.516C233.056 307.776 211.846 299.118 204.536 296.378C199.754 294.584 201.142 287.832 203.814 284.202Z" fill="#EB5E28" fill-opacity="0.1"/>
<path d="M725.003 157.847C725.775 157.657 726.55 157.549 727.348 157.5C731.247 157.252 755.828 169.642 758.621 172.379C759.678 173.416 760.194 174.891 760.159 176.361C760.1 179.044 758.087 181.171 756.328 182.988C755.921 183.111 754.36 183.535 754.146 183.513C748.736 183.059 723.927 170.429 720.927 168.085C720.369 162.657 720.413 160.975 725.003 157.847Z" fill="#EB5E28" fill-opacity="0.1"/>
<path d="M476.913 170.274C479.357 169.112 481.547 168.866 483.937 170.375C497.481 178.9 467.896 191.719 460.844 196.914L460.292 197.326C451.532 201.572 445.631 190.952 452.36 185.953C460.014 180.262 468.883 175.648 476.913 170.274Z" fill="#EB5E28" fill-opacity="0.1"/>
<path d="M555.708 140.485C562.276 138.01 607.528 126.689 592.747 147.044C586.562 150.051 567.586 151.01 560.015 152.645C559.401 152.776 556.439 151.828 555.936 151.363C552.429 148.122 552.764 143.995 555.708 140.485Z" fill="#EB5E28" fill-opacity="0.1"/>
<path d="M389.388 239.36C397.313 238.06 400.863 247.04 394.635 252.249C387.293 258.393 378.714 266.372 370.572 271.314C362.734 270.944 360.092 267.734 362.924 260.42C369.281 255.457 383.431 243.262 389.388 239.36Z" fill="#EB5E28" fill-opacity="0.1"/>
<path d="M154.102 257.311C155.255 256.81 156.383 256.329 157.66 256.27C160.287 256.147 183.723 271.228 186.666 273.682C188.058 274.844 189.042 275.799 189.158 277.685C189.327 280.461 187.544 282.357 185.846 284.344C180.6 286.839 173.207 281.745 168.791 278.602C161.125 273.15 144.901 268.098 154.102 257.311Z" fill="#EB5E28" fill-opacity="0.1"/>
<path d="M773.875 184.566C779.849 182.287 787.221 188.016 791.996 191.676C799.313 197.291 814.079 202.508 804.883 212.876C803.505 213.441 801.608 214.154 800.088 213.445C797.155 212.074 794.471 210.157 791.78 208.345C785.841 204.344 779.811 200.409 773.945 196.307C772.146 195.054 771.053 192.924 770.852 190.786C770.601 188.061 772.186 186.424 773.875 184.566Z" fill="#EB5E28" fill-opacity="0.1"/>
<path d="M71.7408 179.298C72.1443 179.097 72.5465 178.892 72.9594 178.711C74.9819 177.818 76.6153 177.706 78.6712 178.582C82.0403 180.019 100.698 201.719 101.687 205.276C102.389 207.801 100.424 210.485 99.1747 212.562C98.7952 212.781 98.4189 213.008 98.0247 213.198C96.4742 213.947 94.8606 213.879 93.306 213.25C89.2008 211.587 71.7438 191.488 70.1909 186.992C69.2042 184.134 70.3778 181.807 71.7408 179.298Z" fill="#EB5E28" fill-opacity="0.1"/>
<path d="M430.111 202.33C437.759 198.466 442.61 207.154 438.604 212.448C436.844 214.771 431.786 218.613 429.307 220.731C424.605 224.713 419.973 228.775 415.413 232.916C414.293 233.316 411.797 234.241 410.763 233.83C396.449 228.163 412.463 216.638 418.079 212.06C422.78 208.227 426.006 205.441 430.111 202.33Z" fill="#EB5E28" fill-opacity="0.1"/>
<path d="M111.031 220.839C113.452 219.901 114.97 220.296 117.463 220.704C125.414 226.792 133.812 236.103 141.468 242.769C144.278 245.216 141.352 249.776 139.477 251.994C135.133 254.578 130.819 251.861 127.257 248.326C121.285 242.4 110.972 235.562 107.68 227.628C106.947 225.863 109.978 222.132 111.031 220.839Z" fill="#EB5E28" fill-opacity="0.1"/>
<path d="M502.452 157.665C511.4 154.117 521.65 149.873 530.926 147.077C534.33 146.05 539.783 147.355 539.542 151.804C539.36 155.239 538.449 156.687 536.734 159.628C530.81 161.983 524.566 163.777 518.471 166.011C514.005 167.644 506.197 172.736 501.906 168.888C497.835 165.24 499.39 161.435 502.452 157.665Z" fill="#EB5E28" fill-opacity="0.1"/>
<path d="M259.355 295.687C263.592 293.887 275.124 294.275 280.31 293.643C284.121 293.177 290.335 292.386 293.924 292.42C299.163 296.198 300.581 298.806 295.934 304.402L295.118 304.784C294.362 305.141 291.953 306.086 290.987 306.09C283.316 306.104 257.503 313.775 256.575 302.106C256.34 299.147 257.563 297.833 259.355 295.687Z" fill="#EB5E28" fill-opacity="0.1"/>
<path d="M40.4879 132.922C44.8019 131.189 48.698 135.038 50.7292 138.396C55.0541 145.546 62.9958 153.885 66.131 161.522C65.62 165.606 65.2222 166.151 62.5137 169.205C59.5024 169.997 58.8901 169.79 55.8767 168.839C55.0786 167.91 54.2947 166.969 53.5248 166.017C49.7691 161.37 46.0116 156.014 42.6045 151.07C38.17 144.635 31.935 138.739 40.4879 132.922Z" fill="#EB5E28" fill-opacity="0.1"/>
<path d="M8.11847 86.0644C19.3696 80.2783 21.9603 94.6232 27.5501 101.849C30.0147 105.035 33.475 111.776 34.8226 115.53C33.9721 117.861 33.3859 118.739 32.1382 120.844C31.3442 121.307 30.538 121.771 29.6663 122.074C27.9599 122.664 26.2666 122.672 24.6514 121.835C21.4326 120.167 7.78065 96.6865 6.74174 92.4939C6.1296 90.0244 6.85534 88.1865 8.11847 86.0644Z" fill="#EB5E28" fill-opacity="0.1"/>
<path d="M-9.60951 46.4026C-2.61514 45.1856 0.317093 51.662 2.9368 56.8261C6.37896 63.6106 9.3898 66.6175 3.10448 72.6795C-4.63479 75.1321 -6.3079 70.0109 -9.44446 63.9634C-11.1164 60.7398 -12.6383 57.4188 -13.9148 54.0138C-12.8864 50.1007 -12.5516 49.1975 -9.60951 46.4026Z" fill="#EB5E28" fill-opacity="0.1"/>
<path d="M1398.12 27.881C1401.2 24.8253 1411.56 21.5711 1415.99 19.9818C1424.14 17.0698 1441.03 10.0936 1437.42 26.1828C1437.34 26.2697 1437.26 26.3597 1437.17 26.4466C1437.04 26.5881 1436.89 26.7232 1436.74 26.8615C1436.47 27.1285 1436.36 27.2475 1436.06 27.4983C1433.49 29.6433 1405.71 39.2744 1402.97 38.8401C1401.36 38.584 1399.68 37.6968 1398.75 36.3274C1397.04 33.8109 1397.6 30.6689 1398.12 27.881Z" fill="#EB5E28" fill-opacity="0.1"/>
<path d="M1204.98 263.493C1213.07 255.155 1219.99 267.448 1215.22 273.211C1209.86 279.696 1202.42 286.993 1196.55 293.191C1190.19 298.856 1184.39 295.816 1184.13 287.508C1187.3 280.883 1199.65 269.64 1204.98 263.493Z" fill="#EB5E28" fill-opacity="0.1"/>
<path d="M1081.87 327.599C1085.89 323.285 1095.98 324.19 1102.02 323.293C1109.86 322.124 1126.34 317.196 1122.51 331.39C1118.27 337.875 1095.26 338.223 1087.43 338.569C1082.31 338.793 1080.87 332.006 1081.87 327.599Z" fill="#EB5E28" fill-opacity="0.1"/>
<path d="M1287.46 114.778C1289.25 112.741 1291.16 111.652 1293.97 112.106C1309.87 114.653 1287.79 138.148 1283.38 145.726L1283.04 146.325C1276.68 153.698 1266.98 146.205 1271.16 138.936C1275.92 130.662 1282.23 122.906 1287.46 114.778Z" fill="#EB5E28" fill-opacity="0.1"/>
<path d="M1348.02 56.2224C1353.07 51.3495 1390.18 23.0689 1384.76 47.7018C1380.27 52.9166 1363.19 61.2739 1356.88 65.7656C1356.36 66.1289 1353.26 66.4187 1352.61 66.1862C1348.07 64.5716 1346.72 60.6258 1348.02 56.2224Z" fill="#EB5E28" fill-opacity="0.1"/>
<path d="M1234.67 213.09C1241.45 208.769 1248.32 215.671 1244.69 222.937C1240.4 231.507 1235.71 242.259 1230.2 250.033C1222.84 252.776 1219.11 250.85 1218.78 242.975C1222.63 235.885 1230.76 219.043 1234.67 213.09Z" fill="#EB5E28" fill-opacity="0.1"/>
<path d="M1025.29 322.317C1026.15 321.4 1026.99 320.511 1028.15 319.954C1030.51 318.806 1058.15 323.517 1061.85 324.627C1063.6 325.154 1064.89 325.648 1065.75 327.345C1067.03 329.845 1066.15 332.299 1065.38 334.805C1061.56 339.176 1052.7 337.378 1047.37 336.212C1038.12 334.192 1021.16 335.909 1025.29 322.317Z" fill="#EB5E28" fill-opacity="0.1"/>
<path d="M918.094 282.639C918.384 282.295 918.672 281.947 918.979 281.616C920.482 279.995 921.941 279.248 924.186 279.249C927.865 279.251 953.769 291.961 956.109 294.859C957.771 296.917 957.041 300.171 956.726 302.582C956.465 302.934 956.21 303.292 955.924 303.624C954.798 304.926 953.285 305.499 951.601 305.529C947.153 305.608 922.999 293.905 919.761 290.361C917.704 288.108 917.848 285.495 918.094 282.639Z" fill="#EB5E28" fill-opacity="0.1"/>
<path d="M1257.27 162.832C1262.76 156.25 1270.72 162.37 1269.16 168.84C1268.47 171.68 1265.36 177.223 1263.93 180.156C1261.2 185.688 1258.57 191.266 1256.04 196.888C1255.17 197.699 1253.24 199.537 1252.13 199.564C1236.67 199.961 1246.78 183.004 1250.11 176.562C1252.89 171.169 1254.74 167.324 1257.27 162.832Z" fill="#EB5E28" fill-opacity="0.1"/>
<path d="M970.97 305.564C972.821 303.745 974.378 303.512 976.837 302.908C986.605 305.404 998.08 310.704 1007.81 313.85C1011.38 315.005 1010.52 320.373 1009.69 323.161C1006.73 327.259 1001.66 326.447 996.961 324.581C989.081 321.456 976.837 319.196 970.615 313.159C969.231 311.816 970.521 307.174 970.97 305.564Z" fill="#EB5E28" fill-opacity="0.1"/>
<path d="M1305.9 93.0691C1312.71 86.2661 1320.44 78.3081 1327.86 72.0724C1330.58 69.7827 1336.12 68.8417 1337.69 73.0485C1338.9 76.2954 1338.65 77.992 1338.25 81.3853C1333.75 85.8949 1328.72 90.0112 1324.01 94.4755C1320.55 97.7434 1315.41 105.524 1309.91 103.657C1304.7 101.887 1304.6 97.7591 1305.9 93.0691Z" fill="#EB5E28" fill-opacity="0.1"/>
<path d="M1137.62 316.347C1140.79 313.015 1151.57 308.833 1156.09 306.208C1159.41 304.276 1164.81 301.099 1168.13 299.717C1174.47 301.146 1176.82 302.998 1174.8 310L1174.2 310.674C1173.65 311.303 1171.81 313.124 1170.92 313.508C1163.86 316.541 1143.19 333.794 1137.64 323.374C1136.23 320.731 1136.83 319.036 1137.62 316.347Z" fill="#EB5E28" fill-opacity="0.1"/>
<path d="M870.672 252.081C873.946 248.78 879.081 250.804 882.301 253.108C889.158 258.013 899.823 262.594 905.78 268.418C906.953 272.394 906.806 273.055 905.54 276.943C903.087 278.861 902.44 278.911 899.283 279.219C898.175 278.674 897.075 278.113 895.983 277.536C890.657 274.719 885.043 271.248 879.919 268.021C873.249 263.819 865.138 260.825 870.672 252.081Z" fill="#EB5E28" fill-opacity="0.1"/>
<path d="M822.028 221.516C830.059 211.739 838.213 223.977 846.265 228.455C849.815 230.429 855.712 235.297 858.462 238.236C858.616 240.725 858.43 241.768 858.128 244.205C857.583 244.945 857.028 245.692 856.346 246.314C855.013 247.532 853.457 248.206 851.634 248.068C848 247.794 825.989 231.467 823.346 228.001C821.79 225.959 821.719 223.975 822.028 221.516Z" fill="#EB5E28" fill-opacity="0.1"/>
</g>
<defs>
<clipPath id="clip0_2002_28432">
<rect width="1440" height="354" fill="white"/>
</clipPath>
</defs>
</svg>
