<svg width="132" height="132" viewBox="0 0 132 132" fill="none" xmlns="http://www.w3.org/2000/svg">
<g clip-path="url(#clip0_123_13314)">
<path opacity="0.2" d="M66 128.391C100.457 128.391 128.391 100.457 128.391 66C128.391 31.5426 100.457 3.60938 66 3.60938C31.5426 3.60938 3.60938 31.5426 3.60938 66C3.60938 100.457 31.5426 128.391 66 128.391Z" stroke="white" stroke-width="7.21875"/>
</g>
<g clip-path="url(#clip1_123_13314)">
<path d="M128.391 66C128.391 31.5426 100.457 3.60938 66 3.60938C31.5426 3.60938 3.60938 31.5426 3.60938 66C3.60938 100.457 31.5426 128.391 66 128.391C100.457 128.391 128.391 100.457 128.391 66Z" stroke="#C4F0FF" stroke-width="7.21875"/>
</g>
<path d="M63.6503 49.1813L62.5202 59.546C62.334 61.2501 60.9616 62.6225 59.2575 62.8087L48.8928 63.9388L47.25 64.1173V67.8826L48.8928 68.0612L59.2575 69.1913C60.9616 69.3775 62.334 70.7499 62.5202 72.454L63.6503 82.8188L63.8289 84.4615H67.5942L67.7727 82.8188L68.9028 72.454C69.089 70.7499 70.4615 69.3775 72.1655 69.1913L82.5302 68.0612L84.1729 67.8826V64.1173L82.5302 63.9388L72.1655 62.8087C70.4615 62.6225 69.089 61.2501 68.9028 59.546L67.7727 49.1813L67.5942 47.5385H63.8289L63.6503 49.1813Z" fill="white"/>
<defs>
<clipPath id="clip0_123_13314">
<rect width="132" height="132" fill="white"/>
</clipPath>
<clipPath id="clip1_123_13314">
<rect width="132" height="132" fill="white" transform="matrix(0 -1 1 0 0 132)"/>
</clipPath>
</defs>
</svg>
