<svg width="1440" height="468" viewBox="0 0 1440 468" fill="none" xmlns="http://www.w3.org/2000/svg">
<g clip-path="url(#clip0_255_22414)">
<g clip-path="url(#clip1_255_22414)">
<path d="M530.796 244.695C537.127 241.658 551.216 248.122 558.365 249.572C565.801 251.078 570.202 255.361 564.639 262.577C564.346 262.784 562.492 263.916 562.036 263.827C551.825 261.753 539.844 258.877 530.348 254.641C526.959 253.132 528.872 247.047 530.796 244.695Z" fill="#EB5E28" fill-opacity="0.1"/>
<path d="M478.377 237.926C482.146 236.448 492.221 237.488 496.608 237.766C504.662 238.281 521.71 238.548 512.666 250.994C512.565 251.038 512.466 251.087 512.359 251.129C512.191 251.2 512.014 251.261 511.839 251.326C511.505 251.454 511.37 251.516 511.018 251.619C508.025 252.507 480.666 250.49 478.482 249.107C477.195 248.291 476.087 246.912 475.797 245.395C475.259 242.606 476.897 240.121 478.377 237.926Z" fill="#EB5E28" fill-opacity="0.1"/>
<path d="M225.864 368.38C235.877 364.227 237.26 377.314 231.045 380.488C224.053 384.061 214.989 387.564 207.671 390.705C200.124 393.205 196.28 388.458 199.132 381.247C204.29 376.741 219.023 371.674 225.864 368.38Z" fill="#EB5E28" fill-opacity="0.1"/>
<path d="M96.7155 377.798C101.758 375.591 110.067 380.095 115.571 381.557C122.721 383.454 138.656 385.322 130.129 396.064C124.099 400.052 104.262 391.848 97.4261 389.25C92.954 387.549 94.23 381.204 96.7155 377.798Z" fill="#EB5E28" fill-opacity="0.1"/>
<path d="M583.174 260.514C583.894 260.338 584.618 260.239 585.364 260.195C589.004 259.973 612.001 271.696 614.619 274.279C615.609 275.257 616.095 276.645 616.067 278.027C616.019 280.55 614.145 282.544 612.508 284.248C612.128 284.362 610.672 284.756 610.471 284.735C605.416 284.292 582.206 272.343 579.397 270.129C578.86 265.024 578.896 263.442 583.174 260.514Z" fill="#EB5E28" fill-opacity="0.1"/>
<path d="M351.479 271.47C353.758 270.385 355.803 270.16 358.04 271.586C370.716 279.642 343.12 291.609 336.548 296.474L336.034 296.86C327.863 300.827 322.32 290.822 328.59 286.141C335.723 280.813 343.994 276.5 351.479 271.47Z" fill="#EB5E28" fill-opacity="0.1"/>
<path d="M424.987 243.69C431.114 241.383 473.35 230.87 459.602 249.967C453.834 252.777 436.112 253.622 429.045 255.137C428.472 255.259 425.703 254.359 425.232 253.92C421.946 250.862 422.247 246.982 424.987 243.69Z" fill="#EB5E28" fill-opacity="0.1"/>
<path d="M269.922 336.177C277.32 334.978 280.663 343.433 274.86 348.312C268.02 354.069 260.03 361.546 252.44 366.17C245.118 365.798 242.64 362.772 245.264 355.903C251.187 351.254 264.369 339.829 269.922 336.177Z" fill="#EB5E28" fill-opacity="0.1"/>
<path d="M50.1976 352.365C51.2733 351.898 52.326 351.449 53.5185 351.397C55.9714 351.289 77.9071 365.539 80.6637 367.855C81.9667 368.952 82.889 369.853 83.0028 371.626C83.1694 374.238 81.5091 376.015 79.9285 377.879C75.0359 380.209 68.1155 375.397 63.981 372.429C56.8042 367.28 41.6355 362.481 50.1976 352.365Z" fill="#EB5E28" fill-opacity="0.1"/>
<path d="M628.903 285.783C634.477 283.658 641.38 289.066 645.851 292.523C652.702 297.824 666.51 302.773 657.951 312.496C656.665 313.023 654.895 313.687 653.474 313.017C650.73 311.718 648.217 309.908 645.698 308.196C640.139 304.417 634.495 300.698 629.003 296.824C627.319 295.64 626.292 293.634 626.098 291.623C625.856 289.06 627.331 287.525 628.903 285.783Z" fill="#EB5E28" fill-opacity="0.1"/>
<path d="M-26.9636 278.764C-26.5873 278.576 -26.2122 278.385 -25.8271 278.215C-23.9405 277.382 -22.4152 277.281 -20.4922 278.111C-17.341 279.472 0.151051 299.932 1.08481 303.28C1.74777 305.656 -0.0796321 308.174 -1.2404 310.124C-1.5942 310.329 -1.94503 310.541 -2.31269 310.719C-3.75878 311.418 -5.26621 311.35 -6.72017 310.754C-10.5596 309.178 -26.9249 290.227 -28.3887 285.994C-29.3187 283.304 -28.2294 281.119 -26.9636 278.764Z" fill="#EB5E28" fill-opacity="0.1"/>
<path d="M307.852 301.476C314.985 297.865 319.542 306.049 315.815 311.015C314.178 313.194 309.465 316.793 307.155 318.777C302.776 322.508 298.461 326.314 294.213 330.194C293.168 330.567 290.84 331.429 289.873 331.04C276.485 325.669 291.41 314.878 296.642 310.59C301.023 307 304.027 304.389 307.852 301.476Z" fill="#EB5E28" fill-opacity="0.1"/>
<path d="M9.86343 317.942C12.1216 317.068 13.541 317.443 15.8707 317.834C23.3159 323.582 31.1874 332.362 38.3585 338.653C40.99 340.962 38.2704 345.242 36.5258 347.322C32.4758 349.739 28.4377 347.172 25.1001 343.837C19.5048 338.247 9.8516 331.786 6.75302 324.317C6.06372 322.655 8.88362 319.155 9.86343 317.942Z" fill="#EB5E28" fill-opacity="0.1"/>
<path d="M375.289 259.689C383.637 256.378 393.198 252.418 401.855 249.816C405.031 248.86 410.129 250.104 409.917 254.286C409.757 257.516 408.91 258.875 407.317 261.635C401.79 263.833 395.963 265.501 390.277 267.584C386.109 269.106 378.831 273.871 374.811 270.241C370.999 266.798 372.44 263.225 375.289 259.689Z" fill="#EB5E28" fill-opacity="0.1"/>
<path d="M148.625 388.761C152.578 387.081 163.351 387.48 168.192 386.901C171.751 386.474 177.553 385.748 180.906 385.791C185.81 389.359 187.142 391.815 182.819 397.064L182.057 397.42C181.352 397.754 179.104 398.635 178.202 398.636C171.037 398.627 146.948 405.764 146.047 394.789C145.82 392.006 146.958 390.774 148.625 388.761Z" fill="#EB5E28" fill-opacity="0.1"/>
</g>
<g clip-path="url(#clip2_255_22414)">
<path d="M1286.53 149.109C1291.14 143.807 1306.64 144.147 1313.77 142.639C1321.2 141.068 1326.94 143.252 1324.7 152.083C1324.51 152.389 1323.26 154.165 1322.8 154.264C1312.61 156.415 1300.47 158.532 1290.07 158.415C1286.36 158.376 1285.7 152.032 1286.53 149.109Z" fill="#EB5E28" fill-opacity="0.1"/>
<path d="M1235.74 163.711C1238.61 160.857 1248.27 157.811 1252.4 156.324C1260 153.6 1275.75 147.075 1272.4 162.089C1272.32 162.17 1272.25 162.254 1272.17 162.335C1272.04 162.467 1271.9 162.593 1271.77 162.723C1271.51 162.972 1271.41 163.083 1271.13 163.317C1268.74 165.321 1242.83 174.332 1240.27 173.93C1238.77 173.693 1237.2 172.867 1236.33 171.59C1234.73 169.244 1235.25 166.312 1235.74 163.711Z" fill="#EB5E28" fill-opacity="0.1"/>
<path d="M1055.78 383.703C1063.32 375.917 1069.78 387.378 1065.34 392.759C1060.34 398.815 1053.41 405.629 1047.94 411.417C1042.01 416.708 1036.6 413.878 1036.35 406.127C1039.3 399.944 1050.81 389.443 1055.78 383.703Z" fill="#EB5E28" fill-opacity="0.1"/>
<path d="M940.99 443.627C944.741 439.599 954.156 440.434 959.787 439.591C967.103 438.493 982.47 433.88 978.91 447.125C974.959 453.179 953.494 453.526 946.189 453.856C941.409 454.07 940.061 447.74 940.99 443.627Z" fill="#EB5E28" fill-opacity="0.1"/>
<path d="M1340.88 142.832C1341.48 142.384 1342.1 142.006 1342.77 141.669C1346.02 140.02 1371.78 141.648 1375.21 142.979C1376.51 143.484 1377.51 144.565 1378.03 145.845C1378.99 148.179 1378.06 150.753 1377.23 152.967C1376.93 153.222 1375.75 154.162 1375.56 154.222C1370.74 155.823 1344.69 154.072 1341.24 153.156C1338.72 148.683 1338.12 147.217 1340.88 142.832Z" fill="#EB5E28" fill-opacity="0.1"/>
<path d="M1132.59 244.884C1134.25 242.983 1136.03 241.965 1138.65 242.385C1153.49 244.746 1132.91 266.687 1128.81 273.761L1128.49 274.319C1122.57 281.204 1113.51 274.223 1117.4 267.438C1121.83 259.715 1127.71 252.472 1132.59 244.884Z" fill="#EB5E28" fill-opacity="0.1"/>
<path d="M1189.03 190.2C1193.74 185.649 1228.33 159.23 1223.29 182.215C1219.11 187.085 1203.18 194.898 1197.3 199.094C1196.82 199.433 1193.92 199.707 1193.32 199.491C1189.09 197.989 1187.82 194.309 1189.03 190.2Z" fill="#EB5E28" fill-opacity="0.1"/>
<path d="M1083.44 336.652C1089.75 332.615 1096.17 339.047 1092.79 345.83C1088.79 353.829 1084.43 363.864 1079.3 371.121C1072.43 373.688 1068.96 371.894 1068.64 364.548C1072.23 357.93 1079.79 342.21 1083.44 336.652Z" fill="#EB5E28" fill-opacity="0.1"/>
<path d="M888.195 438.753C888.997 437.897 889.785 437.067 890.859 436.546C893.067 435.473 918.858 439.842 922.308 440.874C923.939 441.363 925.143 441.823 925.952 443.406C927.142 445.736 926.323 448.027 925.613 450.365C922.048 454.447 913.786 452.778 908.813 451.695C900.181 449.819 884.354 451.438 888.195 438.753Z" fill="#EB5E28" fill-opacity="0.1"/>
<path d="M1392.89 147.866C1397.16 143.703 1405.64 145.925 1411.12 147.322C1419.51 149.467 1434.15 148.527 1430.15 160.849C1429.18 161.843 1427.82 163.156 1426.25 163.105C1423.22 163.002 1420.19 162.339 1417.2 161.768C1410.6 160.506 1403.94 159.335 1397.36 157.959C1395.35 157.541 1393.61 156.109 1392.63 154.339C1391.39 152.083 1392.14 150.089 1392.89 147.866Z" fill="#EB5E28" fill-opacity="0.1"/>
<path d="M788.158 401.841C788.429 401.519 788.698 401.195 788.984 400.886C790.384 399.372 791.744 398.674 793.839 398.672C797.271 398.67 821.449 410.503 823.635 413.204C825.188 415.122 824.51 418.159 824.219 420.409C823.975 420.738 823.738 421.072 823.471 421.381C822.422 422.597 821.011 423.133 819.44 423.163C815.29 423.241 792.745 412.346 789.721 409.043C787.8 406.943 787.932 404.505 788.158 401.841Z" fill="#EB5E28" fill-opacity="0.1"/>
<path d="M1104.46 289.745C1109.58 283.599 1117.01 289.3 1115.56 295.338C1114.92 297.988 1112.03 303.162 1110.69 305.9C1108.16 311.063 1105.71 316.27 1103.35 321.517C1102.54 322.274 1100.74 323.991 1099.7 324.018C1085.28 324.403 1094.7 308.574 1097.79 302.561C1100.39 297.526 1102.11 293.937 1104.46 289.745Z" fill="#EB5E28" fill-opacity="0.1"/>
<path d="M837.509 423.176C839.235 421.477 840.687 421.259 842.98 420.692C852.096 423.012 862.806 427.945 871.886 430.871C875.218 431.945 874.421 436.953 873.646 439.555C870.889 443.382 866.163 442.628 861.775 440.893C854.421 437.984 842.996 435.888 837.186 430.262C835.893 429.011 837.092 424.679 837.509 423.176Z" fill="#EB5E28" fill-opacity="0.1"/>
<path d="M1149.77 224.615C1156.12 218.262 1163.32 210.83 1170.23 205.006C1172.77 202.867 1177.94 201.984 1179.4 205.907C1180.54 208.935 1180.3 210.518 1179.94 213.684C1175.74 217.896 1171.05 221.74 1166.66 225.91C1163.44 228.962 1158.65 236.225 1153.52 234.489C1148.65 232.843 1148.56 228.992 1149.77 224.615Z" fill="#EB5E28" fill-opacity="0.1"/>
<path d="M992.988 433.076C995.949 429.965 1005.99 426.053 1010.21 423.6C1013.31 421.795 1018.34 418.825 1021.44 417.533C1027.35 418.86 1029.55 420.586 1027.67 427.12L1027.11 427.749C1026.6 428.336 1024.88 430.037 1024.06 430.396C1017.48 433.232 998.201 449.347 993.016 439.633C991.702 437.168 992.257 435.585 992.988 433.076Z" fill="#EB5E28" fill-opacity="0.1"/>
<path d="M743.891 373.377C746.942 370.295 751.734 372.178 754.741 374.324C761.142 378.894 771.096 383.157 776.66 388.585C777.757 392.293 777.62 392.91 776.444 396.538C774.156 398.33 773.553 398.377 770.609 398.667C769.574 398.16 768.547 397.638 767.528 397.101C762.556 394.478 757.316 391.245 752.532 388.239C746.306 384.326 738.736 381.54 743.891 373.377Z" fill="#EB5E28" fill-opacity="0.1"/>
<path d="M698.477 344.91C705.96 335.781 713.579 347.19 721.095 351.36C724.409 353.198 729.914 357.734 732.483 360.474C732.629 362.795 732.456 363.768 732.177 366.042C731.669 366.733 731.152 367.43 730.517 368.012C729.275 369.149 727.824 369.779 726.122 369.652C722.732 369.4 702.182 354.189 699.713 350.958C698.259 349.055 698.191 347.204 698.477 344.91Z" fill="#EB5E28" fill-opacity="0.1"/>
<path d="M668.342 317.254C673.888 313.63 678.841 318.132 683.032 321.618C688.539 326.198 692.254 327.681 689.138 335.22C683.417 340.183 680.054 336.386 675.088 332.328C672.44 330.165 669.885 327.864 667.508 325.399C666.919 321.648 666.867 320.746 668.342 317.254Z" fill="#EB5E28" fill-opacity="0.1"/>
</g>
</g>
<defs>
<clipPath id="clip0_255_22414">
<rect width="1440" height="468" fill="white"/>
</clipPath>
<clipPath id="clip1_255_22414">
<rect width="870.015" height="870.015" fill="white" transform="translate(-264 4.27771) rotate(-21.6055)"/>
</clipPath>
<clipPath id="clip2_255_22414">
<rect width="870.015" height="870.015" fill="white" transform="translate(461.617 244.038) rotate(-45)"/>
</clipPath>
</defs>
</svg>
