<svg preserveAspectRatio="none" width="100%" height="100%" overflow="visible" style="display: block;" viewBox="0 0 1858 1858" fill="none" xmlns="http://www.w3.org/2000/svg">
<g id="image 34 [Vectorized]">
<path id="Vector" d="M1654.86 1261.08C1662.08 1261.87 1667.32 1264.64 1669.18 1272.19C1669.8 1274.78 1669.96 1277.46 1669.65 1280.1C1668.93 1286.21 1666.87 1296.17 1665.84 1302.84C1663.2 1320.88 1660.4 1338.89 1657.43 1356.87C1654.22 1376.69 1651.64 1396.42 1648.36 1416.5C1646.86 1425.67 1639.38 1438.15 1627.97 1431.58C1618.5 1426.11 1608.59 1418.12 1599.35 1411.84C1573.81 1394.64 1548.46 1377.2 1523.29 1359.48C1515.18 1353.38 1492.08 1342.74 1503.62 1328.79C1506.31 1325.57 1510.19 1323.54 1514.38 1323.17C1524.78 1322.34 1567.21 1357.46 1578.86 1363.86C1582.77 1366.01 1596.57 1375.93 1600.2 1378.91C1599.73 1364.47 1601 1360.63 1615.24 1356.79C1621.33 1359.26 1624.73 1359.3 1627.07 1365.65L1628.31 1365.66C1628.66 1360.59 1629.52 1355.43 1630.42 1350.4C1635.22 1323.81 1638.38 1296.69 1643.99 1270.31C1644.97 1265.65 1650.98 1262.89 1654.86 1261.08Z" fill="var(--fill-0, #EB5E28)" fill-opacity="0.1"/>
<path id="Vector_2" d="M1389.06 1102.35C1404.02 1101.3 1426.91 1125.22 1439.96 1133.72C1453.54 1142.55 1458.91 1154.52 1442.19 1164.47C1441.45 1164.65 1436.88 1165.44 1436.04 1164.91C1417.4 1152.76 1395.87 1137.63 1380.35 1121.75C1374.8 1116.09 1383.39 1105.51 1389.06 1102.35Z" fill="var(--fill-0, #EB5E28)" fill-opacity="0.1"/>
<path id="Vector_3" d="M1290.3 1047.69C1298.94 1047.72 1318.13 1057.71 1326.62 1061.71C1342.21 1069.07 1375.85 1083 1348.1 1100.6C1347.87 1100.61 1347.63 1100.63 1347.39 1100.63C1347 1100.64 1346.6 1100.62 1346.2 1100.61C1345.44 1100.6 1345.12 1100.62 1344.34 1100.55C1337.7 1099.96 1284.96 1074.44 1281.71 1069.97C1279.8 1067.34 1278.68 1063.73 1279.3 1060.49C1280.43 1054.53 1285.63 1050.89 1290.3 1047.69Z" fill="var(--fill-0, #EB5E28)" fill-opacity="0.1"/>
<path id="Vector_4" d="M686.333 1108.15C709.479 1107.78 701.935 1134.85 687.098 1136.26C670.406 1137.86 649.653 1137.69 632.655 1138.17C615.704 1137.2 611.804 1124.75 623.138 1112.68C636.922 1107.79 670.16 1109.31 686.333 1108.15Z" fill="var(--fill-0, #EB5E28)" fill-opacity="0.1"/>
<path id="Vector_5" d="M422.495 1025.29C434.243 1024.87 447.2 1040.35 456.977 1047.58C469.682 1056.97 499.853 1073.21 474.476 1087.84C459.368 1091.01 426.431 1059.12 414.901 1048.59C407.359 1041.69 414.882 1030.1 422.495 1025.29Z" fill="var(--fill-0, #EB5E28)" fill-opacity="0.1"/>
<path id="Vector_6" d="M1480.61 1174.95C1482.18 1175.17 1483.7 1175.54 1485.21 1176.04C1492.61 1178.46 1529.06 1219.82 1532.22 1227.01C1533.42 1229.73 1533.29 1232.87 1532.15 1235.59C1530.07 1240.56 1524.78 1243.05 1520.19 1245.14C1519.35 1245.07 1516.15 1244.71 1515.77 1244.51C1506.08 1239.65 1469.39 1197.67 1465.55 1191.07C1468.5 1180.51 1469.81 1177.4 1480.61 1174.95Z" fill="var(--fill-0, #EB5E28)" fill-opacity="0.1"/>
<path id="Vector_7" d="M1011.95 1014.51C1017.33 1014.14 1021.57 1015.31 1024.89 1019.9C1043.72 1045.86 979.517 1047.92 962.643 1052.41L961.318 1052.77C941.976 1054.23 938.837 1030 954.968 1025.64C973.321 1020.67 993.135 1018.61 1011.95 1014.51Z" fill="var(--fill-0, #EB5E28)" fill-opacity="0.1"/>
<path id="Vector_8" d="M1179.76 1017.16C1193.74 1017.39 1285.87 1029.73 1243.55 1056.84C1229.89 1057.88 1194.04 1045.62 1178.81 1043.07C1177.58 1042.87 1172.79 1038.9 1172.2 1037.66C1168.08 1029 1171.73 1021.54 1179.76 1017.16Z" fill="var(--fill-0, #EB5E28)" fill-opacity="0.1"/>
<path id="Vector_9" d="M799.143 1078.86C814.776 1082.29 814.764 1101.71 799.405 1106.84C781.298 1112.89 759.554 1121.45 740.847 1124.66C726.599 1118.17 724.06 1110.21 734.672 1098.63C750.088 1094.06 785.244 1081.74 799.143 1078.86Z" fill="var(--fill-0, #EB5E28)" fill-opacity="0.1"/>
<path id="Vector_10" d="M350.14 938.218C352.644 938.136 355.087 938.072 357.495 938.907C362.451 940.622 394.8 986.164 398.451 992.932C400.176 996.135 401.299 998.648 400.13 1002.26C398.408 1007.57 393.714 1009.8 389.109 1012.26C377.562 1013.04 367.605 998.04 361.73 988.895C351.529 973.028 325.184 951.572 350.14 938.218Z" fill="var(--fill-0, #EB5E28)" fill-opacity="0.1"/>
<path id="Vector_11" d="M1551.54 1261.08C1564.28 1261.24 1573.73 1277.41 1579.89 1287.79C1589.32 1303.7 1612.85 1324.39 1588.21 1336.96C1585.24 1337 1581.21 1336.93 1578.91 1334.48C1574.48 1329.74 1570.92 1324.17 1567.26 1318.79C1559.2 1306.91 1550.91 1295.09 1543.06 1283.08C1540.64 1279.41 1540.18 1274.62 1541.38 1270.47C1542.91 1265.19 1547.05 1263.3 1551.54 1261.08Z" fill="var(--fill-0, #EB5E28)" fill-opacity="0.1"/>
<path id="Vector_12" d="M254.808 731.402C255.702 731.326 256.598 731.241 257.496 731.207C261.897 731.036 265.005 732.035 268.17 735.196C273.357 740.376 292 794.755 291.221 802.136C290.669 807.376 285.06 810.939 281.223 813.897C280.359 814.025 279.495 814.171 278.625 814.236C275.204 814.487 272.265 813.166 269.847 810.838C263.463 804.69 245.871 754.193 246.293 744.638C246.561 738.566 250.442 735.084 254.808 731.402Z" fill="var(--fill-0, #EB5E28)" fill-opacity="0.1"/>
<path id="Vector_13" d="M901.739 1039.78C918.739 1038.22 921.352 1058.05 910.048 1064.98C905.085 1068.02 892.895 1071.46 886.75 1073.58C875.12 1077.55 863.56 1081.71 852.075 1086.08C849.707 1086 844.405 1085.88 842.791 1084.34C820.434 1063.15 858.552 1053.46 872.313 1049.06C883.834 1045.38 891.852 1042.56 901.739 1039.78Z" fill="var(--fill-0, #EB5E28)" fill-opacity="0.1"/>
<path id="Vector_14" d="M297.117 838.149C302.288 838.189 304.811 840.051 309.13 842.659C319.392 859.927 328.117 883.551 337.409 901.681C340.818 908.334 332.053 914.694 326.953 917.452C317.011 919.067 311.012 910.793 307.008 901.546C300.293 886.048 286.207 865.629 285.928 848.361C285.867 844.519 294.218 839.788 297.117 838.149Z" fill="var(--fill-0, #EB5E28)" fill-opacity="0.1"/>
<path id="Vector_15" d="M1068.5 1009.84C1087.68 1009.83 1109.78 1009.49 1129.01 1011.13C1136.07 1011.73 1145.22 1018.21 1141.51 1026.34C1138.65 1032.63 1135.9 1034.66 1130.57 1038.89C1117.86 1038.91 1104.98 1037.64 1092.05 1037.3C1082.58 1037.05 1064.38 1040.79 1059.26 1030.42C1054.4 1020.58 1060.07 1014.62 1068.5 1009.84Z" fill="var(--fill-0, #EB5E28)" fill-opacity="0.1"/>
<path id="Vector_16" d="M516.951 1087.88C526.12 1087.66 547.197 1096.92 557.266 1099.58C564.668 1101.53 576.758 1104.65 583.382 1107.37C590.314 1118.31 591.027 1124.23 578.315 1131.26L576.524 1131.37C574.86 1131.47 569.705 1131.46 567.913 1130.75C553.693 1125.1 500.251 1120.32 507.093 1097.83C508.829 1092.12 512.058 1090.57 516.951 1087.88Z" fill="var(--fill-0, #EB5E28)" fill-opacity="0.1"/>
<path id="Vector_17" d="M230.941 621.571C240.204 621.523 244.597 631.604 245.896 639.386C248.662 655.954 257.256 677.422 257.461 694.02C253.518 701.277 252.381 702.002 245.124 705.704C238.965 704.956 237.982 704.116 233.098 700.107C232.301 697.779 231.539 695.441 230.812 693.091C227.264 681.622 224.233 668.827 221.549 657.063C218.055 641.751 210.831 626.113 230.941 621.571Z" fill="var(--fill-0, #EB5E28)" fill-opacity="0.1"/>
<path id="Vector_18" d="M205.356 510.009C230.442 507.522 224.717 536.257 229.771 553.903C231.999 561.683 233.463 576.848 233.205 584.863C229.92 588.59 228.19 589.797 224.334 592.809C222.524 593.086 220.69 593.358 218.854 593.278C215.259 593.119 212.118 591.879 209.74 589.118C205 583.618 196.938 529.616 198.089 521.009C198.767 515.939 201.46 513.041 205.356 510.009Z" fill="var(--fill-0, #EB5E28)" fill-opacity="0.1"/>
<path id="Vector_19" d="M201.614 422.74C215.462 425.643 216.143 439.921 217.207 451.514C218.606 466.746 221.977 474.596 205.887 481.275C189.752 480.13 190.41 469.318 189.037 455.69C188.305 448.426 187.922 441.091 188.055 433.781C192.831 427.227 194.113 425.786 201.614 422.74Z" fill="var(--fill-0, #EB5E28)" fill-opacity="0.1"/>
</g>
</svg>
