<svg preserveAspectRatio="none" width="100%" height="100%" overflow="visible" style="display: block;" viewBox="0 0 40 40" fill="none" xmlns="http://www.w3.org/2000/svg">
<g id="AirplaneTilt">
<path id="Vector" d="M28.9578 17.8453L33.5109 13.5609L33.5375 13.5344C34.4753 12.5966 35.0021 11.3247 35.0021 9.99844C35.0021 8.6722 34.4753 7.40029 33.5375 6.4625C32.5997 5.52471 31.3278 4.99787 30.0016 4.99787C28.6753 4.99787 27.4034 5.52471 26.4656 6.4625C26.4656 6.47188 26.4484 6.47969 26.4391 6.48906L22.1547 11.0422L9.18594 6.32344C8.96242 6.24214 8.72034 6.2263 8.48813 6.27778C8.25592 6.32926 8.04322 6.44592 7.875 6.61406L4.125 10.3641C3.99433 10.4948 3.89429 10.653 3.83209 10.8271C3.7699 11.0012 3.7471 11.1869 3.76533 11.3709C3.78356 11.5548 3.84238 11.7325 3.93753 11.891C4.03269 12.0495 4.16182 12.1849 4.31563 12.2875L14.2984 18.9422L11.9828 21.25H8.75C8.41892 21.2502 8.10143 21.3816 7.86719 21.6156L4.11719 25.3656C3.97094 25.5115 3.86313 25.6914 3.80339 25.8891C3.74366 26.0869 3.73386 26.2963 3.77488 26.4988C3.8159 26.7013 3.90645 26.8904 4.03844 27.0493C4.17044 27.2082 4.33975 27.3319 4.53125 27.4094L10.2844 29.7109L12.5812 35.4531L12.5906 35.4781C12.6701 35.6705 12.7963 35.8399 12.9578 35.9711C13.1194 36.1023 13.3111 36.1911 13.5157 36.2295C13.7202 36.2678 13.9311 36.2544 14.1292 36.1906C14.3273 36.1268 14.5063 36.0146 14.65 35.8641L18.3797 32.1328C18.4964 32.0172 18.5892 31.8797 18.6527 31.7283C18.7162 31.5768 18.7493 31.4143 18.75 31.25V28.0172L21.0562 25.7109L27.7109 35.6938C27.8135 35.8476 27.9489 35.9767 28.1075 36.0718C28.266 36.167 28.4436 36.2258 28.6276 36.244C28.8115 36.2623 28.9973 36.2395 29.1714 36.1773C29.3455 36.1151 29.5036 36.0151 29.6344 35.8844L33.3844 32.1344C33.5525 31.9662 33.6692 31.7535 33.7207 31.5212C33.7721 31.289 33.7563 31.047 33.675 30.8234L28.9578 17.8453ZM28.9469 33.0375L22.2922 23.0563C22.1902 22.9013 22.0549 22.771 21.8963 22.6747C21.7377 22.5785 21.5596 22.5188 21.375 22.5C21.3328 22.5 21.2922 22.5 21.2516 22.5C21.0873 22.5001 20.9246 22.5325 20.7728 22.5956C20.6211 22.6586 20.4832 22.7509 20.3672 22.8672L16.6172 26.6172C16.3826 26.8512 16.2506 27.1687 16.25 27.5V30.7328L14.2078 32.775L12.4109 28.2813C12.3481 28.1252 12.2544 27.9835 12.1354 27.8646C12.0165 27.7456 11.8748 27.6519 11.7187 27.5891L7.22812 25.7922L9.26875 23.75H12.5C12.6642 23.7501 12.8268 23.7179 12.9786 23.6552C13.1303 23.5924 13.2682 23.5004 13.3844 23.3844L17.1344 19.6344C17.2653 19.5036 17.3656 19.3454 17.428 19.1711C17.4903 18.9968 17.5132 18.8109 17.495 18.6267C17.4768 18.4425 17.4178 18.2647 17.3225 18.1061C17.2272 17.9474 17.0978 17.8119 16.9438 17.7094L6.9625 11.0531L9.07188 8.94531L22.075 13.6734C22.3041 13.7576 22.5528 13.7729 22.7905 13.7174C23.0282 13.6618 23.2444 13.5379 23.4125 13.3609L28.2469 8.21875C28.7181 7.76132 29.3503 7.50767 30.007 7.51262C30.6637 7.51756 31.2921 7.7807 31.7564 8.24517C32.2206 8.70964 32.4835 9.33814 32.4882 9.99483C32.4928 10.6515 32.2389 11.2837 31.7812 11.7547L26.6453 16.5875C26.4683 16.7556 26.3444 16.9718 26.2889 17.2095C26.2334 17.4472 26.2486 17.6959 26.3328 17.925L31.0609 30.9281L28.9469 33.0375Z" fill="var(--fill-0, #FFFDF1)"/>
</g>
</svg>
