<svg preserveAspectRatio="none" width="100%" height="100%" overflow="visible" style="display: block;" viewBox="0 0 24 25" fill="none" xmlns="http://www.w3.org/2000/svg">
<g id="Envelope">
<path id="Vector" d="M20.75 5H2.75C2.55109 5 2.36032 5.07902 2.21967 5.21967C2.07902 5.36032 2 5.55109 2 5.75V18.5C2 18.8978 2.15804 19.2794 2.43934 19.5607C2.72064 19.842 3.10218 20 3.5 20H20C20.3978 20 20.7794 19.842 21.0607 19.5607C21.342 19.2794 21.5 18.8978 21.5 18.5V5.75C21.5 5.55109 21.421 5.36032 21.2803 5.21967C21.1397 5.07902 20.9489 5 20.75 5ZM11.75 12.9828L4.67844 6.5H18.8216L11.75 12.9828ZM9.00406 12.5L3.5 17.5447V7.45531L9.00406 12.5ZM10.1141 13.5172L11.2391 14.5531C11.3774 14.6801 11.5584 14.7506 11.7462 14.7506C11.9341 14.7506 12.1151 14.6801 12.2534 14.5531L13.3784 13.5172L18.8159 18.5H4.67844L10.1141 13.5172ZM14.4959 12.5L20 7.45438V17.5456L14.4959 12.5Z" fill="var(--fill-0, #EB5E28)"/>
</g>
</svg>
