<svg preserveAspectRatio="none" width="100%" height="100%" overflow="visible" style="display: block;" viewBox="0 0 10 8" fill="none" xmlns="http://www.w3.org/2000/svg">
<g id="Frame 90">
<path id="Vector" d="M9.8668 2.71161L5.32157 6.87781C5.27936 6.91655 5.22923 6.94728 5.17405 6.96824C5.11888 6.98921 5.05973 7 5 7C4.94027 7 4.88112 6.98921 4.82594 6.96824C4.77077 6.94728 4.72064 6.91655 4.67842 6.87781L0.133201 2.71161C0.0479136 2.63344 0 2.52741 0 2.41685C0 2.3063 0.0479136 2.20027 0.133201 2.12209C0.218487 2.04392 0.334161 2 0.454775 2C0.575389 2 0.691063 2.04392 0.77635 2.12209L5 5.99406L9.22365 2.12209C9.26588 2.08338 9.31601 2.05268 9.37119 2.03173C9.42637 2.01078 9.4855 2 9.54522 2C9.60495 2 9.66408 2.01078 9.71926 2.03173C9.77444 2.05268 9.82457 2.08338 9.8668 2.12209C9.90903 2.1608 9.94253 2.20675 9.96538 2.25733C9.98824 2.3079 10 2.36211 10 2.41685C10 2.47159 9.98824 2.5258 9.96538 2.57637C9.94253 2.62695 9.90903 2.6729 9.8668 2.71161Z" fill="var(--fill-0, #FFFDF1)"/>
</g>
</svg>
