<svg preserveAspectRatio="none" width="100%" height="100%" overflow="visible" style="display: block;" viewBox="0 0 40 40" fill="none" xmlns="http://www.w3.org/2000/svg">
<g id="Sailboat">
<path id="Vector" d="M38.6273 26.9578C38.5253 26.7457 38.3654 26.5668 38.1661 26.4416C37.9668 26.3163 37.7362 26.2499 37.5008 26.25H22.5008V22.5H33.7508C33.9929 22.5 34.2298 22.4296 34.4327 22.2975C34.6356 22.1654 34.7958 21.9772 34.8938 21.7558C34.9917 21.5343 35.0233 21.2892 34.9846 21.0502C34.9459 20.8112 34.8386 20.5886 34.6758 20.4094L22.5008 7.01718V1.25C22.4994 0.992339 22.4184 0.741409 22.2689 0.531545C22.1194 0.321682 21.9087 0.163141 21.6657 0.077619C21.4226 -0.0079028 21.1591 -0.0162261 20.9111 0.0537882C20.6632 0.123803 20.4429 0.268733 20.2805 0.468746L4.03047 20.4687C3.88357 20.6522 3.79137 20.8734 3.76446 21.1069C3.73755 21.3404 3.77701 21.5767 3.87832 21.7888C3.97963 22.0009 4.13868 22.1801 4.33722 22.3059C4.53576 22.4317 4.76575 22.499 5.00078 22.5H20.0008V26.25H2.50078C2.26522 26.2498 2.0344 26.3163 1.83495 26.4416C1.63549 26.5669 1.4755 26.7461 1.37344 26.9584C1.27137 27.1707 1.23136 27.4075 1.25804 27.6416C1.28472 27.8756 1.37699 28.0974 1.52422 28.2812L6.14922 34.0625C6.38291 34.3556 6.6798 34.5922 7.01773 34.7545C7.35566 34.9169 7.72589 35.0008 8.10078 35H31.9008C32.2757 35.0008 32.6459 34.9169 32.9838 34.7545C33.3218 34.5922 33.6187 34.3556 33.8523 34.0625L38.4773 28.2812C38.6246 28.0972 38.7168 27.8753 38.7433 27.6412C38.7698 27.407 38.7296 27.1701 38.6273 26.9578ZM30.9258 20H22.5008V10.7328L30.9258 20ZM7.62735 20L20.0008 4.77031V20H7.62735ZM31.9008 32.5H8.10078L5.10078 28.75H34.9008L31.9008 32.5Z" fill="var(--fill-0, #FFFDF1)"/>
</g>
</svg>
