<svg preserveAspectRatio="none" width="100%" height="100%" overflow="visible" style="display: block;" viewBox="0 0 60 60" fill="none" xmlns="http://www.w3.org/2000/svg">
<g id="Sailboat">
<path id="Vector" d="M57.941 40.4367C57.7879 40.1186 57.548 39.8502 57.2491 39.6624C56.9501 39.4745 56.6042 39.3749 56.2512 39.375H33.7512V33.75H50.6262C50.9894 33.75 51.3447 33.6444 51.6491 33.4463C51.9534 33.2481 52.1937 32.9658 52.3407 32.6336C52.4876 32.3015 52.5349 31.9338 52.4769 31.5753C52.4188 31.2168 52.2579 30.8829 52.0137 30.6141L33.7512 10.5258V1.87499C33.7491 1.48851 33.6276 1.11211 33.4034 0.797318C33.1792 0.482523 32.8631 0.244711 32.4985 0.116428C32.134 -0.0118542 31.7387 -0.0243391 31.3667 0.0806824C30.9948 0.185704 30.6643 0.4031 30.4207 0.703118L6.0457 30.7031C5.82535 30.9783 5.68706 31.3101 5.64669 31.6603C5.60633 32.0106 5.66552 32.3651 5.81749 32.6832C5.96945 33.0013 6.20803 33.2702 6.50584 33.4589C6.80365 33.6475 7.14862 33.7485 7.50117 33.75H30.0012V39.375H3.75117C3.39782 39.3748 3.0516 39.4744 2.75242 39.6624C2.45323 39.8504 2.21326 40.1191 2.06015 40.4376C1.90705 40.756 1.84705 41.1113 1.88706 41.4623C1.92708 41.8134 2.06549 42.146 2.28633 42.4219L9.22383 51.0937C9.57437 51.5335 10.0197 51.8883 10.5266 52.1318C11.0335 52.3753 11.5888 52.5012 12.1512 52.5H47.8512C48.4135 52.5012 48.9689 52.3753 49.4758 52.1318C49.9826 51.8883 50.428 51.5335 50.7785 51.0937L57.716 42.4219C57.9368 42.1458 58.0751 41.813 58.1149 41.4618C58.1548 41.1105 58.0945 40.7552 57.941 40.4367ZM46.3887 30H33.7512V16.0992L46.3887 30ZM11.441 30L30.0012 7.15546V30H11.441ZM47.8512 48.75H12.1512L7.65117 43.125H52.3512L47.8512 48.75Z" fill="var(--fill-0, #FFFDF1)"/>
</g>
</svg>
