<svg preserveAspectRatio="none" width="100%" height="100%" overflow="visible" style="display: block;" viewBox="0 0 23.4784 19.5658" fill="none" xmlns="http://www.w3.org/2000/svg">
<path id="Vector" d="M23.1915 10.475L14.3874 19.2791C14.2038 19.4627 13.9549 19.5658 13.6953 19.5658C13.4357 19.5658 13.1867 19.4627 13.0032 19.2791C12.8196 19.0956 12.7165 18.8466 12.7165 18.587C12.7165 18.3274 12.8196 18.0785 13.0032 17.8949L20.1382 10.7611H0.978235C0.718791 10.7611 0.469973 10.6581 0.286519 10.4746C0.103064 10.2912 0 10.0423 0 9.7829C0 9.52345 0.103064 9.27464 0.286519 9.09118C0.469973 8.90773 0.718791 8.80466 0.978235 8.80466H20.1382L13.0032 1.67088C12.8196 1.48732 12.7165 1.23837 12.7165 0.978779C12.7165 0.719191 12.8196 0.470234 13.0032 0.286678C13.1867 0.103121 13.4357 0 13.6953 0C13.9549 0 14.2038 0.103121 14.3874 0.286678L23.1915 9.0908C23.2825 9.18165 23.3546 9.28954 23.4038 9.40829C23.4531 9.52705 23.4784 9.65434 23.4784 9.7829C23.4784 9.91145 23.4531 10.0387 23.4038 10.1575C23.3546 10.2763 23.2825 10.3841 23.1915 10.475Z" fill="var(--fill-0, #FFFDF1)"/>
</svg>
