<svg preserveAspectRatio="none" width="100%" height="100%" overflow="visible" style="display: block;" viewBox="0 0 40 40" fill="none" xmlns="http://www.w3.org/2000/svg">
<g id="SuitcaseRolling">
<path id="Vector" d="M16.25 13.75V28.75C16.25 29.0815 16.1183 29.3995 15.8839 29.6339C15.6495 29.8683 15.3315 30 15 30C14.6685 30 14.3505 29.8683 14.1161 29.6339C13.8817 29.3995 13.75 29.0815 13.75 28.75V13.75C13.75 13.4185 13.8817 13.1005 14.1161 12.8661C14.3505 12.6317 14.6685 12.5 15 12.5C15.3315 12.5 15.6495 12.6317 15.8839 12.8661C16.1183 13.1005 16.25 13.4185 16.25 13.75ZM20 12.5C19.6685 12.5 19.3505 12.6317 19.1161 12.8661C18.8817 13.1005 18.75 13.4185 18.75 13.75V28.75C18.75 29.0815 18.8817 29.3995 19.1161 29.6339C19.3505 29.8683 19.6685 30 20 30C20.3315 30 20.6495 29.8683 20.8839 29.6339C21.1183 29.3995 21.25 29.0815 21.25 28.75V13.75C21.25 13.4185 21.1183 13.1005 20.8839 12.8661C20.6495 12.6317 20.3315 12.5 20 12.5ZM25 12.5C24.6685 12.5 24.3505 12.6317 24.1161 12.8661C23.8817 13.1005 23.75 13.4185 23.75 13.75V28.75C23.75 29.0815 23.8817 29.3995 24.1161 29.6339C24.3505 29.8683 24.6685 30 25 30C25.3315 30 25.6495 29.8683 25.8839 29.6339C26.1183 29.3995 26.25 29.0815 26.25 28.75V13.75C26.25 13.4185 26.1183 13.1005 25.8839 12.8661C25.6495 12.6317 25.3315 12.5 25 12.5ZM32.5 10V32.5C32.5 33.163 32.2366 33.7989 31.7678 34.2678C31.2989 34.7366 30.663 35 30 35H27.5V37.5C27.5 37.8315 27.3683 38.1495 27.1339 38.3839C26.8995 38.6183 26.5815 38.75 26.25 38.75C25.9185 38.75 25.6005 38.6183 25.3661 38.3839C25.1317 38.1495 25 37.8315 25 37.5V35H15V37.5C15 37.8315 14.8683 38.1495 14.6339 38.3839C14.3995 38.6183 14.0815 38.75 13.75 38.75C13.4185 38.75 13.1005 38.6183 12.8661 38.3839C12.6317 38.1495 12.5 37.8315 12.5 37.5V35H10C9.33696 35 8.70107 34.7366 8.23223 34.2678C7.76339 33.7989 7.5 33.163 7.5 32.5V10C7.5 9.33696 7.76339 8.70107 8.23223 8.23223C8.70107 7.76339 9.33696 7.5 10 7.5H13.75V3.75C13.75 2.75544 14.1451 1.80161 14.8483 1.09835C15.5516 0.395088 16.5054 0 17.5 0L22.5 0C23.4946 0 24.4484 0.395088 25.1517 1.09835C25.8549 1.80161 26.25 2.75544 26.25 3.75V7.5H30C30.663 7.5 31.2989 7.76339 31.7678 8.23223C32.2366 8.70107 32.5 9.33696 32.5 10ZM16.25 7.5H23.75V3.75C23.75 3.41848 23.6183 3.10054 23.3839 2.86612C23.1495 2.6317 22.8315 2.5 22.5 2.5H17.5C17.1685 2.5 16.8505 2.6317 16.6161 2.86612C16.3817 3.10054 16.25 3.41848 16.25 3.75V7.5ZM30 32.5V10H10V32.5H30Z" fill="var(--fill-0, #FFFDF1)"/>
</g>
</svg>
