<svg preserveAspectRatio="none" width="100%" height="100%" overflow="visible" style="display: block;" viewBox="0 0 60 60" fill="none" xmlns="http://www.w3.org/2000/svg">
<g id="SuitcaseRolling">
<path id="Vector" d="M24.375 20.625V43.125C24.375 43.6223 24.1775 44.0992 23.8258 44.4508C23.4742 44.8025 22.9973 45 22.5 45C22.0027 45 21.5258 44.8025 21.1742 44.4508C20.8225 44.0992 20.625 43.6223 20.625 43.125V20.625C20.625 20.1277 20.8225 19.6508 21.1742 19.2992C21.5258 18.9475 22.0027 18.75 22.5 18.75C22.9973 18.75 23.4742 18.9475 23.8258 19.2992C24.1775 19.6508 24.375 20.1277 24.375 20.625ZM30 18.75C29.5027 18.75 29.0258 18.9475 28.6742 19.2992C28.3225 19.6508 28.125 20.1277 28.125 20.625V43.125C28.125 43.6223 28.3225 44.0992 28.6742 44.4508C29.0258 44.8025 29.5027 45 30 45C30.4973 45 30.9742 44.8025 31.3258 44.4508C31.6775 44.0992 31.875 43.6223 31.875 43.125V20.625C31.875 20.1277 31.6775 19.6508 31.3258 19.2992C30.9742 18.9475 30.4973 18.75 30 18.75ZM37.5 18.75C37.0027 18.75 36.5258 18.9475 36.1742 19.2992C35.8225 19.6508 35.625 20.1277 35.625 20.625V43.125C35.625 43.6223 35.8225 44.0992 36.1742 44.4508C36.5258 44.8025 37.0027 45 37.5 45C37.9973 45 38.4742 44.8025 38.8258 44.4508C39.1775 44.0992 39.375 43.6223 39.375 43.125V20.625C39.375 20.1277 39.1775 19.6508 38.8258 19.2992C38.4742 18.9475 37.9973 18.75 37.5 18.75ZM48.75 15V48.75C48.75 49.7446 48.3549 50.6984 47.6516 51.4016C46.9484 52.1049 45.9946 52.5 45 52.5H41.25V56.25C41.25 56.7473 41.0525 57.2242 40.7008 57.5758C40.3492 57.9275 39.8723 58.125 39.375 58.125C38.8777 58.125 38.4008 57.9275 38.0492 57.5758C37.6975 57.2242 37.5 56.7473 37.5 56.25V52.5H22.5V56.25C22.5 56.7473 22.3025 57.2242 21.9508 57.5758C21.5992 57.9275 21.1223 58.125 20.625 58.125C20.1277 58.125 19.6508 57.9275 19.2992 57.5758C18.9475 57.2242 18.75 56.7473 18.75 56.25V52.5H15C14.0054 52.5 13.0516 52.1049 12.3483 51.4016C11.6451 50.6984 11.25 49.7446 11.25 48.75V15C11.25 14.0054 11.6451 13.0516 12.3483 12.3483C13.0516 11.6451 14.0054 11.25 15 11.25H20.625V5.625C20.625 4.13316 21.2176 2.70242 22.2725 1.64752C23.3274 0.592632 24.7582 0 26.25 0L33.75 0C35.2418 0 36.6726 0.592632 37.7275 1.64752C38.7824 2.70242 39.375 4.13316 39.375 5.625V11.25H45C45.9946 11.25 46.9484 11.6451 47.6516 12.3483C48.3549 13.0516 48.75 14.0054 48.75 15ZM24.375 11.25H35.625V5.625C35.625 5.12772 35.4275 4.65081 35.0758 4.29917C34.7242 3.94754 34.2473 3.75 33.75 3.75H26.25C25.7527 3.75 25.2758 3.94754 24.9242 4.29917C24.5725 4.65081 24.375 5.12772 24.375 5.625V11.25ZM45 48.75V15H15V48.75H45Z" fill="var(--fill-0, #FFFDF1)"/>
</g>
</svg>
